<svg xmlns="http://www.w3.org/2000/svg" width="50" height="50" viewBox="0 0 50 50" fill="none"><path d="M20.4849 23.3259C19.8021 24.0087 19.1441 24.6542 18.4613 25.3371C18.9828 25.8585 19.5414 26.3923 20.0877 26.9386C20.6712 27.5096 20.6712 27.7331 20.0752 28.3166C19.9759 28.4159 19.8518 28.4904 19.7028 28.6021C20.2987 29.1111 20.8201 29.5581 21.354 30.0174C24.8053 32.9721 28.269 35.9144 31.7078 38.8691C32.7879 39.7878 33.1603 40.9796 32.7755 42.3452C32.3906 43.7108 31.4223 44.5054 30.0194 44.704C28.778 44.8778 27.7724 44.3936 26.9778 43.4625C25.5998 41.8486 24.2093 40.2471 22.8313 38.6332C20.9194 36.3986 18.9952 34.1639 17.0833 31.9293C17.0088 31.8299 16.9219 31.743 16.6984 31.5072C16.5743 31.7058 16.4874 31.9169 16.3384 32.0658C15.9411 32.4755 15.6308 32.4755 15.2211 32.0658C14.6873 31.5444 14.1658 31.0106 13.6444 30.4892C13.5823 30.4271 13.5079 30.3774 13.4706 30.3402C12.8126 31.0106 12.1671 31.6437 11.4967 32.3265C11.5215 32.3638 11.596 32.4631 11.6581 32.55C12.0429 33.0714 12.0553 33.6922 11.6084 34.1639C11.0373 34.7722 10.4538 35.3681 9.83311 35.9392C9.26203 36.4606 8.57922 36.3861 7.9709 35.7902C6.89082 34.7226 5.82316 33.6425 4.74308 32.5748C3.68783 31.5196 2.63257 30.4767 1.58974 29.4215C0.795195 28.627 0.807607 27.9814 1.60215 27.1868C1.99942 26.7896 2.39669 26.4047 2.78155 26.0074C3.57609 25.2129 4.12234 25.1757 4.97895 25.8212C7.98331 22.8417 10.9753 19.8498 13.9548 16.8951C13.8182 16.5723 13.5575 16.2619 13.5575 15.9391C13.5575 15.5915 13.7065 15.1694 13.93 14.8963C14.4017 14.3252 14.9604 13.8162 15.4942 13.3072C16.115 12.7113 16.8598 12.7237 17.4682 13.332C19.6407 15.4922 21.8133 17.6648 23.9859 19.8373C24.6066 20.4581 24.6066 21.1781 23.9983 21.8113C23.5514 22.283 23.0796 22.73 22.6203 23.1893C21.8505 23.9466 21.2919 23.9714 20.4849 23.3259ZM19.4545 22.3699C17.9399 20.8553 16.4377 19.3532 14.9976 17.9131C12.0181 20.8926 9.01374 23.8845 6.04662 26.8392C7.51156 28.3042 9.01373 29.8064 10.5035 31.2961C13.4706 28.329 16.4626 25.3495 19.4545 22.3699ZM17.7289 30.7002C17.8158 30.8119 17.9027 30.9237 17.9896 31.0354C20.0132 33.3942 22.0492 35.7654 24.0728 38.1242C25.3887 39.6636 26.7047 41.2155 28.0455 42.7425C28.7531 43.5494 29.8332 43.6984 30.7022 43.1522C31.5589 42.6183 31.9437 41.5383 31.4844 40.6444C31.2609 40.1975 30.8636 39.8002 30.4788 39.465C27.5365 36.92 24.5694 34.3998 21.6147 31.8796C20.7084 31.1099 19.8021 30.3278 18.9207 29.5829C18.4986 29.9677 18.1261 30.3278 17.7289 30.7002ZM10.6152 33.3073C8.38059 31.0975 6.14594 28.9001 3.97336 26.7523C3.45195 27.2738 2.91811 27.8076 2.37186 28.3538C4.56927 30.514 6.7915 32.7238 9.03856 34.9336C9.53515 34.437 10.0566 33.8908 10.6152 33.3073ZM23.0672 20.7809C20.8822 18.6331 18.6476 16.4357 16.4501 14.2755C15.9536 14.7721 15.4073 15.306 14.8362 15.8646C17.0461 18.0372 19.2683 20.2346 21.5029 22.432C21.9995 21.8982 22.5334 21.3395 23.0672 20.7809ZM18.8834 27.671C18.4241 27.1868 17.9772 26.7027 17.5551 26.2433C16.4998 27.2986 15.4446 28.3414 14.4141 29.3718C14.8735 29.8312 15.3452 30.3029 15.7922 30.7499C16.8226 29.7194 17.8778 28.6642 18.8834 27.671Z" fill="#FF8343"/><path d="M45.9832 12.8603C44.2452 12.8603 42.5692 12.8603 40.8932 12.8603C40.5828 12.8603 40.2725 12.8479 39.9621 12.7982C38.224 12.5251 36.9205 11.1223 36.8584 9.37178C36.7963 7.6958 36.8336 6.03222 36.8336 4.35624C36.8336 4.17002 36.8336 3.99621 36.8336 3.76033C36.6225 3.74792 36.4611 3.7355 36.2998 3.7355C29.6579 3.7355 23.016 3.7355 16.3741 3.7355C14.6237 3.7355 13.6305 4.71626 13.6305 6.46674C13.6305 8.39102 13.6305 10.3029 13.6305 12.2272C13.6305 12.3761 13.6429 12.5375 13.6181 12.6865C13.5684 13.0465 13.3574 13.2452 12.9973 13.2452C12.6373 13.2452 12.4014 13.0341 12.389 12.6741C12.3642 12.103 12.3766 11.5319 12.3766 10.9609C12.3766 9.42144 12.3642 7.89443 12.3766 6.35501C12.389 4.04587 13.9657 2.4692 16.2748 2.4692C23.2395 2.4692 30.2041 2.4692 37.1812 2.45679C37.5661 2.45679 37.8516 2.56852 38.1247 2.84164C41.0298 5.7591 43.9472 8.67656 46.8771 11.5816C47.1378 11.8423 47.2495 12.1154 47.2495 12.4879C47.2371 22.8914 47.2495 33.3073 47.2371 43.7109C47.2371 46.0448 45.6604 47.6215 43.3265 47.6215C36.1632 47.6215 28.9875 47.6215 21.8242 47.6215C21.7001 47.6215 21.5759 47.6339 21.4518 47.6091C21.1166 47.547 20.9179 47.336 20.9055 47.0132C20.8931 46.678 21.0793 46.4545 21.4021 46.38C21.5759 46.3428 21.7745 46.3552 21.9608 46.3552C29.0371 46.3552 36.1135 46.3552 43.1899 46.3552C43.8231 46.3552 44.4314 46.2807 44.9528 45.8959C45.7225 45.3372 46.0081 44.5551 45.9956 43.6364C45.9956 36.9449 45.9956 30.2533 45.9956 23.5618C45.9956 20.1974 45.9956 16.8454 45.9956 13.4811C45.9832 13.2948 45.9832 13.121 45.9832 12.8603ZM38.0999 4.71627C38.0999 6.29293 38.0502 7.81994 38.1123 9.34695C38.162 10.5264 39.1551 11.5319 40.2849 11.5568C41.8119 11.6064 43.3513 11.5692 44.8907 11.5692C44.9156 11.5692 44.9404 11.5319 44.928 11.5444C42.6685 9.28488 40.409 7.0254 38.0999 4.71627Z" fill="#FF8343"/><path d="M17.5788 41.1159C17.9264 41.1159 18.212 41.1159 18.4851 41.1159C19.0438 41.1284 19.2672 41.3394 19.2672 41.9105C19.2796 42.7795 19.2796 43.6486 19.2672 44.5176C19.2672 45.0762 19.0314 45.3121 18.4727 45.3121C17.1816 45.3121 15.9028 45.3121 14.6117 45.3121C10.4528 45.3121 6.29386 45.3121 2.13493 45.3121C1.34039 45.3121 1.19141 45.1507 1.19141 44.3562C1.19141 43.5368 1.19141 42.7174 1.19141 41.8981C1.19141 41.327 1.40246 41.1284 1.98595 41.1284C2.25907 41.1284 2.54461 41.1284 2.87981 41.1284C2.87981 40.3587 2.87981 39.6262 2.87981 38.8937C2.87981 37.5529 3.57503 36.8701 4.91582 36.8701C8.45401 36.8701 11.9922 36.8701 15.5304 36.8701C16.8712 36.8701 17.5664 37.5653 17.5664 38.9061C17.5788 39.6138 17.5788 40.3338 17.5788 41.1159ZM16.3125 41.0911C16.3125 40.3462 16.3125 39.6386 16.3125 38.931C16.3125 38.2233 16.2132 38.124 15.5056 38.124C11.9798 38.124 8.46643 38.124 4.94065 38.124C4.82892 38.124 4.69236 38.0868 4.61787 38.1364C4.44407 38.2606 4.18335 38.4095 4.17094 38.5709C4.12128 39.4027 4.14611 40.2345 4.14611 41.0911C8.21813 41.0911 12.2281 41.0911 16.3125 41.0911ZM2.47012 44.0086C7.65947 44.0086 12.7992 44.0086 17.9637 44.0086C17.9637 43.4623 17.9637 42.9409 17.9637 42.4195C12.7868 42.4195 7.63464 42.4195 2.47012 42.4195C2.47012 42.9533 2.47012 43.4623 2.47012 44.0086Z" fill="#FF8343"/><path d="M24.4303 11.3827C21.6867 11.3827 18.943 11.3827 16.1994 11.3827C15.4173 11.3827 15.2559 11.2213 15.2559 10.4268C15.2559 9.02391 15.2559 7.60864 15.2559 6.20577C15.2559 5.56021 15.4669 5.36157 16.1249 5.36157C21.6867 5.36157 27.2609 5.36157 32.8227 5.36157C33.4682 5.36157 33.6793 5.57262 33.6793 6.2306C33.6793 7.65829 33.6793 9.07357 33.6793 10.5013C33.6793 11.2089 33.4807 11.3951 32.7482 11.3951C29.9797 11.3827 27.1988 11.3827 24.4303 11.3827ZM16.547 6.64029C16.547 7.79486 16.547 8.92459 16.547 10.0792C21.8357 10.0792 27.0995 10.0792 32.3757 10.0792C32.3757 8.92459 32.3757 7.78244 32.3757 6.64029C27.0995 6.64029 21.8605 6.64029 16.547 6.64029Z" fill="#FF8343"/><path d="M37.5408 27.46C40.8804 27.46 43.5744 30.154 43.5744 33.4811C43.5744 36.7958 40.868 39.5146 37.5533 39.5271C34.2261 39.5395 31.47 36.7958 31.4825 33.4687C31.4949 30.154 34.2137 27.46 37.5408 27.46ZM42.3205 33.4687C42.3081 30.8368 40.1852 28.7263 37.5533 28.7263C34.8841 28.7263 32.7488 30.8864 32.7736 33.5556C32.7984 36.1751 34.9462 38.2732 37.5905 38.2484C40.21 38.2359 42.3329 36.0882 42.3205 33.4687Z" fill="#FF8343"/><path d="M34.4524 19.5639C31.7832 19.5639 29.1141 19.5639 26.4449 19.5639C26.2959 19.5639 26.1345 19.5763 25.9856 19.5515C25.6628 19.4894 25.4517 19.2784 25.4517 18.9432C25.4393 18.608 25.6379 18.3845 25.9607 18.31C26.1097 18.2728 26.2711 18.2852 26.4201 18.2852C31.8081 18.2852 37.1836 18.2852 42.5716 18.2852C43.2544 18.2852 43.5648 18.4714 43.5772 18.9059C43.5896 19.3529 43.2668 19.5639 42.5592 19.5639C39.8528 19.5639 37.1588 19.5639 34.4524 19.5639Z" fill="#FF8343"/><path d="M34.5255 15.3678C37.2195 15.3678 39.9259 15.3678 42.6199 15.3678C42.7689 15.3678 42.9799 15.3181 43.0793 15.3926C43.2779 15.554 43.5386 15.7775 43.551 15.9761C43.551 16.1747 43.3027 16.423 43.1041 16.572C42.9924 16.6589 42.7813 16.6092 42.6075 16.6092C37.2071 16.6092 31.8067 16.6092 26.4187 16.6092C26.2697 16.6092 26.0587 16.6465 25.9594 16.572C25.7607 16.4106 25.5249 16.212 25.4752 15.9885C25.4131 15.6781 25.6366 15.4299 25.9718 15.3678C26.1208 15.3429 26.2821 15.3554 26.4311 15.3554C29.1251 15.3678 31.8191 15.3678 34.5255 15.3678Z" fill="#FF8343"/><path d="M29.9092 25.3989C28.7794 25.3989 27.6497 25.3989 26.5075 25.3989C26.3834 25.3989 26.2592 25.3989 26.1351 25.3989C25.7006 25.3616 25.4274 25.1009 25.4399 24.7409C25.4523 24.3809 25.7378 24.1326 26.1723 24.1326C27.6124 24.1326 29.0525 24.1326 30.5051 24.1326C31.5479 24.1326 32.5783 24.1326 33.6212 24.1326C34.1053 24.1326 34.3909 24.356 34.4033 24.7409C34.4157 25.1382 34.1302 25.3989 33.6212 25.4113C32.3921 25.3989 31.1506 25.3989 29.9092 25.3989Z" fill="#FF8343"/><path d="M29.9705 22.457C28.7414 22.457 27.5248 22.457 26.2957 22.457C25.7495 22.457 25.4391 22.2211 25.4515 21.8239C25.4515 21.439 25.7495 21.2031 26.2709 21.2031C28.7166 21.2031 31.1747 21.2031 33.6204 21.2031C34.1418 21.2031 34.4274 21.439 34.415 21.8363C34.415 22.2335 34.117 22.4446 33.5956 22.457C32.3914 22.457 31.1747 22.457 29.9705 22.457Z" fill="#FF8343"/></svg>