<svg xmlns="http://www.w3.org/2000/svg" width="50" height="50" viewBox="0 0 50 50" fill="none"><path d="M1.7003 23.5946C1.82164 22.733 1.88232 21.8472 2.06434 20.9978C4.01803 11.6783 9.49079 5.39252 18.6646 2.72288C30.4111 -0.686978 42.4244 5.47746 46.7929 16.8477C47.5817 18.9106 48.055 21.0463 48.2127 23.2427C48.2249 23.3641 48.2613 23.4733 48.2855 23.5825C48.2855 24.5169 48.2855 25.4634 48.2855 26.3977C48.2613 26.5312 48.2249 26.6526 48.2127 26.7861C47.9579 30.2566 46.9507 33.5087 45.2397 36.5424C45.1426 36.7123 45.1305 36.9792 45.179 37.1734C45.7251 39.2606 46.3076 41.3477 46.8657 43.4228C46.9264 43.6533 46.9871 43.896 47.0114 44.1266C47.1449 46.056 45.446 47.3908 43.5166 46.8812C41.4294 46.323 39.3422 45.7526 37.2551 45.1702C36.9395 45.0852 36.6847 45.1095 36.4056 45.2794C34.0758 46.5899 31.6003 47.4879 28.9549 47.9248C28.1176 48.0582 27.2803 48.1553 26.443 48.2767C25.4722 48.2767 24.5015 48.2767 23.5307 48.2767C23.4093 48.2524 23.3001 48.2038 23.1788 48.2038C21.0188 48.0461 18.9073 47.6214 16.9051 46.8205C8.73844 43.5684 3.77533 37.6345 2.04007 29.0188C1.87018 28.1815 1.79737 27.32 1.67603 26.4705C1.70029 25.5362 1.7003 24.5654 1.7003 23.5946ZM3.20501 25.4998C3.30208 26.4463 3.38702 27.4413 3.52051 28.4364C3.61758 29.1038 3.75106 29.7712 3.92095 30.4386C7.52496 44.3935 23.4457 51.0434 35.9202 43.7989C36.3935 43.5198 36.8182 43.4713 37.34 43.6291C39.5364 44.2479 41.7449 44.8304 43.9534 45.425C44.6208 45.607 45.179 45.3765 45.3732 44.8061C45.4581 44.5513 45.4581 44.2358 45.3853 43.9688C44.8271 41.8331 44.2568 39.6974 43.6379 37.586C43.4316 36.9064 43.5408 36.3725 43.8806 35.7536C47.3511 29.4314 47.788 22.8787 44.8393 16.3016C41.6236 9.10575 35.9445 4.84646 28.1297 3.60872C22.8875 2.77142 17.9244 3.80287 13.4589 6.66667C6.6634 11.0352 3.37489 17.4059 3.20501 25.4998Z" fill="#FF8343"/><path d="M14.551 38.5444C14.5874 39.139 14.6238 39.6608 14.6359 40.1705C14.648 40.7044 14.3932 41.0321 13.9442 41.0563C13.471 41.0927 13.1312 40.7894 13.0948 40.2554C13.022 39.1269 12.9492 37.9862 12.9006 36.8577C12.8764 36.2995 13.1555 35.9961 13.6894 35.9597C14.8058 35.8869 15.9343 35.8141 17.0507 35.7656C17.6332 35.7413 17.9851 36.0204 17.9972 36.5058C18.0093 36.9791 17.6696 37.2824 17.0992 37.3188C16.7109 37.3431 16.3105 37.3674 15.9222 37.4038C15.8736 37.4038 15.8372 37.4159 15.6916 37.4402C15.8979 37.5858 16.0314 37.7071 16.1891 37.8042C25.2174 44.0657 37.8132 39.1512 40.1795 28.4241C41.0532 24.456 40.4343 20.7064 38.3836 17.1873C38.3229 17.0781 38.2501 16.981 38.2015 16.8718C37.9831 16.4471 38.0802 16.0224 38.4442 15.7918C38.8204 15.5613 39.3058 15.6583 39.5364 16.0952C40.1188 17.2358 40.762 18.3644 41.1746 19.5778C44.4631 29.2856 38.6141 39.588 28.5544 41.7116C23.6641 42.7431 19.1379 41.748 15.0363 38.8721C14.8907 38.775 14.7572 38.6901 14.551 38.5444Z" fill="#FF8343"/><path d="M35.447 11.5447C35.4106 10.938 35.3742 10.4283 35.362 9.91867C35.3499 9.39687 35.6169 9.06923 36.078 9.04496C36.5512 9.0207 36.8789 9.31193 36.9153 9.85799C36.9881 10.9623 37.0609 12.0665 37.1094 13.1708C37.1458 13.8382 36.8789 14.1173 36.2115 14.1537C35.1315 14.2144 34.0636 14.2872 32.9836 14.3478C32.3526 14.3842 32.0128 14.1173 31.9886 13.6198C31.9764 13.1222 32.3041 12.831 32.923 12.8067C33.3598 12.7825 33.7967 12.7461 34.3185 12.7218C34.1607 12.5883 34.0757 12.5034 33.9908 12.4427C24.7563 5.80499 11.5416 11.2413 9.69708 22.4417C9.06608 26.2277 9.74562 29.7832 11.7114 33.0839C11.9056 33.4236 12.0512 33.7755 11.7721 34.091C11.6022 34.2731 11.2746 34.4308 11.044 34.3944C10.8135 34.358 10.5465 34.1275 10.4009 33.8969C9.0418 31.7005 8.20451 29.31 7.99822 26.7374C7.5371 21.1797 9.29663 16.4107 13.3739 12.5762C19.3078 7.00633 28.4574 6.48453 35.0101 11.2656C35.1436 11.3506 35.2649 11.4234 35.447 11.5447Z" fill="#FF8343"/><path d="M14.721 28.145C15.7768 28.145 16.8446 28.145 17.9003 28.145C18.4585 28.145 18.8104 28.4969 18.7862 28.958C18.7619 29.3706 18.4464 29.6861 18.0096 29.6861C16.4684 29.6982 14.9152 29.6982 13.3741 29.6861C12.8644 29.6861 12.5732 29.3463 12.5853 28.8367C12.5975 28.2178 12.8159 27.6596 13.277 27.2592C13.7988 26.8102 14.3934 26.434 14.9637 26.0336C15.5341 25.6331 16.1651 25.3055 16.6626 24.8322C17.5727 23.9949 17.3907 22.6116 16.3714 22.114C15.437 21.6408 14.3206 22.2232 14.1628 23.2547C14.1507 23.3639 14.1386 23.461 14.1264 23.5702C14.0415 24.0435 13.7139 24.2983 13.2649 24.2497C12.8523 24.2012 12.5853 23.8857 12.5853 23.4246C12.5732 21.8956 13.8837 20.5001 15.4248 20.403C16.7475 20.3302 17.779 20.852 18.41 22.0048C19.0531 23.1819 18.9803 24.4075 18.143 25.4511C17.6455 26.07 16.9417 26.5432 16.2864 27.0165C15.7768 27.3926 15.2186 27.6717 14.6725 27.9994C14.6846 28.0601 14.6968 28.0965 14.721 28.145Z" fill="#FF8343"/><path d="M23.3974 27.3806C22.5601 27.3806 21.7228 27.3806 20.8977 27.3806C20.7278 27.3806 20.5579 27.3927 20.4001 27.3806C19.6963 27.332 19.3687 26.7738 19.7085 26.1671C20.7035 24.3833 21.7228 22.6238 22.7422 20.8521C22.997 20.4152 23.4338 20.2818 23.8221 20.488C24.2226 20.7065 24.3439 21.1676 24.0891 21.6287C23.3853 22.8786 22.6693 24.1163 21.9534 25.3662C21.8806 25.4876 21.8199 25.621 21.7228 25.8031C22.3174 25.8031 22.8635 25.8031 23.4338 25.8031C23.5066 25.1842 23.2397 24.3712 24.2347 24.2984C24.7687 24.262 24.9264 24.5896 25.0356 25.8395C25.2783 25.8395 25.5331 25.8273 25.7758 25.8395C26.237 25.8759 26.5282 26.155 26.5525 26.5675C26.5767 26.9923 26.2734 27.332 25.8001 27.3684C25.5574 27.3927 25.3147 27.3684 25.0113 27.3684C25.0113 27.8417 25.0113 28.2907 25.0113 28.7397C25.0113 29.3585 24.7201 29.6983 24.2226 29.6862C23.7372 29.674 23.4702 29.3464 23.4581 28.7518C23.4581 28.3392 23.4581 27.9388 23.446 27.5262C23.446 27.5019 23.4217 27.4777 23.3974 27.3806Z" fill="#FF8343"/><path d="M36.1383 21.9564C35.2282 21.9564 34.4152 21.9928 33.6022 21.9321C33.3473 21.92 33.0197 21.7258 32.8741 21.5074C32.7649 21.3375 32.8013 20.9613 32.9226 20.755C33.0318 20.573 33.3352 20.4153 33.5536 20.4153C34.8156 20.3789 36.0655 20.391 37.3275 20.4031C38.0677 20.4153 38.3832 20.9613 38.0435 21.653C36.9635 23.8251 35.8714 26.0094 34.7792 28.1815C34.6093 28.5213 34.4516 28.861 34.2696 29.1887C34.0269 29.6377 33.6143 29.7954 33.2138 29.6134C32.8013 29.4192 32.6557 28.9702 32.8862 28.497C33.8813 26.4948 34.8885 24.4925 35.8956 22.5024C35.9684 22.3447 36.0412 22.1869 36.1383 21.9564Z" fill="#FF8343"/><path d="M31.2611 20.2939C31.0669 21.0948 30.8971 21.7865 30.7272 22.4782C30.1204 24.8809 29.5258 27.2835 28.9191 29.6741C28.907 29.7226 28.8948 29.759 28.8827 29.8076C28.7371 30.3051 28.373 30.5478 27.9483 30.4507C27.4872 30.3415 27.2566 29.9653 27.378 29.4314C27.5479 28.7154 27.7299 27.9995 27.9119 27.2835C28.4822 24.9901 29.0647 22.6845 29.6472 20.391C29.7079 20.1726 29.8171 19.8813 29.9991 19.7964C30.2175 19.6751 30.5694 19.6387 30.7878 19.7357C30.9941 19.8207 31.1276 20.124 31.2611 20.2939Z" fill="#FF8343"/></svg>