<svg xmlns="http://www.w3.org/2000/svg" width="50" height="50" viewBox="0 0 50 50" fill="none"><path d="M9.59731 30.638C10.1611 30.638 10.6577 30.6514 11.1544 30.638C15.047 30.5037 18.6174 31.4836 21.8389 33.6984C21.9866 33.8057 22.2148 33.8326 22.4027 33.8326C23.8255 33.846 25.2617 33.8192 26.6846 33.846C29.7584 33.9265 32.1745 36.195 32.4698 39.2688C32.4832 39.3628 32.5101 39.4567 32.5369 39.591C33.4094 39.6581 34.2282 39.8057 35.1141 39.5239C38.2819 38.4769 41.4631 37.497 44.6443 36.5037C47.2752 35.6849 50 37.5641 50 40.1816C50 40.6111 49.8389 40.8796 49.4228 41.0138C43.1544 43.1883 36.8993 45.3896 30.6175 47.5104C29.3557 47.94 28.0134 48.1547 26.6846 48.3024C25.1409 48.4769 23.6778 47.8863 22.2148 47.4567C18.1745 46.2487 14.1342 45.0406 10.0805 43.8192C9.91947 43.7655 9.75839 43.7386 9.50335 43.6715C9.50335 44.0876 9.50335 44.4635 9.50335 44.8393C9.48993 45.5104 9.26174 45.752 8.5906 45.752C6.04027 45.7655 3.48993 45.7655 0.939597 45.752C0.228188 45.752 0 45.5104 0 44.8259C0 39.5373 0 34.2487 0 28.9467C0 28.2218 0.22819 27.9937 0.966444 27.9937C3.51678 27.9937 6.06711 27.9937 8.61745 27.9937C9.35571 27.9937 9.58389 28.2218 9.58389 28.9467C9.61074 29.4836 9.59731 30.0205 9.59731 30.638ZM9.55705 32.3158C9.54362 32.4232 9.5302 32.5037 9.5302 32.5843C9.5302 35.6312 9.5302 38.6782 9.51678 41.7252C9.51678 42.0608 9.67786 42.1279 9.94631 42.2084C14.3356 43.5239 18.7383 44.8527 23.1275 46.1682C24.2685 46.5172 25.4094 46.8393 26.6174 46.8259C28.2148 46.799 29.7315 46.3561 31.2215 45.8326C36.8725 43.8729 42.5101 41.8863 48.1476 39.9131C48.2416 39.8863 48.3222 39.8326 48.3893 39.7923C48.0671 38.289 46.5772 37.497 45.0067 37.9937C41.745 39.0138 38.4966 40.0473 35.2215 41.0406C34.6711 41.2017 34.0671 41.2823 33.5034 41.242C29.6107 40.9735 25.7047 40.6514 21.8121 40.3963C21.1678 40.3561 20.7651 39.8594 20.7919 39.5104C20.8322 39.0675 21.302 38.7856 21.9195 38.8393C24.1611 39.0138 26.4027 39.1883 28.6443 39.3494C29.3423 39.4031 30.0403 39.4433 30.7785 39.4836C30.7517 39.2554 30.7517 39.0809 30.7114 38.9198C30.2953 36.9198 28.5772 35.4836 26.5235 35.4433C25.0336 35.4165 23.5302 35.4567 22.0403 35.4165C21.651 35.4031 21.2081 35.2688 20.8859 35.0406C17.4899 32.6514 13.6644 32.0071 9.55705 32.3158ZM7.94631 44.2621C7.94631 39.3896 7.94631 34.5708 7.94631 29.7386C5.81208 29.7386 3.71812 29.7386 1.59732 29.7386C1.59732 34.5977 1.59732 39.4165 1.59732 44.2621C3.71812 44.2621 5.81208 44.2621 7.94631 44.2621Z" fill="#FF8343"/><path d="M25.074 21.591C22.8727 23.2017 20.6982 24.7856 18.5103 26.3695C18.4297 26.4232 18.3492 26.4903 18.2687 26.544C17.6915 26.9467 17.2754 26.987 16.8324 26.6782C16.3895 26.3561 16.2418 25.8192 16.4432 25.1883C17.0606 23.2823 17.6781 21.3762 18.2955 19.4702C18.4969 18.8393 18.6848 18.195 18.9264 17.5641C19.0472 17.242 18.9801 17.0675 18.6982 16.8662C16.564 15.3359 14.4432 13.7789 12.3224 12.2219C11.7452 11.7923 11.5438 11.3225 11.7049 10.7588C11.866 10.2353 12.3224 9.9534 13.0606 9.9534C15.6646 9.9534 18.2552 9.93997 20.8593 9.96682C21.262 9.96682 21.4365 9.85944 21.5707 9.47017C22.3492 6.98695 23.168 4.50373 23.9734 2.03393C24.1881 1.36279 24.5774 1.0138 25.1143 1.00037C25.6646 0.98695 26.0807 1.33594 26.3089 2.02051C27.1412 4.544 27.9868 7.06749 28.8056 9.59098C28.913 9.93998 29.074 10.0474 29.4365 10.0474C32.0673 10.0339 34.6982 10.0339 37.3425 10.0339C38.0405 10.0339 38.4969 10.3158 38.6579 10.8259C38.819 11.3359 38.6445 11.7252 38.0807 12.1413C35.9599 13.6984 33.8257 15.242 31.7049 16.7856C31.5573 16.893 31.4096 17.0138 31.2485 17.1346C31.7989 18.9333 32.3358 20.7185 32.8861 22.5037C33.1546 23.3628 33.4096 24.2353 33.6781 25.0943C33.7183 25.242 33.7586 25.3896 33.7854 25.5373C33.8526 26.0339 33.6915 26.4366 33.262 26.6917C32.819 26.9601 32.4029 26.893 32.0002 26.5977C29.9063 25.0675 27.7989 23.5373 25.7049 22.0071C25.5036 21.8997 25.3156 21.7655 25.074 21.591ZM36.1076 11.6447C36.0942 11.6044 36.0807 11.5776 36.0673 11.5373C35.8794 11.5373 35.7049 11.5373 35.517 11.5373C33.3022 11.5373 31.0875 11.5373 28.8727 11.5373C28.0002 11.5373 27.6781 11.2957 27.4096 10.4635C26.7116 8.31581 26.0136 6.16816 25.3157 4.02051C25.2754 3.8997 25.2217 3.7789 25.1411 3.56413C24.376 5.93997 23.6378 8.20843 22.8995 10.4903C22.6445 11.2957 22.3089 11.5373 21.4633 11.5373C19.2083 11.5373 16.9667 11.5373 14.7116 11.5373C14.5506 11.5373 14.3895 11.5373 14.1076 11.5373C14.3358 11.7252 14.4566 11.8192 14.5908 11.9131C16.3895 13.2151 18.1747 14.5037 19.9734 15.8057C20.7922 16.3964 20.913 16.7453 20.6042 17.6849C20.0002 19.5641 19.3962 21.4433 18.7787 23.3225C18.6579 23.6984 18.5505 24.0742 18.3895 24.5843C18.6311 24.4232 18.7653 24.3427 18.8861 24.2487C20.6982 22.9198 22.5103 21.591 24.3224 20.2755C25.0338 19.7521 25.3291 19.7521 26.0405 20.2621C27.866 21.591 29.6915 22.9333 31.517 24.2756C31.6378 24.3695 31.772 24.4366 31.9868 24.5709C31.9197 24.3427 31.8928 24.2353 31.8526 24.1279C31.1546 21.9668 30.4566 19.8058 29.7586 17.6313C29.4901 16.799 29.6109 16.4098 30.3089 15.8997C30.7116 15.6044 31.1143 15.3091 31.5304 15.0138C33.0606 13.8729 34.5774 12.7588 36.1076 11.6447Z" fill="#FF8343"/><path d="M8.6714 24.0071C7.51704 24.8259 6.42979 25.6312 5.30227 26.3963C5.07408 26.5574 4.80563 26.6916 4.53717 26.7185C3.78549 26.799 3.30227 26.1682 3.53046 25.4567C3.93314 24.195 4.34926 22.9467 4.77879 21.6984C4.89959 21.3628 4.83248 21.2017 4.5506 21.0004C3.51704 20.289 2.51032 19.5373 1.47677 18.8124C1.06066 18.5171 0.778785 18.195 0.926436 17.6447C1.07409 17.148 1.4365 16.9064 2.09422 16.893C3.32912 16.893 4.57744 16.8796 5.81234 16.893C6.18818 16.9064 6.36267 16.799 6.47006 16.4098C6.80563 15.2017 7.19489 14.0071 7.57073 12.8124C7.77207 12.1816 8.06737 11.9131 8.56401 11.9131C9.03381 11.9131 9.38281 12.2218 9.58415 12.799C9.98684 14.0071 10.4029 15.2017 10.7922 16.4098C10.8862 16.7185 11.0338 16.8259 11.356 16.8259C12.6311 16.8124 13.9063 16.8124 15.1815 16.8259C15.7452 16.8259 16.1748 17.0809 16.309 17.497C16.4701 17.9668 16.2821 18.4903 15.8258 18.8124C14.8056 19.5507 13.7855 20.289 12.7519 21.0004C12.4835 21.1883 12.4298 21.3494 12.5372 21.6581C12.9399 22.8259 13.3291 24.0071 13.7184 25.1749C13.9197 25.7789 13.8123 26.2621 13.4231 26.544C13.0472 26.8125 12.5506 26.7722 12.0271 26.3963C10.9264 25.6312 9.81234 24.8259 8.6714 24.0071ZM13.3828 18.5708C13.3157 18.5171 13.2888 18.4903 13.262 18.4903C12.4969 18.4903 11.7184 18.4769 10.9533 18.4769C9.89288 18.4769 9.71838 18.3427 9.38281 17.3091C9.1412 16.5574 8.88617 15.8057 8.64456 15.0675C8.25529 15.9265 7.98683 16.7722 7.69153 17.6178C7.47677 18.2621 7.18147 18.4635 6.4969 18.4635C6.10764 18.4635 5.7318 18.4635 5.34254 18.4635C4.83247 18.4635 4.33583 18.4635 3.82576 18.4635C4.51032 19.0541 5.20831 19.5507 5.9063 20.0473C6.56402 20.5171 6.63113 20.7453 6.40294 21.4836C6.13449 22.3561 5.8526 23.2151 5.54388 24.2218C6.38952 23.6178 7.12778 23.0809 7.86603 22.5574C8.42979 22.1682 8.76536 22.1682 9.32912 22.5708C10.0539 23.0943 10.7922 23.6178 11.6244 24.2084C11.3291 23.3091 11.0741 22.5306 10.8325 21.7655C10.5506 20.9064 10.658 20.5708 11.3694 20.0473C12.0405 19.5641 12.7117 19.0675 13.3828 18.5708Z" fill="#FF8343"/><path d="M45.5436 21.2822C46 22.6379 46.443 23.9668 46.8725 25.2957C47.1544 26.1681 46.5906 26.893 45.745 26.7185C45.5436 26.6782 45.3423 26.544 45.1678 26.4232C44.0403 25.6312 42.9262 24.8259 41.7852 24.0071C40.6846 24.7856 39.5973 25.5641 38.5101 26.3426C38.3624 26.45 38.2148 26.5574 38.0403 26.6379C37.6242 26.8259 37.2215 26.7856 36.8725 26.4634C36.5504 26.1681 36.4967 25.8191 36.6443 25.4165C37.0739 24.1681 37.4765 22.9064 37.9061 21.6581C38.0134 21.3628 37.9597 21.2151 37.7047 21.0406C36.6443 20.3024 35.6108 19.5373 34.5503 18.799C34.1477 18.5171 33.8792 18.195 34.0269 17.6715C34.1611 17.2017 34.5772 16.9198 35.1544 16.9198C36.4295 16.9064 37.7047 16.9064 38.9799 16.9198C39.3289 16.9198 39.4765 16.8259 39.5705 16.4903C39.9195 15.2688 40.3087 14.0608 40.6846 12.8527C40.8859 12.2218 41.1812 11.9534 41.6779 11.9534C42.1477 11.9534 42.4967 12.2621 42.698 12.8527C43.1007 14.0608 43.5168 15.2554 43.8926 16.4634C43.9866 16.7722 44.1342 16.8795 44.4564 16.8661C45.7316 16.8527 47.0067 16.8661 48.2819 16.8527C48.8188 16.8393 49.2081 17.0406 49.396 17.5373C49.5839 17.9936 49.3826 18.5171 48.9128 18.8527C47.8255 19.6581 46.698 20.4634 45.5436 21.2822ZM41.7852 15.0809C41.745 15.0809 41.7047 15.0809 41.6644 15.0809C41.3826 15.9534 41.1007 16.8259 40.8054 17.6849C40.6175 18.2487 40.3087 18.4634 39.7181 18.4769C39.2483 18.4903 38.7785 18.4769 38.3087 18.4769C37.8524 18.4769 37.396 18.4769 36.8054 18.4769C37.6779 19.148 38.4295 19.7252 39.1678 20.2889C39.5436 20.5708 39.6644 20.9332 39.5168 21.3896C39.2483 22.1681 39.0067 22.9467 38.7651 23.7252C38.7248 23.8326 38.7249 23.9534 38.6712 24.1816C39.4497 23.6178 40.1343 23.1346 40.8054 22.6514C41.5168 22.1413 41.8255 22.1413 42.5235 22.6379C43.2349 23.1346 43.9329 23.6447 44.7517 24.2218C44.443 23.242 44.1611 22.3963 43.8926 21.5373C43.7047 20.9467 43.8524 20.544 44.3356 20.1681C44.792 19.8191 45.2483 19.497 45.7047 19.148C45.9732 18.9467 46.2282 18.7453 46.604 18.4634C45.6242 18.4634 44.8054 18.4634 43.9866 18.4634C43.0873 18.4634 42.8188 18.2621 42.5369 17.3896C42.2819 16.6379 42.0269 15.8594 41.7852 15.0809Z" fill="#FF8343"/></svg>