<svg xmlns="http://www.w3.org/2000/svg" width="50" height="50" viewBox="0 0 50 50" fill="none"><path d="M9.09375 8.112C9.09375 6.67971 9.09375 5.33856 9.09375 3.99742C9.09375 3.07294 9.39323 2.77346 10.3177 2.77346C17.2318 2.77346 24.1458 2.77346 31.0599 2.76044C31.5677 2.76044 31.9453 2.92971 32.3099 3.28127C34.5104 5.49481 36.7109 7.70835 38.9375 9.89585C39.3021 10.2604 39.4583 10.638 39.4453 11.1459C39.4193 12.5391 39.4323 13.9323 39.4323 15.2995C45.3307 16.9792 48.599 20.6771 48.2865 26.9401C48.0911 30.9505 44.9661 35.4558 39.4323 36.5104C39.4323 37.8776 39.4323 39.2578 39.4323 40.638C39.4323 41.7578 39.1979 41.9922 38.0911 41.9922C37.375 41.9922 36.6589 41.9922 35.8906 41.9922C35.8776 42.1875 35.8646 42.3568 35.8646 42.5261C35.8646 43.75 35.8646 44.961 35.8646 46.1849C35.8646 47.0183 35.5521 47.3307 34.7057 47.3307C24.7578 47.3307 14.8229 47.3307 4.875 47.3307C4.01562 47.3307 3.70312 47.0183 3.70312 46.1459C3.70312 33.8672 3.70312 21.5886 3.70312 9.30992C3.70312 8.41148 4.00261 8.112 4.90104 8.112C6.29427 8.09898 7.66146 8.112 9.09375 8.112ZM30.526 4.59638C23.9635 4.59638 17.4531 4.59638 10.9167 4.59638C10.9167 16.4714 10.9167 28.3073 10.9167 40.1563C19.849 40.1563 28.7292 40.1563 37.6354 40.1563C37.6354 38.9714 37.6354 37.8255 37.6354 36.6797C31.8802 36.6797 27.1276 32.0183 26.9453 26.2891C26.8672 23.711 27.6094 21.3802 29.2109 19.362C31.3464 16.6667 34.1979 15.3386 37.6224 15.2344C37.6224 14.0365 37.6224 12.8776 37.6224 11.6927C35.6302 11.6927 33.6771 11.6927 31.724 11.6927C30.7995 11.6927 30.513 11.4193 30.513 10.5078C30.513 9.01044 30.513 7.52606 30.513 6.02867C30.526 5.55992 30.526 5.09117 30.526 4.59638ZM28.7422 25.8985C28.6641 30.7683 32.6745 34.7917 37.6615 34.8438C42.4661 34.8959 46.5156 30.9505 46.5937 26.1198C46.6719 21.1849 42.7917 17.1354 37.8828 17.0443C32.8438 16.9531 28.8203 20.8594 28.7422 25.8985ZM34.0677 41.9922C33.8073 41.9922 33.5859 41.9922 33.3776 41.9922C25.7344 41.9922 18.0781 41.9922 10.4349 41.9922C9.34115 41.9922 9.08073 41.7448 9.08073 40.638C9.08073 30.612 9.08073 20.599 9.08073 10.5729C9.08073 10.3646 9.08073 10.1563 9.08073 9.93492C7.86979 9.93492 6.72396 9.93492 5.55208 9.93492C5.55208 21.8099 5.55208 33.6459 5.55208 45.4948C15.0703 45.4948 24.5625 45.4948 34.0547 45.4948C34.0677 44.3229 34.0677 43.1901 34.0677 41.9922ZM32.3359 5.96356C32.3359 7.25263 32.3359 8.55471 32.3359 9.86981C33.6641 9.86981 34.9662 9.86981 36.2682 9.86981C34.9531 8.55471 33.651 7.26565 32.3359 5.96356Z" fill="#FF8343"/><path d="M20.7086 8.11202C22.4144 8.11202 24.1201 8.08598 25.8258 8.12504C26.1513 8.13806 26.542 8.28129 26.7633 8.50264C27.18 8.94535 26.8935 9.68754 26.2946 9.84379C26.0993 9.89587 25.8779 9.89587 25.6696 9.89587C22.3493 9.89587 19.042 9.89587 15.7216 9.89587C15.6435 9.89587 15.5654 9.89587 15.4743 9.89587C14.8623 9.86983 14.4586 9.51827 14.4456 9.01046C14.4326 8.48962 14.8493 8.099 15.4873 8.099C17.2321 8.099 18.9769 8.11202 20.7086 8.11202Z" fill="#FF8343"/><path d="M20.7114 15.2344C19.0317 15.2344 17.3651 15.2344 15.6854 15.2344C15.5291 15.2344 15.3598 15.2344 15.2036 15.2214C14.7609 15.1563 14.5135 14.8698 14.4614 14.4401C14.4093 14.0365 14.6046 13.711 14.9953 13.5547C15.1906 13.4766 15.4119 13.4636 15.6072 13.4636C18.9927 13.4636 22.3651 13.4636 25.7505 13.4636C25.8416 13.4636 25.9458 13.4636 26.0369 13.4636C26.5838 13.5026 26.9354 13.8672 26.9223 14.362C26.9223 14.8568 26.5578 15.2214 26.0109 15.2214C25.2427 15.2344 24.4875 15.2214 23.7192 15.2214C22.7296 15.2344 21.727 15.2344 20.7114 15.2344Z" fill="#FF8343"/><path d="M17.0013 27.2136C17.8737 26.3542 18.681 25.5469 19.4883 24.7526C19.6185 24.6224 19.7357 24.4922 19.8789 24.3881C20.2826 24.0756 20.7904 24.1016 21.1159 24.4532C21.4284 24.7917 21.4544 25.2995 21.1159 25.6511C19.9831 26.8099 18.8242 27.9558 17.6654 29.0886C17.2878 29.4532 16.819 29.4271 16.4414 29.0625C15.8685 28.5157 15.2956 27.9558 14.7487 27.3828C14.3711 26.9792 14.3841 26.4714 14.7357 26.1198C15.1003 25.7683 15.5951 25.7552 15.9987 26.1459C16.3372 26.4714 16.6497 26.849 17.0013 27.2136Z" fill="#FF8343"/><path d="M17.0006 34.336C17.86 33.4896 18.6673 32.6954 19.4746 31.8881C19.6178 31.7448 19.748 31.6016 19.9042 31.4974C20.3079 31.198 20.7766 31.237 21.0891 31.5756C21.4016 31.9141 21.4277 32.3959 21.1022 32.7735C20.8157 33.099 20.4902 33.3985 20.1777 33.711C19.3834 34.5052 18.5891 35.2995 17.7949 36.0808C17.261 36.6146 16.8183 36.6016 16.2845 36.0808C15.7897 35.586 15.2949 35.1042 14.8001 34.5964C14.3574 34.1537 14.3313 33.6459 14.7089 33.2552C15.0735 32.8776 15.6074 32.9037 16.0501 33.3334C16.3756 33.6459 16.6751 33.9844 17.0006 34.336Z" fill="#FF8343"/><path d="M18.0521 20.586C17.1927 20.586 16.3333 20.586 15.4609 20.586C14.849 20.586 14.4453 20.2214 14.4453 19.7005C14.4453 19.1797 14.849 18.8151 15.4609 18.8151C17.1667 18.8151 18.8724 18.8151 20.5781 18.8151C21.2031 18.8151 21.5807 19.1667 21.5807 19.7005C21.5807 20.2474 21.2162 20.5729 20.5781 20.586C19.7318 20.586 18.8984 20.586 18.0521 20.586Z" fill="#FF8343"/><path d="M36.281 27.474C37.8435 25.9115 39.393 24.349 40.9425 22.7995C41.0857 22.6563 41.2159 22.513 41.3722 22.4089C41.7628 22.1354 42.2185 22.1875 42.531 22.513C42.8305 22.8255 42.8566 23.3073 42.5961 23.6719C42.518 23.7761 42.4269 23.8672 42.3357 23.9584C40.6039 25.6901 38.8592 27.4219 37.1274 29.1537C36.4763 29.8047 36.0857 29.8047 35.4347 29.1537C34.6274 28.3464 33.8201 27.5521 33.0258 26.7448C32.518 26.237 32.4529 25.6901 32.8566 25.2995C33.2602 24.8959 33.768 24.974 34.3019 25.4948C34.9399 26.1589 35.6039 26.7969 36.281 27.474Z" fill="#FF8343"/></svg>