<svg xmlns="http://www.w3.org/2000/svg" width="50" height="50" viewBox="0 0 50 50" fill="none"><path d="M50 13.7196C49.8577 14.4005 49.7561 15.0915 49.563 15.7623C48.1504 20.7724 43.5976 24.1972 38.3943 24.1667C38.252 24.1667 38.0996 24.1667 37.876 24.1667C37.876 24.37 37.876 24.5529 37.876 24.7359C37.876 30.5793 37.8862 36.4228 37.876 42.2663C37.876 45.4574 35.7825 48.0285 32.6829 48.6281C32.0224 48.7602 31.3211 48.7501 30.6402 48.7501C22.6016 48.7602 14.563 48.7602 6.52439 48.7501C2.81504 48.7501 0 45.935 0 42.2359C0 41.1586 0 40.0915 0 39.0143C0 38.2826 0.26423 38.0184 1.0061 38.0184C2.65244 38.0082 4.28862 38.0184 5.93496 38.0184C6.10773 38.0184 6.29065 38.0184 6.52439 38.0184C6.53455 37.8253 6.55488 37.6525 6.55488 37.4798C6.61585 28.3334 6.67683 19.1871 6.74797 10.0407C6.75813 8.95333 6.97155 8.73992 8.06911 8.73992C14.4309 8.73992 20.7927 8.73992 27.1545 8.75008C27.5305 8.75008 27.7032 8.64846 27.8557 8.2826C29.685 3.87203 34.0955 1.00618 38.811 1.13829C44.4715 1.30089 49.248 5.65049 49.8984 11.2501C49.9085 11.3619 49.9594 11.4635 49.9898 11.5651C50 12.2867 50 13.0082 50 13.7196ZM8.18089 38.0184C8.44512 38.0184 8.63821 38.0184 8.82114 38.0184C14.4512 38.0184 20.0813 38.0184 25.7114 38.0184C26.4939 38.0184 26.7276 38.2521 26.7378 39.0346C26.7378 40.1728 26.7175 41.3111 26.748 42.4493C26.8089 45.0712 28.9126 47.1241 31.5244 47.1139C34.1057 47.1037 36.2195 45.0509 36.2297 42.4391C36.2602 36.4025 36.2398 30.3659 36.25 24.3293C36.25 24.0245 36.1484 23.9228 35.8537 23.8517C33.0081 23.1505 30.7317 21.5956 29.065 19.1769C28.9024 18.9432 28.7297 18.872 28.4654 18.872C26.687 18.8822 24.9187 18.872 23.1402 18.872C22.2256 18.872 21.3211 18.8822 20.4065 18.872C19.7663 18.8619 19.3598 18.3537 19.5528 17.805C19.7155 17.3578 20.0813 17.2359 20.5285 17.2359C22.3882 17.246 24.2378 17.2359 26.0976 17.2359C26.6972 17.2359 27.2967 17.2359 27.9675 17.2359C27.0122 15.0001 26.7886 12.744 27.2053 10.4066C20.9045 10.4066 14.6545 10.4066 8.37399 10.4066C8.30285 19.6139 8.24187 28.7806 8.18089 38.0184ZM38.4756 22.5407C43.9228 22.5611 48.3435 18.1708 48.374 12.6932C48.4045 7.2765 44.0041 2.80496 38.5976 2.78463C33.1098 2.75415 28.6484 7.14439 28.6179 12.6017C28.5874 18.0895 32.9878 22.5204 38.4756 22.5407ZM1.62602 39.6546C1.62602 40.62 1.59553 41.5651 1.63618 42.5001C1.7378 45.1424 3.77033 47.1139 6.40244 47.1241C13.2012 47.1342 20 47.1241 26.7988 47.1241C26.9106 47.1241 27.0224 47.1037 27.0122 47.1037C26.5346 46.3212 25.9451 45.5895 25.6098 44.746C25.2947 43.9533 25.2033 43.0489 25.122 42.185C25.0407 41.3517 25.1016 40.5082 25.1016 39.6546C17.2459 39.6546 9.46138 39.6546 1.62602 39.6546Z" fill="#FF8343"/><path d="M25.679 33.049C23.9412 33.049 22.1932 33.049 20.4554 33.049C19.9066 33.049 19.5712 32.7746 19.5204 32.3173C19.4696 31.799 19.8253 31.4331 20.4351 31.423C21.431 31.4128 22.4168 31.423 23.4127 31.423C25.8416 31.423 28.2603 31.423 30.6891 31.423C30.8314 31.423 30.9838 31.4128 31.1261 31.4331C31.6139 31.4839 31.929 31.8193 31.9188 32.2563C31.9086 32.6933 31.5733 33.0388 31.0956 33.049C30.1505 33.0693 29.2054 33.0592 28.2603 33.0592C27.4066 33.049 26.5428 33.049 25.679 33.049Z" fill="#FF8343"/><path d="M25.7277 24.3497C27.5062 24.3497 29.2745 24.3497 31.0529 24.3497C31.5814 24.3497 31.9167 24.6648 31.9269 25.1322C31.9371 25.5896 31.6017 25.9148 31.0834 25.9554C30.9411 25.9656 30.7887 25.9554 30.6464 25.9554C28.2989 25.9554 25.9615 25.9554 23.6139 25.9554C22.557 25.9554 21.5001 25.9554 20.4432 25.9554C20.0062 25.9554 19.6708 25.7928 19.5489 25.3558C19.3964 24.8172 19.7826 24.3497 20.4127 24.3497C22.181 24.3497 23.9493 24.3497 25.7277 24.3497Z" fill="#FF8343"/><path d="M17.7043 18.1099C17.7043 19.492 16.5559 20.6201 15.1433 20.6302C13.7205 20.6404 12.5112 19.4717 12.5315 18.0997C12.5417 16.7278 13.7205 15.5997 15.1331 15.5997C16.5457 15.5997 17.7043 16.7278 17.7043 18.1099ZM15.1026 18.994C15.6311 19.0042 16.0783 18.618 16.0986 18.1302C16.1087 17.6526 15.6717 17.2359 15.1433 17.2257C14.6047 17.2156 14.1677 17.6018 14.1575 18.0896C14.1474 18.5875 14.564 18.9839 15.1026 18.994Z" fill="#FF8343"/><path d="M17.6986 25.1525C17.6986 26.5346 16.5502 27.6627 15.1275 27.6729C13.7047 27.683 12.5055 26.5143 12.5157 25.1424C12.5259 23.7704 13.7047 22.6424 15.1173 22.6525C16.5502 22.6525 17.6986 23.7704 17.6986 25.1525ZM15.1376 26.0367C15.6763 26.0265 16.1031 25.6302 16.0929 25.1424C16.0828 24.6647 15.6254 24.2684 15.1072 24.2786C14.5787 24.2887 14.1519 24.6952 14.162 25.183C14.162 25.6607 14.5889 26.0367 15.1376 26.0367Z" fill="#FF8343"/><path d="M17.6986 32.1851C17.6986 33.5672 16.5604 34.6952 15.1376 34.7054C13.7047 34.7155 12.5055 33.5672 12.5157 32.1749C12.5259 30.8029 13.6945 29.6851 15.1173 29.6851C16.5502 29.6952 17.6986 30.8029 17.6986 32.1851ZM15.1173 33.0692C15.6559 33.0692 16.0929 32.6729 16.0929 32.1952C16.0929 31.7176 15.6458 31.3111 15.1173 31.3009C14.5889 31.3009 14.1519 31.6973 14.1519 32.1851C14.1519 32.683 14.5787 33.0692 15.1173 33.0692Z" fill="#FF8343"/><path d="M39.1697 18.6587C39.1697 18.9839 39.19 19.2786 39.1697 19.5632C39.129 19.99 38.814 20.2745 38.3871 20.2745C37.9603 20.2745 37.5538 19.99 37.6046 19.5733C37.6961 18.801 37.3302 18.5164 36.7001 18.1912C35.6432 17.6323 35.0945 16.6567 35.0335 15.4371C35.003 14.8579 35.2875 14.5123 35.7754 14.4819C36.2733 14.4514 36.568 14.7461 36.6392 15.3254C36.7611 16.3314 37.3709 16.9819 38.2957 17.0733C39.1392 17.1546 39.9115 16.6363 40.1656 15.8233C40.501 14.7867 39.8302 13.6892 38.7632 13.5062C38.3465 13.4351 37.9197 13.4351 37.5132 13.3233C36.192 12.9676 35.1859 11.7786 35.0538 10.4676C34.9014 8.97373 35.5924 7.60177 36.9034 7.00218C37.4217 6.76844 37.6554 6.52454 37.5945 5.94527C37.5436 5.46763 37.879 5.15259 38.3058 5.1221C38.8038 5.08145 39.2002 5.41682 39.1697 5.94527C39.129 6.50421 39.3323 6.72779 39.8506 6.94121C41.0904 7.4595 41.7408 8.48592 41.8831 9.81722C41.944 10.3965 41.6392 10.7928 41.1615 10.8436C40.6737 10.8945 40.3282 10.5591 40.2672 9.96966C40.1351 8.85178 39.3729 8.18104 38.3058 8.25218C37.3912 8.31316 36.6493 9.12616 36.6595 10.051C36.6697 11.0367 37.442 11.7989 38.4684 11.8599C40.3282 11.9615 41.6087 13.0997 41.8729 14.868C42.1067 16.4636 41.1006 17.988 39.4237 18.5774C39.3526 18.5977 39.2916 18.618 39.1697 18.6587Z" fill="#FF8343"/></svg>