<svg width="161" height="51" viewBox="0 0 161 51" fill="none" xmlns="http://www.w3.org/2000/svg">
<g clip-path="url(#clip0_8296_11416)">
<path d="M5.71347 25.3379C5.71869 20.944 7.3907 16.7157 10.392 13.5065C13.3933 10.2974 17.5003 8.34634 21.8841 8.04736L26.1256 2.74161C20.487 1.97118 14.7641 3.33695 10.081 6.57064C5.39796 9.80433 2.09327 14.6722 0.816097 20.2181C-0.461079 25.7638 0.381571 31.587 3.17852 36.5433C5.97548 41.4994 10.5246 45.2309 15.9322 47.0043L17.5488 41.7745C14.1043 40.6176 11.1096 38.4092 8.98633 35.4606C6.86312 32.5118 5.71841 28.9713 5.71347 25.3379Z" fill="black"/>
<path d="M30.0495 3.62842L28.4482 8.86828C32.2889 10.1231 35.5707 12.6804 37.7256 16.0981C39.8809 19.5157 40.7743 23.579 40.2513 27.5856C39.7283 31.592 37.8219 35.2898 34.8617 38.04C31.9015 40.7899 28.0737 42.4192 24.0395 42.6462L19.8359 47.9164C25.4973 48.7344 31.2592 47.395 35.9791 44.1637C40.699 40.9323 44.0322 36.0452 45.3179 30.4713C46.6033 24.8975 45.7468 19.0442 42.9189 14.0721C40.0907 9.10005 35.4974 5.3724 30.0495 3.62842Z" fill="black"/>
<path d="M29.6987 21.0836L23.6581 20.3412L29.8761 0L12.1016 22.2264L16.4014 29.3285L22.4419 30.0709L16.072 50.6757L33.9985 28.1883L29.6987 21.0836Z" fill="#FF6022"/>
<path d="M56.7969 11.7109V38.0068H72.1508V35.8538H59.1969V11.7109H56.7969Z" fill="black"/>
<path d="M101.439 26.6942V38.0068H99.1797V11.7109H101.439V22.2646C102.074 21.1704 102.892 20.3586 103.892 19.8291C104.892 19.2997 106.004 19.0349 107.227 19.0349C108.521 19.0349 109.686 19.3114 110.722 19.8644C111.757 20.4174 112.575 21.2292 113.175 22.2999C113.786 23.3705 114.093 24.6824 114.093 26.2353V38.0068H111.816V26.3767C111.816 24.7059 111.369 23.4176 110.475 22.5116C109.592 21.6057 108.386 21.1527 106.857 21.1527C105.339 21.1527 104.056 21.6175 103.01 22.5469C101.962 23.4764 101.439 24.8589 101.439 26.6942Z" fill="black"/>
<path d="M124.82 19.3703V21.3645H120.938V33.8243C120.938 34.6125 121.108 35.1773 121.449 35.5184C121.803 35.8478 122.385 36.0125 123.197 36.0125H124.82V38.0068H123.02C120.114 38.0068 118.661 36.6832 118.661 34.0359V21.3645H115.484V19.3703H118.661V14.2876H120.938V19.3703H124.82Z" fill="black"/>
<path fill-rule="evenodd" clip-rule="evenodd" d="M82.3707 44.1131C83.7356 45.1015 85.4827 45.5956 87.6123 45.5956C89.1417 45.5956 90.5125 45.325 91.7244 44.7838C92.948 44.2425 93.9126 43.4071 94.6185 42.2778C95.3363 41.1599 95.6951 39.7365 95.6951 38.0069V19.3704H93.4715V22.9882H93.4537C92.9125 21.7293 92.0713 20.7587 90.9301 20.0763C89.7889 19.3821 88.5182 19.035 87.118 19.035C85.5298 19.035 84.1238 19.4409 82.9003 20.2528C81.6767 21.0646 80.7177 22.1941 80.0237 23.6412C79.341 25.0884 79 26.7708 79 28.6887C79 30.6065 79.341 32.2947 80.0237 33.7537C80.7177 35.2007 81.6706 36.3303 82.8825 37.1421C84.1061 37.9423 85.5179 38.3421 87.118 38.3421C88.5301 38.3421 89.7889 38.0011 90.8948 37.3187C92.0008 36.6361 92.8479 35.689 93.4362 34.4773H93.4537V38.0069C93.4537 39.7481 92.9421 41.107 91.9185 42.0835C90.8949 43.0719 89.4595 43.566 87.6123 43.566C86.165 43.566 84.9767 43.2544 84.0473 42.6308C83.1296 42.0072 82.5296 41.1247 82.2473 39.9835H79.9177C80.1883 41.7602 81.006 43.1365 82.3707 44.1131ZM91.9008 34.2126C90.7831 35.5772 89.2889 36.2596 87.4183 36.2596C85.6532 36.2596 84.1884 35.6066 83.0236 34.3007C81.8708 32.9829 81.2941 31.1122 81.2941 28.6887C81.2941 26.2648 81.8708 24.3942 83.0236 23.0765C84.1884 21.7588 85.6532 21.0999 87.4183 21.0999C89.2889 21.0999 90.7831 21.7881 91.9008 23.1647C93.0303 24.5413 93.5951 26.3827 93.5951 28.6887C93.5951 30.9946 93.0303 32.8359 91.9008 34.2126Z" fill="black"/>
<path d="M74.3203 38.0068V19.3702H76.5792V38.0068H74.3203Z" fill="black"/>
<path d="M75.4461 15.3286C74.9989 15.3286 74.6107 15.1697 74.2813 14.8521C73.9636 14.5344 73.8047 14.1461 73.8047 13.6873C73.8047 13.2284 73.9636 12.8402 74.2813 12.5225C74.6107 12.2048 74.9989 12.046 75.4461 12.046C75.893 12.046 76.2754 12.2048 76.5931 12.5225C76.9225 12.8402 77.0872 13.2284 77.0872 13.6873C77.0872 14.1461 76.9225 14.5344 76.5931 14.8521C76.2754 15.1697 75.893 15.3286 75.4461 15.3286Z" fill="black"/>
<path fill-rule="evenodd" clip-rule="evenodd" d="M139.186 11.7108L129.797 38.0067H134.809L136.962 31.7239H147.163L149.263 38.0067H154.398L145.045 11.7108H139.186ZM145.892 27.8943H138.268L139.539 24.1881C139.939 22.9763 140.345 21.7115 140.756 20.3937C141.168 19.076 141.621 17.5877 142.115 15.9287C142.609 17.5877 143.056 19.076 143.456 20.3937C143.868 21.7115 144.268 22.9763 144.657 24.1881L145.892 27.8943Z" fill="#FF6022"/>
<path d="M160.386 38.0068V11.7109H155.727V38.0068H160.386Z" fill="#FF6022"/>
</g>
<defs>
<clipPath id="clip0_8296_11416">
<rect width="160.895" height="50.6757" fill="white"/>
</clipPath>
</defs>
</svg>
