<svg width="216" height="51" viewBox="0 0 216 51" fill="none" xmlns="http://www.w3.org/2000/svg">
<g clip-path="url(#clip0_8296_11459)">
<mask id="mask0_8296_11459" style="mask-type:luminance" maskUnits="userSpaceOnUse" x="0" y="0" width="216" height="51">
<path d="M215.118 0H0V50.7354H215.118V0Z" fill="white"/>
</mask>
<g mask="url(#mask0_8296_11459)">
<path d="M25.5047 0C10.3576 0 0 9.63973 0 25.5047C0 40.6518 10.3576 50.7354 25.5047 50.7354C40.6518 50.7354 50.7354 40.6518 50.7354 25.5047C50.7354 9.63973 40.6518 0 25.5047 0ZM40.5706 40.5706C39.5833 41.5538 38.4821 42.4156 37.2905 43.1378V22.3236L32.7244 19.7868V45.1545C31.0719 45.6469 29.3707 45.9574 27.6508 46.0805V12.7219L23.0846 10.1851V46.0652C21.4517 45.9305 19.8367 45.6294 18.2648 45.1672V21.3089L13.6986 23.8457V43.1733C7.93756 39.7411 4.56619 33.5336 4.56619 25.4946C4.56619 19.0435 6.53726 13.7036 10.2689 10.0507C13.937 6.46623 19.2059 4.56619 25.5047 4.56619C31.8035 4.56619 36.9836 6.45862 40.5883 10.0355C44.2438 13.6732 46.1692 19.0233 46.1692 25.5098C46.1692 31.7096 44.2337 36.91 40.5706 40.5706Z" fill="#F7931E"/>
<path d="M158.796 14.2061H163.864L163.818 37.037H158.75L158.796 14.2061Z" fill="black"/>
<path d="M161.295 9.86806C160.473 9.86806 159.758 9.57887 159.149 9.00048C158.57 8.39166 158.281 7.67629 158.281 6.85438C158.281 6.03246 158.57 5.33231 159.149 4.75393C159.758 4.17554 160.473 3.88635 161.295 3.88635C162.117 3.88635 162.817 4.17554 163.395 4.75393C164.004 5.33231 164.309 6.03246 164.309 6.85438C164.309 7.67629 164.004 8.39166 163.395 9.00048C162.817 9.57887 162.117 9.86806 161.295 9.86806Z" fill="black"/>
<path d="M168.922 37.0369H174.036V25.1192C174.036 22.9579 174.508 21.2988 175.452 20.1421C176.395 18.9853 177.719 18.4221 179.424 18.4526C180.429 18.4526 181.296 18.6504 182.027 19.0462C182.788 19.4419 183.366 20.1421 183.762 21.1466C184.188 22.1208 184.401 23.521 184.401 25.3475V37.0369H189.515V23.9777C189.515 20.4769 188.754 17.8894 187.232 16.2151C185.741 14.5104 183.61 13.6581 180.84 13.6581C179.044 13.6581 177.491 14.1147 176.182 15.0279C175.304 15.6204 174.562 16.4048 173.958 17.3812L173.716 14.206H168.922V37.0369Z" fill="black"/>
<path fill-rule="evenodd" clip-rule="evenodd" d="M198.033 36.078C199.768 37.0826 201.747 37.5849 203.969 37.5849C205.704 37.5849 207.241 37.3414 208.581 36.8543C209.951 36.3672 211.123 35.6671 212.097 34.7538C213.101 33.8406 213.923 32.7752 214.563 31.5575L209.859 29.5484C209.372 30.5225 208.687 31.3292 207.805 31.9685C206.922 32.5773 205.795 32.8817 204.426 32.8817C203.177 32.8817 202.036 32.6077 201.001 32.0598C199.996 31.4814 199.19 30.6595 198.581 29.5941C198.149 28.7993 197.879 27.886 197.769 26.8543H215.019C215.019 24.1147 214.532 21.7555 213.558 19.7768C212.584 17.7981 211.275 16.2912 209.631 15.2562C208.018 14.1908 206.191 13.6581 204.152 13.6581C201.899 13.6581 199.89 14.1756 198.124 15.2106C196.389 16.2151 195.019 17.6154 194.015 19.4115C193.01 21.2075 192.508 23.2775 192.508 25.6215C192.508 27.9654 192.995 30.0355 193.969 31.8315C194.974 33.6275 196.328 35.043 198.033 36.078ZM209.395 22.7905C209.316 22.5021 209.228 22.2281 209.129 21.9685C208.672 20.69 208.002 19.7463 207.12 19.1375C206.267 18.4982 205.217 18.1786 203.969 18.1786C202.66 18.1786 201.534 18.4678 200.59 19.0462C199.646 19.6246 198.931 20.4769 198.444 21.6033C198.282 21.9671 198.147 22.3628 198.039 22.7905H209.395Z" fill="black"/>
<path d="M148.547 5.07361V37.0369H153.661V5.07361H148.547Z" fill="black"/>
<path fill-rule="evenodd" clip-rule="evenodd" d="M138.973 37.0369L138.79 33.6285C138.159 34.6313 137.383 35.4631 136.462 36.1237C135.092 37.0978 133.448 37.5849 131.531 37.5849C129.461 37.5849 127.649 37.0978 126.097 36.1237C124.575 35.1191 123.372 33.7188 122.489 31.9228C121.637 30.1268 121.211 28.0263 121.211 25.6215C121.211 23.1862 121.637 21.0857 122.489 19.3201C123.372 17.5241 124.575 16.139 126.097 15.1649C127.649 14.1603 129.461 13.658 131.531 13.658C133.448 13.658 135.092 14.1603 136.462 15.1649C137.361 15.7903 138.122 16.5852 138.745 17.5494V5.07361H143.814V37.0369H138.973ZM137.969 29.4114C138.486 28.3155 138.745 27.0522 138.745 25.6215C138.745 24.1907 138.486 22.9274 137.969 21.8315C137.482 20.7356 136.782 19.8833 135.868 19.2745C134.986 18.6656 133.951 18.3612 132.763 18.3612C131.546 18.3612 130.465 18.6656 129.521 19.2745C128.578 19.8833 127.832 20.7356 127.284 21.8315C126.766 22.9274 126.492 24.1907 126.462 25.6215C126.492 27.0522 126.766 28.3155 127.284 29.4114C127.832 30.5073 128.578 31.3749 129.521 32.0141C130.496 32.6229 131.591 32.9274 132.809 32.9274C133.966 32.9274 134.986 32.6229 135.868 32.0141C136.782 31.3749 137.482 30.5073 137.969 29.4114Z" fill="black"/>
<path d="M112.609 5.07361V37.0369H117.724V5.07361H112.609Z" fill="black"/>
<path fill-rule="evenodd" clip-rule="evenodd" d="M97.4839 37.5849C95.2008 37.5849 93.1612 37.0826 91.3652 36.078C89.5996 35.043 88.2145 33.6275 87.21 31.8315C86.2054 30.0355 85.7031 27.9654 85.7031 25.6215C85.7031 23.2775 86.1902 21.2075 87.1643 19.4115C88.1689 17.6154 89.5539 16.2151 91.3195 15.2106C93.0851 14.1756 95.1095 13.6581 97.3926 13.6581C99.6757 13.6581 101.7 14.1756 103.466 15.2106C105.231 16.2151 106.601 17.6154 107.575 19.4115C108.58 21.2075 109.082 23.2775 109.082 25.6215C109.082 27.9654 108.595 30.0355 107.621 31.8315C106.647 33.6275 105.277 35.043 103.511 36.078C101.746 37.0826 99.7365 37.5849 97.4839 37.5849ZM97.4839 32.8817C98.732 32.8817 99.8431 32.5773 100.817 31.9685C101.791 31.3292 102.552 30.4769 103.1 29.4114C103.648 28.3155 103.922 27.0522 103.922 25.6215C103.922 24.1908 103.633 22.9427 103.055 21.8772C102.507 20.7813 101.746 19.929 100.772 19.3202C99.7974 18.6809 98.6711 18.3613 97.3926 18.3613C96.114 18.3613 94.9877 18.6657 94.0136 19.2745C93.0395 19.8833 92.2784 20.7357 91.7305 21.8316C91.1826 22.9274 90.9086 24.1908 90.9086 25.6215C90.9086 27.0522 91.1826 28.3155 91.7305 29.4114C92.3089 30.4769 93.0851 31.3292 94.0592 31.9685C95.0638 32.5773 96.2054 32.8817 97.4839 32.8817Z" fill="black"/>
<path fill-rule="evenodd" clip-rule="evenodd" d="M66.1264 46.352C67.4353 46.6259 68.8965 46.7629 70.5099 46.7629C72.8539 46.7629 74.9087 46.2911 76.6743 45.3474C78.4399 44.4342 79.8097 43.0643 80.7838 41.2378C81.7579 39.4418 82.245 37.25 82.245 34.6625V14.206H77.1309V17.8876C76.449 16.7536 75.5966 15.8309 74.5738 15.1193C73.204 14.1451 71.5906 13.6581 69.7336 13.6581C67.6636 13.6581 65.8524 14.1451 64.2999 15.1193C62.7778 16.0934 61.5754 17.448 60.6926 19.1832C59.8402 20.9183 59.4141 22.9731 59.4141 25.3475C59.4141 27.5697 59.8402 29.5332 60.6926 31.2379C61.5754 32.9122 62.7778 34.2211 64.2999 35.1648C65.8524 36.1085 67.6636 36.5803 69.7336 36.5803C71.5906 36.5803 73.204 36.1237 74.5738 35.2105C75.5966 34.5212 76.449 33.6369 77.1309 32.5575V34.7995C77.1309 36.5042 76.8417 37.9045 76.2633 39.0004C75.6849 40.0963 74.8782 40.903 73.8432 41.4205C72.8082 41.9684 71.6362 42.2424 70.3273 42.2424C69.1096 42.2424 68.0137 42.1206 67.0396 41.8771C66.0655 41.6336 65.2131 41.3444 64.4825 41.0095C63.7824 40.7051 63.2192 40.4464 62.793 40.2333L60.8296 44.3428C61.3166 44.6777 62.0016 45.0278 62.8844 45.3931C63.7672 45.7584 64.8478 46.078 66.1264 46.352ZM74.1629 31.3292C73.3105 31.938 72.3059 32.2424 71.1492 32.2424C69.9315 32.2424 68.8509 31.938 67.9072 31.3292C66.9635 30.7204 66.2177 29.8985 65.6697 28.8635C65.1522 27.798 64.8935 26.5804 64.8935 25.2105C64.8935 23.8102 65.1522 22.5926 65.6697 21.5576C66.2177 20.4921 66.9483 19.6702 67.8615 19.0918C68.8052 18.483 69.8859 18.1786 71.1035 18.1786C72.2603 18.1786 73.2801 18.483 74.1629 19.0918C75.0457 19.6702 75.7306 20.4921 76.2176 21.5576C76.7047 22.5926 76.9482 23.8102 76.9482 25.2105C76.9482 26.5804 76.7047 27.798 76.2176 28.8635C75.7306 29.8985 75.0457 30.7204 74.1629 31.3292Z" fill="black"/>
</g>
</g>
<defs>
<clipPath id="clip0_8296_11459">
<rect width="215.118" height="50.7354" fill="white"/>
</clipPath>
</defs>
</svg>
