<svg width="169" height="40" viewBox="0 0 169 40" fill="none" xmlns="http://www.w3.org/2000/svg">
<g clip-path="url(#clip0_7054_4513)">
<path d="M20.0687 19.4573C20.0687 19.4573 19.7942 16.046 19.7942 11.4975C19.4548 8.0901 18.7562 4.84504 16.91 4.68246C16.25 4.62436 15.6454 5.14484 15.1187 6.13874C16.1033 2.7409 20.0687 0 20.0687 0C20.0687 0 24.0343 2.7409 25.0189 6.13874C24.4922 5.14484 23.8876 4.62436 23.2276 4.68246C21.3815 4.84504 20.6401 8.0901 20.3007 11.4975C20.3007 16.046 20.0687 19.4573 20.0687 19.4573Z" fill="url(#paint0_linear_7054_4513)"/>
<path d="M20.0261 20.5428C20.0261 20.5428 20.3006 23.954 20.3006 28.5026C20.64 31.9098 21.3386 35.155 23.185 35.3176C23.8448 35.3756 24.4494 34.8552 24.9762 33.8612C23.9915 37.259 20.0261 40 20.0261 40C20.0261 40 16.0606 37.259 15.0759 33.8612C15.6027 34.8552 16.2073 35.3756 16.8672 35.3176C18.7135 35.155 19.4547 31.9098 19.7941 28.5026C19.7941 23.954 20.0261 20.5428 20.0261 20.5428Z" fill="url(#paint1_linear_7054_4513)"/>
<path d="M20.5916 20.0211C20.5916 20.0211 24.0108 19.7473 28.5702 19.7473C31.9855 19.4087 35.2384 18.7117 35.4014 16.8698C35.4595 16.2114 34.9379 15.6082 33.9416 15.0828C37.3474 16.0651 40.0949 20.0211 40.0949 20.0211C40.0949 20.0211 37.3474 23.9773 33.9416 24.9595C34.9379 24.4341 35.4595 23.8309 35.4014 23.1725C35.2384 21.3307 31.9855 20.5911 28.5702 20.2525C24.0108 20.2525 20.5916 20.0211 20.5916 20.0211Z" fill="url(#paint2_linear_7054_4513)"/>
<path d="M19.5034 19.9787C19.5034 19.9787 16.084 20.2526 11.5248 20.2526C8.10929 20.5912 4.85653 21.2882 4.69357 23.1302C4.63531 23.7884 5.15705 24.3916 6.1533 24.9172C2.7474 23.9348 0 19.9787 0 19.9787C0 19.9787 2.7474 16.0226 6.1533 15.0403C5.15705 15.5658 4.63533 16.169 4.69357 16.8273C4.85653 18.6692 8.10929 19.4087 11.5248 19.7473C16.084 19.7473 19.5034 19.9787 19.5034 19.9787Z" fill="url(#paint3_linear_7054_4513)"/>
<path d="M20.4473 19.6312C20.4473 19.6312 22.6709 17.0254 25.8948 13.8091C28.0699 11.1603 29.876 8.37287 28.6858 6.95553C28.2602 6.44889 27.4639 6.39041 26.3869 6.72161C29.4915 5.01363 34.2381 5.87287 34.2381 5.87287C34.2381 5.87287 35.0995 10.6083 33.3875 13.7056C33.7195 12.6312 33.6607 11.8367 33.1529 11.4122C31.7322 10.2248 28.9081 11.9965 26.253 14.1665C23.0292 17.3827 20.4473 19.6312 20.4473 19.6312Z" fill="url(#paint4_linear_7054_4513)"/>
<path d="M19.6476 20.3687C19.6476 20.3687 17.4238 22.9747 14.1999 26.1909C12.0248 28.8397 10.2188 31.6271 11.409 33.0445C11.8345 33.5511 12.6309 33.6097 13.7079 33.2785C10.6032 34.9865 5.85653 34.1271 5.85653 34.1271C5.85653 34.1271 4.99526 29.3917 6.70729 26.2945C6.37528 27.3689 6.43392 28.1633 6.94174 28.5879C8.36247 29.7753 11.1866 28.0035 13.8417 25.8335C17.0656 22.6173 19.6476 20.3687 19.6476 20.3687Z" fill="url(#paint5_linear_7054_4513)"/>
<path d="M20.417 20.3988C20.417 20.3988 23.0292 22.6172 26.253 25.8334C28.9081 28.0034 31.7021 29.8052 33.1229 28.6178C33.6307 28.1934 33.6894 27.3988 33.3574 26.3244C35.0693 29.4216 34.208 34.1572 34.208 34.1572C34.208 34.1572 29.4614 35.0164 26.3569 33.3084C27.4336 33.6396 28.2301 33.5812 28.6555 33.0744C29.8459 31.6572 28.0699 28.8396 25.8948 26.1908C22.6709 22.9746 20.417 20.3988 20.417 20.3988Z" fill="url(#paint6_linear_7054_4513)"/>
<path d="M19.6778 19.6012C19.6778 19.6012 17.0658 17.3827 13.8419 14.1665C11.1868 11.9965 8.39274 10.1948 6.97204 11.3822C6.46419 11.8066 6.40558 12.6012 6.73756 13.6756C5.02553 10.5783 5.88681 5.84284 5.88681 5.84284C5.88681 5.84284 10.6335 4.9836 13.7381 6.69158C12.6612 6.36036 11.8648 6.41886 11.4393 6.92548C10.2491 8.34284 12.025 11.1603 14.2001 13.8091C17.424 17.0254 19.6778 19.6012 19.6778 19.6012Z" fill="url(#paint7_linear_7054_4513)"/>
<path d="M154.714 26.4799V26.33L156.007 24.9799H156.157C157.601 26.75 159.375 27.9799 161.901 27.9799C164.637 27.9799 166.381 26.5399 166.381 24.6199C166.381 22.1299 163.465 21.3499 160.307 20.0899C158.292 19.28 155.556 18.05 155.556 14.96C155.556 11.93 158.142 9.73999 161.811 9.73999C164.607 9.73999 166.772 11 168.096 12.74V12.89L166.742 14.15H166.592C165.449 12.74 163.886 11.72 161.811 11.72C159.525 11.72 157.781 12.95 157.781 14.75C157.781 16.55 159.495 17.36 161.57 18.17C164.698 19.4 168.607 20.5999 168.607 24.53C168.607 27.83 165.84 29.96 162.021 29.96C158.804 29.96 156.217 28.4599 154.714 26.4799Z" fill="black"/>
<path d="M148.834 27.86L149.346 29.39L149.255 29.54C148.804 29.84 148.383 29.96 147.662 29.96C146.278 29.96 144.835 28.91 143.512 27.38L137.798 20.78L135.964 22.7V29.6H133.799V10.1H135.964V19.91L145.346 10.1H147.962L148.053 10.22L139.302 19.34L145.256 26.24C146.429 27.59 147.09 28.01 147.812 28.01C148.173 28.01 148.443 27.95 148.684 27.8L148.834 27.86Z" fill="black"/>
<path d="M114.813 29.96C108.979 29.96 104.499 25.64 104.499 19.85C104.499 14.06 108.979 9.73999 114.813 9.73999C120.647 9.73999 125.127 14.06 125.127 19.85C125.127 25.64 120.647 29.96 114.813 29.96ZM114.813 27.9799C119.414 27.9799 122.902 24.59 122.902 19.85C122.902 15.11 119.414 11.72 114.813 11.72C110.212 11.72 106.724 15.11 106.724 19.85C106.724 24.59 110.212 27.9799 114.813 27.9799Z" fill="black"/>
<path d="M86.956 29.96C81.1222 29.96 76.6416 25.64 76.6416 19.85C76.6416 14.06 81.1222 9.73999 86.956 9.73999C92.7898 9.73999 97.2704 14.06 97.2704 19.85C97.2704 25.64 92.7898 29.96 86.956 29.96ZM86.956 27.9799C91.5569 27.9799 95.0452 24.59 95.0452 19.85C95.0452 15.11 91.5569 11.72 86.956 11.72C82.3551 11.72 78.8669 15.11 78.8669 19.85C78.8669 24.59 82.3551 27.9799 86.956 27.9799Z" fill="black"/>
<path d="M65.8279 10.1H67.993V29.6H65.8279V20.72H53.9498V29.6H51.7847V10.1H53.9498V18.8H65.8279V10.1Z" fill="black"/>
</g>
<defs>
<linearGradient id="paint0_linear_7054_4513" x1="-5.41276" y1="37" x2="45.433" y2="2.88861" gradientUnits="userSpaceOnUse">
<stop stop-color="#DD37E0"/>
<stop offset="1" stop-color="#0BA7FF"/>
</linearGradient>
<linearGradient id="paint1_linear_7054_4513" x1="-5.41289" y1="37" x2="45.4329" y2="2.88866" gradientUnits="userSpaceOnUse">
<stop stop-color="#DD37E0"/>
<stop offset="1" stop-color="#0BA7FF"/>
</linearGradient>
<linearGradient id="paint2_linear_7054_4513" x1="-5.4128" y1="36.9999" x2="45.433" y2="2.88855" gradientUnits="userSpaceOnUse">
<stop stop-color="#DD37E0"/>
<stop offset="1" stop-color="#0BA7FF"/>
</linearGradient>
<linearGradient id="paint3_linear_7054_4513" x1="-5.41281" y1="37" x2="45.433" y2="2.88857" gradientUnits="userSpaceOnUse">
<stop stop-color="#DD37E0"/>
<stop offset="1" stop-color="#0BA7FF"/>
</linearGradient>
<linearGradient id="paint4_linear_7054_4513" x1="-5.41274" y1="37" x2="45.4331" y2="2.88864" gradientUnits="userSpaceOnUse">
<stop stop-color="#DD37E0"/>
<stop offset="1" stop-color="#0BA7FF"/>
</linearGradient>
<linearGradient id="paint5_linear_7054_4513" x1="-5.41292" y1="37" x2="45.4329" y2="2.88866" gradientUnits="userSpaceOnUse">
<stop stop-color="#DD37E0"/>
<stop offset="1" stop-color="#0BA7FF"/>
</linearGradient>
<linearGradient id="paint6_linear_7054_4513" x1="-5.41274" y1="37" x2="45.4331" y2="2.88862" gradientUnits="userSpaceOnUse">
<stop stop-color="#DD37E0"/>
<stop offset="1" stop-color="#0BA7FF"/>
</linearGradient>
<linearGradient id="paint7_linear_7054_4513" x1="-5.41276" y1="37" x2="45.433" y2="2.88865" gradientUnits="userSpaceOnUse">
<stop stop-color="#DD37E0"/>
<stop offset="1" stop-color="#0BA7FF"/>
</linearGradient>
<clipPath id="clip0_7054_4513">
<rect width="169" height="40" fill="white"/>
</clipPath>
</defs>
</svg>
