<svg width="188" height="51" viewBox="0 0 188 51" fill="none" xmlns="http://www.w3.org/2000/svg">
<mask id="mask0_8296_11431" style="mask-type:luminance" maskUnits="userSpaceOnUse" x="0" y="0" width="188" height="51">
<path d="M187.5 0H0V50.6757H187.5V0Z" fill="white"/>
</mask>
<g mask="url(#mask0_8296_11431)">
<path d="M16.5556 19.9385C15.8156 18.401 15.4858 16.6983 15.5979 14.9957C15.7101 13.2931 16.2606 11.6484 17.1959 10.2213C18.1312 8.79418 19.4197 7.63315 20.9361 6.85087C22.4525 6.06859 24.1454 5.69164 25.8503 5.75663C27.5556 5.82162 29.2147 6.32635 30.6673 7.22179C32.1197 8.11723 33.3159 9.37297 34.1399 10.8671C34.9639 12.3613 35.3878 14.0431 35.37 15.7493C35.3523 17.4555 34.8937 19.1282 34.0388 20.6049L26.0523 34.4596L28.4467 38.6074L37.6393 22.6851C39.4537 19.4623 39.9235 15.6539 38.947 12.0867C37.9704 8.51952 35.6264 5.48149 32.4235 3.63216C29.2205 1.78284 25.4176 1.27149 21.8399 2.20915C18.2623 3.14681 15.199 5.45777 13.3149 8.64033C12.3143 10.3502 11.6913 12.2543 11.4876 14.2249C11.284 16.1955 11.5044 18.1868 12.1342 20.0652C12.7747 19.985 13.4195 19.9444 14.0649 19.9435L16.5556 19.9385Z" fill="url(#paint0_linear_8296_11431)"/>
<path d="M48.7754 27.9957C47.7827 26.2532 46.4243 24.7462 44.7938 23.5788C43.1631 22.4114 41.299 21.6111 39.3294 21.233C39.0794 21.8305 38.7925 22.4119 38.4705 22.9737L37.2188 25.1401C38.9271 25.2451 40.5789 25.7913 42.013 26.7253C43.4471 27.6592 44.6147 28.9494 45.4014 30.4692C46.1881 31.9892 46.5672 33.6873 46.5016 35.3976C46.4359 37.1077 45.9282 38.7719 45.0274 40.227C44.1267 41.6824 42.8638 42.8791 41.3626 43.7009C39.861 44.5223 38.1723 44.9404 36.4609 44.9143C34.7496 44.8882 33.0743 44.4187 31.5986 43.5519C30.1229 42.6848 28.8973 41.4498 28.0414 39.9678L20.0676 26.1587H15.2812L24.4485 42.0405C24.7637 42.5824 25.1132 43.1039 25.495 43.6013L25.571 43.7001C26.8767 45.3808 28.5512 46.7384 30.4658 47.668C32.38 48.5979 34.4826 49.0745 36.6107 49.0616C39.0758 49.0613 41.4974 48.4122 43.6321 47.1795C45.7668 45.9468 47.5397 44.1739 48.7721 42.0392C50.0048 39.9042 50.6537 37.4827 50.6537 35.0176C50.6539 32.5525 50.005 30.1307 48.7729 27.9957H48.7754Z" fill="url(#paint1_linear_8296_11431)"/>
<path d="M22.3318 40.4545C21.4047 41.8661 20.1317 43.0166 18.6342 43.7971C17.1366 44.5772 15.4642 44.9613 13.7762 44.9127C12.0882 44.8638 10.4408 44.3839 8.99078 43.5183C7.54075 42.6528 6.33637 41.4308 5.49226 39.968C4.62388 38.4634 4.16674 36.7569 4.16671 35.0195C4.16671 33.2824 4.62383 31.5759 5.49219 30.0713C6.36057 28.5665 7.60954 27.3171 9.11375 26.448C10.6179 25.5789 12.3243 25.1209 14.0615 25.12H30.042L32.4288 20.9748H14.0615C12.2014 20.9498 10.3549 21.2946 8.62916 21.9891C6.90343 22.6837 5.33286 23.7141 4.00866 25.0207C2.68445 26.3271 1.633 27.8839 0.915339 29.6C0.197682 31.3164 -0.171875 33.1579 -0.171875 35.0183C-0.171875 36.8786 0.197682 38.7204 0.915339 40.4365C1.633 42.1529 2.68445 43.7094 4.00866 45.0158C5.33286 46.3225 6.90343 47.353 8.62916 48.0475C10.3549 48.742 12.2014 49.0868 14.0615 49.0617C16.0734 49.0737 18.0639 48.6477 19.8949 47.8139C21.7259 46.98 23.3537 45.7579 24.6654 44.2324C24.2555 43.703 23.8814 43.1469 23.5455 42.5677L22.3318 40.4545Z" fill="url(#paint2_linear_8296_11431)"/>
<path d="M85.1704 41.0525L84.4407 37.5863L84.0758 37.4495C83.8021 37.6319 83.4373 37.7687 83.0268 37.7687C82.2971 37.7687 81.6586 37.3582 80.8832 36.4917L74.3157 28.7839L83.3461 19.0694L83.2092 18.7501H77.8731L68.4322 29.1488V10.7231L68.0674 10.4495L63.4609 11.1336V41.5542H68.4322V33.9832L70.667 31.566L77.0978 39.3194C78.466 41.0069 80.1991 42.1015 82.3883 42.1015C83.5285 42.1015 84.3951 41.8278 84.988 41.4174L85.1704 41.0525Z" fill="black"/>
<path fill-rule="evenodd" clip-rule="evenodd" d="M150.109 18.2029C157.041 18.2029 161.739 23.4934 161.739 30.1522C161.739 36.811 157.041 42.1016 150.109 42.1016C146.87 42.1016 144.134 40.7789 142.173 38.7722V41.5543H137.703V11.1792L142.355 10.4951L142.674 10.7232V21.0762C144.59 19.2975 147.144 18.2029 150.109 18.2029ZM149.516 37.7688C153.803 37.7688 156.63 34.3938 156.63 30.1522C156.63 25.9563 153.803 22.5357 149.516 22.5357C145.502 22.5357 142.31 25.1809 142.31 30.1522C142.31 35.1235 145.502 37.7688 149.516 37.7688Z" fill="black"/>
<path fill-rule="evenodd" clip-rule="evenodd" d="M186.599 37.6318L187.328 41.0068L187.146 41.326C186.507 41.7821 185.55 42.1014 184.409 42.1014C182.357 42.1014 180.852 41.0068 180.259 39.1369C178.298 41.0068 175.47 42.1014 172.46 42.1014C167.762 42.1014 163.43 39.5017 163.43 34.576C163.43 29.5135 167.99 27.1875 173.6 27.1875C176.063 27.1875 177.979 27.6436 179.621 28.2365V26.9595C179.621 23.6757 176.656 22.0794 173.509 22.0794C170.909 22.0794 168.903 23.174 167.306 24.7247H166.942L164.433 22.3531V21.9882C166.896 19.6166 170.043 18.2028 173.965 18.2028C178.891 18.2028 184.501 20.3919 184.501 26.9595V35.7619C184.501 36.9933 184.729 37.7686 185.55 37.7686C185.869 37.7686 186.097 37.6318 186.279 37.495L186.599 37.6318ZM179.621 33.299V31.6115C178.435 31.1554 176.474 30.5625 174.239 30.5625C170.636 30.5625 168.401 32.1132 168.401 34.576C168.401 37.1757 170.864 38.4527 173.463 38.4527C176.61 38.4527 179.621 36.4916 179.621 33.299Z" fill="black"/>
<path d="M133.215 27.8264C133.215 22.1254 129.521 18.2031 123.729 18.2031C120.673 18.2031 118.073 19.2977 116.295 21.0764C115.702 19.2521 114.288 18.2031 112.19 18.2031C111.004 18.2031 110.001 18.5224 109.362 18.9785L109.18 19.2977L109.909 22.6727L110.229 22.8095C110.411 22.6727 110.639 22.5359 110.958 22.5359C111.825 22.5359 112.007 23.3112 112.007 24.5427V41.5545H117.024V28.2369C117.024 24.7707 119.35 22.4903 122.771 22.4903C126.192 22.4903 128.244 24.7707 128.244 28.2369V41.5545H133.215V27.8264Z" fill="black"/>
<path fill-rule="evenodd" clip-rule="evenodd" d="M107.942 37.6318L108.672 41.0068L108.49 41.326C107.851 41.7821 106.893 42.1014 105.753 42.1014C103.701 42.1014 102.196 41.0068 101.603 39.1369C99.6417 41.0068 96.814 42.1014 93.8038 42.1014C89.1062 42.1014 84.7734 39.5017 84.7734 34.576C84.7734 29.5135 89.3343 27.1875 94.944 27.1875C97.4069 27.1875 99.3224 27.6436 100.964 28.2365V26.9595C100.964 23.6757 97.9998 22.0794 94.8528 22.0794C92.2532 22.0794 90.2464 23.174 88.6501 24.7247H88.2853L85.7768 22.3531V21.9882C88.2397 19.6166 91.3866 18.2028 95.3089 18.2028C100.235 18.2028 105.844 20.3919 105.844 26.9595V35.7619C105.844 36.9933 106.072 37.7686 106.893 37.7686C107.213 37.7686 107.441 37.6318 107.623 37.495L107.942 37.6318ZM100.964 33.299V31.6115C99.7785 31.1554 97.8174 30.5625 95.5826 30.5625C91.9795 30.5625 89.7447 32.1132 89.7447 34.576C89.7447 37.1757 92.2076 38.4527 94.8072 38.4527C97.9542 38.4527 100.964 36.4916 100.964 33.299Z" fill="black"/>
</g>
<defs>
<linearGradient id="paint0_linear_8296_11431" x1="16.3909" y1="3.80334" x2="36.8969" y2="28.8903" gradientUnits="userSpaceOnUse">
<stop stop-color="#B03B83"/>
<stop offset="0.56" stop-color="#E72E6C"/>
<stop offset="1" stop-color="#FFC400"/>
</linearGradient>
<linearGradient id="paint1_linear_8296_11431" x1="25.5051" y1="22.9788" x2="47.6124" y2="46.9408" gradientUnits="userSpaceOnUse">
<stop stop-color="#D83B83"/>
<stop offset="1" stop-color="#6F4A9E"/>
</linearGradient>
<linearGradient id="paint2_linear_8296_11431" x1="2.3073" y1="40.2315" x2="31.8613" y2="27.1242" gradientUnits="userSpaceOnUse">
<stop stop-color="#9C2383"/>
<stop offset="1" stop-color="#E72E6C"/>
</linearGradient>
</defs>
</svg>
