<svg width="167" height="40" viewBox="0 0 167 40" fill="none" xmlns="http://www.w3.org/2000/svg">
<path d="M25.6614 10.8C26.3258 10.8 26.8643 10.2628 26.8643 9.60002C26.8643 8.93728 26.3258 8.40002 25.6614 8.40002C24.997 8.40002 24.4585 8.93728 24.4585 9.60002C24.4585 10.2628 24.997 10.8 25.6614 10.8Z" fill="#02BB36"/>
<path d="M12.8307 11.6C13.2736 11.6 13.6327 11.2418 13.6327 10.8C13.6327 10.3582 13.2736 10 12.8307 10C12.3878 10 12.0288 10.3582 12.0288 10.8C12.0288 11.2418 12.3878 11.6 12.8307 11.6Z" fill="#02BB36"/>
<path d="M17.6423 15.6C17.6423 16.9254 16.5652 18 15.2366 18C13.9079 18 12.8308 16.9254 12.8308 15.6C12.8308 14.2745 13.9079 13.2 15.2366 13.2C16.5652 13.2 17.6423 14.2745 17.6423 15.6Z" fill="#02BB36"/>
<path d="M17.2412 29.6C17.2412 30.9254 16.1641 32 14.8354 32C13.5068 32 12.4297 30.9254 12.4297 29.6C12.4297 28.2746 13.5068 27.2 14.8354 27.2C16.1641 27.2 17.2412 28.2746 17.2412 29.6Z" fill="#02BB36"/>
<path d="M12.4297 22.2C12.4297 22.5314 12.1604 22.8 11.8282 22.8C11.4961 22.8 11.2268 22.5314 11.2268 22.2C11.2268 21.8686 11.4961 21.6 11.8282 21.6C12.1604 21.6 12.4297 21.8686 12.4297 22.2Z" fill="#02BB36"/>
<path d="M27.2653 23.4C27.5975 23.4 27.8667 23.1314 27.8667 22.8C27.8667 22.4686 27.5975 22.2 27.2653 22.2C26.9331 22.2 26.6638 22.4686 26.6638 22.8C26.6638 23.1314 26.9331 23.4 27.2653 23.4Z" fill="#02BB36"/>
<path d="M22.0527 31.8C22.0527 32.1314 21.7835 32.4 21.4513 32.4C21.1191 32.4 20.8499 32.1314 20.8499 31.8C20.8499 31.4686 21.1191 31.2 21.4513 31.2C21.7835 31.2 22.0527 31.4686 22.0527 31.8Z" fill="#02BB36"/>
<path d="M20.048 20C20.4909 20 20.8499 19.6418 20.8499 19.2C20.8499 18.7582 20.4909 18.4 20.048 18.4C19.6051 18.4 19.2461 18.7582 19.2461 19.2C19.2461 19.6418 19.6051 20 20.048 20Z" fill="#02BB36"/>
<path d="M18.4442 23C18.4442 23.7732 17.8159 24.4 17.0408 24.4C16.2658 24.4 15.6375 23.7732 15.6375 23C15.6375 22.2268 16.2658 21.6 17.0408 21.6C17.8159 21.6 18.4442 22.2268 18.4442 23Z" fill="#02BB36"/>
<path d="M28.4681 16.5C28.4681 18.3225 26.9872 19.8 25.1602 19.8C23.3332 19.8 21.8523 18.3225 21.8523 16.5C21.8523 14.6774 23.3332 13.2 25.1602 13.2C26.9872 13.2 28.4681 14.6774 28.4681 16.5Z" fill="#02BB36"/>
<path d="M19.4467 12.4C20.4432 12.4 21.251 11.5942 21.251 10.6C21.251 9.60593 20.4432 8.80005 19.4467 8.80005C18.4501 8.80005 17.6423 9.60593 17.6423 10.6C17.6423 11.5942 18.4501 12.4 19.4467 12.4Z" fill="#02BB36"/>
<path d="M26.8643 26.6C26.8643 28.2568 25.5178 29.6 23.8571 29.6C22.1963 29.6 20.8499 28.2568 20.8499 26.6C20.8499 24.9432 22.1963 23.6 23.8571 23.6C25.5178 23.6 26.8643 24.9432 26.8643 26.6Z" fill="#02BB36"/>
<path d="M6.66797 37C5.93556 37.0164 5.20471 36.9254 4.49878 36.73C3.99583 36.5884 3.54158 36.3116 3.18563 35.93C2.80895 35.4966 2.54157 34.9794 2.40576 34.422C2.20781 33.6078 2.11617 32.7716 2.13311 31.934V25.334C2.13311 24.106 1.94265 23.212 1.55172 22.604C1.18236 22.0588 0.633393 21.6598 0 21.476V18.142C1.06856 17.784 2.13912 16.872 2.13912 14.66V8.06C2.13912 6.184 2.48595 4.86 3.16759 4.102C3.84922 3.344 5.0501 3 6.77222 3H9.02161V6.292H8.94543C8.50114 6.28694 8.05704 6.31234 7.61624 6.368C7.21759 6.41156 6.84223 6.57714 6.54167 6.842C6.26007 7.1235 6.07543 7.487 6.01441 7.88C5.94117 8.31002 5.90829 8.7459 5.91617 9.182V15.01C5.922 15.5923 5.88784 16.1743 5.81393 16.752C5.76617 17.1233 5.66276 17.4853 5.50719 17.826C5.36313 18.1274 5.16313 18.3989 4.91778 18.626C4.57408 18.9405 4.20974 19.2318 3.82717 19.498L3.07938 20.026L3.84321 20.53C4.21786 20.7682 4.56423 21.048 4.87568 21.364C5.12578 21.626 5.33281 21.9256 5.48915 22.252C5.65358 22.6054 5.7631 22.9818 5.81393 23.368C5.88465 23.909 5.91814 24.4544 5.91417 25V30.828C5.90713 31.2528 5.94003 31.6774 6.0124 32.096C6.07078 32.4784 6.24416 32.834 6.50959 33.116C6.79297 33.3858 7.15279 33.5616 7.54006 33.62C7.99329 33.6936 8.45222 33.7264 8.91134 33.718H9.02161V37H6.66797Z" fill="black"/>
<path d="M33.4281 37C34.1605 37.0164 34.8914 36.9254 35.5973 36.73C36.1003 36.5884 36.5546 36.3116 36.9104 35.93C37.2843 35.497 37.5496 34.9816 37.6843 34.426C37.8822 33.6118 37.974 32.7756 37.9569 31.938V25.338C37.9569 24.11 38.1474 23.216 38.5383 22.608C38.9082 22.0594 39.4595 21.658 40.0961 21.474V18.142C39.0275 17.784 37.9569 16.872 37.9569 14.66V8.06002C37.9569 6.18402 37.6101 4.86002 36.9285 4.10202C36.2469 3.34402 35.046 2.99402 33.3198 2.99402H31.0745V6.29202H31.1506C31.5949 6.28696 32.039 6.31236 32.4798 6.36802C32.8784 6.41158 33.2539 6.57716 33.5544 6.84202C33.8361 7.12352 34.0207 7.48702 34.0817 7.88002C34.1548 8.31004 34.1877 8.74592 34.1799 9.18202V15.01C34.1721 15.5922 34.2042 16.1742 34.2761 16.752C34.3238 17.1233 34.4273 17.4854 34.5829 17.826C34.727 18.1274 34.9269 18.3989 35.1723 18.626C35.5159 18.9406 35.8804 19.2319 36.2629 19.498L37.0107 20.026L36.2469 20.53C35.8722 20.7682 35.5259 21.048 35.2144 21.364C34.9644 21.626 34.7573 21.9256 34.6009 22.252C34.4357 22.6078 34.3263 22.987 34.2761 23.376C34.2072 23.9138 34.1751 24.4558 34.1799 24.998V30.826C34.1869 31.2508 34.154 31.6754 34.0817 32.094C34.0338 32.4816 33.8573 32.842 33.5805 33.118C33.3038 33.3942 32.9425 33.5702 32.554 33.618C32.1007 33.6916 31.6418 33.7244 31.1827 33.716H31.0745V37H33.4281Z" fill="black"/>
<path fill-rule="evenodd" clip-rule="evenodd" d="M94.9465 30.83C94.4704 31.5688 93.8898 32.149 93.2049 32.5702C92.5049 32.9964 91.6803 33.2094 90.7312 33.2094C89.7463 33.2094 88.8623 33.0142 88.0793 32.6236C87.308 32.233 86.6436 31.653 86.0861 30.8836C85.5402 30.1142 85.125 29.1614 84.8401 28.025C84.5554 26.8768 84.4131 25.5452 84.4131 24.0302V22.521C84.4131 20.9468 84.5554 19.5856 84.8401 18.4375C85.125 17.2775 85.5402 16.3128 86.0861 15.5434C86.6436 14.7741 87.314 14.2059 88.0971 13.839C88.8802 13.472 89.7641 13.2886 90.7489 13.2886C91.71 13.2886 92.5406 13.5075 93.2406 13.9455C93.8172 14.2966 94.3216 14.7722 94.7533 15.3723V5.58301H98.9002V32.8544L95.1448 32.872L94.9465 30.83ZM94.7533 18.7299C94.6412 18.5036 94.5165 18.2936 94.3796 18.1001C94.0949 17.6977 93.7448 17.384 93.3296 17.1591C92.9261 16.9224 92.4515 16.804 91.9058 16.804C91.3006 16.804 90.7845 16.9224 90.3573 17.1591C89.9303 17.384 89.5861 17.7332 89.3251 18.2066C89.064 18.6683 88.8684 19.2601 88.7378 19.9821C88.6192 20.6922 88.5598 21.5386 88.5598 22.521V24.0302C88.5598 25.0126 88.6192 25.859 88.7378 26.5692C88.8565 27.2794 89.0464 27.8652 89.3074 28.3268C89.5684 28.7766 89.9125 29.114 90.3397 29.3388C90.7667 29.552 91.2829 29.6584 91.888 29.6584C92.6474 29.6584 93.2643 29.469 93.7388 29.0904C94.1624 28.7604 94.5006 28.3318 94.7533 27.8046V18.7299Z" fill="#02BB36"/>
<path fill-rule="evenodd" clip-rule="evenodd" d="M106.1 32.659C107.073 33.026 108.183 33.2094 109.428 33.2094C110.532 33.2094 111.493 33.0674 112.312 32.7834C113.142 32.4992 113.848 32.1382 114.429 31.7002C115.011 31.2504 115.474 30.7948 115.818 30.3332L113.985 27.7942C113.474 28.3742 112.869 28.8476 112.169 29.2146C111.481 29.5696 110.656 29.7472 109.696 29.7472C109.043 29.7472 108.467 29.6526 107.969 29.4632C107.483 29.262 107.067 28.9542 106.723 28.54C106.379 28.1138 106.118 27.5694 105.94 26.9064C105.779 26.2642 105.696 25.483 105.691 24.5628H116.031V22.4856C116.031 20.9942 115.889 19.6744 115.604 18.5262C115.331 17.3781 114.904 16.4134 114.323 15.6322C113.753 14.851 113.023 14.2651 112.134 13.8745C111.244 13.4839 110.194 13.2886 108.984 13.2886C107.916 13.2886 106.925 13.472 106.011 13.839C105.11 14.2059 104.326 14.7681 103.662 15.5257C102.998 16.2832 102.476 17.2538 102.096 18.4375C101.728 19.6093 101.544 21.006 101.544 22.6276V24.474C101.544 25.9062 101.722 27.1668 102.078 28.2558C102.434 29.333 102.95 30.2444 103.627 30.99C104.303 31.724 105.127 32.2802 106.1 32.659ZM105.722 21.438C105.756 20.844 105.817 20.3172 105.905 19.8578C106.047 19.1003 106.249 18.4966 106.51 18.0469C106.783 17.5971 107.127 17.2716 107.542 17.0703C107.957 16.8691 108.432 16.7685 108.966 16.7685C109.701 16.7685 110.277 16.9401 110.692 17.2834C111.119 17.6148 111.428 18.1001 111.618 18.7393C111.807 19.3666 111.914 20.1182 111.938 20.9942V21.438H105.722Z" fill="#02BB36"/>
<path fill-rule="evenodd" clip-rule="evenodd" d="M67.3354 24.0302V22.4856C67.3354 20.9942 67.5193 19.6744 67.8872 18.5262C68.255 17.3781 68.7771 16.4193 69.4533 15.65C70.1416 14.8687 70.9483 14.2828 71.8737 13.8922C72.7991 13.4898 73.8196 13.2886 74.9349 13.2886C76.074 13.2886 77.1063 13.4898 78.0317 13.8922C78.9689 14.2828 79.7758 14.8687 80.4521 15.65C81.1403 16.4193 81.6682 17.3781 82.0361 18.5262C82.4039 19.6744 82.5878 20.9942 82.5878 22.4856V24.0302C82.5878 25.5216 82.4039 26.8414 82.0361 27.9896C81.6682 29.1376 81.1403 30.1024 80.4521 30.8836C79.7758 31.653 78.9749 32.233 78.0495 32.6236C77.1241 33.0142 76.0976 33.2094 74.9705 33.2094C73.8553 33.2094 72.8288 33.0142 71.8916 32.6236C70.9661 32.233 70.1592 31.653 69.4712 30.8836C68.7829 30.1024 68.255 29.1376 67.8872 27.9896C67.5193 26.8414 67.3354 25.5216 67.3354 24.0302ZM71.4822 22.4856V24.0302C71.4822 24.989 71.5652 25.8294 71.7314 26.5514C71.8976 27.2616 72.1347 27.8534 72.4433 28.3268C72.7518 28.8004 73.1195 29.1554 73.5467 29.3922C73.9739 29.6288 74.4485 29.7472 74.9705 29.7472C75.5519 29.7472 76.0561 29.6288 76.4834 29.3922C76.9222 29.1554 77.2843 28.8004 77.569 28.3268C77.8655 27.8534 78.085 27.2616 78.2275 26.5514C78.3699 25.8294 78.441 24.989 78.441 24.0302V22.4856C78.441 21.5386 78.3581 20.71 78.1919 19.9999C78.0257 19.2779 77.7885 18.6801 77.4799 18.2066C77.1714 17.7214 76.7977 17.3603 76.3587 17.1236C75.9316 16.8869 75.4569 16.7685 74.9349 16.7685C74.4246 16.7685 73.9561 16.8869 73.5289 17.1236C73.1137 17.3603 72.7518 17.7214 72.4433 18.2066C72.1347 18.6801 71.8976 19.2779 71.7314 19.9999C71.5652 20.71 71.4822 21.5386 71.4822 22.4856Z" fill="#02BB36"/>
<path d="M65.5637 24.4209H61.2566C61.1854 25.7229 61.0015 26.7527 60.7048 27.5103C60.4083 28.2677 59.9514 28.8063 59.3345 29.1259C58.7293 29.4455 57.9165 29.6053 56.8963 29.6053C56.0419 29.6053 55.3302 29.4455 54.7606 29.1259C54.191 28.7945 53.7341 28.3151 53.3901 27.6877C53.0461 27.0487 52.7969 26.2733 52.6427 25.3619C52.4883 24.4505 52.4114 23.4029 52.4114 22.2193V17.603C52.4114 16.372 52.5002 15.3008 52.6782 14.3894C52.8681 13.4662 53.1469 12.7027 53.5148 12.099C53.8943 11.4835 54.3749 11.0219 54.9563 10.7142C55.5495 10.4064 56.2556 10.2525 57.0741 10.2525C58.0591 10.2525 58.8422 10.4242 59.4236 10.7674C60.0168 11.1107 60.4556 11.6729 60.7405 12.4541C61.037 13.2235 61.215 14.2533 61.2744 15.5435H65.5813C65.4747 13.6378 65.0889 12.0221 64.4245 10.6964C63.7601 9.37072 62.8169 8.36462 61.5948 7.6781C60.3726 6.99158 58.8658 6.64832 57.0741 6.64832C55.6742 6.64832 54.4164 6.89688 53.3011 7.39402C52.1977 7.87932 51.2604 8.59544 50.4892 9.54236C49.7179 10.4893 49.1247 11.6433 48.7095 13.0045C48.3059 14.3657 48.1042 15.9104 48.1042 17.6385V22.2193C48.1042 23.9475 48.3001 25.4921 48.6917 26.8533C49.095 28.2145 49.6764 29.3685 50.4358 30.3155C51.195 31.2505 52.1147 31.9667 53.1944 32.4639C54.2859 32.9609 55.5198 33.2095 56.8963 33.2095C58.7117 33.2095 60.2481 32.8663 61.5057 32.1797C62.7754 31.4933 63.7483 30.4989 64.4245 29.1969C65.1008 27.8831 65.4805 26.2911 65.5637 24.4209Z" fill="#02BB36"/>
<path fill-rule="evenodd" clip-rule="evenodd" d="M153.629 5.58301H155.623V16.3043C155.824 15.9322 156.049 15.5898 156.299 15.2771C156.809 14.6379 157.414 14.1467 158.114 13.8035C158.814 13.4602 159.633 13.2886 160.57 13.2886C161.567 13.2886 162.451 13.4602 163.222 13.8035C163.993 14.1467 164.646 14.6794 165.18 15.4014C165.714 16.1234 166.117 17.0644 166.39 18.2244C166.663 19.3725 166.799 20.7514 166.799 22.3612V24.1544C166.799 25.705 166.663 27.0486 166.39 28.1848C166.117 29.3212 165.714 30.2622 165.18 31.0078C164.646 31.7536 163.993 32.3098 163.222 32.6768C162.463 33.0438 161.591 33.2272 160.606 33.2272C159.645 33.2272 158.802 33.0556 158.079 32.7122C157.355 32.369 156.738 31.8896 156.228 31.2742C155.989 30.9796 155.773 30.6578 155.577 30.309L155.48 32.8544H153.629V5.58301ZM155.623 18.5953V28.1568C155.742 28.4376 155.878 28.7132 156.032 28.9838C156.435 29.6822 156.981 30.2502 157.669 30.6882C158.358 31.1144 159.2 31.3274 160.197 31.3274C161.003 31.3274 161.692 31.1854 162.261 30.9014C162.842 30.6054 163.323 30.1616 163.703 29.5696C164.082 28.9778 164.361 28.238 164.539 27.3504C164.717 26.4508 164.806 25.3854 164.806 24.1544V22.3612C164.806 21.142 164.717 20.0828 164.539 19.1832C164.373 18.2718 164.1 17.5201 163.72 16.9283C163.353 16.3365 162.872 15.8985 162.279 15.6145C161.698 15.3185 160.991 15.1706 160.161 15.1706C159.342 15.1706 158.636 15.3245 158.043 15.6322C157.462 15.9281 156.975 16.3246 156.584 16.8218C156.204 17.3189 155.901 17.8634 155.676 18.4552C155.658 18.502 155.64 18.5487 155.623 18.5953Z" fill="black"/>
<path fill-rule="evenodd" clip-rule="evenodd" d="M146.234 31.576C146.679 31.1416 147.053 30.6802 147.353 30.1916C147.368 30.5428 147.392 30.9036 147.426 31.2742C147.485 31.9134 147.58 32.44 147.711 32.8544H149.811V32.6236C149.657 32.1738 149.532 31.5938 149.437 30.8836C149.354 30.1734 149.313 29.481 149.313 28.8062V18.9879C149.313 17.603 149.057 16.4904 148.547 15.65C148.049 14.8096 147.355 14.2059 146.465 13.839C145.575 13.472 144.555 13.2886 143.404 13.2886C142.466 13.2886 141.612 13.4424 140.841 13.7502C140.081 14.0579 139.429 14.4781 138.883 15.0108C138.337 15.5316 137.916 16.1353 137.62 16.8218C137.323 17.4965 137.175 18.2007 137.175 18.9346L139.15 18.9524C139.15 18.2066 139.322 17.5497 139.666 16.9816C140.022 16.4016 140.515 15.9518 141.143 15.6322C141.784 15.3008 142.514 15.1351 143.332 15.1351C144.199 15.1351 144.928 15.2653 145.522 15.5257C146.115 15.7861 146.566 16.2004 146.874 16.7685C147.183 17.3248 147.337 18.0528 147.337 18.9524V21.6334H144.08C142.87 21.6334 141.808 21.7872 140.894 22.095C139.981 22.4026 139.221 22.8348 138.616 23.391C138.011 23.9356 137.554 24.5806 137.246 25.3264C136.949 26.072 136.801 26.8888 136.801 27.7764C136.801 28.972 137.014 29.978 137.442 30.7948C137.881 31.6114 138.492 32.221 139.275 32.6236C140.07 33.026 140.995 33.2272 142.051 33.2272C142.929 33.2272 143.718 33.0734 144.418 32.7656C145.118 32.4578 145.723 32.0612 146.234 31.576ZM146.678 29.1614C146.954 28.7834 147.173 28.3936 147.337 27.992V23.32H144.383C143.457 23.32 142.644 23.4206 141.944 23.6218C141.244 23.823 140.657 24.113 140.182 24.4918C139.72 24.8706 139.37 25.3204 139.132 25.8412C138.895 26.362 138.776 26.9538 138.776 27.6166C138.776 28.4688 138.913 29.1672 139.186 29.7118C139.459 30.2444 139.856 30.6408 140.378 30.9014C140.912 31.1498 141.547 31.2742 142.283 31.2742C143.255 31.2742 144.11 31.0848 144.845 30.706C145.593 30.3154 146.204 29.8006 146.678 29.1614Z" fill="black"/>
<path d="M134.833 32.8545V30.9547H124.19V7.00342H122.126V32.8545H134.833Z" fill="black"/>
</svg>
