<svg width="156" height="40" viewBox="0 0 156 40" fill="none" xmlns="http://www.w3.org/2000/svg">
<mask id="mask0_7054_4470" style="mask-type:luminance" maskUnits="userSpaceOnUse" x="4" y="1" width="149" height="38">
<path d="M152.2 1H4V39H152.2V1Z" fill="white"/>
</mask>
<g mask="url(#mask0_7054_4470)">
<mask id="mask1_7054_4470" style="mask-type:luminance" maskUnits="userSpaceOnUse" x="4" y="1" width="38" height="38">
<path d="M42 39V1L4 1V39H42Z" fill="white"/>
</mask>
<g mask="url(#mask1_7054_4470)">
<path d="M4 1C3.9987 6.03842 5.99939 10.871 9.56196 14.4347C13.1245 17.9985 17.9572 20.0015 22.9969 20.003V1H4ZM22.9969 20.003H42V1C39.504 0.999677 37.0323 1.49102 34.7262 2.44596C32.4204 3.4009 30.3251 4.80072 28.5604 6.56544C26.7956 8.33018 25.3959 10.4252 24.4413 12.7309C23.4868 15.0366 22.996 17.5077 22.9969 20.003ZM22.9969 20.003V39H42C42.0002 36.5051 41.5087 34.0347 40.5537 31.7297C39.5988 29.4248 38.1991 27.3304 36.4343 25.5664C34.6698 23.8023 32.5749 22.4029 30.2692 21.4484C27.9636 20.4938 25.4924 20.0027 22.9969 20.003ZM22.9969 20.003H4V39C9.03886 38.9991 13.871 36.997 17.4335 33.4345C20.9961 29.872 22.9972 25.0407 22.9969 20.003Z" fill="url(#paint0_linear_7054_4470)"/>
</g>
<path d="M152.015 7.14685V32.0288H149.176V7.14685H152.015Z" fill="black"/>
<path d="M137.194 32.2959C135.446 32.2959 133.982 31.845 132.802 30.9433C131.633 30.0415 131.048 28.7111 131.048 26.9521C131.048 25.939 131.243 25.1152 131.633 24.4806C132.033 23.846 132.562 23.3507 133.219 22.9944C133.887 22.627 134.639 22.3486 135.474 22.1594C136.32 21.9701 137.182 21.8198 138.062 21.7085C139.186 21.5527 140.071 21.4359 140.717 21.3578C141.363 21.2799 141.819 21.1518 142.086 20.9738C142.365 20.7957 142.504 20.484 142.504 20.0386V19.8716C142.504 18.9142 142.159 18.1238 141.469 17.5003C140.789 16.8769 139.832 16.5652 138.596 16.5652C137.372 16.5652 136.364 16.8658 135.574 17.4669C134.795 18.057 134.371 18.7917 134.305 19.6712H131.416C131.471 18.5913 131.805 17.6339 132.418 16.799C133.03 15.9529 133.865 15.2849 134.922 14.7951C135.98 14.3052 137.205 14.0603 138.596 14.0603C140.656 14.0603 142.287 14.5947 143.489 15.6634C144.703 16.721 145.309 18.1238 145.309 19.8716V32.0287H142.504V29.5238H142.437C142.226 29.9469 141.914 30.3754 141.502 30.8097C141.09 31.2326 140.534 31.5889 139.832 31.8784C139.142 32.1566 138.262 32.2959 137.194 32.2959ZM137.594 29.7575C138.752 29.7575 139.693 29.5515 140.416 29.1398C141.14 28.7167 141.669 28.1712 142.003 27.5031C142.337 26.8353 142.504 26.1171 142.504 25.3489V23.1447C142.292 23.345 141.73 23.5287 140.817 23.6957C139.904 23.8515 138.942 24.0018 137.928 24.1466C137.249 24.2357 136.604 24.3915 135.991 24.6142C135.39 24.8256 134.9 25.1319 134.522 25.5326C134.143 25.9223 133.954 26.4511 133.954 27.1191C133.954 27.943 134.277 28.5886 134.922 29.0562C135.579 29.5238 136.47 29.7575 137.594 29.7575Z" fill="black"/>
<path d="M115.292 39.009V36.504H117.029C118.075 36.504 118.871 35.7972 119.417 34.3832L120.386 31.8784L113.555 14.3943H116.628L120.436 24.5475C120.68 25.2043 120.92 25.8667 121.154 26.5347C121.399 27.1915 121.632 27.8484 121.855 28.5052C122.089 27.8484 122.323 27.1915 122.556 26.5347C122.801 25.8667 123.046 25.2043 123.291 24.5475L127.032 14.3943H130.054L121.922 35.3017C121.465 36.4818 120.814 37.3947 119.968 38.0403C119.122 38.6861 118.142 39.009 117.029 39.009H115.292Z" fill="black"/>
<path d="M108.454 32.0288V14.3943H111.293V32.0288H108.454ZM109.873 10.9543C109.339 10.9543 108.882 10.765 108.504 10.3865C108.125 10.008 107.936 9.55156 107.936 9.01719C107.936 8.48281 108.125 8.02637 108.504 7.64786C108.882 7.26934 109.339 7.08008 109.873 7.08008C110.408 7.08008 110.864 7.26934 111.243 7.64786C111.621 8.02637 111.81 8.48281 111.81 9.01719C111.81 9.55156 111.621 10.008 111.243 10.3865C110.864 10.765 110.408 10.9543 109.873 10.9543Z" fill="black"/>
<path d="M96.2044 32.3626C94.6793 32.3626 93.3377 31.9786 92.1798 31.2104C91.0332 30.431 90.1427 29.3568 89.5081 27.9875C88.8735 26.6069 88.5562 25.0151 88.5562 23.2114C88.5562 21.3969 88.8735 19.8049 89.5081 18.4355C90.1427 17.055 91.0332 15.9807 92.1798 15.2126C93.3377 14.4444 94.6793 14.0603 96.2044 14.0603C97.3511 14.0603 98.4143 14.3052 99.3939 14.7951C100.374 15.2738 101.147 16.0086 101.715 16.9994H101.749V7.14685H104.587V32.0288H101.815V29.3568H101.782C101.147 30.3699 100.346 31.1268 99.3772 31.6279C98.4088 32.1177 97.3511 32.3626 96.2044 32.3626ZM96.6386 29.8077C98.2752 29.8077 99.5722 29.2065 100.53 28.0042C101.498 26.8019 101.982 25.2043 101.982 23.2114C101.982 21.2187 101.498 19.6212 100.53 18.4188C99.5722 17.2053 98.2752 16.5986 96.6386 16.5986C95.1134 16.5986 93.861 17.1608 92.8813 18.2852C91.9127 19.4096 91.4284 21.0517 91.4284 23.2114C91.4284 25.3713 91.9127 27.0133 92.8813 28.1377C93.861 29.251 95.1134 29.8077 96.6386 29.8077Z" fill="black"/>
<path d="M77.4762 32.2959C75.7284 32.2959 74.2644 31.845 73.0843 30.9433C71.9153 30.0415 71.3308 28.7111 71.3308 26.9521C71.3308 25.939 71.5256 25.1152 71.9152 24.4806C72.3161 23.846 72.8449 23.3507 73.5017 22.9944C74.1696 22.627 74.9212 22.3486 75.7561 22.1594C76.6022 21.9701 77.465 21.8198 78.3445 21.7085C79.4689 21.5527 80.3539 21.4359 80.9997 21.3578C81.6453 21.2799 82.1019 21.1518 82.369 20.9738C82.6474 20.7957 82.7865 20.484 82.7865 20.0386V19.8716C82.7865 18.9142 82.4414 18.1238 81.7512 17.5003C81.0721 16.8769 80.1147 16.5652 78.8789 16.5652C77.6542 16.5652 76.6468 16.8658 75.8562 17.4669C75.077 18.057 74.6539 18.7917 74.5872 19.6712H71.6983C71.7539 18.5913 72.0878 17.6339 72.7001 16.799C73.3125 15.9529 74.1474 15.2849 75.2051 14.7951C76.2626 14.3052 77.4872 14.0603 78.8789 14.0603C80.9383 14.0603 82.5693 14.5947 83.7718 15.6634C84.9852 16.721 85.592 18.1238 85.592 19.8716V32.0287H82.7865V29.5238H82.7196C82.5081 29.9469 82.1965 30.3754 81.7846 30.8097C81.3727 31.2326 80.816 31.5889 80.1147 31.8784C79.4244 32.1566 78.5449 32.2959 77.4762 32.2959ZM77.8769 29.7575C79.0347 29.7575 79.9754 29.5515 80.6991 29.1398C81.4227 28.7167 81.9516 28.1712 82.2855 27.5031C82.6195 26.8353 82.7865 26.1171 82.7865 25.3489V23.1447C82.575 23.345 82.0128 23.5287 81.0998 23.6957C80.1869 23.8515 79.224 24.0018 78.2109 24.1466C77.5318 24.2357 76.886 24.3915 76.2738 24.6142C75.6727 24.8256 75.1829 25.1319 74.8042 25.5326C74.4257 25.9223 74.2365 26.4511 74.2365 27.1191C74.2365 27.943 74.5593 28.5886 75.2051 29.0562C75.8619 29.5238 76.7525 29.7575 77.8769 29.7575Z" fill="black"/>
<path d="M51.5 32.0288V7.14685H60.7348C63.3286 7.14685 65.3825 7.82595 66.8967 9.18414C68.4218 10.5312 69.1844 12.3681 69.1844 14.6949C69.1844 16.465 68.7058 17.9624 67.7484 19.187C66.802 20.4116 65.5163 21.2744 63.8908 21.7754L69.485 32.0288H65.9782L60.7348 22.2597C60.6567 22.2597 60.5788 22.2597 60.5009 22.2597H54.5058V32.0288H51.5ZM54.5058 19.5878H60.6679C62.3935 19.5878 63.7461 19.1536 64.7257 18.2852C65.7166 17.4057 66.2121 16.209 66.2121 14.6949C66.2121 13.1808 65.711 11.9896 64.709 11.1213C63.7183 10.2529 62.36 9.81873 60.6344 9.81873H54.5058V19.5878Z" fill="black"/>
</g>
<defs>
<linearGradient id="paint0_linear_7054_4470" x1="-1.13" y1="36.15" x2="47.13" y2="3.85" gradientUnits="userSpaceOnUse">
<stop stop-color="#DD37E0"/>
<stop offset="1" stop-color="#0BA7FF"/>
</linearGradient>
</defs>
</svg>
