<svg width="219" height="51" viewBox="0 0 219 51" fill="none" xmlns="http://www.w3.org/2000/svg">
<g clip-path="url(#clip0_8296_11444)">
<mask id="mask0_8296_11444" style="mask-type:luminance" maskUnits="userSpaceOnUse" x="0" y="0" width="219" height="51">
<path d="M218.159 0H0V50.6169H218.159V0Z" fill="white"/>
</mask>
<g mask="url(#mask0_8296_11444)">
<path fill-rule="evenodd" clip-rule="evenodd" d="M46.8231 38.6366C49.3001 34.6384 50.6169 30.0232 50.6169 25.3084C50.6169 18.5962 47.9504 12.1589 43.2043 7.41267C38.458 2.66642 32.0207 0 25.3084 0C20.3029 0 15.4098 1.48431 11.2478 4.26523C7.08588 7.04617 3.84205 10.9988 1.9265 15.6233C0.0109661 20.2478 -0.490227 25.3365 0.486307 30.2459C1.46284 35.1552 3.87323 39.6647 7.41269 43.2043C10.9521 46.7437 15.4617 49.1541 20.371 50.1307C25.2804 51.1071 30.3691 50.606 34.9935 48.6904C39.6181 46.7748 43.5708 43.531 46.3517 39.3691C46.5096 39.1324 46.6635 38.8935 46.8133 38.6526L46.8206 38.6536C46.8214 38.6478 46.8221 38.6422 46.8231 38.6366ZM25.7298 3.04099C22.4852 9.24781 20.1714 10.4844 18.4523 11.3888C16.9161 12.2063 15.9037 12.7454 14.3878 19.3154C13.0191 25.2465 9.15158 29.5929 3.85761 31.2982C4.488 33.5557 5.47417 35.7117 6.79043 37.6817C6.86421 37.7921 6.93889 37.9019 7.01451 38.0107C8.75806 33.9634 13.7404 30.4147 21.0667 28.1607C25.4932 26.7966 25.3337 24.5492 24.5492 19.5964C24.2354 17.6096 23.881 15.3547 24.043 13.0516C24.1999 10.8396 25.2325 8.49607 26.875 6.62578C27.935 5.4175 29.2196 4.43366 30.685 3.69572C29.0703 3.29405 27.4085 3.07275 25.7298 3.04099ZM12.8946 43.7993C11.6255 42.9474 10.4472 41.9667 9.37857 40.8731C9.71966 36.3973 16.0375 32.885 21.9627 31.0611C29.0971 28.8668 28.2797 23.6786 27.5584 19.1231C27.2547 17.2072 26.9408 15.2256 27.08 13.2692C27.4171 8.50872 31.9881 5.99534 35.2331 5.37058C36.0754 5.78991 36.8936 6.26374 37.6817 6.79043C37.789 6.86213 37.8959 6.93472 38.0016 7.00819C35.6399 8.82045 32.209 12.6905 32.3948 19.771C32.4477 21.8144 33.1024 23.7542 33.7954 25.8075L33.7969 25.8121L33.7971 25.8128C35.2749 30.2011 36.8033 34.7386 33.0883 41.5261C31.3731 44.6689 29.8794 45.9067 27.6847 47.4528C26.6872 47.5599 25.6858 47.5991 24.6877 47.5713C27.1145 45.3383 29.9485 42.0674 29.6412 39.18C29.5223 38.0791 28.9427 36.5707 26.6776 35.5634C24.4125 34.5561 22.1904 34.5232 20.0695 35.4647C16.4735 37.0642 14.0962 41.1806 12.8946 43.7993ZM35.4318 19.7001C35.2592 13.1886 38.7566 10.0979 40.4588 8.98404C42.1249 10.5304 43.546 12.3241 44.6707 14.303C42.4483 15.5193 39.9873 17.9043 39.9873 21.7652C39.9873 24.496 41.1136 26.9105 42.2145 29.2414C43.3478 31.6725 44.4269 33.9882 44.429 36.7286C43.4926 38.2965 42.3618 39.7515 41.0566 41.0566C38.9993 43.1139 36.5697 44.738 33.912 45.8511C34.5253 45.0543 35.1319 44.1238 35.7507 42.994C40.0919 35.0681 38.2054 29.4279 36.6894 24.8952L36.6745 24.8504C36.0291 22.9396 35.4723 21.2895 35.4318 19.7001ZM46.3253 32.678C45.8475 31.0778 45.166 29.6104 44.5219 28.2237L44.4973 28.1708C43.4799 25.9943 42.5182 23.9367 42.5182 21.7652C42.5182 18.9335 44.3713 17.3606 45.7951 16.5728C45.8252 16.6435 45.8551 16.7145 45.8845 16.7855C47.5703 20.8551 48.0114 25.3332 47.1519 29.6534C46.9469 30.684 46.6703 31.6943 46.3253 32.678ZM15.5338 45.3203C15.9443 45.5208 16.3617 45.7091 16.7855 45.8845C18.0174 46.3949 19.2867 46.791 20.5777 47.0717C23.3581 44.8901 26.8247 41.3449 26.627 39.5014L26.6268 39.4999C26.6065 39.3141 26.5531 38.8269 25.4502 38.3372C23.9848 37.6868 22.6308 37.6539 21.3097 38.2411C18.6487 39.4212 16.6082 42.915 15.5338 45.3203ZM3.23961 28.3055C7.38513 26.8647 10.3209 23.436 11.4267 18.6397C13.1603 11.1054 14.6788 9.9589 17.0249 8.71625C18.3136 8.03541 19.8501 7.2124 22.1419 3.26656C17.4084 3.95115 12.9891 6.14603 9.56758 9.56755C5.39232 13.7428 3.04372 19.4038 3.03701 25.3084C3.03701 26.3147 3.10519 27.3159 3.23961 28.3055Z" fill="url(#paint0_linear_8296_11444)"/>
<path d="M186.388 27.7851L178.013 37.3471V37.4008H190.522V38.6718H176.084V37.5539L185.431 26.8358C186.909 25.1669 188.494 23.3524 188.494 20.6423C188.494 18.1159 186.61 15.6737 182.981 15.6737C179.353 15.6737 177.385 18.2537 177.385 20.8567V20.9485H175.969V20.8796C175.969 17.756 178.289 14.4258 182.997 14.4258C187.552 14.4258 189.979 17.3579 189.979 20.7189C189.979 23.6148 188.109 25.7865 186.475 27.6841L186.388 27.7851Z" fill="black"/>
<path d="M80.588 38.7326H65.0469V14.9231H80.588V19.0037H70.0536V24.7914H79.9604V28.5963H70.0536V34.6521H80.588V38.7326Z" fill="black"/>
<path fill-rule="evenodd" clip-rule="evenodd" d="M83.3203 38.7328L91.1981 14.9233H97.2002L105.002 38.7328H99.6425L97.8818 32.8225H90.1417L88.358 38.7328H83.3203ZM93.9235 19.6623L91.1292 29.1019H96.894L94.1379 19.6623H93.9235Z" fill="black"/>
<path fill-rule="evenodd" clip-rule="evenodd" d="M126.636 22.5255C126.636 18.2383 123.88 14.9233 118.161 14.9233H108.461V38.7328H113.429V29.9746H117.357L121.491 38.7328H127.11L122.326 29.2244C123.637 28.675 124.752 27.7406 125.521 26.5445C126.291 25.3484 126.679 23.9471 126.636 22.5255ZM117.357 26.2616H113.429V18.8125H117.426C119.723 18.8125 121.438 20.0834 121.438 22.6404C121.438 25.006 119.868 26.2616 117.357 26.2616Z" fill="black"/>
<path d="M135.801 19.1111H129.125V14.9233H147.53V19.1111H140.846V38.7328H135.801V19.1111Z" fill="black"/>
<path d="M165.598 24.5158H156.006V14.9231H150.945V38.7326H156.006V28.6654H165.598V38.7326H170.659V14.9231H165.598V24.5158Z" fill="black"/>
<path d="M197.152 36.2448C196.792 36.2468 196.447 36.3913 196.193 36.6466C195.939 36.902 195.797 37.2475 195.797 37.6076C195.797 37.7848 195.832 37.9604 195.9 38.1239C195.968 38.2874 196.069 38.4357 196.194 38.5605C196.321 38.685 196.47 38.7834 196.634 38.8497C196.799 38.9163 196.975 38.9495 197.152 38.9474C197.51 38.9495 197.854 38.8095 198.11 38.5587C198.365 38.3076 198.51 37.9657 198.514 37.6076C198.511 37.2475 198.366 36.903 198.111 36.6484C197.856 36.3936 197.512 36.2488 197.152 36.2448Z" fill="black"/>
<path fill-rule="evenodd" clip-rule="evenodd" d="M202.711 26.0244C202.711 18.5369 205.781 14.4258 210.443 14.4258C215.091 14.4258 218.153 18.5599 218.153 26.0244V27.6474C218.153 35.1347 215.113 39.2306 210.443 39.2306C205.773 39.2306 202.711 35.1347 202.711 27.6474V26.0244ZM210.443 37.9596C214.141 37.9596 216.706 34.3845 216.706 27.6856V25.9707C216.706 19.2719 214.164 15.712 210.443 15.712C206.723 15.712 204.158 19.2719 204.158 25.9707V27.6856C204.158 34.3845 206.746 37.9596 210.443 37.9596Z" fill="black"/>
</g>
</g>
<defs>
<linearGradient id="paint0_linear_8296_11444" x1="54.7118" y1="40.0101" x2="29.6134" y2="1.35398" gradientUnits="userSpaceOnUse">
<stop stop-color="#019C85"/>
<stop offset="1" stop-color="#BEDC7C"/>
</linearGradient>
<clipPath id="clip0_8296_11444">
<rect width="218.159" height="50.6169" fill="white"/>
</clipPath>
</defs>
</svg>
