<svg width="227" height="51" viewBox="0 0 227 51" fill="none" xmlns="http://www.w3.org/2000/svg">
<g clip-path="url(#clip0_8296_11403)">
<mask id="mask0_8296_11403" style="mask-type:luminance" maskUnits="userSpaceOnUse" x="0" y="0" width="227" height="51">
<path d="M226.774 0H0V50.6757H226.774V0Z" fill="white"/>
</mask>
<g mask="url(#mask0_8296_11403)">
<path d="M20.4358 50.549H16.5625V-0.126709L20.4358 3.10105V50.549Z" fill="url(#paint0_linear_8296_11403)"/>
<path d="M8.17188 50.5489H12.0452V9.69531L8.17188 12.923V50.5489Z" fill="url(#paint1_linear_8296_11403)"/>
<path d="M3.97486 50.549H0.101562V22.6064L3.97486 19.3787V50.549Z" fill="url(#paint2_linear_8296_11403)"/>
<path d="M36.8968 50.549H33.0234V19.3787L36.8968 22.6064V50.549Z" fill="url(#paint3_linear_8296_11403)"/>
<path d="M24.9531 50.5489H28.8263V12.923L24.9531 9.69531V50.5489Z" fill="url(#paint4_linear_8296_11403)"/>
<path fill-rule="evenodd" clip-rule="evenodd" d="M79.0478 36.2671V34.5249H74.7411V36.1898C74.7411 39.9064 75.9439 43.2264 81.1258 43.2264C86.3079 43.2264 87.6872 39.4807 87.6872 35.4831C87.6872 30.7404 86.414 28.9305 82.2576 25.8041C79.8171 23.9941 79.4456 22.9004 79.4456 21.0323C79.4456 19.1642 79.773 17.935 81.2142 17.935C82.6557 17.935 82.9828 19.1546 82.9828 21.0904V22.4745H87.2274V20.9645C87.2274 17.906 86.3256 14.1892 81.3115 14.1892C76.2976 14.1892 75.1921 17.935 75.1921 21.6421C75.1921 25.8137 76.7927 27.3624 79.773 29.7433C82.753 32.1246 83.3986 33.0634 83.3986 36.093C83.3986 37.9222 82.9209 39.5291 81.2938 39.5291C79.6668 39.5291 79.0478 38.3577 79.0478 36.2671ZM54.0138 42.8197L54.9776 35.2893H59.2666L60.3629 42.8197H64.8376L60.1949 14.6439H54.1463L49.6719 42.8197H54.0138ZM57.1883 18.7769C57.5066 21.9613 58.1081 26.5009 58.7446 31.292H55.5437C55.6293 30.6418 55.722 29.9463 55.8178 29.2265L55.8181 29.2257C56.3367 25.3363 56.9499 20.7369 57.047 18.7769H57.1883ZM111.572 42.8197H108.229C108.108 42.1232 108.031 41.418 107.999 40.7096C107.23 42.5874 105.612 43.236 103.825 43.236C99.74 43.236 98.4224 40.2355 98.4224 35.4928V22.2227C98.4224 17.6251 100.191 14.2375 105.01 14.2375C110.838 14.2375 111.457 18.5834 111.457 21.6129V22.5227H107.151V21.4C107.151 19.9094 106.938 18.1962 104.984 18.1962C103.419 18.1962 102.755 19.2899 102.755 21.5451V35.9572C102.755 38.2125 103.401 39.3836 104.949 39.3836C106.806 39.3836 107.257 37.8157 107.257 34.912V30.7984H104.851V27.0621H111.572V42.8197ZM126.517 42.8197L127.49 35.2893H131.743L132.84 42.8197H137.297L132.654 14.6439H126.606L122.184 42.8197H126.517ZM129.701 18.7768C130.019 21.9612 130.62 26.5006 131.257 31.2917H128.021C128.106 30.6416 128.199 29.9458 128.295 29.2257V29.2249L128.295 29.2244C128.814 25.3352 129.427 20.7367 129.524 18.7768H129.701ZM151.94 30.227V42.8098H147.66V14.6439H153.585C157.812 14.6439 160.305 16.3667 160.305 21.4192V22.4936C160.305 26.8201 158.537 27.9236 157.484 28.3688C159.103 29.1431 160.022 30.3046 160.022 34.1762C159.952 37.0635 160.037 39.953 160.279 42.8293H156.14C155.827 41.3668 155.844 37.7106 155.854 35.4246C155.856 35.063 155.857 34.7359 155.857 34.4569C155.857 31.0209 155.415 30.2369 152.93 30.2369L151.94 30.227ZM151.94 26.6362H152.922C155.185 26.6362 156.017 25.7651 156.017 22.7065V21.7386C156.017 19.5608 155.574 18.2348 153.151 18.2348H151.94V26.6362ZM177.735 14.6439H171.802V42.8197H177.735C184.332 42.8197 185.057 38.0866 185.057 33.7794V22.9775C185.057 17.7412 183.625 14.6439 177.735 14.6439ZM177.497 39.1221H176.126V18.38H177.47C180.3 18.38 180.742 20.0448 180.742 22.6291V34.3698C180.742 37.2831 180.318 39.1221 177.497 39.1221ZM200.886 14.6439V42.8197H196.605V14.6439H200.886ZM215.724 42.8197L216.697 35.2893H220.968L222.056 42.8197H226.53L221.888 14.6439H215.839L211.364 42.8197H215.724ZM220.232 29.5906C220.306 30.1528 220.38 30.7206 220.455 31.2917H217.236C217.29 30.8937 217.345 30.4784 217.403 30.0509C217.946 26.0101 218.635 20.8776 218.739 18.7768H218.898C219.179 21.5815 219.686 25.4374 220.232 29.5906Z" fill="#262933"/>
</g>
</g>
<defs>
<linearGradient id="paint0_linear_8296_11403" x1="26.8913" y1="46.0206" x2="26.8913" y2="11.5804" gradientUnits="userSpaceOnUse">
<stop stop-color="#FF8A11"/>
<stop offset="1" stop-color="#FFDA6A"/>
</linearGradient>
<linearGradient id="paint1_linear_8296_11403" x1="26.8928" y1="46.0205" x2="26.8928" y2="11.5803" gradientUnits="userSpaceOnUse">
<stop stop-color="#FF8A11"/>
<stop offset="1" stop-color="#FFDA6A"/>
</linearGradient>
<linearGradient id="paint2_linear_8296_11403" x1="26.8918" y1="46.0206" x2="26.8918" y2="11.5804" gradientUnits="userSpaceOnUse">
<stop stop-color="#FF8A11"/>
<stop offset="1" stop-color="#FFDA6A"/>
</linearGradient>
<linearGradient id="paint3_linear_8296_11403" x1="26.8907" y1="46.0206" x2="26.8907" y2="11.5804" gradientUnits="userSpaceOnUse">
<stop stop-color="#FF8A11"/>
<stop offset="1" stop-color="#FFDA6A"/>
</linearGradient>
<linearGradient id="paint4_linear_8296_11403" x1="26.8897" y1="46.0205" x2="26.8897" y2="11.5803" gradientUnits="userSpaceOnUse">
<stop stop-color="#FF8A11"/>
<stop offset="1" stop-color="#FFDA6A"/>
</linearGradient>
<clipPath id="clip0_8296_11403">
<rect width="226.774" height="50.6757" fill="white"/>
</clipPath>
</defs>
</svg>
