<svg width="171" height="40" viewBox="0 0 171 40" fill="none" xmlns="http://www.w3.org/2000/svg">
<g clip-path="url(#clip0_7054_4529)">
<path d="M19.8902 12.7158L0.199463 0V20.5474H39.5809V0L19.8902 12.7158Z" fill="#FF5F38"/>
<path d="M19.8902 40L39.5809 20.5474L19.8902 12.7158L0.199463 20.5474L19.8902 40Z" fill="#9F1900"/>
<path d="M15.5688 35.7316L19.8903 40L24.2118 35.7316L19.8903 31.4342L15.5688 35.7316Z" fill="black"/>
<path d="M0.199463 20.5474L19.8902 12.7158L39.5809 20.5474L19.8902 31.4342L0.199463 20.5474Z" fill="#F02600"/>
<path d="M47.1948 30.7902V9.96094H59.2702L58.7879 13.1836H51.6095V19.0835H57.8543V22.2998H51.6095V30.7902H47.1948Z" fill="black"/>
<path d="M77.4911 10.7603C78.905 11.6464 80.0158 12.9435 80.6753 14.4787C82.164 18.2619 82.164 22.4705 80.6753 26.2537C80.0106 27.7855 78.901 29.0813 77.4911 29.9721C75.9998 30.8695 74.2836 31.3211 72.5447 31.2735C70.8096 31.3185 69.0964 30.8763 67.5985 29.9969C66.1792 29.1119 65.062 27.8151 64.3958 26.2785C63.6068 24.4143 63.2231 22.4031 63.2704 20.3787C63.2191 18.3779 63.603 16.39 64.3958 14.5531C65.068 13.0034 66.1878 11.6911 67.6109 10.7851C69.096 9.88327 70.809 9.42931 72.5447 9.47749C74.2814 9.42707 75.9968 9.87193 77.4911 10.7603ZM69.1319 14.5965C68.3611 15.7988 67.9756 17.7262 67.9756 20.3787C67.9756 23.0311 68.3651 24.9563 69.1443 26.1545C69.5014 26.7301 70.0041 27.2005 70.6015 27.5183C71.1987 27.8361 71.8691 27.9899 72.5447 27.9641C73.2231 27.9989 73.8985 27.8514 74.5007 27.5364C75.1031 27.2213 75.6103 26.7507 75.9701 26.1731C76.7327 24.9749 77.1118 23.0435 77.1078 20.3787C77.1036 17.7138 76.7243 15.7802 75.9701 14.5779C75.6103 14.0003 75.1031 13.5297 74.5007 13.2148C73.8985 12.8998 73.2231 12.7521 72.5447 12.7869C71.8627 12.7531 71.1841 12.9031 70.5795 13.2214C69.9749 13.5396 69.4665 14.0145 69.1072 14.5965H69.1319Z" fill="black"/>
<path d="M96.5716 19.5607L102.637 30.7902H97.771L93.9006 22.5416L90.0857 30.7902H85.3682L91.2851 19.7156L85.8504 9.96094H90.6855L93.9563 16.9144L97.3815 9.96094H102.068L96.5716 19.5607Z" fill="black"/>
<path d="M123.733 30.7902V20.7382H113.877V30.8212H112.078V10.2026H113.877V19.2012H123.733V10.2026H125.532V30.8212L123.733 30.7902Z" fill="black"/>
<path d="M148.446 24.3512C148.532 26.1562 147.909 27.9232 146.709 29.272C145.546 30.5114 143.873 31.1312 141.688 31.1312C139.504 31.1312 137.828 30.5114 136.662 29.272C135.452 27.9142 134.83 26.1312 134.93 24.314V10.2026H136.736V24.2272C136.736 25.9564 137.138 27.2826 137.972 28.206C138.807 29.1294 140.025 29.588 141.682 29.588C143.339 29.588 144.607 29.1232 145.392 28.1874C146.256 27.056 146.682 25.6492 146.591 24.2272V10.2026H148.446V24.3512Z" fill="black"/>
<path d="M169.53 21.3578C170.412 22.1842 170.853 23.4236 170.853 25.0764C170.853 27.0016 170.202 28.4374 168.899 29.3834C167.596 30.3296 165.785 30.8006 163.464 30.7964H157.869V10.2026H162.463C164.843 10.2026 166.679 10.6303 167.972 11.4979C168.602 11.914 169.113 12.4881 169.453 13.1632C169.794 13.8383 169.952 14.591 169.913 15.3465C169.97 16.4739 169.599 17.5811 168.874 18.4451C168.158 19.2414 167.187 19.7629 166.129 19.9201C167.389 20.015 168.583 20.5198 169.53 21.3578ZM159.637 11.6838V19.2384H163.78C164.899 19.293 165.999 18.9335 166.871 18.2282C167.262 17.8826 167.571 17.4528 167.773 16.971C167.975 16.4891 168.067 15.9677 168.04 15.4456C168.089 14.8859 167.989 14.323 167.748 13.8153C167.508 13.3076 167.137 12.8734 166.673 12.5576C165.762 11.9751 164.406 11.6838 162.605 11.6838H159.637ZM168.998 25.0764C169.045 24.456 168.945 23.8334 168.708 23.2586C168.471 22.6836 168.102 22.1728 167.632 21.767C166.583 21.0004 165.304 20.6176 164.008 20.6824H159.68V29.2906H163.495C167.164 29.2864 168.998 27.8816 168.998 25.0764Z" fill="black"/>
</g>
<defs>
<clipPath id="clip0_7054_4529">
<rect width="171" height="40" fill="white"/>
</clipPath>
</defs>
</svg>
