<svg width="203" height="51" viewBox="0 0 203 51" fill="none" xmlns="http://www.w3.org/2000/svg">
<g clip-path="url(#clip0_8296_11485)">
<mask id="mask0_8296_11485" style="mask-type:luminance" maskUnits="userSpaceOnUse" x="0" y="0" width="203" height="51">
<path d="M202.576 0H0V50.7074H202.576V0Z" fill="white"/>
</mask>
<g mask="url(#mask0_8296_11485)">
<path fill-rule="evenodd" clip-rule="evenodd" d="M29.2259 0.329346L38.9193 11.8212L41.1804 33.0567L24.0708 51.0368L4.16406 32.9976L14.1875 7.49367L29.2259 0.329346ZM15.0568 9.4516L23.0521 17.8979L14.8755 29.7574L6.30604 31.7173L15.0568 9.4516ZM6.66635 33.2038L21.8625 46.9744L14.8931 31.3225L6.66635 33.2038ZM16.562 31.3205L24.2643 48.6183L38.7462 33.3997L16.562 31.3205ZM39.4135 30.8611L37.535 13.2214L25.4433 18.0786L39.4135 30.8611ZM24.2281 16.919L36.9212 11.8202L28.8199 2.2161L16.0632 8.29352L24.2281 16.919ZM24.1622 18.9766L38.1891 31.8111L16.7019 29.7972L24.1622 18.9766Z" fill="url(#paint0_linear_8296_11485)"/>
<path d="M101.922 40.1802C97.6267 40.1802 94.0012 38.7857 91.1007 35.941C88.2002 33.0963 86.75 29.5266 86.75 25.2874C86.75 21.0483 88.2002 17.5343 91.1007 14.6896C94.0012 11.8449 97.6267 10.3947 101.922 10.3947C105.547 10.3947 108.671 11.4544 111.404 13.574C114.137 15.6378 115.866 18.3709 116.591 21.6618H111.515C110.009 17.7016 106.384 15.0242 101.922 15.0242C98.9654 15.0242 96.567 16.0282 94.6147 17.9805C92.6625 19.9327 91.7143 22.3312 91.7143 25.2874C91.7143 28.2437 92.6625 30.6979 94.6147 32.6501C96.567 34.6024 98.9654 35.5506 101.922 35.5506C106.384 35.5506 110.009 32.8732 111.515 28.913H116.591C115.866 32.2039 114.137 34.937 111.404 37.0566C108.671 39.1204 105.547 40.1802 101.922 40.1802Z" fill="black"/>
<path d="M163.965 13.3509C162.013 11.3987 159.447 10.3947 156.268 10.3947C151.527 10.3947 148.069 12.3469 146.005 16.3071C144.387 12.57 140.817 10.3947 136.299 10.3947C132.172 10.3947 129.048 11.9564 126.984 15.1358V11.064H122.188V39.5108H126.984V22.6101C126.984 18.092 130.108 15.0242 134.793 15.0242C139.256 15.0242 142.156 17.9805 142.156 22.4985V39.5108H146.953V22.6101C146.953 18.092 150.077 15.0242 154.762 15.0242C159.224 15.0242 162.125 17.9805 162.125 22.4985V39.5108H166.922V21.1598C166.922 17.8689 165.918 15.3031 163.965 13.3509Z" fill="black"/>
<path fill-rule="evenodd" clip-rule="evenodd" d="M202.383 27.1283V27.1278C202.434 26.4669 202.482 25.8536 202.482 25.2877C202.482 21.0485 201.032 17.5345 198.131 14.6898C195.286 11.8451 191.661 10.3949 187.366 10.3949C183.071 10.3949 179.445 11.8451 176.545 14.6898C173.7 17.5345 172.25 21.0485 172.25 25.2877C172.25 29.5268 173.7 33.0966 176.545 35.9413C179.445 38.786 183.071 40.1804 187.366 40.1804C194.282 40.1804 199.86 36.2759 201.924 30.4192H196.625C195.119 33.5986 191.605 35.7739 187.366 35.7739C184.8 35.7739 182.569 34.9931 180.728 33.4313C178.888 31.8695 177.772 29.8057 177.382 27.2957H202.37L202.383 27.1283ZM197.35 23.0008H177.437C178.386 18.0923 182.29 14.8014 187.366 14.8014C192.442 14.8014 196.458 18.1481 197.35 23.0008Z" fill="black"/>
<path fill-rule="evenodd" clip-rule="evenodd" d="M82.6087 11.0637H60.9668V15.6933H77.8118V21.2711H69.3335C66.3772 21.2711 63.923 22.1636 61.9708 24.0043C60.0185 25.7892 59.0703 28.0204 59.0703 30.6977C59.0703 33.4309 60.0185 35.662 61.9708 37.5027C63.923 39.2876 66.3772 40.18 69.3335 40.18C73.1822 40.18 76.5289 38.5067 78.3138 35.8293V39.5107H82.6087V11.0637ZM77.8118 30.1957C77.8118 33.5424 74.6324 35.8293 69.947 35.8293C66.5446 35.8293 64.0346 33.654 64.0346 30.6977C64.0346 27.7973 66.5446 25.6219 69.947 25.6219H77.8118V30.1957Z" fill="black"/>
</g>
</g>
<defs>
<linearGradient id="paint0_linear_8296_11485" x1="22.6723" y1="0.329346" x2="22.6723" y2="51.0368" gradientUnits="userSpaceOnUse">
<stop stop-color="#FFAC0B"/>
<stop offset="1" stop-color="#0B99FF"/>
</linearGradient>
<clipPath id="clip0_8296_11485">
<rect width="202.576" height="50.7074" fill="white"/>
</clipPath>
</defs>
</svg>
