<svg width="140" height="40" viewBox="0 0 140 40" fill="none" xmlns="http://www.w3.org/2000/svg">
<g clip-path="url(#clip0_7054_4454)">
<mask id="mask0_7054_4454" style="mask-type:luminance" maskUnits="userSpaceOnUse" x="0" y="0" width="140" height="40">
<path d="M140 0H0V40H140V0Z" fill="white"/>
</mask>
<g mask="url(#mask0_7054_4454)">
<path d="M40.0572 12.5601V18.3861C40.0572 30.3221 31.0904 40.0001 20.0286 40.0001C8.96681 40.0001 0 30.3221 0 18.3861V12.5601L20.9059 34.1481L40.0572 12.5601Z" fill="url(#paint0_linear_7054_4454)"/>
<path d="M0.877253 12.5339C0.624893 12.5339 0.374535 12.5339 0.12618 12.5539C0.0425986 13.2883 0.00047202 14.0268 0 14.7659C0 25.766 8.96681 34.69 20.0286 34.69C20.281 34.69 20.5293 34.69 20.7797 34.672C20.8622 33.9376 20.9045 33.199 20.9059 32.46C20.9059 21.456 11.9391 12.5339 0.877253 12.5339Z" fill="url(#paint1_linear_7054_4454)"/>
<path d="M39.933 12.5599C29.3359 13.0799 20.9059 21.79 20.9059 32.46C20.9059 21.46 11.9391 12.5339 0.877253 12.5339C0.624893 12.5339 0.374535 12.5339 0.12618 12.5539C0.0425986 13.2883 0.00047202 14.0268 0 14.7659C0 25.766 8.96681 34.69 20.0286 34.69C20.281 34.69 20.5293 34.69 20.7797 34.672C20.8638 34.672 20.9479 34.672 21.03 34.672C31.6272 34.152 40.0572 25.442 40.0572 14.7719C40.0566 14.0329 40.0152 13.2944 39.933 12.5599Z" fill="url(#paint2_linear_7054_4454)"/>
<path d="M20.0287 14.4C24.0107 14.4 27.239 11.1765 27.239 7.2C27.239 3.22354 24.0107 0 20.0287 0C16.0465 0 12.8184 3.22354 12.8184 7.2C12.8184 11.1765 16.0465 14.4 20.0287 14.4Z" fill="#6F4A9E"/>
<path d="M124.405 12.512C126.808 12.512 128.755 13.244 130.245 14.708C131.735 16.148 132.48 18.236 132.48 20.9719V32.5999H129.236V21.4399C129.236 19.472 128.743 17.972 127.758 16.94C126.772 15.884 125.426 15.356 123.72 15.356C121.989 15.356 120.607 15.896 119.574 16.976C118.564 18.056 118.06 19.628 118.06 21.6919V32.5999H114.779V12.872H118.06V15.68C118.709 14.672 119.586 13.892 120.691 13.34C121.821 12.788 123.059 12.512 124.405 12.512Z" fill="black"/>
<path d="M137.803 32.8161C137.178 32.8161 136.65 32.6001 136.217 32.1681C135.784 31.7361 135.568 31.2081 135.568 30.5841C135.568 29.9601 135.784 29.4321 136.217 29.0001C136.65 28.5681 137.178 28.3521 137.803 28.3521C138.404 28.3521 138.909 28.5681 139.317 29.0001C139.75 29.4321 139.966 29.9601 139.966 30.5841C139.966 31.2081 139.75 31.7361 139.317 32.1681C138.909 32.6001 138.404 32.8161 137.803 32.8161Z" fill="black"/>
<path fill-rule="evenodd" clip-rule="evenodd" d="M111.422 23.96C111.494 23.264 111.53 22.604 111.53 21.98C111.53 20.18 111.133 18.572 110.34 17.156C109.571 15.716 108.466 14.588 107.024 13.772C105.582 12.956 103.923 12.548 102.049 12.548C100.126 12.548 98.4193 12.968 96.9292 13.808C95.4631 14.624 94.3215 15.8 93.5043 17.336C92.6871 18.872 92.2786 20.66 92.2786 22.7C92.2786 24.74 92.6992 26.54 93.5404 28.1C94.3816 29.636 95.5352 30.824 97.0013 31.664C98.4914 32.504 100.174 32.924 102.049 32.924C104.404 32.924 106.375 32.336 107.961 31.16C109.547 29.96 110.605 28.412 111.134 26.516H107.6C107.216 27.62 106.543 28.508 105.582 29.18C104.644 29.828 103.467 30.152 102.049 30.152C100.318 30.152 98.8399 29.612 97.6142 28.532C96.4125 27.428 95.7515 25.904 95.6314 23.96H111.422ZM107.312 18.092C107.865 18.98 108.141 20.048 108.141 21.296H95.6674C95.8356 19.424 96.4966 17.96 97.6502 16.904C98.8279 15.848 100.246 15.32 101.904 15.32C103.058 15.32 104.103 15.56 105.041 16.04C106.002 16.496 106.759 17.18 107.312 18.092Z" fill="black"/>
<path d="M81.7318 29.5761L87.8605 12.8721H91.3575L83.6065 32.6H79.785L72.0339 12.8721H75.567L81.7318 29.5761Z" fill="black"/>
<path fill-rule="evenodd" clip-rule="evenodd" d="M51.0961 17.372C50.2789 18.884 49.8704 20.648 49.8704 22.664C49.8704 24.656 50.2789 26.432 51.0961 27.992C51.9133 29.552 53.0309 30.764 54.4489 31.628C55.8669 32.492 57.4532 32.924 59.2077 32.924C60.9141 32.924 62.4043 32.552 63.6781 31.808C64.9759 31.04 65.9493 30.08 66.5983 28.928V32.6H69.915V12.872H66.5983V16.472C65.9734 15.344 65.024 14.408 63.7502 13.664C62.4764 12.92 60.9742 12.548 59.2438 12.548C57.4892 12.548 55.891 12.968 54.4489 13.808C53.0309 14.648 51.9133 15.836 51.0961 17.372ZM65.697 18.812C66.2978 19.916 66.5983 21.212 66.5983 22.7C66.5983 24.188 66.2978 25.496 65.697 26.624C65.0961 27.728 64.2789 28.58 63.2455 29.18C62.236 29.756 61.1184 30.044 59.8927 30.044C58.6669 30.044 57.5493 29.756 56.5399 29.18C55.5305 28.58 54.7253 27.728 54.1244 26.624C53.5236 25.496 53.2231 24.176 53.2231 22.664C53.2231 21.176 53.5236 19.88 54.1244 18.776C54.7253 17.672 55.5305 16.832 56.5399 16.256C57.5493 15.68 58.6669 15.392 59.8927 15.392C61.1184 15.392 62.236 15.692 63.2455 16.292C64.2789 16.868 65.0961 17.708 65.697 18.812Z" fill="black"/>
</g>
</g>
<defs>
<linearGradient id="paint0_linear_7054_4454" x1="20.0286" y1="41.8841" x2="20.0286" y2="28.7341" gradientUnits="userSpaceOnUse">
<stop stop-color="#FF8A11"/>
<stop offset="1" stop-color="#E81894"/>
</linearGradient>
<linearGradient id="paint1_linear_7054_4454" x1="22.9748" y1="38.258" x2="6.6065" y2="19.0608" gradientUnits="userSpaceOnUse">
<stop stop-color="#B03B83"/>
<stop offset="1" stop-color="#6F4A9E"/>
</linearGradient>
<linearGradient id="paint2_linear_7054_4454" x1="20.0286" y1="30.712" x2="20.0286" y2="16.2699" gradientUnits="userSpaceOnUse">
<stop stop-color="#FF8A11"/>
<stop offset="1" stop-color="#E81894"/>
</linearGradient>
<clipPath id="clip0_7054_4454">
<rect width="140" height="40" fill="white"/>
</clipPath>
</defs>
</svg>
