<svg width="193" height="51" viewBox="0 0 193 51" fill="none" xmlns="http://www.w3.org/2000/svg">
<g clip-path="url(#clip0_8296_11475)">
<path d="M24.9193 20.075C24.2348 20.053 23.5532 20.1727 22.917 20.4264C22.2809 20.6802 21.704 21.0626 21.2226 21.5496C20.2513 22.5327 19.7656 23.7954 19.7656 25.3376C19.7656 26.88 20.2504 28.1468 21.22 29.1383C21.7011 29.6258 22.2779 30.0087 22.9141 30.2623C23.5504 30.5162 24.2322 30.6355 24.9168 30.613C25.6042 30.6343 26.2889 30.5144 26.9281 30.2608C27.5674 30.0071 28.1479 29.6251 28.6339 29.1383C29.6152 28.157 30.106 26.8901 30.106 25.3376C30.106 23.7853 29.6152 22.5184 28.6339 21.537C28.1469 21.0533 27.5661 20.6741 26.9274 20.4227C26.2889 20.1713 25.6055 20.053 24.9193 20.075Z" fill="#0084FF"/>
<path d="M25.5946 8.86829C22.3372 8.86829 19.153 9.83421 16.4446 11.6439C13.7362 13.4536 11.6252 16.0258 10.3787 19.0352C9.13213 22.0447 8.80598 25.3561 9.44148 28.551C10.077 31.7458 11.6455 34.6805 13.9489 36.9837C16.2522 39.2869 19.1868 40.8555 22.3815 41.491C25.5764 42.1265 28.8878 41.8004 31.8971 40.5538C34.9068 39.3071 37.4788 37.1962 39.2887 34.4879C41.0983 31.7795 42.0642 28.5953 42.0642 25.3379C42.0589 20.9715 40.322 16.7855 37.2346 13.6981C34.1469 10.6106 29.9611 8.87366 25.5946 8.86829ZM34.924 34.6698H30.1098V32.4679C28.6688 34.2854 26.6418 35.1935 24.0287 35.1918C21.5406 35.1918 19.4063 34.2398 17.6259 32.3362C15.8454 30.4326 14.9544 28.0997 14.9527 25.3379C14.9527 22.5761 15.8421 20.2433 17.6208 18.3396C19.3995 16.4359 21.5338 15.484 24.0237 15.484C26.6367 15.484 28.6638 16.392 30.1047 18.2078V16.006H34.9189L34.924 34.6698Z" fill="#0084FF"/>
<path d="M50.9335 25.3378C50.9335 23.4552 49.2637 21.7905 48.8634 20.0169C48.4504 18.1976 49.2206 15.9628 48.4301 14.3311C47.6396 12.6993 45.3896 11.8834 44.2519 10.4493C43.1142 9.01517 42.8254 6.67649 41.3938 5.52615C39.9622 4.37581 37.6185 4.63679 35.9512 3.83358C34.284 3.03037 33.0526 1.04643 31.2359 0.630886C29.4622 0.230549 27.4783 1.47717 25.5956 1.47717C23.713 1.47717 21.7164 0.230549 19.9554 0.630886C18.1387 1.04389 16.882 3.04051 15.2401 3.83358C13.5982 4.62666 11.2291 4.38341 9.79751 5.52615C8.36592 6.66889 8.0872 9.02024 6.9394 10.4594C5.7916 11.8986 3.56693 12.6689 2.76119 14.3412C1.95545 16.0135 2.74092 18.2077 2.32791 20.0169C1.92758 21.7905 0.257812 23.4552 0.257812 25.3378C0.257812 27.2204 1.92758 28.8851 2.32791 30.6588C2.74092 32.478 1.97065 34.7128 2.76119 36.3446C3.55173 37.9763 5.80173 38.7922 6.9394 40.2263C8.07707 41.6604 8.35832 44.0093 9.79751 45.1596C11.2367 46.3099 13.5728 46.049 15.2401 46.8522C16.9073 47.6554 18.1387 49.6393 19.9554 50.0549C21.7291 50.4552 23.713 49.2086 25.5956 49.2086C27.4783 49.2086 29.4749 50.4552 31.2359 50.0549C33.0526 49.6419 34.3093 47.6427 35.9512 46.8522C37.5931 46.0616 39.9622 46.3023 41.3938 45.1596C42.8254 44.0169 43.1041 41.6655 44.2519 40.2263C45.3997 38.7871 47.6244 38.0118 48.4301 36.3446C49.2358 34.6773 48.4504 32.478 48.8634 30.6588C49.2637 28.8851 50.9335 27.2204 50.9335 25.3378ZM25.5956 42.8209C22.1378 42.8209 18.7576 41.7955 15.8826 39.8744C13.0075 37.9535 10.7666 35.2229 9.44336 32.0283C8.12012 28.8337 7.77388 25.3184 8.44847 21.927C9.12307 18.5356 10.7882 15.4205 13.2332 12.9754C15.6783 10.5303 18.7935 8.86522 22.1849 8.19063C25.5761 7.51606 29.0915 7.86227 32.2861 9.18552C35.4807 10.5088 38.2114 12.7496 40.1322 15.6247C42.0533 18.4998 43.0788 21.88 43.0788 25.3378C43.0739 29.9731 41.2306 34.4174 37.9529 37.6951C34.6752 40.9728 30.231 42.8161 25.5956 42.8209Z" fill="#0084FF"/>
<path d="M115.549 13.9081C117.411 13.9081 119.069 14.3009 120.524 15.0864C121.979 15.8429 123.128 16.9921 123.972 18.5341C124.816 20.0761 125.237 21.9527 125.237 24.1639V38.2603H121.31V24.7313C121.31 22.3455 120.713 20.5271 119.52 19.2761C118.357 17.9959 116.771 17.3558 114.764 17.3558C112.698 17.3558 111.054 18.025 109.832 19.3633C108.61 20.6726 107.999 22.5783 107.999 25.0804V38.2603H104.071V24.7313C104.071 22.3455 103.475 20.5271 102.282 19.2761C101.118 17.9959 99.5325 17.3558 97.525 17.3558C95.4592 17.3558 93.8155 18.025 92.5935 19.3633C91.3714 20.6726 90.7605 22.5783 90.7605 25.0804V38.2603H86.7891V14.3445H90.7605V17.7922C91.546 16.5411 92.5935 15.581 93.9027 14.9119C95.241 14.2427 96.7103 13.9081 98.3104 13.9081C100.318 13.9081 102.093 14.359 103.635 15.261C105.177 16.1629 106.326 17.4867 107.083 19.2324C107.752 17.5449 108.857 16.2357 110.399 15.3046C111.941 14.3736 113.658 13.9081 115.549 13.9081Z" fill="black"/>
<path d="M159.987 18.2286C160.685 16.8612 161.674 15.7992 162.955 15.0428C164.264 14.2863 165.85 13.9081 167.712 13.9081V18.0104H166.664C162.213 18.0104 159.987 20.4253 159.987 25.255V38.2603H156.016V14.3445H159.987V18.2286Z" fill="black"/>
<path fill-rule="evenodd" clip-rule="evenodd" d="M168.188 26.2151C168.188 23.7711 168.682 21.6326 169.671 19.7997C170.66 17.9376 172.014 16.4974 173.73 15.4791C175.476 14.4608 177.41 13.9517 179.534 13.9517C181.629 13.9517 183.448 14.4026 184.99 15.3045C186.532 16.2065 187.681 17.3412 188.437 18.7086V14.3444H192.453V38.2602H188.437V33.8088C187.652 35.2052 186.474 36.369 184.902 37.3001C183.36 38.2019 181.557 38.6529 179.491 38.6529C177.367 38.6529 175.447 38.1292 173.73 37.082C172.014 36.0345 170.66 34.5652 169.671 32.6739C168.682 30.783 168.188 28.6298 168.188 26.2151ZM188.437 26.2587C188.437 24.4548 188.074 22.8837 187.346 21.5453C186.619 20.207 185.63 19.1887 184.379 18.4904C183.157 17.7631 181.804 17.3994 180.32 17.3994C178.836 17.3994 177.483 17.7485 176.261 18.4468C175.039 19.145 174.065 20.1634 173.337 21.5017C172.61 22.84 172.246 24.4112 172.246 26.2151C172.246 28.048 172.61 29.6481 173.337 31.0156C174.065 32.3539 175.039 33.3869 176.261 34.1141C177.483 34.8125 178.836 35.1616 180.32 35.1616C181.804 35.1616 183.157 34.8125 184.379 34.1141C185.63 33.3869 186.619 32.3539 187.346 31.0156C188.074 29.6481 188.437 28.0625 188.437 26.2587Z" fill="black"/>
<path fill-rule="evenodd" clip-rule="evenodd" d="M129.14 19.7997C128.151 21.6326 127.656 23.7711 127.656 26.2151C127.656 28.6298 128.151 30.783 129.14 32.6739C130.129 34.5652 131.482 36.0345 133.199 37.082C134.915 38.1292 136.835 38.6529 138.959 38.6529C141.025 38.6529 142.829 38.2019 144.371 37.3001C145.942 36.369 147.121 35.2052 147.906 33.8088V38.2602H151.921V14.3444H147.906V18.7086C147.149 17.3412 146 16.2065 144.458 15.3045C142.916 14.4026 141.098 13.9517 139.003 13.9517C136.879 13.9517 134.944 14.4608 133.199 15.4791C131.482 16.4974 130.129 17.9376 129.14 19.7997ZM146.815 21.5453C147.542 22.8837 147.906 24.4548 147.906 26.2587C147.906 28.0625 147.542 29.6481 146.815 31.0156C146.088 32.3539 145.098 33.3869 143.847 34.1141C142.625 34.8125 141.272 35.1616 139.789 35.1616C138.305 35.1616 136.952 34.8125 135.73 34.1141C134.508 33.3869 133.533 32.3539 132.806 31.0156C132.078 29.6481 131.715 28.048 131.715 26.2151C131.715 24.4112 132.078 22.84 132.806 21.5017C133.533 20.1634 134.508 19.145 135.73 18.4468C136.952 17.7485 138.305 17.3994 139.789 17.3994C141.272 17.3994 142.625 17.7631 143.847 18.4904C145.098 19.1887 146.088 20.207 146.815 21.5453Z" fill="black"/>
<path fill-rule="evenodd" clip-rule="evenodd" d="M59.9135 19.7997C58.9243 21.6326 58.4297 23.7711 58.4297 26.2151C58.4297 28.6298 58.9243 30.783 59.9135 32.6739C60.9027 34.5652 62.2557 36.0345 63.9721 37.082C65.6887 38.1292 67.6091 38.6529 69.7329 38.6529C71.7987 38.6529 73.6025 38.2019 75.1446 37.3001C76.7157 36.369 77.894 35.2052 78.6794 33.8088V38.2602H82.6945V14.3444H78.6794V18.7086C77.9231 17.3412 76.7738 16.2065 75.2317 15.3045C73.6899 14.4026 71.8714 13.9517 69.7765 13.9517C67.6527 13.9517 65.7179 14.4608 63.9721 15.4791C62.2557 16.4974 60.9027 17.9376 59.9135 19.7997ZM77.5884 21.5453C78.3158 22.8837 78.6794 24.4548 78.6794 26.2587C78.6794 28.0625 78.3158 29.6481 77.5884 31.0156C76.8612 32.3539 75.872 33.3869 74.6208 34.1141C73.3988 34.8125 72.046 35.1616 70.5622 35.1616C69.0784 35.1616 67.7254 34.8125 66.5033 34.1141C65.2815 33.3869 64.3068 32.3539 63.5793 31.0156C62.8522 29.6481 62.4883 28.048 62.4883 26.2151C62.4883 24.4112 62.8522 22.84 63.5793 21.5017C64.3068 20.1634 65.2815 19.145 66.5033 18.4468C67.7254 17.7485 69.0784 17.3994 70.5622 17.3994C72.046 17.3994 73.3988 17.7631 74.6208 18.4904C75.872 19.1887 76.8612 20.207 77.5884 21.5453Z" fill="black"/>
</g>
<defs>
<clipPath id="clip0_8296_11475">
<rect width="192.568" height="50.6757" fill="white"/>
</clipPath>
</defs>
</svg>
