<svg width="147" height="85" viewBox="0 0 147 85" fill="none" xmlns="http://www.w3.org/2000/svg">
<g clip-path="url(#clip0_8369_9334)">
<path d="M37.285 9.43474C49.8548 3.77359 63.6832 1.48641 77.4064 2.79874C85.9911 3.67301 90.3941 9.58221 93.3961 14.1958C95.7029 17.7245 97.8306 22.3065 101.707 24.3815C105.72 26.5514 105.752 30.8069 105.53 32.6081C105.004 36.8319 103.182 39.5285 103.95 44.4054C104.488 47.7761 111.408 53.6115 122.995 58.6254C127.166 60.4477 131.232 60.3213 133.539 64.6715C139.901 76.669 137.562 89.0983 131.19 100.337C124.891 111.461 114.326 122.089 102.75 131.495C95.8609 137.088 87.6448 138.668 80.261 139.679C71.255 140.912 56.4978 140.08 43.131 136.878C31.5443 134.097 16.5132 129.051 11.4572 117.075C2.75671 96.4295 -0.624488 81.9989 -0.445421 69.8329C-0.276888 57.5931 3.49405 48.1763 7.83378 37.9695C13.5218 24.6449 24.666 15.1859 37.285 9.43474ZM76.3215 13.2689C64.466 12.1574 52.5249 14.1427 41.6668 19.0306C30.7648 23.9918 21.9168 31.797 17.5244 42.1197C13.2058 52.2633 10.2143 60.0053 10.0668 70.0014C9.92991 80.0713 12.7002 92.9535 21.1584 112.988C24.7292 121.446 37.6747 124.743 45.5747 126.639C57.983 129.61 71.3919 130.273 78.839 129.251C86.0438 128.261 91.6581 126.934 96.1136 123.332C107.279 114.241 116.675 104.614 122.026 95.1655C125.249 89.4775 131.348 72.5821 122.026 69.2535C102.276 62.2173 97.0933 55.3495 94.2387 48.4607C92.3322 43.8787 92.5323 39.0861 93.8806 34.4093C94.048 33.7066 94.3177 33.0322 94.6811 32.4079C92.5939 30.8791 90.7537 29.0389 89.2249 26.9517C85.7278 22.3486 82.8627 13.943 76.3215 13.2689ZM63.9448 106.015C64.2608 105.836 66.2622 104.677 68.7059 105.657C73.9515 107.763 75.4473 118.423 68.2846 118.887C64.1239 119.15 58.4254 117.886 59.3102 112.409C59.7315 109.881 61.7644 107.258 63.9238 106.025L63.9448 106.015ZM30.7648 98.1465C34.5568 93.7541 40.94 94.6389 42.5411 100.095C42.913 101.205 42.9046 102.407 42.5174 103.511C42.1302 104.615 41.3862 105.559 40.4028 106.194C37.8327 109.27 33.4508 108.301 31.1124 105.383L31.0808 105.341L31.0598 105.32C30.1125 104.383 29.5554 103.122 29.5007 101.791C29.446 100.46 29.8977 99.1578 30.7648 98.1465ZM98.431 84.5585C102.318 82.6309 109.723 84.4321 109.723 89.5302C109.723 93.7435 104.435 99.0523 100.274 99.7475C96.2506 100.422 91.2367 96.5243 91.8793 92.3215C92.3849 89.0351 95.6186 85.9699 98.431 84.569M66.2832 73.5406C69.4643 72.3187 73.5196 73.3405 75.0786 76.4899C76.7639 79.8922 76.153 86.5387 72.4137 87.9713C68.1161 89.6039 64.2082 87.4973 62.6071 83.3366L62.586 83.2839C61.2167 79.7869 62.586 74.9626 66.2832 73.5406ZM21.0952 63.8499C32.5871 57.2139 37.5378 74.7519 30.9755 76.3319C26.9307 77.301 24.0972 76.7427 21.0952 73.7407C19.1992 71.8447 17.5455 65.9039 21.0952 63.8499ZM69.2747 54.0223C70.0417 54.0973 70.7855 54.3274 71.4609 54.6986C72.1363 55.0698 72.7292 55.5743 73.2037 56.1817C78.4071 62.9651 66.0199 69.2641 62.4912 62.2173C60.2371 57.709 64.9666 53.5378 69.2747 54.0223ZM32.3448 44.6477C37.4114 39.5706 45.975 48.5029 41.0875 53.3903C40.0999 54.3777 38.7605 54.9323 37.364 54.9323C35.9674 54.9323 34.6281 54.3777 33.6404 53.3903C31.2388 50.9887 29.385 47.597 32.3448 44.6477ZM141.554 36.5054C147.485 37.6009 145.568 45.1427 139.479 45.0585C131.6 44.9321 133.791 35.0834 141.554 36.5054ZM51.9895 30.7858C50.8203 24.055 55.7499 18.4829 62.1963 22.0958C67.305 24.9609 65.5459 33.3033 61.7644 36.5897C57.1403 40.5923 52.7479 35.1571 51.9895 30.7858ZM116.264 24.1182C120.193 19.2097 130.579 25.4349 128.124 31.1966C124.912 38.7701 110.997 30.7015 116.264 24.1182ZM140.333 15.2597C132.169 15.049 134.434 -0.856324 142.492 1.43994C148.633 3.19901 146.653 15.4071 140.343 15.2597M105.394 1.98768C109.723 -3.78459 120.477 4.28394 116.138 10.0562C111.819 15.8179 101.075 7.75994 105.394 1.98768Z" fill="#FAF0EB"/>
</g>
<defs>
<clipPath id="clip0_8369_9334">
<rect width="147" height="85" fill="white"/>
</clipPath>
</defs>
</svg>
