<svg xmlns="http://www.w3.org/2000/svg" width="50" height="50" viewBox="0 0 50 50" fill="none"><path d="M40.9634 39.0625C40.4166 39.6094 39.8697 40.1432 39.3358 40.6901C39.2577 40.7682 39.2317 40.9375 39.2577 41.0416C39.7135 43.0208 38.164 44.9479 36.0806 44.9088C36.0676 44.9088 36.0546 44.9219 35.9895 44.9609C35.9635 46.25 35.4296 47.3177 34.2056 47.9166C32.9687 48.5156 31.8098 48.3073 30.703 47.4609C30.6509 47.5651 30.5989 47.6562 30.5598 47.7474C29.6874 49.8828 27.0702 50.4557 25.4036 48.8672C24.9739 48.4505 24.5702 47.9948 24.1015 47.513C24.0233 47.6823 23.9843 47.7604 23.9582 47.8385C23.0598 50.0521 20.4296 50.5989 18.7108 48.9193C16.5364 46.7708 14.3749 44.5963 12.2134 42.4479C11.2239 41.4583 10.2343 40.4687 9.2447 39.4791C9.16657 39.401 9.07543 39.3359 9.07543 39.3229C8.69783 39.6745 8.38533 40.1302 7.96866 40.2995C7.55199 40.4687 7.01814 40.4036 6.54939 40.3255C5.36449 40.1302 4.19261 39.8828 3.00772 39.6354C1.97907 39.4271 1.4322 38.6719 1.64053 37.6432C2.4348 33.6198 3.24209 29.5833 4.03637 25.5599C4.11449 25.1692 4.16657 24.7526 4.16657 24.3489C4.17959 22.1875 4.16657 20.026 4.17959 17.8646C4.17959 17.0573 4.42699 16.8229 5.23428 16.8229C6.04158 16.8229 6.86189 16.8229 7.6822 16.8229C8.12491 15.0521 8.78897 13.3984 9.70043 11.8489C9.75251 11.7448 9.70043 11.5104 9.60928 11.4062C9.11449 10.8724 8.58064 10.3646 8.05981 9.84373C7.56501 9.33592 7.55199 8.95831 8.04678 8.46352C9.53116 6.97915 11.0155 5.49477 12.4999 4.0104C13.0077 3.50258 13.3723 3.50258 13.8801 3.99738C14.4791 4.59633 15.065 5.19529 15.5598 5.67706C17.3697 4.92186 19.0884 4.21873 20.8983 3.46352C20.8983 2.77342 20.8983 1.95311 20.8983 1.11977C20.8983 0.377585 21.1588 0.130188 21.901 0.130188C23.9843 0.130188 26.0676 0.130188 28.151 0.130188C28.8801 0.130188 29.1405 0.390604 29.1405 1.13279C29.1405 1.84894 29.1275 2.56508 29.1536 3.28123C29.1536 3.42446 29.2968 3.65883 29.414 3.68488C31.1588 4.12758 32.7864 4.84373 34.3619 5.78123C34.9478 5.18227 35.5338 4.59633 36.1197 4.0104C36.6536 3.48956 37.0051 3.47654 37.539 4.0104C39.0103 5.48175 40.4947 6.95311 41.9661 8.42446C42.4869 8.94529 42.4739 9.3229 41.9661 9.84373C41.4582 10.3515 40.9504 10.8463 40.4556 11.3672C40.3645 11.4713 40.2603 11.7057 40.3124 11.7969C41.2239 13.3594 41.9009 15.013 42.3437 16.7969C43.1509 16.7969 43.9322 16.7969 44.7135 16.7969C45.6379 16.7969 45.8463 17.0052 45.8463 17.9557C45.8463 20 45.7812 22.0573 45.8723 24.1015C45.9374 25.3906 46.2109 26.6666 46.4583 27.9427C47.0702 31.1198 47.7213 34.2708 48.3593 37.4479C48.6067 38.6849 48.1119 39.401 46.8489 39.6484C45.7161 39.8698 44.5832 40.1041 43.4504 40.3255C41.9921 40.625 41.5624 40.4036 40.9634 39.0625ZM19.3749 23.9583C19.1926 23.9323 19.1145 23.9193 19.0364 23.9193C16.8098 23.9193 14.5702 23.9193 12.3437 23.9062C12.0051 23.9062 11.953 24.0755 11.901 24.3359C11.0676 28.5156 10.2343 32.7083 9.38793 36.888C9.32282 37.2005 9.38793 37.4219 9.62231 37.6562C13.0077 41.0156 16.3671 44.388 19.7395 47.7474C19.8306 47.8385 19.9218 47.9297 20.0259 48.0078C20.5468 48.3724 21.1067 48.4505 21.6796 48.164C22.2525 47.8776 22.552 47.4088 22.565 46.7578C22.578 46.25 22.3697 45.8594 22.0181 45.5078C21.1197 44.6354 20.2343 43.75 19.3619 42.8515C18.9973 42.4739 18.9973 41.9922 19.3228 41.6797C19.6353 41.3802 20.0911 41.4062 20.4556 41.7448C20.5468 41.8359 20.6379 41.9271 20.7291 42.0182C22.5911 43.8802 24.4661 45.7422 26.315 47.6041C26.7187 48.0078 27.1744 48.2552 27.7473 48.1901C28.3983 48.112 28.8671 47.7604 29.0754 47.1224C29.2968 46.4713 29.1275 45.9114 28.6588 45.4297C26.8749 43.6458 25.0911 41.862 23.3072 40.0911C23.2161 40 23.1119 39.9088 23.0338 39.8177C22.7473 39.4661 22.7603 39.0625 23.0468 38.763C23.3332 38.4635 23.7499 38.4375 24.1015 38.7109C24.2317 38.8151 24.3358 38.9323 24.453 39.0495C26.7707 41.3541 29.0754 43.6718 31.3931 45.9765C31.5233 46.1067 31.6405 46.237 31.7838 46.3411C32.3176 46.7318 32.8905 46.8099 33.4765 46.5104C34.0494 46.2239 34.3359 45.7422 34.3489 45.1041C34.3619 44.5833 34.1145 44.1797 33.7499 43.8151C31.5103 41.5885 29.2838 39.362 27.0442 37.1354C26.927 37.0182 26.7968 36.914 26.7187 36.7708C26.5103 36.4323 26.5103 36.0807 26.8098 35.7942C27.0963 35.5078 27.4478 35.4818 27.7864 35.7031C27.9296 35.7943 28.0598 35.9375 28.177 36.0677C30.3645 38.2552 32.552 40.4297 34.7395 42.6172C34.8827 42.7604 35.0129 42.9036 35.1692 43.0208C35.8332 43.5286 36.7838 43.4245 37.3306 42.7864C37.8905 42.1484 37.8515 41.3672 37.2395 40.7422C34.0364 37.487 30.8332 34.2318 27.6041 30.9896C27.0181 30.4036 26.3411 29.9219 25.651 29.4661C25.2082 29.1666 24.6744 29.0234 24.1015 28.763C23.9843 29.7786 23.8931 30.664 23.7759 31.5495C23.3723 34.401 21.8489 36.1328 19.1145 36.8489C18.3853 37.0443 18.0598 36.8489 17.8905 36.0937C17.3697 33.7109 16.8879 31.3281 16.315 28.9583C15.9634 27.513 16.3801 26.4062 17.4869 25.5078C18.1249 25.026 18.6978 24.5312 19.3749 23.9583ZM44.2317 18.4114C43.4634 18.4114 42.7213 18.4114 41.9791 18.4114C41.2239 18.4114 41.0286 18.2682 40.8723 17.539C40.4556 15.612 39.7004 13.8281 38.6327 12.1745C38.2551 11.5885 38.2812 11.3281 38.776 10.8463C39.3228 10.2995 39.8827 9.7656 40.3645 9.28383C39.1275 8.04685 37.9426 6.84894 36.7317 5.62498C36.2239 6.14581 35.69 6.69269 35.1431 7.22654C34.6744 7.69529 34.3879 7.73436 33.8541 7.38279C32.1744 6.28904 30.3515 5.53383 28.3853 5.11717C27.7343 4.98696 27.552 4.73956 27.552 4.06248C27.552 3.30727 27.552 2.53904 27.552 1.77081C25.8202 1.77081 24.1405 1.77081 22.4348 1.77081C22.4348 2.55206 22.4348 3.29425 22.4348 4.04946C22.4348 4.75258 22.2525 4.98696 21.5754 5.13019C19.6483 5.53383 17.8645 6.28904 16.1978 7.34373C15.5728 7.74737 15.3384 7.70831 14.7916 7.17446C14.2707 6.65363 13.7499 6.11977 13.2551 5.61196C12.0181 6.84894 10.8202 8.03383 9.60928 9.24477C10.1301 9.75258 10.664 10.2864 11.2108 10.8333C11.7056 11.3281 11.7447 11.5885 11.3671 12.1614C10.2864 13.8281 9.54418 15.625 9.11449 17.5651C8.95824 18.2682 8.74991 18.4114 8.03376 18.4114C7.27855 18.4114 6.51033 18.4114 5.75512 18.4114C5.75512 19.0885 5.75512 19.7005 5.75512 20.2864C6.17178 20.2864 6.56241 20.2344 6.92699 20.2995C8.22908 20.5338 9.50512 20.8073 10.8072 21.0677C11.4062 21.1849 11.8358 21.5104 12.0963 22.0703C12.1483 22.1875 12.3046 22.3437 12.4218 22.3437C12.8905 22.3698 13.3593 22.3568 13.8541 22.3568C13.5286 18.9844 14.414 16.0156 16.6536 13.5286C18.9062 11.0286 21.7577 9.77862 25.1301 9.80467C28.151 9.83071 30.7681 10.9245 32.8775 13.0599C35.7681 15.9765 36.7056 19.5182 35.9114 23.6067C36.5885 23.4505 37.1874 23.2942 37.7733 23.164C37.7864 21.6927 38.1379 21.263 39.5312 20.9765C40.078 20.8594 40.6119 20.7422 41.1588 20.664C42.1744 20.5208 43.1509 20.0651 44.2187 20.3255C44.2317 19.6745 44.2317 19.0755 44.2317 18.4114ZM38.3463 39.4791C39.0233 38.8021 39.6874 38.112 40.3775 37.4479C40.5858 37.2396 40.6249 37.0573 40.5598 36.7578C39.9739 33.8932 39.414 31.0286 38.8411 28.164C38.6067 27.0052 38.3723 25.8594 38.1379 24.6875C37.9556 24.7265 37.8384 24.7526 37.7082 24.7916C35.1301 25.5338 32.6431 25.3125 30.2864 24.0364C29.3098 23.5026 28.3983 22.8255 27.4869 22.1875C26.3541 21.3802 25.078 21.289 24.0884 22.0703C22.1353 23.6588 20.2082 25.2864 18.2812 26.901C17.8385 27.2656 17.6692 27.7474 17.8124 28.3463C18.1509 29.8177 18.4634 31.289 18.789 32.7604C18.9582 33.5416 19.1405 34.3359 19.3098 35.1172C20.8593 34.6354 21.8098 33.5807 22.1353 31.9271C22.3306 30.8984 22.4218 29.8437 22.539 28.789C22.6301 27.9427 23.1249 27.3698 23.9713 27.3437C24.4921 27.3307 25.039 27.4349 25.5338 27.6302C26.7707 28.0989 27.7994 28.9062 28.7239 29.8307C31.1718 32.2916 33.5806 34.7656 36.0285 37.2135C36.7707 37.9817 37.539 38.6979 38.3463 39.4791ZM34.2317 23.6067C35.2473 20.5338 34.427 16.2239 31.0676 13.5026C27.7994 10.8594 23.151 10.638 19.6483 12.9818C15.8072 15.5469 14.9608 19.8958 15.5207 22.3698C16.7707 22.3698 18.0468 22.2786 19.3098 22.3958C20.7161 22.513 21.7968 22.1094 22.8515 21.1458C24.5572 19.5833 26.7056 19.6224 28.5546 21.0286C29.1666 21.4974 29.8046 21.9661 30.4687 22.3698C31.6015 23.0469 32.8385 23.5156 34.2317 23.6067ZM7.39574 38.9323C8.48949 33.4635 9.57022 28.0599 10.6509 22.6172C9.21866 22.3307 7.82543 22.0573 6.39313 21.7708C5.29938 27.2396 4.23167 32.6302 3.13792 38.0729C4.58324 38.3724 5.96345 38.6458 7.39574 38.9323ZM39.3358 22.6172C40.4296 28.0859 41.5103 33.4896 42.5911 38.9323C44.0364 38.6458 45.4296 38.3724 46.8489 38.0859C45.7551 32.6172 44.6744 27.2265 43.5937 21.7708C42.1484 22.0573 40.7681 22.3307 39.3358 22.6172Z" fill="#FF8343"/></svg>