<svg xmlns="http://www.w3.org/2000/svg" width="50" height="50" viewBox="0 0 50 50" fill="none"><g clip-path="url(#clip0_7526_5920)"><path d="M9.8814 25.8334C9.8814 17.381 16.6671 10.7143 25.1195 10.7143C33.4528 10.7143 40.2385 17.619 40.2385 25.9524C40.2385 34.2857 33.3338 41.0714 25.0005 41.0714C16.6671 40.9524 9.76235 34.1667 9.8814 25.8334ZM11.6671 25.8334C11.6671 33.2143 17.6195 39.1667 25.0005 39.2857C32.2624 39.2857 38.3338 33.3333 38.4528 25.9524C38.4528 18.5714 32.5004 12.5 25.1195 12.5C17.6195 12.381 11.6671 18.4524 11.6671 25.8334Z" fill="#FF8343"/><path d="M43.2144 38.8095C42.6192 38.9286 42.0239 39.0476 41.4287 39.0476C40.8335 39.1666 40.3573 38.9285 40.2382 38.4524C40.1192 37.8571 40.4763 37.5 41.0716 37.3809C42.2621 37.1428 43.4525 36.9047 44.643 36.7857C45.4763 36.6667 45.8335 36.9048 45.9525 37.7381C46.1906 38.9286 46.4287 40 46.5477 41.1905C46.5477 41.3095 46.5477 41.4285 46.5477 41.4285C46.5477 42.0238 46.3097 42.381 45.8335 42.381C45.3573 42.5 45.0002 42.1428 44.8811 41.6667C44.7621 41.1905 44.643 40.5952 44.524 40C44.2859 40.2381 44.1668 40.4762 43.9287 40.7143C39.643 46.0714 34.0478 49.2857 27.143 49.7619C19.5239 50.3571 13.0954 47.619 7.73824 42.1428C7.6192 42.0238 7.61918 42.0238 7.50013 41.9048C6.9049 41.3095 6.90493 40.8333 7.38112 40.3571C7.85731 40 8.33351 40.1191 8.8097 40.7143C9.52399 41.4286 10.2382 42.1428 11.0716 42.8571C20.5954 50.9524 35.0001 49.2857 42.6192 39.4048C42.9763 39.2857 42.9763 39.0476 43.2144 38.8095Z" fill="#FF8343"/><path d="M5.47657 35.3571C5.71467 34.6428 5.95276 34.1667 6.07181 33.5714C6.3099 32.9762 6.78609 32.7381 7.26229 32.9762C7.73848 33.0952 7.9766 33.5714 7.7385 34.1667C7.26231 35.3571 6.9052 36.6666 6.42901 37.8571C6.19091 38.4523 5.83377 38.5714 5.23853 38.4523C3.92901 37.9762 2.73852 37.619 1.429 37.1428C0.952805 36.9048 0.714681 36.4286 0.952776 35.9524C1.07182 35.4762 1.54801 35.2381 2.14325 35.4762C2.38135 35.5952 2.61949 35.5952 2.85758 35.7143C3.09568 35.8333 3.33371 35.8333 3.69086 36.0714C3.57181 35.8333 3.57187 35.5952 3.45282 35.4762C2.02425 31.9047 1.30996 28.3333 1.66711 24.5238C2.1433 19.5238 3.92895 15 7.26229 11.1904C10.8337 7.02378 15.2385 4.2857 20.5956 3.21427C21.3099 3.09523 21.7862 3.21427 21.9052 3.80951C22.0242 4.40475 21.667 4.76189 20.9528 4.88093C11.9051 7.02379 6.19087 12.619 3.92897 21.6667C2.85754 26.1905 3.33377 30.7143 5.23853 35C5.35758 35 5.35752 35.119 5.47657 35.3571Z" fill="#FF8343"/><path d="M27.3815 4.52353C27.7386 4.99972 28.0958 5.35687 28.4529 5.83307C28.9291 6.30926 28.9291 6.90451 28.4529 7.26165C27.9768 7.61879 27.5005 7.49973 27.1434 7.02354C26.31 6.07116 25.5958 5.11879 24.7624 4.16641C24.2862 3.57117 24.2863 3.21401 24.8815 2.73782C25.8339 1.90449 26.7862 1.07115 27.7386 0.356868C28.2148 -0.000275142 28.691 -0.000267856 29.0482 0.475923C29.4053 0.833066 29.2862 1.30926 28.9291 1.78545C28.691 1.9045 28.572 2.14259 28.3339 2.26164C28.0958 2.38068 27.9767 2.61878 27.7386 2.85687C28.4529 2.97592 29.0482 3.09499 29.6434 3.21404C39.1672 5.23785 45.4767 10.9521 48.2148 20.2378C49.6434 24.7616 49.4053 29.4045 47.8577 34.0474C47.7386 34.5236 47.5006 34.8807 46.9053 34.8807C46.4291 34.8807 46.191 34.6426 46.072 34.1664C46.072 33.9283 46.072 33.6902 46.191 33.4521C50.1196 22.4997 43.81 10.2378 33.4529 6.07118C31.5481 5.11879 28.9291 4.52353 27.3815 4.52353Z" fill="#FF8343"/><path d="M22.5001 26.3095C23.4525 25.3572 24.4048 24.4048 25.3572 23.4524C27.0239 21.7857 28.8096 20 30.4763 18.3333C31.0715 17.7381 31.4287 17.7381 32.0239 18.3333C32.8573 19.1667 33.5716 19.8809 34.4049 20.7143C35.0001 21.3095 35.0001 21.6667 34.4049 22.2619C30.7144 25.9524 26.9049 29.6429 23.2144 33.4524C22.7382 33.9286 22.262 33.9286 21.6668 33.4524C19.643 31.4286 17.5001 29.4048 15.4763 27.2619C15.0001 26.7857 15.0001 26.3095 15.4763 25.7143C16.3096 24.881 17.1429 24.0476 17.9763 23.2143C18.4524 22.7381 18.9287 22.7381 19.5239 23.2143C20.4763 24.2857 21.4287 25.2381 22.5001 26.3095ZM17.381 26.4286C19.0477 28.0953 20.8334 29.7619 22.381 31.4286C25.7144 28.0952 29.0477 24.7619 32.3811 21.4286C32.0239 20.9524 31.5477 20.5952 31.0715 20.119C30.9524 20.2381 30.9525 20.2381 30.8335 20.3572C28.3335 22.8572 25.7144 25.4762 23.2144 27.9762C22.6191 28.5714 22.262 28.5714 21.6668 27.9762C21.1906 27.5 20.5954 26.9048 20.1192 26.4286C19.643 25.9524 19.2858 25.4762 18.8096 25.1191C18.3334 25.5952 17.8572 26.0714 17.381 26.4286Z" fill="#FF8343"/></g><defs><clipPath id="clip0_7526_5920"><rect width="50" height="50" fill="white"/></clipPath></defs></svg>