<svg xmlns="http://www.w3.org/2000/svg" width="62" height="62" viewBox="0 0 62 62" fill="none"><path d="M31 61C47.5685 61 61 47.5685 61 31C61 14.4315 47.5685 1 31 1C14.4315 1 1 14.4315 1 31C1 47.5685 14.4315 61 31 61Z" fill="#008CE7"/><path d="M36.7888 16.0076H23.1463L22.0175 22.3207L34.3213 22.3394C40.3794 22.3394 42.1775 24.5388 42.1194 28.1894C42.0931 30.0607 41.2775 33.2257 40.9325 34.2457C40.0006 36.9832 38.0806 40.0994 30.8844 40.0901L18.9256 40.0826L17.7969 46.4032H31.4038C36.2019 46.4032 38.2456 45.8426 40.4038 44.8469C45.1925 42.6382 48.0444 37.9076 49.19 31.7332C50.8888 22.5457 48.77 16.0076 36.7869 16.0076H36.7888Z" fill="white"/><path d="M30.6384 30.6214C31.0828 28.7746 31.2234 28.0339 31.2234 28.0339H17.2622C13.6922 28.0339 13.1822 30.3589 12.8428 31.7652C12.3984 33.6046 12.2578 34.3546 12.2578 34.3546H26.2209C29.7891 34.3546 30.2991 32.0296 30.6384 30.6214Z" fill="white"/></svg>