<svg xmlns="http://www.w3.org/2000/svg" width="50" height="50" viewBox="0 0 50 50" fill="none"><g clip-path="url(#clip0_7521_5782)"><path d="M0.00260575 24.2709C0.0416683 24.2058 0.0807323 24.1276 0.0937532 24.0625C0.497399 22.6563 1.63021 21.7188 3.01042 21.6537C4.45573 21.5756 5.65365 22.3568 6.21354 23.737C6.23959 23.8151 6.26563 23.8802 6.30469 23.9714C8.19271 23.9714 10.0807 23.9714 11.9557 23.9714C11.7083 22.3568 11.4609 20.7552 11.2005 19.1016C10.1849 19.1016 9.16927 19.1016 8.14063 19.1016C7.94531 19.1016 7.75 19.1016 7.55469 19.1016C6.79948 19.0886 6.52604 18.8151 6.52604 18.0729C6.52604 15.5729 6.52604 13.073 6.52604 10.573C6.52604 10.2735 6.46094 10.1302 6.14844 10C4.67709 9.40107 3.90885 7.94274 4.20833 6.40629C4.48177 4.96097 5.80989 3.86722 7.30729 3.84118C8.77864 3.81514 10.0938 4.83077 10.4583 6.27608C10.8229 7.73441 10.1198 9.28389 8.71355 9.92191C8.28386 10.1172 8.20573 10.3516 8.20573 10.7552C8.21875 12.7735 8.21875 14.7787 8.21875 16.7969C8.21875 16.9662 8.21875 17.1485 8.21875 17.3568C9.16927 17.3568 10.0677 17.3568 11.0443 17.3568C11.0052 16.7839 10.9661 16.198 10.9141 15.625C10.862 14.974 10.8099 14.336 10.7578 13.6849C10.6797 12.7735 11.1094 12.3698 12.0078 12.5391C14.0521 12.9167 16.0833 12.8516 18.0885 12.2526C20.3281 11.5886 22.2031 10.3516 23.7917 8.65889C23.9089 8.52868 24.026 8.39847 24.1562 8.26826C24.651 7.74743 25.0938 7.76045 25.6276 8.2292C26.5521 9.04952 27.4505 9.90889 28.4401 10.625C31.2917 12.6823 34.4818 13.2292 37.9062 12.5521C38.8307 12.3698 39.2344 12.7214 39.1562 13.6589C39.0651 14.8698 38.974 16.0938 38.8828 17.3438C39.8854 17.3438 40.888 17.3438 41.9297 17.3438C41.9427 17.1875 41.9557 17.0313 41.9557 16.875C41.9557 14.7787 41.9557 12.6823 41.9688 10.586C41.9688 10.2735 41.9036 10.1042 41.5911 9.97399C40.1068 9.32295 39.3516 7.77347 39.7292 6.25003C40.0937 4.81774 41.5391 3.75003 43.0104 3.84118C44.612 3.94535 45.8359 5.09118 46.0443 6.70576C46.2135 8.05993 45.4062 9.42712 44.0781 9.97399C43.7396 10.1042 43.6615 10.2865 43.6615 10.625C43.6745 13.0599 43.6745 15.4948 43.6615 17.9297C43.6615 18.8933 43.4401 19.1016 42.4896 19.1016C41.2396 19.1016 39.9896 19.1016 38.7266 19.1016C38.4661 20.7422 38.2188 22.3438 37.9583 23.9714C39.8594 23.9714 41.7474 23.9714 43.6615 23.9714C44.0651 22.7995 44.8464 22.0052 46.0833 21.7318C47.6719 21.3933 49.2474 22.2657 49.7813 23.7891C49.8333 23.9584 49.9115 24.1146 49.9635 24.2839C49.9635 24.6355 49.9635 25 49.9635 25.3516C49.9115 25.5209 49.8464 25.6901 49.7943 25.8594C49.3516 27.1615 48.1927 28.0078 46.8125 28.0469C45.5234 28.086 44.3255 27.3177 43.8177 26.0938C43.6875 25.7813 43.5313 25.6901 43.2057 25.7032C41.4479 25.7162 39.6901 25.7162 37.9323 25.7162C37.7109 25.7162 37.5156 25.6901 37.4115 26.0026C36.8776 27.487 36.3177 28.9453 35.7578 30.4167C35.7448 30.4558 35.7318 30.5078 35.7188 30.599C35.901 30.612 36.0703 30.625 36.2396 30.625C38.375 30.625 40.4974 30.625 42.6328 30.625C43.401 30.625 43.6484 30.8724 43.6484 31.6537C43.6484 34.2709 43.6615 36.8881 43.6484 39.5052C43.6484 39.8568 43.7266 40.0391 44.0781 40.1953C45.5104 40.7813 46.2526 42.2266 45.9661 43.7631C45.6927 45.1953 44.4167 46.2631 42.9193 46.3151C41.4479 46.3672 40.0547 45.2995 39.7161 43.8802C39.3646 42.3959 40.0807 40.8594 41.474 40.2344C41.8776 40.0521 41.9687 39.8438 41.9557 39.4401C41.9427 37.0964 41.9427 34.7657 41.9427 32.3698C41.7604 32.3568 41.6172 32.3438 41.4609 32.3438C39.3516 32.3438 37.2292 32.3438 35.1198 32.3308C34.8073 32.3308 34.612 32.4219 34.4427 32.6823C32.2031 35.9506 29.1563 38.1901 25.4844 39.6094C25.1979 39.7266 24.7943 39.7396 24.5078 39.6224C20.7578 38.2292 17.6198 36.0026 15.3672 32.6302C15.276 32.487 15.0677 32.3438 14.9245 32.3438C12.75 32.3308 10.5625 32.3308 8.38803 32.3438C8.34896 32.3438 8.29687 32.3698 8.21875 32.3959C8.20573 32.5521 8.19271 32.7084 8.19271 32.8646C8.19271 35.0912 8.19271 37.3177 8.17969 39.5443C8.17969 39.8698 8.24479 40.0521 8.59636 40.1953C10.0026 40.7683 10.7839 42.2526 10.4974 43.724C10.1979 45.2344 8.85677 46.3412 7.33333 46.3282C5.83594 46.3282 4.48177 45.2214 4.19532 43.7631C3.89584 42.2526 4.66406 40.7813 6.09635 40.1953C6.4349 40.0521 6.51303 39.8828 6.5 39.5443C6.48698 36.9401 6.48698 34.349 6.5 31.7448C6.5 30.8854 6.73437 30.6511 7.59375 30.6381C9.75521 30.6381 11.9167 30.6381 14.1693 30.6381C14.1042 30.4558 14.0651 30.3125 14.013 30.1693C13.5052 28.8021 12.9844 27.4349 12.4896 26.0677C12.3984 25.7943 12.2682 25.7292 12.0078 25.7292C10.224 25.7422 8.42708 25.7292 6.64323 25.7422C6.48698 25.7422 6.25261 25.8985 6.1875 26.0417C5.57552 27.3828 4.3776 28.1641 3.03646 28.073C1.55208 27.9688 0.484377 27.0834 0.0677099 25.612C0.0416683 25.5339 0.00260417 25.4688 -0.0234375 25.3907C0.00260417 24.987 0.00260575 24.6355 0.00260575 24.2709ZM12.5286 14.349C12.6589 15.7162 12.75 17.0313 12.8932 18.3334C13.2188 21.3021 13.6875 24.2448 14.651 27.0964C16.3568 32.1745 19.625 35.8073 24.638 37.7865C24.8203 37.8646 25.0937 37.8907 25.276 37.8125C27.2552 37.0183 29.0521 35.9375 30.6406 34.5052C33.2708 32.1094 34.7943 29.0625 35.7578 25.7032C36.6693 22.5 37.0339 19.2188 37.3203 15.9115C37.3594 15.4037 37.3984 14.8828 37.4375 14.349C32.4896 15.0391 28.4792 13.2162 24.9896 9.97399C21.5912 13.5808 17.4115 14.8177 12.5286 14.349ZM7.33333 44.5573C8.15365 44.5703 8.83073 43.9063 8.85677 43.099C8.88281 42.2787 8.17969 41.5886 7.34636 41.5886C6.52605 41.5886 5.86198 42.2526 5.86198 43.0599C5.86198 43.8802 6.52604 44.5573 7.33333 44.5573ZM42.8802 8.51566C43.7005 8.52868 44.3776 7.87764 44.4036 7.07035C44.4297 6.27607 43.7526 5.57295 42.9453 5.55993C42.099 5.54691 41.4089 6.19795 41.4089 7.03128C41.4089 7.83858 42.0599 8.50264 42.8802 8.51566ZM7.33333 5.54691C6.51302 5.54691 5.84896 6.21097 5.84896 7.03128C5.84896 7.8516 6.5 8.50264 7.33333 8.51566C8.16667 8.51566 8.85678 7.82555 8.84375 7.00524C8.83073 6.19795 8.15365 5.54691 7.33333 5.54691ZM42.8932 41.5886C42.0729 41.5886 41.4089 42.2396 41.3958 43.0599C41.3828 43.8802 42.0469 44.5443 42.8672 44.5573C43.7005 44.5703 44.4036 43.8933 44.3906 43.0599C44.3906 42.2526 43.7266 41.6016 42.8932 41.5886ZM45.3021 24.8177C45.2891 25.6381 45.9531 26.3151 46.7734 26.3151C47.5937 26.3282 48.2708 25.6641 48.2839 24.8438C48.2969 24.0235 47.6328 23.3464 46.8125 23.3464C45.9922 23.3464 45.3151 23.9974 45.3021 24.8177ZM3.19271 26.3282C4.01302 26.3282 4.69011 25.6771 4.69011 24.8568C4.70313 24.0365 4.03907 23.3724 3.21875 23.3594C2.39844 23.3464 1.72135 24.0105 1.70833 24.8308C1.70833 25.6381 2.3724 26.3151 3.19271 26.3282Z" fill="#FF8343"/><path d="M28.3516 22.6692C28.2734 24.0755 27.6224 25.1302 26.3073 25.7031C25.9297 25.8724 25.8516 26.0547 25.8516 26.4192C25.8776 27.3437 25.8646 28.2682 25.8646 29.1927C25.8646 29.8828 25.5651 30.2734 25.0182 30.2734C24.4713 30.2864 24.1458 29.8828 24.1328 29.1666C24.1198 28.2031 24.1068 27.2526 24.1328 26.289C24.1328 25.9765 24.0417 25.8463 23.7552 25.7291C22.2187 25.1172 21.3854 23.5677 21.6979 21.9531C21.9974 20.4166 23.3776 19.2838 24.9661 19.2708C26.6068 19.2578 27.9609 20.3776 28.2864 22.0052C28.3255 22.2265 28.3255 22.4349 28.3516 22.6692ZM24.9922 24.2838C25.8906 24.2838 26.6328 23.5416 26.6328 22.6432C26.6458 21.7578 25.8906 20.9896 25.0052 20.9765C24.0937 20.9635 23.3385 21.7317 23.3385 22.6432C23.3516 23.5547 24.0807 24.2838 24.9922 24.2838Z" fill="#FF8343"/></g><defs><clipPath id="clip0_7521_5782"><rect width="50" height="50" fill="white"/></clipPath></defs></svg>