<svg xmlns="http://www.w3.org/2000/svg" width="50" height="50" viewBox="0 0 50 50" fill="none"><path d="M35 39.2396C35.2865 40.2682 35.5599 41.2318 35.8333 42.1953C36.0547 42.9766 36.2891 43.7578 36.4844 44.5391C36.5495 44.8125 36.6667 44.9036 36.9531 44.9036C37.526 44.8906 38.0859 44.8906 38.6589 44.9036C39.8958 44.9297 40.8203 45.8151 40.7943 46.974C40.7813 48.1198 39.8698 48.9792 38.6589 48.9792C29.5443 48.9792 20.4297 48.9792 11.3151 48.9792C10.1042 48.9792 9.20572 48.0937 9.1927 46.9609C9.17968 45.8281 10.0911 44.9427 11.3021 44.9167C11.9661 44.9036 12.6302 44.9167 13.3724 44.9167C13.75 43.0417 14.1276 41.1797 14.5182 39.2526C14.2448 39.2526 14.0495 39.2526 13.8672 39.2526C10.5859 39.2526 7.29166 39.2526 4.01041 39.2526C2.42187 39.2526 1.48438 38.3281 1.48438 36.7526C1.48438 26.5703 1.48438 16.375 1.48438 6.19271C1.48438 3.67969 3.17708 2 5.67708 2C18.5677 2 31.4583 2 44.349 2C46.849 2 48.5417 3.67969 48.5417 6.19271C48.5417 16.362 48.5417 26.5312 48.5417 36.7005C48.5417 38.3411 47.6302 39.2526 45.9635 39.2526C42.526 39.2526 39.1016 39.2526 35.6641 39.2526C35.4557 39.2396 35.2604 39.2396 35 39.2396ZM2.64322 32.4818C17.5651 32.4818 32.4349 32.4818 47.3568 32.4818C47.3568 32.2865 47.3568 32.1042 47.3568 31.9349C47.3568 23.3672 47.3568 14.8125 47.3568 6.24479C47.3568 4.29167 46.224 3.15885 44.2708 3.15885C31.4323 3.15885 18.5807 3.15885 5.74218 3.15885C3.78906 3.15885 2.65625 4.29167 2.65625 6.24479C2.65625 14.8125 2.65625 23.3672 2.65625 31.9349C2.64323 32.1042 2.64322 32.2865 2.64322 32.4818ZM47.3437 33.7057C32.4219 33.7057 17.5521 33.7057 2.64322 33.7057C2.64322 34.6693 2.64322 35.6068 2.64322 36.5443C2.64322 37.7422 2.98176 38.0807 4.17968 38.0807C18.0599 38.0807 31.9401 38.0807 45.8203 38.0807C45.9375 38.0807 46.0547 38.0807 46.1589 38.0807C46.862 38.0677 47.3177 37.6641 47.3307 36.974C47.3698 35.8932 47.3437 34.8255 47.3437 33.7057ZM14.5703 44.8646C21.5104 44.8646 28.4115 44.8646 35.3646 44.8646C34.8307 42.9635 34.3099 41.1146 33.7891 39.2526C27.7604 39.2526 21.7578 39.2526 15.7161 39.2526C15.3255 41.1276 14.9479 42.9766 14.5703 44.8646ZM25 47.8073C29.4531 47.8073 33.9193 47.8073 38.3724 47.8073C38.5286 47.8073 38.6979 47.8203 38.8542 47.7943C39.2839 47.7292 39.6224 47.3776 39.6094 46.974C39.5963 46.5443 39.388 46.2318 38.9453 46.1146C38.776 46.0755 38.5938 46.0755 38.4115 46.0755C29.4661 46.0755 20.5078 46.0755 11.5625 46.0755C11.3802 46.0755 11.1979 46.0755 11.0286 46.1146C10.599 46.2187 10.3776 46.5312 10.3646 46.9609C10.3516 47.3776 10.6901 47.7292 11.1198 47.7943C11.276 47.8203 11.4453 47.8073 11.6016 47.8073C16.0807 47.8073 20.5339 47.8073 25 47.8073Z" fill="#FF8343"/><path d="M34.6229 28.1198C34.4666 28.2891 34.2843 28.5495 34.063 28.7578C33.5552 29.2396 33.0083 29.2396 32.5005 28.7578C32.1619 28.4323 31.8234 28.1068 31.4979 27.7552C31.0422 27.2604 31.0422 26.7266 31.4849 26.2318C31.6281 26.0755 31.8104 25.9453 31.9276 25.776C32.0187 25.6458 32.0968 25.4114 32.0317 25.2943C31.9666 25.151 31.7453 24.9948 31.589 24.9818C30.0395 24.9036 29.8703 24.7474 29.8703 23.1979C29.8703 23.1458 29.8703 23.0937 29.8703 23.0547C29.7791 21.7786 30.1567 21.2578 31.5109 21.375C31.7583 21.388 31.9276 21.362 32.0448 21.0755C32.1619 20.7891 32.0578 20.6588 31.8755 20.4896C31.7453 20.3724 31.6151 20.2422 31.4979 20.112C31.0291 19.6042 31.0161 19.0573 31.4979 18.5495C31.8104 18.224 32.1359 17.8984 32.4614 17.5859C32.9823 17.0911 33.5291 17.0911 34.063 17.5729C34.2192 17.7161 34.3494 17.8984 34.5187 18.0156C34.6489 18.0937 34.8573 18.1458 34.9744 18.0937C35.1177 18.0286 35.2609 17.8594 35.3 17.7031C35.352 17.4948 35.313 17.2474 35.313 17.026C35.339 16.362 35.7166 15.9713 36.3807 15.9453C36.8494 15.9193 37.3312 15.9193 37.8 15.9453C38.4901 15.9713 38.8677 16.362 38.9067 17.0521C38.9198 17.2604 38.8677 17.4818 38.9198 17.6771C38.9588 17.8333 39.076 18.0286 39.2192 18.0807C39.3494 18.1328 39.5968 18.0937 39.714 18.0026C40.9119 16.9219 41.0812 16.9219 42.214 18.0547C42.2401 18.0807 42.2661 18.1068 42.2791 18.1198C43.3338 19.1745 43.3338 19.4479 42.3052 20.5026C42.0187 20.8021 42.0187 20.8021 42.3312 21.362C42.6437 21.362 42.9692 21.349 43.2948 21.362C43.8937 21.388 44.2974 21.7786 44.3234 22.3776C44.3494 22.8594 44.3364 23.3542 44.3234 23.8359C44.3104 24.5 43.9328 24.8906 43.2817 24.9427C43.0604 24.9557 42.813 24.9167 42.6046 24.9557C42.4484 24.9948 42.2531 25.112 42.201 25.2422C42.1489 25.3724 42.175 25.6458 42.2791 25.724C43.4119 26.6875 43.2948 27.2995 42.201 28.263C42.1489 28.3021 42.1099 28.3542 42.0578 28.4062C41.1333 29.3307 40.7817 29.3307 39.8312 28.4062C39.6489 28.2239 39.5187 28.0286 39.1802 28.1849C38.8677 28.3281 38.9198 28.5495 38.9067 28.7838C38.9067 28.9922 38.9067 29.2135 38.8807 29.4219C38.8156 29.9687 38.451 30.3203 37.9171 30.3333C37.3703 30.3594 36.8104 30.3594 36.2635 30.3333C35.7557 30.3073 35.3911 29.9557 35.326 29.4349C35.3 29.2526 35.2869 29.0703 35.313 28.901C35.3911 28.4583 35.2218 28.1849 34.6229 28.1198ZM33.3468 18.5364C33.0083 18.8229 32.7088 19.0833 32.3703 19.3568C33.0734 19.9557 33.5942 20.4766 33.1515 21.5312C32.7088 22.612 31.9015 22.5338 31.0812 22.5469C31.0812 22.9896 31.0812 23.3672 31.0812 23.7969C31.9666 23.7578 32.7218 23.7187 33.1646 24.7864C33.6203 25.8672 32.9953 26.375 32.4354 26.9479C32.7349 27.2604 33.0083 27.5338 33.3078 27.8463C33.8807 27.2474 34.3885 26.6615 35.4562 27.0911C36.5239 27.5208 36.5239 28.2891 36.4849 29.1745C36.9276 29.1745 37.3182 29.1745 37.7479 29.1745C37.6958 28.2891 37.6958 27.5469 38.7505 27.1042C39.8312 26.6484 40.339 27.2734 40.9119 27.8333C41.2375 27.5338 41.5239 27.2734 41.8364 26.987C41.2114 26.388 40.6125 25.8932 41.0552 24.8125C41.4979 23.7318 42.2791 23.7708 43.1385 23.7969C43.1385 23.3411 43.1385 22.9505 43.1385 22.5469C42.4093 22.4948 41.6671 22.6901 41.2244 21.8568C40.6645 20.8021 40.8468 20.0078 41.8364 19.3958C41.5109 19.0703 41.2244 18.7838 40.9119 18.4713C40.352 19.0963 39.8442 19.6562 38.7765 19.2266C37.6958 18.7969 37.7349 18.0026 37.7479 17.1432C37.3052 17.1432 36.9276 17.1432 36.4588 17.1432C36.7192 18.3281 36.2505 19.0182 35.1177 19.3568C34.1932 19.6432 33.8416 18.9141 33.3468 18.5364Z" fill="#FF8343"/><path d="M25.9513 9.08333C25.743 9.22656 25.5737 9.34375 25.4305 9.44792C23.3471 10.9583 21.2768 12.4687 19.1935 13.9661C18.6076 14.3958 18.4643 14.3828 17.9435 13.875C16.4201 12.4036 14.8966 10.9453 13.3732 9.47396C13.256 9.35677 13.1388 9.2526 12.9826 9.1224C12.8003 9.2526 12.618 9.38281 12.4357 9.51302C10.3784 11.0365 8.33413 12.5469 6.27684 14.0703C6.15965 14.1615 6.02944 14.3047 5.91225 14.3047C5.66486 14.2917 5.3133 14.2786 5.19611 14.1354C5.07892 13.9792 5.18309 13.6536 5.23517 13.4062C5.24819 13.3151 5.40444 13.263 5.49559 13.1979C7.81329 11.4922 10.118 9.77344 12.4357 8.06771C12.9956 7.65104 13.1388 7.66406 13.6466 8.14583C15.3003 9.73438 16.9539 11.3229 18.6336 12.9375C20.769 11.388 22.9044 9.83854 25.118 8.23698C24.6362 8.17187 24.2716 8.10677 23.907 8.05469C23.5294 8.0026 23.3081 7.80729 23.3341 7.40364C23.3602 7.05208 23.6597 6.84375 24.0763 6.89583C24.9487 7 25.8211 7.13021 26.6935 7.24739C27.1362 7.29948 27.3185 7.55989 27.2664 7.98958C27.1623 8.875 27.0581 9.76041 26.9279 10.6458C26.8758 11.0234 26.6544 11.2448 26.2638 11.1927C25.8992 11.1406 25.743 10.8802 25.769 10.5286C25.8211 10.0599 25.8862 9.60416 25.9513 9.08333Z" fill="#FF8343"/><path d="M10.9368 18.8099C10.9368 17.2344 10.9368 15.6589 10.9368 14.0833C10.9368 13.4453 11.1061 13.263 11.7311 13.263C12.6296 13.263 13.515 13.263 14.4134 13.263C15.0124 13.263 15.1947 13.4453 15.1947 14.0573C15.1947 17.2344 15.1947 20.4115 15.1947 23.6016C15.1947 24.2396 15.0124 24.4219 14.3874 24.4219C13.4889 24.4219 12.6035 24.4219 11.7051 24.4219C11.1191 24.4219 10.9238 24.2266 10.9238 23.6276C10.9368 22.013 10.9368 20.4115 10.9368 18.8099ZM12.1478 14.4609C12.1478 17.4297 12.1478 20.3203 12.1478 23.2109C12.7858 23.2109 13.3978 23.2109 13.9967 23.2109C13.9967 20.2682 13.9967 17.3776 13.9967 14.4609C13.3587 14.4609 12.7728 14.4609 12.1478 14.4609Z" fill="#FF8343"/><path d="M25.7949 19.1354C25.7949 20.6328 25.7949 22.1302 25.7949 23.6146C25.7949 24.2266 25.6257 24.4088 25.0267 24.4088C24.1283 24.4088 23.2298 24.4088 22.3444 24.4088C21.7585 24.4088 21.5762 24.2396 21.5762 23.6667C21.5762 20.6328 21.5762 17.5859 21.5762 14.5521C21.5762 14.0182 21.7454 13.8359 22.2793 13.8359C23.2168 13.8229 24.1673 13.8229 25.1048 13.8359C25.6256 13.8359 25.8079 14.0312 25.8079 14.5521C25.7949 16.0885 25.7949 17.612 25.7949 19.1354ZM22.7611 15.0338C22.7611 17.7812 22.7611 20.4896 22.7611 23.224C23.3861 23.224 23.972 23.224 24.584 23.224C24.584 20.4766 24.584 17.7682 24.584 15.0338C23.959 15.0338 23.373 15.0338 22.7611 15.0338Z" fill="#FF8343"/><path d="M15.6244 26.3359C18.9447 26.3359 22.265 26.3359 25.5854 26.3359C25.7416 26.3359 25.9499 26.2839 26.0671 26.349C26.2755 26.4792 26.5359 26.6615 26.588 26.8698C26.6791 27.1823 26.4317 27.4167 26.1062 27.4818C25.963 27.5078 25.8197 27.4948 25.6635 27.4948C18.9578 27.4948 12.252 27.4948 5.55932 27.4948C5.41609 27.4948 5.22078 27.5469 5.12963 27.4687C4.93432 27.3125 4.68692 27.1172 4.64786 26.8958C4.59578 26.5833 4.83015 26.362 5.18171 26.3359C5.32494 26.3229 5.46817 26.3229 5.62442 26.3229C8.95776 26.3359 12.2911 26.3359 15.6244 26.3359Z" fill="#FF8343"/><path d="M5.45638 20.0729C5.45638 18.888 5.45638 17.7031 5.45638 16.5182C5.45638 15.9063 5.63867 15.737 6.23763 15.737C7.14909 15.737 8.06055 15.737 8.97201 15.737C9.49284 15.737 9.68815 15.9323 9.68815 16.4401C9.68815 18.875 9.68815 21.3099 9.68815 23.7448C9.68815 24.2266 9.49284 24.4219 9.01107 24.4219C8.07357 24.4349 7.12305 24.4349 6.18555 24.4219C5.65169 24.4219 5.4694 24.2266 5.4694 23.6797C5.44336 22.4688 5.45638 21.2708 5.45638 20.0729ZM8.47721 23.224C8.47721 21.0885 8.47721 19.0052 8.47721 16.9219C7.85221 16.9219 7.25325 16.9219 6.65429 16.9219C6.65429 19.0313 6.65429 21.1146 6.65429 23.224C7.26627 23.224 7.86523 23.224 8.47721 23.224Z" fill="#FF8343"/><path d="M41.5619 15.4766C39.4525 15.4896 37.7338 13.7839 37.7208 11.6745C37.7078 9.59115 39.4395 7.84636 41.5359 7.84636C43.6322 7.83334 45.364 9.55209 45.377 11.6484C45.3901 13.7448 43.6713 15.4635 41.5619 15.4766ZM41.5619 14.3047C43.0203 14.2917 44.1921 13.1198 44.2052 11.6745C44.2052 10.2161 42.9812 9.00521 41.5359 9.01823C40.0906 9.03125 38.9057 10.2292 38.9057 11.6615C38.8927 13.1198 40.1036 14.3177 41.5619 14.3047Z" fill="#FF8343"/><path d="M32.6947 15.4766C30.5854 15.4896 28.8666 13.7969 28.8536 11.6875C28.8406 9.60416 30.5593 7.85937 32.6557 7.84635C34.752 7.83333 36.4838 9.55208 36.5098 11.6484C36.5098 13.7318 34.8041 15.4635 32.6947 15.4766ZM32.6557 14.3047C34.101 14.3047 35.2989 13.1458 35.325 11.7005C35.351 10.2552 34.1401 9.01823 32.6817 9.01823C31.2234 9.0052 30.0124 10.2292 30.0124 11.6875C30.0255 13.1328 31.2104 14.3047 32.6557 14.3047Z" fill="#FF8343"/><path d="M20.5982 21.1406C20.5982 21.9609 20.5982 22.7943 20.5982 23.6146C20.5982 24.2266 20.4159 24.4089 19.83 24.4089C18.9185 24.4089 18.0071 24.4089 17.0956 24.4089C16.5488 24.4089 16.3534 24.2266 16.3534 23.6797C16.3404 21.9609 16.3534 20.2422 16.3534 18.5234C16.3534 18.0677 16.5618 17.8203 17.0305 17.8203C17.9941 17.8203 18.9446 17.8073 19.9081 17.8203C20.4159 17.8333 20.5982 18.0286 20.6113 18.5495C20.6113 19.4219 20.5982 20.2813 20.5982 21.1406ZM17.5514 23.2109C18.1764 23.2109 18.7883 23.2109 19.4003 23.2109C19.4003 21.8047 19.4003 20.4245 19.4003 19.0443C18.7753 19.0443 18.1633 19.0443 17.5123 19.0443C17.5123 20.3464 17.5123 21.6094 17.5123 22.8724C17.5253 22.9896 17.5383 23.0937 17.5514 23.2109Z" fill="#FF8343"/><path d="M39.9617 23.1458C39.9747 24.7344 38.7117 25.9974 37.1362 26.0234C35.5606 26.0365 34.2716 24.7604 34.2716 23.1849C34.2586 21.5964 35.5216 20.3203 37.0971 20.3073C38.6726 20.3073 39.9487 21.5703 39.9617 23.1458ZM35.4304 23.1458C35.4174 24.0833 36.1336 24.8255 37.0711 24.8516C38.0086 24.8776 38.7898 24.1224 38.7898 23.1719C38.7898 22.2344 38.0606 21.4922 37.1231 21.4922C36.1987 21.4792 35.4435 22.2083 35.4304 23.1458Z" fill="#FF8343"/><path d="M41.1339 11.8047C41.6157 11.2969 41.9803 10.9062 42.3579 10.5286C42.6964 10.1901 43.035 10.1641 43.2954 10.4114C43.5558 10.6719 43.5298 11.0104 43.1912 11.3489C42.7094 11.8437 42.2147 12.3385 41.7068 12.8203C41.3162 13.1979 41.0688 13.1979 40.6652 12.8203C40.3917 12.5469 40.1053 12.2734 39.8449 12C39.5844 11.7266 39.5454 11.4141 39.8318 11.1406C40.0923 10.8802 40.4048 10.9062 40.6521 11.1667C40.8214 11.3229 40.9386 11.5443 41.1339 11.8047Z" fill="#FF8343"/><path d="M32.6165 12.4557C32.4342 12.6771 32.278 12.8854 32.0957 13.0677C31.8352 13.3021 31.5227 13.3281 31.2753 13.0677C31.0149 12.8073 31.041 12.5078 31.2884 12.2474C31.4707 12.0651 31.692 11.9219 31.9915 11.6745C31.679 11.4271 31.4576 11.2839 31.2753 11.1016C31.028 10.8411 31.0019 10.5417 31.2623 10.2812C31.5227 10.0208 31.8222 10.0339 32.0826 10.2812C32.2649 10.4635 32.4082 10.6849 32.6816 11.0104C32.903 10.7109 33.0332 10.5026 33.2024 10.3203C33.4628 10.0469 33.7753 9.98177 34.0618 10.2552C34.3743 10.5547 34.2962 10.8672 34.0227 11.1536C33.8665 11.3099 33.6712 11.4401 33.4759 11.6224C33.7233 11.8828 33.9186 12.0651 34.0879 12.2734C34.3352 12.5469 34.3352 12.8464 34.0748 13.0937C33.8274 13.3281 33.541 13.3151 33.2806 13.0937C33.0592 12.9115 32.8769 12.7161 32.6165 12.4557Z" fill="#FF8343"/></svg>