<svg xmlns="http://www.w3.org/2000/svg" width="70" height="70" viewBox="0 0 70 70" fill="none"><g clip-path="url(#clip0_8953_4268)"><path d="M35.0019 14.001C25.6684 14.001 19.8371 18.6658 17.502 27.9993C21.0009 23.3339 25.0855 21.5845 29.7509 22.751C32.4147 23.4149 34.3184 25.3464 36.4266 27.4869C39.8577 30.9689 43.8291 34.9999 52.502 34.9999C61.8349 34.9999 67.6668 30.3345 70.002 20.9988C66.502 25.6665 62.4188 27.4169 57.7525 26.2499C55.0892 25.5854 53.1877 23.6544 51.0768 21.5139C47.6479 18.032 43.6776 14.001 35.0019 14.001ZM17.502 34.9999C8.16898 34.9999 2.33711 39.6653 0.00195312 49.001C3.50159 44.3332 7.58456 42.5829 12.2509 43.7499C14.9147 44.4143 16.8184 46.3454 18.9266 48.4858C22.3577 51.9678 26.3291 55.9988 35.0019 55.9988C44.3349 55.9988 50.1668 51.3339 52.502 42.0004C49.002 46.666 44.9188 48.4155 40.2525 47.2488C37.5892 46.5849 35.6877 44.6533 33.5768 42.5129C30.1479 39.0309 26.1776 34.9999 17.502 34.9999Z" fill="#38BDF8"/></g><defs><clipPath id="clip0_8953_4268"><rect width="70" height="70" fill="white"/></clipPath></defs></svg>