<svg xmlns="http://www.w3.org/2000/svg" width="70" height="70" viewBox="0 0 70 70" fill="none"><path d="M51.3014 50.3736C51.7307 46.8008 51.6022 46.2764 54.2633 46.8555L54.9387 46.9146C56.9851 47.0075 59.6621 46.5854 61.2349 45.8547C64.6206 44.2836 66.6276 41.6613 63.29 42.3498C55.6754 43.921 55.152 41.3425 55.152 41.3425C63.1927 29.4124 66.5538 14.2678 63.6521 10.5605C55.7388 0.449342 42.0412 5.23067 41.8121 5.35426L41.7388 5.36794C40.2343 5.05567 38.5505 4.86919 36.6589 4.83856C33.213 4.78169 30.5984 5.742 28.6149 7.2459C28.6149 7.2459 4.17887 -2.82152 5.31582 19.9066C5.55754 24.7415 12.2458 56.4915 20.2236 46.9015C23.1396 43.3949 25.9571 40.4297 25.9571 40.4297C27.356 41.3589 29.0316 41.8336 30.7882 41.6629L30.9243 41.547C30.8817 41.9823 30.9003 42.4083 30.9785 42.9125C28.9239 45.2089 29.5276 45.6119 25.4189 46.4574C21.2616 47.3138 23.7039 48.839 25.2981 49.2377C27.2313 49.7211 31.7031 50.4058 34.7251 46.1763L34.6048 46.6586C35.4109 47.304 35.3568 51.2945 35.4705 54.1454C35.5848 56.9968 35.7757 59.6573 36.357 61.2263C36.9383 62.7953 37.6241 66.835 43.0239 65.6779C47.5368 64.7132 50.987 63.3214 51.3014 50.3736Z" fill="black"/><path d="M41.2664 68.4995C38.8782 68.4995 37.3229 67.5759 36.3784 66.6839C34.9527 65.3386 34.3872 63.6056 34.0493 62.5703L33.9033 62.1383C33.2229 60.3019 32.9922 57.6578 32.8554 54.2529C32.8347 53.7416 32.8204 53.2149 32.8046 52.6566C32.7931 52.2481 32.7789 51.7356 32.7581 51.1997C31.8977 51.61 30.9844 51.8985 30.0445 52.0572C28.3607 52.3449 26.5505 52.2519 24.6633 51.7799C23.3316 51.4469 21.948 50.7567 21.1594 49.6909C18.8609 51.7039 16.6685 51.431 15.4741 51.0324C13.367 50.3296 11.4814 48.3549 9.70896 44.9965C8.44623 42.6039 7.22506 39.4867 6.07881 35.7308C4.08271 29.1902 2.81451 22.3012 2.70185 20.0393C2.34748 12.96 4.25334 7.89705 8.36529 4.99259C14.8518 0.410875 24.6797 3.10533 28.2628 4.32869C30.6701 2.87783 33.5024 2.17181 36.7027 2.22267C38.4215 2.25056 40.0583 2.4015 41.5787 2.67275C43.1646 2.174 46.2971 1.45814 49.8829 1.50299C56.4897 1.58174 61.9645 4.15642 65.7144 8.94869C68.3908 12.3678 67.0674 19.5477 66.0409 23.5235C64.5961 29.1158 62.0646 35.0636 58.9551 40.2414C59.7994 40.2474 61.0228 40.1463 62.7619 39.787C66.1929 39.0788 67.1965 40.9185 67.4688 41.7421C68.5598 45.0463 63.8173 47.5433 62.338 48.2302C60.4426 49.1101 57.3522 49.646 54.8212 49.5301L54.7108 49.523L54.0458 49.4645L53.9801 50.019L53.9167 50.561C53.7466 57.1229 52.8093 61.2786 50.8804 64.0245C48.8587 66.9032 46.0488 67.7099 43.5737 68.2403C42.7293 68.4208 41.962 68.4995 41.2664 68.4995ZM36.2406 44.617C37.7822 45.8507 37.9173 48.1722 38.0382 52.5106C38.0535 53.052 38.0677 53.5644 38.0869 54.0429C38.1448 55.4921 38.281 58.8855 38.8126 60.3194C38.8875 60.5223 38.9547 60.7279 39.0258 60.9461C39.6181 62.7595 39.9151 63.669 42.4761 63.1216C44.6258 62.6606 45.7311 62.2471 46.5962 61.0156C47.8535 59.2251 48.5568 55.6234 48.6858 50.3105L51.3015 50.3739L48.7039 50.0622L48.7804 49.4136C49.0293 47.2753 49.2087 45.731 50.6376 44.7094C51.7844 43.8902 53.0909 43.9695 54.1316 44.1571C52.9881 43.293 52.672 42.2796 52.5878 41.864L52.3696 40.7894L52.9826 39.8799C56.5138 34.6409 59.4254 28.202 60.9719 22.2137C62.5611 16.0608 62.0766 12.7932 61.5921 12.1753C55.1778 3.97923 44.0549 7.3633 42.8933 7.7472L42.697 7.8533L41.7126 8.0365L41.2084 7.93205C39.8183 7.6433 38.2739 7.48361 36.6185 7.45681C34.0176 7.41306 31.9192 8.02775 30.1987 9.33314L29.0049 10.2382L27.6197 9.66783C24.66 8.45759 15.9669 6.02455 11.3797 9.27353C8.83342 11.0771 7.67349 14.611 7.93162 19.7774C8.01693 21.4831 9.17576 27.94 11.0876 34.2023C13.7296 42.8566 16.1304 45.7315 17.1328 46.0656C17.3078 46.1247 17.7617 45.772 18.2134 45.2295C20.0969 42.9717 22.0472 40.7705 24.0617 38.6287L25.5765 37.0345L27.408 38.2513C28.1463 38.7419 28.9606 39.0203 29.7968 39.0728L34.1647 35.3474L33.5319 41.8049C33.5177 41.9499 33.5106 42.1473 33.5675 42.5137L33.7578 43.7376L32.932 44.6607L32.8369 44.7679L35.2365 45.8753L36.2406 44.617Z" fill="black"/><path d="M63.2907 42.3502C55.6754 43.9214 55.1521 41.3429 55.1521 41.3429C63.1928 29.4123 66.5539 14.2671 63.6532 10.5609C55.74 0.45031 42.0413 5.23164 41.8127 5.35578L41.7389 5.3689C40.2344 5.05664 38.5506 4.8707 36.6579 4.84008C33.212 4.78375 30.5985 5.74351 28.615 7.24742C28.615 7.24742 4.1784 -2.81945 5.31481 19.9081C5.55653 24.7436 12.2448 56.4935 20.2226 46.9035C23.1386 43.3969 25.9555 40.4318 25.9555 40.4318C27.355 41.3609 29.03 41.8356 30.7861 41.665L30.9228 41.5491C30.8801 41.9844 30.8998 42.4104 30.9775 42.9146C28.9223 45.2109 29.5261 45.614 25.4174 46.4595C21.26 47.3159 23.7024 48.8411 25.2971 49.2398C27.2297 49.7232 31.7021 50.4079 34.7236 46.1784L34.6027 46.6607C35.4082 47.306 35.9737 50.8563 35.8791 54.0747C35.7845 57.293 35.7205 59.503 36.3554 61.2289C36.9898 62.9548 37.622 66.8377 43.0229 65.6805C47.5357 64.7136 49.8742 62.2073 50.2001 58.027C50.4309 55.0547 50.9532 55.4944 50.9865 52.8371L51.406 51.5793C51.8894 47.5505 51.4825 46.2511 54.2634 46.8554L54.9388 46.9145C56.9852 47.0074 59.6632 46.5852 61.2355 45.8546C64.6207 44.2845 66.6283 41.6617 63.2907 42.3502Z" fill="#336791"/><path d="M41.5387 66.8868C37.0368 66.8868 35.6105 63.3217 35.027 61.8638C34.1728 59.7271 33.9885 51.4354 34.1788 44.6356C34.1817 44.5209 34.2071 44.4079 34.2538 44.3031C34.3005 44.1983 34.3675 44.1038 34.4508 44.0251C34.5342 43.9463 34.6323 43.8847 34.7396 43.844C34.8468 43.8033 34.9611 43.7843 35.0757 43.7879C35.1902 43.791 35.303 43.8167 35.4076 43.8634C35.5123 43.9102 35.6066 43.9771 35.6854 44.0603C35.7641 44.1436 35.8256 44.2415 35.8665 44.3486C35.9073 44.4556 35.9266 44.5697 35.9234 44.6842C35.7041 52.527 36.0152 59.6342 36.6474 61.2157C37.634 63.6816 39.1302 65.8385 43.3603 64.9323C47.376 64.0709 48.8799 62.5485 49.5498 58.6651C50.0639 55.6852 51.0806 47.2075 51.2058 45.5346C51.2142 45.4203 51.245 45.3088 51.2966 45.2064C51.3481 45.104 51.4194 45.0128 51.5063 44.938C51.5932 44.8632 51.6939 44.8063 51.8028 44.7706C51.9117 44.7348 52.0266 44.7209 52.1409 44.7296C52.3716 44.7471 52.5859 44.8554 52.7368 45.0307C52.8878 45.206 52.963 45.4341 52.9459 45.6648C52.8152 47.4066 51.8035 55.8678 51.2698 58.962C50.479 63.5487 48.4342 65.629 43.7262 66.6385C42.9261 66.8097 42.1993 66.8863 41.5387 66.8868ZM17.1284 49.4738C16.7349 49.4725 16.3441 49.4079 15.9712 49.2824C13.047 48.3067 10.2618 43.5445 7.69258 35.1265C5.73696 28.7188 4.49774 22.0305 4.38891 19.8567C4.0668 13.4123 5.72602 8.85298 9.32172 6.30618C16.4349 1.26618 28.4011 6.06556 28.907 6.27228C29.1213 6.35981 29.292 6.52888 29.3816 6.74231C29.4713 6.95573 29.4725 7.19603 29.3849 7.41032C29.2974 7.62462 29.1283 7.79537 28.9149 7.885C28.7015 7.97464 28.4612 7.97582 28.2469 7.88829C28.1315 7.84126 16.657 3.24423 10.3269 7.73243C7.25235 9.91228 5.84086 13.9624 6.13125 19.7697C6.22258 21.6012 7.38031 28.1287 9.3611 34.6168C11.6547 42.132 14.2649 46.8739 16.523 47.627C16.8773 47.7451 17.9558 48.1044 19.4974 46.2505C21.2952 44.0913 23.1604 41.9891 25.0903 39.9472C25.2518 39.7861 25.4699 39.6947 25.698 39.6924C25.926 39.6901 26.1459 39.7772 26.3106 39.935C26.4753 40.0928 26.5716 40.3088 26.579 40.5368C26.5865 40.7647 26.5044 40.9865 26.3503 41.1547C26.3241 41.182 23.6996 43.9257 20.8395 47.3667C19.4848 48.9958 18.1866 49.4738 17.1284 49.4738ZM55.0973 42.121C54.9391 42.1208 54.784 42.0776 54.6484 41.996C54.5129 41.9145 54.4021 41.7976 54.3278 41.6579C54.2536 41.5182 54.2187 41.361 54.2269 41.203C54.2351 41.045 54.2861 40.8922 54.3744 40.7609C62.5026 28.6996 65.3556 14.1259 62.9122 11.0033C59.8366 7.07345 55.4938 5.02103 50.0037 4.90235C45.9388 4.81485 42.7079 5.85282 42.1796 6.03384L42.0467 6.08798C41.5157 6.25478 41.1083 5.96384 40.9546 5.62368C40.867 5.42879 40.8537 5.20858 40.9173 5.00458C40.9809 4.80057 41.1169 4.62688 41.2997 4.51626C41.3248 4.5015 41.4047 4.46759 41.5343 4.42001C42.4317 4.09134 45.7119 3.10696 49.7746 3.15345C55.8493 3.21798 60.8674 5.56024 64.2854 9.92814C65.9025 11.9948 65.9063 16.7559 64.2958 22.9913C62.6541 29.3488 59.5648 36.1809 55.8209 41.7366C55.6535 41.9865 55.3779 42.121 55.0973 42.121ZM55.513 47.7046C54.125 47.7046 52.8809 47.5088 52.136 47.0626C51.3704 46.6038 51.2244 45.9803 51.2052 45.6495C50.9963 41.9799 53.0209 41.3412 54.0534 41.0497C53.9095 40.832 53.705 40.5761 53.4934 40.312C52.8913 39.5595 52.0666 38.5292 51.4311 36.9881C51.3316 36.7474 51.0198 36.188 50.6589 35.5399C48.7016 32.0301 44.6291 24.7266 47.2453 20.9865C48.4561 19.2556 50.8673 18.5742 54.4198 18.9543C53.3747 15.7704 48.3981 5.81071 36.5895 5.61712C33.038 5.55806 30.1254 6.65017 27.9368 8.86009C23.0368 13.8088 23.214 22.7627 23.2167 22.8524C23.2197 22.967 23.2002 23.081 23.1591 23.188C23.1181 23.295 23.0563 23.3928 22.9775 23.4759C22.8986 23.5591 22.8041 23.6259 22.6995 23.6725C22.5948 23.7191 22.482 23.7446 22.3674 23.7477C22.2529 23.7507 22.1389 23.7311 22.0319 23.6901C21.9249 23.649 21.827 23.5873 21.7439 23.5084C21.6608 23.4296 21.594 23.3351 21.5474 23.2304C21.5008 23.1257 21.4752 23.0129 21.4722 22.8984C21.4613 22.5008 21.2786 13.1044 26.697 7.63181C29.2329 5.07079 32.571 3.80642 36.6184 3.87259C44.173 3.99673 49.0358 7.83743 51.7844 11.0372C54.7807 14.5246 56.2496 18.3713 56.3705 19.6554C56.4607 20.6102 55.7755 20.8011 55.6371 20.8295L55.3221 20.8367C51.8358 20.2783 49.5991 20.666 48.6743 21.9873C46.6842 24.8316 50.537 31.7402 52.182 34.6906C52.602 35.4431 52.9049 35.9873 53.0438 36.3231C53.5841 37.6334 54.2891 38.5138 54.8551 39.2215C55.3533 39.8438 55.7848 40.3836 55.939 41.0169C56.0106 41.1427 57.0273 42.6466 63.0598 41.4013C64.572 41.0896 65.4787 41.3559 65.7559 42.1943C66.3012 43.8431 63.242 45.7665 61.5483 46.5529C60.0307 47.2584 57.6086 47.7046 55.513 47.7046ZM52.9448 45.5056C53.1363 45.6987 54.0938 46.0317 56.0768 45.9464C57.8399 45.8709 59.6993 45.4876 60.8149 44.9697C62.2417 44.3069 63.1944 43.5659 63.6877 43.06L63.4142 43.1103C59.5571 43.9066 56.8288 43.8005 55.3052 42.7948C55.2027 42.7273 55.1041 42.654 55.0098 42.5755C54.8447 42.6406 54.6921 42.6832 54.5833 42.7138C53.7192 42.9561 52.8256 43.2071 52.9448 45.5056ZM28.0281 50.381C27.07 50.381 26.0616 50.2503 25.0318 49.9927C23.9648 49.7259 22.1662 48.9225 22.1935 47.6029C22.2247 46.1225 24.3777 45.6785 25.1882 45.5117C28.1162 44.9085 28.307 44.6667 29.222 43.5046C29.4888 43.1661 29.8208 42.7445 30.2736 42.2392C30.9457 41.4867 31.6802 41.1055 32.4567 41.1055C32.9976 41.1055 33.4411 41.2887 33.7342 41.4106C34.6683 41.7978 35.4476 42.7341 35.768 43.8535C36.0573 44.8636 35.919 45.8359 35.3798 46.5912C33.6095 49.0702 31.0671 50.381 28.0281 50.381ZM24.0786 47.6778C24.3416 47.8813 24.8688 48.1531 25.4556 48.2996C26.3476 48.5227 27.2127 48.6359 28.0287 48.6359C30.5148 48.6359 32.5109 47.6067 33.9606 45.5767C34.263 45.1534 34.1723 44.6159 34.0913 44.3331C33.9218 43.7409 33.5007 43.2022 33.067 43.0223C32.8319 42.9249 32.6366 42.8506 32.4573 42.8506C32.361 42.8506 32.0679 42.8506 31.5746 43.4024C31.2342 43.7851 30.9069 44.1795 30.5935 44.5847C29.4538 46.0317 28.9316 46.5228 25.5409 47.2212C24.7135 47.3907 24.2891 47.5635 24.0786 47.6778ZM30.7882 43.6528C30.5799 43.6525 30.3786 43.5777 30.2206 43.4419C30.0626 43.3061 29.9585 43.1183 29.9269 42.9124C29.905 42.7675 29.8904 42.6217 29.8831 42.4754C27.6606 42.4338 25.5163 41.4801 23.8883 39.7815C21.8298 37.6339 20.893 34.6584 21.3185 31.6183C21.7806 28.3168 21.6078 25.4025 21.5148 23.8368C21.4891 23.4015 21.4705 23.087 21.4716 22.8694C21.4733 22.5932 21.4788 21.861 23.9266 20.6201C24.7972 20.1788 26.5428 19.4088 28.4498 19.2113C31.6091 18.8849 33.6916 20.292 34.315 23.174C35.9977 30.9549 34.4484 34.3964 33.317 36.9099C33.1064 37.378 32.9073 37.8199 32.7482 38.2481L32.6077 38.6254C32.0099 40.2283 31.4931 41.613 31.6517 42.6471C31.6691 42.7604 31.6641 42.876 31.6368 42.9873C31.6095 43.0986 31.5606 43.2034 31.4928 43.2958C31.425 43.3881 31.3397 43.4663 31.2417 43.5257C31.1437 43.585 31.0349 43.6245 30.9216 43.6419L30.7882 43.6528ZM23.2222 23.1111L23.2561 23.734C23.3523 25.3604 23.5317 28.3868 23.0461 31.8606C22.6955 34.368 23.4612 36.8153 25.1477 38.574C26.4805 39.9642 28.2343 40.7314 30.0368 40.7314H30.074C30.2758 39.881 30.611 38.9831 30.972 38.0156L31.1114 37.6405C31.2913 37.157 31.5019 36.6889 31.725 36.1934C32.8138 33.7741 34.1695 30.7624 32.6082 23.5431C32.2992 22.1131 31.5495 21.2856 30.3173 21.0127C27.7864 20.4538 24.0146 22.3575 23.2222 23.1111ZM28.4886 22.7409C28.4448 23.0493 29.0535 23.8729 29.8476 23.9828C30.64 24.0938 31.3181 23.4496 31.3613 23.1412C31.4045 22.8327 30.7964 22.4926 30.0023 22.3821C29.2083 22.2717 28.5307 22.4324 28.4886 22.7409ZM30.0297 24.2863L29.8071 24.271C29.3149 24.2027 28.8173 23.8926 28.4766 23.4409C28.3568 23.2823 28.1616 22.9749 28.2004 22.7004C28.2556 22.2979 28.7467 22.0567 29.5129 22.0567C29.6841 22.0567 29.8623 22.0693 30.0417 22.0945C30.4606 22.1524 30.8495 22.2733 31.1366 22.4335C31.6342 22.7113 31.6709 23.0214 31.6484 23.1817C31.5872 23.6263 30.8801 24.2863 30.0297 24.2863ZM28.7779 22.7923C28.8025 22.9826 29.2739 23.6104 29.8875 23.6952L30.0302 23.705C30.5968 23.705 31.0201 23.2593 31.0698 23.1133C31.0173 23.0138 30.6531 22.7666 29.9624 22.6703C29.8137 22.6493 29.6637 22.6385 29.5134 22.6381C29.0694 22.6381 28.8337 22.7381 28.7779 22.7923ZM52.6244 22.1114C52.6676 22.4199 52.0595 23.2434 51.2659 23.3539C50.473 23.4644 49.7943 22.8207 49.7505 22.5123C49.709 22.2038 50.3171 21.8631 51.1101 21.7532C51.903 21.6422 52.5806 21.8035 52.6244 22.1114ZM51.0827 23.5114C50.3193 23.5114 49.6603 22.9175 49.6062 22.532C49.5433 22.0693 50.3051 21.7177 51.0893 21.6088C51.2621 21.5848 51.4333 21.5727 51.5979 21.5727C52.2749 21.5727 52.7234 21.7713 52.7682 22.0917C52.7972 22.299 52.638 22.6189 52.3641 22.9077C52.183 23.0974 51.803 23.4261 51.2851 23.4977L51.0827 23.5114ZM51.5984 21.8637C51.4468 21.8637 51.2907 21.8748 51.1303 21.897C50.3423 22.007 49.872 22.3231 49.8949 22.4926C49.9212 22.6791 50.4243 23.221 51.0833 23.221L51.2457 23.2095C51.6761 23.1499 51.9993 22.8688 52.1535 22.707C52.3958 22.4527 52.492 22.2131 52.4805 22.1317C52.4652 22.0234 52.1743 21.8637 51.5984 21.8637ZM53.7668 39.8247C53.6087 39.8248 53.4536 39.7819 53.318 39.7006C53.1824 39.6193 53.0715 39.5026 52.9971 39.3631C52.9227 39.2236 52.8877 39.0665 52.8957 38.9086C52.9037 38.7508 52.9546 38.598 53.0427 38.4668C54.901 35.6914 54.5609 32.8613 54.2322 30.1242C54.0916 28.9583 53.9473 27.7524 53.9845 26.5952C54.0227 25.4047 54.1742 24.4225 54.3202 23.4726C54.4936 22.3471 54.6577 21.284 54.5898 20.0218C54.5837 19.9074 54.6001 19.7929 54.6382 19.6848C54.6762 19.5768 54.7352 19.4773 54.8117 19.392C54.8883 19.3068 54.9809 19.2374 55.0842 19.1879C55.1875 19.1384 55.2996 19.1098 55.414 19.1036C55.5284 19.0974 55.6429 19.1138 55.7509 19.1519C55.859 19.19 55.9585 19.249 56.0438 19.3255C56.216 19.4801 56.3197 19.6967 56.3322 19.9277C56.4098 21.3704 56.2245 22.5735 56.0451 23.7378C55.9067 24.6363 55.7634 25.5655 55.729 26.651C55.6956 27.6759 55.8263 28.7642 55.9647 29.9159C56.3147 32.8263 56.7112 36.1251 54.493 39.4375C54.413 39.5567 54.3049 39.6543 54.1783 39.7218C54.0516 39.7893 53.9103 39.8247 53.7668 39.8247Z" fill="white"/></svg>