<svg xmlns="http://www.w3.org/2000/svg" width="62" height="62" viewBox="0 0 62 62" fill="none"><path d="M32.5694 1.38686C32.1389 1.14016 31.6512 1.01038 31.155 1.01038C30.6588 1.01038 30.1711 1.14016 29.7405 1.38686L6.3875 14.9501C5.49922 15.4526 5 16.4009 5 17.4063V44.5881C5 45.5927 5.55453 46.5414 6.38656 47.0444L29.7396 60.6071C30.1703 60.8539 30.658 60.9838 31.1543 60.9838C31.6506 60.9838 32.1383 60.8539 32.569 60.6071L55.922 47.0439C56.8098 46.5414 57.3086 45.5927 57.3086 44.5877V17.4063C57.3086 16.4013 56.7541 15.4531 55.922 14.9501L32.5694 1.38686Z" fill="url(#paint0_linear_8017_7200)"/><path d="M55.9781 14.9502L32.5145 1.38694C32.2842 1.26935 32.0425 1.17589 31.793 1.10803L5.5 46.3741C5.71781 46.6412 5.98068 46.868 6.27672 47.0445L29.7409 60.6072C30.4065 60.9977 31.1827 61.1097 31.9041 60.8861L56.5884 15.4527C56.4264 15.2404 56.2175 15.0685 55.9781 14.9502Z" fill="url(#paint1_linear_8017_7200)"/><path d="M55.9775 47.0429C56.6431 46.6525 57.1423 45.9826 57.3641 45.257L31.6813 1.05075C31.0157 0.939184 30.2943 0.994965 29.6845 1.3859L6.38672 14.8934L31.5145 60.9971C31.8473 60.9409 32.2363 60.8293 32.5691 60.662L55.9775 47.0429Z" fill="url(#paint2_linear_8017_7200)"/><defs><linearGradient id="paint0_linear_8017_7200" x1="40.6651" y1="11.4872" x2="19.3377" y2="54.7248" gradientUnits="userSpaceOnUse"><stop stop-color="#3F873F"/><stop offset="0.33" stop-color="#3F8B3D"/><stop offset="0.637" stop-color="#3E9638"/><stop offset="0.934" stop-color="#3DA92E"/><stop offset="1" stop-color="#3DAE2B"/></linearGradient><linearGradient id="paint1_linear_8017_7200" x1="27.6064" y1="34.1716" x2="87.112" y2="-9.52403" gradientUnits="userSpaceOnUse"><stop offset="0.138" stop-color="#3F873F"/><stop offset="0.402" stop-color="#52A044"/><stop offset="0.713" stop-color="#64B749"/><stop offset="0.908" stop-color="#6ABF4B"/></linearGradient><linearGradient id="paint2_linear_8017_7200" x1="4.14408" y1="30.988" x2="58.1816" y2="30.988" gradientUnits="userSpaceOnUse"><stop offset="0.092" stop-color="#6ABF4B"/><stop offset="0.287" stop-color="#64B749"/><stop offset="0.598" stop-color="#52A044"/><stop offset="0.862" stop-color="#3F873F"/></linearGradient></defs></svg>