<svg xmlns="http://www.w3.org/2000/svg" width="70" height="70" viewBox="0 0 70 70" fill="none"><path d="M10.4109 62.2758L4.93945 0.908203H65.0607L59.5832 62.2665L34.9634 69.0915L10.4109 62.2758Z" fill="#E44D26"/><path d="M35 63.8748L54.8942 58.3591L59.5749 5.92578H35V63.8748Z" fill="#F16529"/><path d="M35.0002 28.6864H25.0405L24.3525 20.9787H35.0002V13.4526H16.127L16.3074 15.4717L18.157 36.213H35.0002V28.6864ZM35.0002 48.2333L34.9668 48.2426L26.5848 45.9786L26.0495 39.9766H18.4933L19.5477 51.794L34.9657 56.0739L35.0002 56.0646V48.2333Z" fill="#EBEBEB"/><path d="M34.9736 28.6864V36.213H44.2415L43.3682 45.9742L34.9736 48.2399V56.0706L50.4037 51.794L50.5169 50.5226L52.2855 30.7076L52.4687 28.6864H50.4409H34.9736ZM34.9736 13.4526V20.9787H53.1539L53.3049 19.2878L53.6483 15.4717L53.8282 13.4526H34.9736Z" fill="white"/></svg>