<svg xmlns="http://www.w3.org/2000/svg" width="70" height="70" viewBox="0 0 70 70" fill="none"><path d="M9.55664 56.4793L18.1727 1.34663C18.2243 1.01714 18.3781 0.712192 18.6124 0.474854C18.8467 0.237516 19.1496 0.0797842 19.4784 0.0239373C19.8072 -0.0319095 20.1452 0.0169512 20.4448 0.163618C20.7443 0.310285 20.9902 0.547345 21.1477 0.841316L30.0584 17.4608L33.6098 10.6982C33.7449 10.4417 33.9474 10.2269 34.1956 10.0771C34.4438 9.92728 34.7282 9.84809 35.018 9.84809C35.3079 9.84809 35.5923 9.92728 35.8405 10.0771C36.0887 10.2269 36.2912 10.4417 36.4263 10.6982L60.4723 56.4793H9.55664Z" fill="#FFA000"/><path d="M39.3225 35.0029L30.0541 17.4526L9.55664 56.4793L39.3225 35.0029Z" fill="#F57C00"/><path d="M60.4723 56.4789L53.8732 15.6426C53.8244 15.3548 53.6974 15.0859 53.506 14.8654C53.3147 14.6449 53.0663 14.4813 52.7882 14.3925C52.5102 14.3039 52.2131 14.2935 51.9296 14.3623C51.646 14.4312 51.3868 14.5767 51.1804 14.7829L9.55664 56.4783L32.5883 69.3944C33.2996 69.7915 34.1006 69.9999 34.9152 69.9999C35.7298 69.9999 36.5309 69.7915 37.2422 69.3944L60.4723 56.4789Z" fill="#FFCA28"/><path d="M53.8718 15.6426C53.823 15.3548 53.696 15.0859 53.5046 14.8654C53.3133 14.6449 53.0649 14.4813 52.7868 14.3925C52.5088 14.3038 52.2118 14.2933 51.9282 14.3621C51.6447 14.4308 51.3855 14.5763 51.179 14.7824L42.9173 23.0659L36.421 10.6978C36.286 10.4413 36.0834 10.2265 35.8353 10.0767C35.5871 9.92687 35.3027 9.84768 35.0128 9.84768C34.7229 9.84768 34.4385 9.92687 34.1904 10.0767C33.9422 10.2265 33.7396 10.4413 33.6046 10.6978L30.0532 17.4599L21.1424 0.840908C20.9847 0.546532 20.7384 0.309225 20.4384 0.162591C20.1383 0.0159577 19.7998 -0.0325712 19.4706 0.0238767C19.1417 0.080309 18.8388 0.23872 18.6049 0.476706C18.3709 0.714693 18.2177 1.02021 18.1669 1.35005L9.55523 56.4789H9.52734L9.55469 56.5106L9.78164 56.6222L51.167 15.1887C51.3733 14.9814 51.6329 14.835 51.917 14.7656C52.2012 14.6962 52.499 14.7064 52.7777 14.7952C53.0565 14.884 53.3053 15.0479 53.497 15.2689C53.6886 15.4898 53.8157 15.7594 53.8641 16.0479L60.4075 56.5182L60.4709 56.4783L53.8718 15.6426ZM9.6307 56.4034L18.1707 1.73997C18.2214 1.40996 18.3747 1.10426 18.6088 0.866159C18.8429 0.628057 19.1459 0.469612 19.475 0.413252C19.8042 0.356852 20.1428 0.405462 20.4429 0.552197C20.7429 0.698932 20.9892 0.936353 21.1468 1.23083L30.0565 17.8504L33.6084 11.0877C33.7435 10.8312 33.946 10.6164 34.1942 10.4666C34.4424 10.3168 34.7267 10.2376 35.0166 10.2376C35.3065 10.2376 35.5909 10.3168 35.8391 10.4666C36.0873 10.6164 36.2898 10.8312 36.4248 11.0877L42.7894 23.1928L9.62961 56.4034H9.6307Z" fill="white" fill-opacity="0.2"/><path opacity="0.2" d="M37.2413 69.0048C36.53 69.4018 35.729 69.6102 34.9144 69.6102C34.0998 69.6102 33.2987 69.4018 32.5874 69.0048L9.61047 56.1259L9.55469 56.4797L32.5863 69.3914C33.2976 69.7884 34.0987 69.9969 34.9133 69.9969C35.7279 69.9969 36.5289 69.7884 37.2402 69.3914L60.4715 56.4797L60.4113 56.1133L37.2402 69.0059L37.2413 69.0048Z" fill="#A52714"/></svg>