<svg xmlns="http://www.w3.org/2000/svg" width="70" height="70" viewBox="0 0 70 70" fill="none"><path d="M0 35C0 45.1681 15.6702 53.4116 35 53.4116C54.3298 53.4116 70 45.1681 70 35C70 24.832 54.3293 16.5884 35 16.5884C15.6707 16.5884 0 24.832 0 35Z" fill="url(#paint0_radial_8936_10862)"/><path d="M35 52.0445C53.5746 52.0445 68.6328 44.4128 68.6328 35C68.6328 25.5861 53.5746 17.9556 35 17.9556C16.4254 17.9556 1.36719 25.5861 1.36719 35C1.36719 44.4128 16.4254 52.0445 35 52.0445Z" fill="#777BB3"/><path d="M19.0162 37.1131C20.5436 37.1131 21.6833 36.8315 22.4046 36.2764C23.1188 35.7263 23.6116 34.7741 23.8702 33.4463C24.1109 32.2049 24.019 31.3387 23.5968 30.8706C23.1659 30.3926 22.2334 30.1503 20.8258 30.1503H18.3845L17.0321 37.1131H19.0162ZM11.0323 45.6898C10.9763 45.6897 10.921 45.6772 10.8704 45.6532C10.8198 45.6293 10.7751 45.5944 10.7396 45.5511C10.704 45.5078 10.6785 45.4572 10.6648 45.4029C10.6511 45.3486 10.6496 45.2919 10.6605 45.237L14.2463 26.7865C14.2633 26.7002 14.3096 26.6225 14.3774 26.5666C14.4452 26.5106 14.5303 26.4799 14.6182 26.4797H22.3477C24.7769 26.4797 26.5849 27.1392 27.7219 28.4402C28.8637 29.7473 29.217 31.576 28.7702 33.8734C28.5881 34.8091 28.2753 35.6781 27.8405 36.4569C27.3881 37.258 26.8106 37.9817 26.1299 38.6006C25.2926 39.3838 24.3449 39.9525 23.3151 40.2866C22.3023 40.617 21.0008 40.7843 19.4487 40.7843H16.3184L15.4248 45.3824C15.408 45.469 15.3615 45.5469 15.2935 45.603C15.2255 45.6591 15.14 45.6897 15.0519 45.6898H11.0323Z" fill="black"/><path d="M18.6971 30.5298H20.825C22.5242 30.5298 23.1142 30.9028 23.3149 31.1254C23.6469 31.494 23.7103 32.2722 23.496 33.3741C23.2559 34.6084 22.8107 35.484 22.1725 35.9751C21.5196 36.4782 20.4564 36.733 19.0154 36.733H17.4918L18.6971 30.5298ZM22.347 26.1002H14.618C14.4417 26.1002 14.271 26.1614 14.1349 26.2735C13.9988 26.3855 13.9059 26.5413 13.8721 26.7143L10.2862 45.1653C10.265 45.2752 10.2684 45.3884 10.296 45.4969C10.3237 45.6054 10.3749 45.7064 10.4461 45.7927C10.5173 45.8791 10.6067 45.9487 10.7079 45.9965C10.8091 46.0443 10.9197 46.0691 11.0316 46.0693H15.0511C15.2274 46.0691 15.3981 46.0077 15.534 45.8956C15.67 45.7835 15.7628 45.6276 15.7965 45.4546L16.6305 41.1638H19.4474C21.0399 41.1638 22.3809 40.9899 23.4325 40.6476C24.5137 40.2965 25.5085 39.7009 26.3889 38.8773C27.098 38.2318 27.6996 37.4773 28.1712 36.6423C28.6256 35.8291 28.9527 34.9213 29.1419 33.9456C29.6122 31.5268 29.2299 29.5903 28.0066 28.1903C26.7947 26.8029 24.8905 26.0996 22.347 26.0996V26.1002ZM16.5703 37.4921H19.0154C20.636 37.4925 21.8428 37.1871 22.6357 36.5761C23.4287 35.9658 23.9643 34.9466 24.2424 33.5185C24.5079 32.147 24.3866 31.1794 23.8788 30.6157C23.3702 30.0521 22.3523 29.7702 20.825 29.7702H18.071L16.5703 37.4921ZM22.3475 26.8581C24.6728 26.8581 26.3687 27.4684 27.4351 28.6891C28.5015 29.9097 28.8223 31.6134 28.3976 33.8002C28.2219 34.7014 27.9256 35.525 27.5089 36.2709C27.0915 37.0176 26.5462 37.7007 25.8732 38.3201C25.0711 39.0711 24.1794 39.6061 23.1979 39.9252C22.2168 40.2445 20.9668 40.404 19.448 40.4037H16.0049L15.0517 45.3091H11.0321L14.6185 26.8581H22.3475Z" fill="white"/><path d="M37.9851 40.7843C37.9291 40.7844 37.8737 40.772 37.823 40.7481C37.7723 40.7243 37.7275 40.6895 37.6919 40.6462C37.6562 40.603 37.6306 40.5524 37.6168 40.4981C37.603 40.4437 37.6014 40.387 37.6122 40.332L39.1981 32.1683C39.3496 31.3917 39.3124 30.835 39.0942 30.5987C38.9602 30.4549 38.5588 30.2137 37.3715 30.2137H34.4972L32.5033 40.4775C32.4861 40.5639 32.4395 40.6417 32.3714 40.6976C32.3033 40.7534 32.2178 40.7839 32.1297 40.7837H28.143C28.087 40.7838 28.0317 40.7714 27.981 40.7476C27.9303 40.7238 27.8856 40.689 27.8499 40.6459C27.8142 40.6027 27.7885 40.5522 27.7746 40.4979C27.7607 40.4437 27.759 40.387 27.7695 40.332L31.3559 21.881C31.3729 21.7946 31.4194 21.7167 31.4874 21.6608C31.5554 21.6048 31.6408 21.5742 31.7289 21.5742H35.7156C35.7716 21.5742 35.8269 21.5865 35.8776 21.6104C35.9283 21.6342 35.9731 21.6689 36.0088 21.7121C36.0445 21.7553 36.0702 21.8058 36.0841 21.86C36.0979 21.9143 36.0997 21.9709 36.0891 22.0259L35.224 26.4797H38.3154C40.6708 26.4797 42.2677 26.8942 43.1979 27.749C44.1457 28.6202 44.4421 30.013 44.0773 31.8905L42.4088 40.4775C42.3917 40.5638 42.3452 40.6416 42.2772 40.6974C42.2091 40.7533 42.1238 40.7838 42.0358 40.7837L37.9851 40.7843Z" fill="black"/><path d="M35.7167 21.1941H31.7294C31.5531 21.1942 31.3823 21.2555 31.2462 21.3677C31.1101 21.4798 31.0172 21.6358 30.9835 21.8088L27.3976 40.2593C27.3764 40.3692 27.3796 40.4825 27.4072 40.5911C27.4349 40.6996 27.4861 40.8007 27.5573 40.8871C27.6285 40.9735 27.718 41.0431 27.8192 41.091C27.9205 41.1388 28.031 41.1637 28.143 41.1638H32.1303C32.3066 41.1638 32.4774 41.1024 32.6135 40.9903C32.7496 40.8782 32.8425 40.7222 32.8762 40.5491L34.8105 30.5933H37.371C38.5566 30.5933 38.806 30.8465 38.8153 30.858C38.8875 30.9345 38.9821 31.2927 38.8257 32.0961L37.2397 40.2593C37.2185 40.3693 37.2218 40.4826 37.2494 40.5912C37.277 40.6998 37.3283 40.8009 37.3996 40.8873C37.4709 40.9737 37.5604 41.0433 37.6617 41.0911C37.763 41.139 37.8736 41.1638 37.9857 41.1638H42.0369C42.2132 41.1637 42.3839 41.1023 42.5198 40.9901C42.6558 40.878 42.7486 40.7221 42.7823 40.5491L44.4508 31.9632C44.8418 29.9474 44.5072 28.4359 43.4555 27.4695C42.4515 26.5475 40.7704 26.0996 38.316 26.0996H35.6855L36.4626 22.0992C36.484 21.9892 36.4808 21.8758 36.4532 21.7672C36.4256 21.6585 36.3743 21.5573 36.303 21.4708C36.2317 21.3843 36.1422 21.3147 36.0408 21.2668C35.9395 21.219 35.8288 21.1942 35.7167 21.1941ZM35.7167 21.9543L34.7635 26.8587H38.316C40.5512 26.8587 42.0929 27.2488 42.9409 28.029C43.7897 28.8085 44.0445 30.0717 43.7054 31.8188L42.0364 40.4042H37.9857L39.5722 32.2405C39.7526 31.3119 39.6861 30.6786 39.3725 30.3406C39.059 30.003 38.3922 29.8342 37.3721 29.8342H34.1843L32.1303 40.4037H28.1425L31.7289 21.9527H35.7167V21.9543Z" fill="white"/><path d="M50.3867 37.1131C51.9141 37.1131 53.0544 36.8315 53.7762 36.2764C54.4894 35.7263 54.9826 34.7741 55.2413 33.4463C55.4819 32.2049 55.3906 31.3387 54.9679 30.8706C54.5369 30.3926 53.6045 30.1503 52.1969 30.1503H49.7562L48.4026 37.1131H50.3867ZM42.4045 45.6898C42.3484 45.6899 42.293 45.6775 42.2422 45.6536C42.1915 45.6297 42.1467 45.5948 42.111 45.5515C42.0753 45.5082 42.0497 45.4576 42.036 45.4032C42.0222 45.3488 42.0207 45.292 42.0316 45.237L45.6174 26.7865C45.6344 26.7001 45.6809 26.6222 45.7489 26.5662C45.8169 26.5103 45.9023 26.4797 45.9904 26.4797H53.7194C56.1486 26.4797 57.9566 27.1392 59.093 28.4402C60.2354 29.7473 60.5881 31.576 60.1413 33.8734C59.9704 34.7784 59.6567 35.6504 59.2122 36.4569C58.7597 37.258 58.1823 37.9817 57.5016 38.6006C56.6648 39.3838 55.716 39.9525 54.6868 40.2866C53.674 40.617 52.3724 40.7843 50.8198 40.7843H47.6901L46.797 45.3824C46.7801 45.4691 46.7336 45.5471 46.6655 45.6032C46.5973 45.6593 46.5118 45.6899 46.4235 45.6898H42.4045Z" fill="black"/><path d="M50.0692 30.5298H52.1971C53.8962 30.5298 54.4863 30.9028 54.6865 31.1254C55.0201 31.494 55.0824 32.2722 54.8686 33.3741C54.6279 34.6084 54.1828 35.484 53.5446 35.9751C52.8911 36.4782 51.8279 36.733 50.3875 36.733H48.8639L50.0692 30.5298ZM53.719 26.1002H45.9901C45.8139 26.1003 45.6433 26.1616 45.5073 26.2736C45.3713 26.3857 45.2785 26.5414 45.2447 26.7143L41.6583 45.1653C41.6371 45.2753 41.6404 45.3885 41.6681 45.497C41.6958 45.6055 41.7471 45.7066 41.8184 45.7929C41.8896 45.8793 41.9791 45.9489 42.0804 45.9966C42.1816 46.0444 42.2922 46.0692 42.4042 46.0693H46.4237C46.6 46.0691 46.7707 46.0077 46.9066 45.8956C47.0426 45.7835 47.1354 45.6276 47.1691 45.4546L48.0031 41.1638H50.8195C52.4115 41.1638 53.7529 40.9899 54.804 40.6476C55.8858 40.2965 56.8805 39.7009 57.7615 38.8768C58.4704 38.2313 59.0718 37.477 59.5433 36.6423C59.9983 35.8291 60.3242 34.9213 60.514 33.9456C60.9843 31.5268 60.6026 29.5903 59.3787 28.1903C58.1668 26.8029 56.2631 26.0996 53.7185 26.0996L53.719 26.1002ZM47.9424 37.4921H50.3869C52.0075 37.4925 53.2146 37.1871 54.0083 36.5761C54.8013 35.9658 55.3365 34.9466 55.614 33.5185C55.8805 32.147 55.7593 31.1794 55.2503 30.6157C54.7413 30.0521 53.7236 29.7702 52.1971 29.7702H49.4436L47.9424 37.4921ZM53.719 26.8581C56.0444 26.8581 57.7402 27.4684 58.8066 28.6891C59.873 29.9097 60.1937 31.6134 59.7686 33.8002C59.5936 34.7014 59.2975 35.525 58.8804 36.2709C58.4634 37.0176 57.918 37.7007 57.2442 38.3201C56.4421 39.0711 55.5503 39.6061 54.5689 39.9252C53.5882 40.2445 52.3384 40.404 50.8195 40.4037H47.3769L46.4226 45.3091H42.4031L45.9895 26.8581H53.719Z" fill="white"/><defs><radialGradient id="paint0_radial_8936_10862" cx="0" cy="0" r="1" gradientUnits="userSpaceOnUse" gradientTransform="translate(21.0142 23.0612) scale(45.9601 45.9601)"><stop stop-color="#AEB2D5"/><stop offset="0.3" stop-color="#AEB2D5"/><stop offset="0.75" stop-color="#484C89"/><stop offset="1" stop-color="#484C89"/></radialGradient></defs></svg>