<svg xmlns="http://www.w3.org/2000/svg" width="70" height="70" viewBox="0 0 70 70" fill="none"><g clip-path="url(#clip0_8936_10879)"><path fill-rule="evenodd" clip-rule="evenodd" d="M48.7945 22.8407C49.7156 25.5053 50.379 28.2255 50.5971 31.0451C50.868 34.5429 50.744 38.0161 50.0066 41.4565C49.9865 41.5512 49.944 41.6402 49.9124 41.732C49.6812 41.7326 49.4453 41.7039 49.2192 41.7389C47.3087 42.039 45.3999 42.3501 43.4912 42.6594C41.5182 42.9791 39.5423 43.2861 37.5727 43.6275C36.8748 43.7481 36.0111 43.604 35.7294 44.5693C35.7213 44.5957 35.641 44.6003 35.5945 44.6152L35.6898 38.8471L35.5928 24.9291L36.5121 24.7713C38.0157 24.5251 39.5193 24.2755 41.0241 24.0362C42.8197 23.7509 44.6172 23.4737 46.414 23.1954C47.2065 23.072 48.0002 22.959 48.7945 22.8407Z" fill="#439934"/><path fill-rule="evenodd" clip-rule="evenodd" d="M33.6973 61.4301C32.7274 60.5963 31.7237 59.7991 30.794 58.9222C25.7914 54.2037 22.1323 48.6502 20.3303 41.9546C19.8339 40.1119 19.5027 38.2393 19.3966 36.3351C19.322 35.0026 19.2141 33.6579 19.3082 32.3323C19.559 28.8063 20.0686 25.3142 21.1027 21.9179L21.1596 21.8387C21.26 21.9724 21.4046 22.0907 21.4557 22.2416C22.465 25.2143 23.4677 28.1892 24.464 31.1661C27.5963 40.5205 30.7246 49.8772 33.862 59.2293C33.9234 59.4117 34.0824 59.5615 34.1966 59.7262L33.6973 61.4301Z" fill="#45A538"/><path fill-rule="evenodd" clip-rule="evenodd" d="M48.7946 22.8407C48.0003 22.9589 47.206 23.072 46.4135 23.1942C44.6167 23.4726 42.8192 23.7498 41.0235 24.035C39.5188 24.2743 38.0152 24.5239 36.5116 24.7701L35.5923 24.9279L35.5854 24.3282C35.555 23.8353 35.5027 23.3429 35.497 22.8499C35.4574 19.7061 35.4327 16.5624 35.3937 13.4186C35.3696 11.4508 35.3334 9.48347 35.2933 7.51618C35.2686 6.2938 35.2422 5.07084 35.1871 3.85018C35.1573 3.19423 35.0517 2.54172 35.0086 1.88576C34.9845 1.50872 35.0178 1.1288 35.0253 0.750038C35.4941 1.6585 35.9527 2.57385 36.4347 3.47543C37.1963 4.90097 38.4095 5.95119 39.5016 7.09724C43.819 11.6264 46.8841 16.8924 48.7946 22.8407Z" fill="#46A037"/><path fill-rule="evenodd" clip-rule="evenodd" d="M35.5935 44.6146C35.6399 44.5997 35.7209 44.5951 35.7283 44.5687C36.0101 43.6034 36.8738 43.7475 37.5717 43.627C39.5412 43.2861 41.5171 42.9785 43.4902 42.6588C45.3989 42.3495 47.3077 42.0384 49.2181 41.7383C49.4443 41.7027 49.6801 41.732 49.9114 41.7314C49.5544 43.0054 49.2732 44.307 48.8204 45.546C48.3062 46.9515 47.6841 48.3231 47.0236 49.6677C46.0354 51.6736 44.8114 53.5546 43.3777 55.2706C42.2764 56.5951 41.0488 57.8192 39.8184 59.0284C39.1384 59.697 38.3366 60.2416 37.5906 60.8425L37.3972 60.7105L36.7005 60.1148L35.9797 58.5349C35.4873 56.6918 35.2187 54.7962 35.1797 52.8889L35.1929 52.567L35.291 51.1747C35.3237 50.6996 35.3673 50.225 35.3874 49.7486C35.4615 48.0373 35.5257 46.326 35.5935 44.6146Z" fill="#409433"/><path fill-rule="evenodd" clip-rule="evenodd" d="M35.5959 44.6146C35.5282 46.326 35.4639 48.0373 35.391 49.7492C35.3709 50.2255 35.3273 50.7001 35.2946 51.1753L34.8556 51.3412C33.8806 48.4706 32.9049 45.6304 31.9506 42.7828C30.3724 38.0717 28.8131 33.3532 27.2372 28.641C25.9644 24.8376 24.6827 21.0371 23.3922 17.2396C23.3319 17.0617 23.1586 16.9228 23.0381 16.7656L25.8478 11.5994C25.9443 11.767 26.0717 11.9237 26.1325 12.1039C27.4338 15.9501 28.7285 19.7986 30.0166 23.6493C31.69 28.6594 33.3532 33.6734 35.0255 38.6841C35.092 38.8843 35.2022 39.0691 35.3072 39.2935L35.6917 38.8459L35.5959 44.6146Z" fill="#4FAA41"/><path fill-rule="evenodd" clip-rule="evenodd" d="M23.0369 16.7661C23.1575 16.9234 23.3302 17.0622 23.391 17.2401C24.6816 21.0376 25.9633 24.8381 27.2361 28.6416C28.812 33.3538 30.3712 38.0723 31.9494 42.7833C32.9032 45.6304 33.8788 48.4711 34.8544 51.3417L35.2935 51.1759L35.1953 52.5681L35.1064 52.8889C34.9537 54.4132 34.8252 55.9409 34.6392 57.4617C34.5457 58.2238 34.3471 58.9721 34.1962 59.7268C34.0826 59.5621 33.923 59.4123 33.8616 59.2298C30.7242 49.8772 27.5959 40.5211 24.4636 31.1667C23.4671 28.1897 22.4644 25.2149 21.4553 22.2422C21.4042 22.0912 21.2602 21.973 21.1592 21.8393L23.0369 16.7661Z" fill="#4AA73C"/><path fill-rule="evenodd" clip-rule="evenodd" d="M35.6886 38.8465L35.3041 39.2941C35.1991 39.0697 35.0889 38.8844 35.0223 38.6846C33.3506 33.674 31.6869 28.66 30.0134 23.6499C28.7254 19.7992 27.4307 15.9507 26.1294 12.1044C26.0691 11.9242 25.9417 11.767 25.8447 11.6L29.3196 7.02898C29.4292 7.17532 29.5853 7.30559 29.6421 7.4703C30.6063 10.2946 31.5633 13.1216 32.5133 15.9512C33.4011 18.5934 34.2757 21.2396 35.1739 23.8783C35.2341 24.0551 35.4436 24.1802 35.5836 24.3294L35.5905 24.9291C35.6238 29.5677 35.6565 34.2068 35.6886 38.8465Z" fill="#57AE47"/><path fill-rule="evenodd" clip-rule="evenodd" d="M35.5872 24.3283C35.4472 24.1791 35.2377 24.0539 35.1775 23.8772C34.2793 21.2385 33.4047 18.5923 32.5169 15.9501C31.567 13.1208 30.6099 10.2938 29.6458 7.46915C29.589 7.30445 29.4329 7.17418 29.3232 7.02783C30.4532 5.92138 31.5482 4.77532 32.7235 3.71994C33.7686 2.78221 34.6088 1.77676 34.6472 0.294978C34.6489 0.233572 34.6811 0.172166 34.7304 0L35.0283 0.749498C35.0208 1.12884 34.9869 1.50818 35.0116 1.88522C35.0547 2.54118 35.1603 3.19369 35.1901 3.84964C35.2452 5.0703 35.2716 6.29326 35.2963 7.51564C35.3359 9.48293 35.372 11.4502 35.3967 13.4181C35.4352 16.5618 35.4604 19.7056 35.5 22.8494C35.5046 23.3435 35.5562 23.8353 35.5872 24.3283Z" fill="#60B24F"/><path fill-rule="evenodd" clip-rule="evenodd" d="M34.1946 59.7263C34.3455 58.9716 34.5441 58.2227 34.6376 57.4611C34.8241 55.9409 34.9521 54.4126 35.1048 52.8884L35.1427 52.8826L35.1805 52.889C35.2196 54.7962 35.4882 56.6918 35.9805 58.5349C35.8795 58.668 35.7366 58.7868 35.6833 58.9372C35.266 60.1136 34.8729 61.2993 34.4534 62.4758C34.396 62.6364 34.2365 62.7616 34.124 62.9027L33.6953 61.4301L34.1946 59.7263Z" fill="#A9AA88"/><path fill-rule="evenodd" clip-rule="evenodd" d="M34.126 62.9033C34.2385 62.7621 34.3986 62.637 34.4554 62.4763C34.8749 61.2998 35.2686 60.1148 35.6852 58.9377C35.7386 58.7874 35.8809 58.6686 35.9825 58.5354L36.7027 60.1159C36.5604 60.3179 36.3641 60.4998 36.2849 60.7248L34.9053 64.7759C34.8485 64.9383 34.6545 65.0531 34.5248 65.1902L34.126 62.9033Z" fill="#B6B598"/><path fill-rule="evenodd" clip-rule="evenodd" d="M34.5244 65.1897C34.6547 65.0531 34.8481 64.9377 34.9049 64.7753L36.2845 60.7242C36.3632 60.4998 36.56 60.3173 36.7023 60.1153L37.3996 60.7105C37.0627 61.0433 36.8756 61.4278 36.9881 61.9139L36.7764 62.6072C36.6799 62.726 36.5405 62.8293 36.4928 62.9653C36.0114 64.3443 35.5517 65.7308 35.0667 67.1099C35.0053 67.2849 34.8349 67.4221 34.7144 67.5759C34.6516 66.7805 34.5883 65.9851 34.5244 65.1897Z" fill="#C2C1A7"/><path fill-rule="evenodd" clip-rule="evenodd" d="M34.7173 67.5759C34.8372 67.4215 35.0077 67.2843 35.0697 67.1099C35.5546 65.7314 36.0143 64.3449 36.4958 62.9652C36.5434 62.8298 36.6823 62.7259 36.7793 62.6071L36.4872 65.7894C36.4091 65.8795 36.2961 65.9581 36.2588 66.0631C35.9288 66.9894 35.6177 67.9225 35.2866 68.8488C35.2183 69.0399 35.0875 69.2086 34.9853 69.3871C34.8946 69.2683 34.7322 69.1535 34.7248 69.0295C34.6955 68.5469 34.7156 68.0608 34.7173 67.5759Z" fill="#CECDB7"/><path fill-rule="evenodd" clip-rule="evenodd" d="M34.9814 69.3871C35.0836 69.208 35.2144 69.0393 35.2827 68.8488C35.6144 67.9231 35.9249 66.99 36.2549 66.0631C36.2922 65.9581 36.4058 65.8801 36.4833 65.7894L36.4902 67.8784L35.7912 69.6712L34.9814 69.3871Z" fill="#DBDAC7"/><path fill-rule="evenodd" clip-rule="evenodd" d="M35.793 69.6717L36.492 67.8789L36.636 70L35.793 69.6717Z" fill="#EBE9DC"/><path fill-rule="evenodd" clip-rule="evenodd" d="M36.9879 61.9145C36.8754 61.4284 37.0619 61.0433 37.3994 60.7111L37.5928 60.8431L36.9879 61.9145Z" fill="#CECDB7"/><path fill-rule="evenodd" clip-rule="evenodd" d="M35.1832 52.8895L35.1453 52.8832L35.1074 52.8889L35.1964 52.5681L35.1832 52.8895Z" fill="#4FAA41"/></g><defs><clipPath id="clip0_8936_10879"><rect width="70" height="70" fill="white"/></clipPath></defs></svg>