<svg xmlns="http://www.w3.org/2000/svg" width="70" height="70" viewBox="0 0 70 70" fill="none"><g clip-path="url(#clip0_8936_10874)"><path d="M64.3603 53.7261C60.5469 53.6216 57.6354 53.9782 55.1443 55.0271C54.4372 55.3262 53.3096 55.3328 53.1942 56.2193C53.583 56.6273 53.6426 57.2359 53.9527 57.738C54.5466 58.6972 55.5507 59.9873 56.4459 60.6648C57.4243 61.402 58.4327 62.1923 59.4816 62.831C61.3486 63.9696 63.4317 64.6193 65.226 65.7579C66.2858 66.4305 67.3364 67.2766 68.3705 68.0351C68.8813 68.4091 69.2253 68.9921 69.887 69.2273V69.1206C69.5386 68.6766 69.449 68.0651 69.1285 67.6019L67.7186 66.1921C66.3405 64.3633 64.5911 62.7572 62.7328 61.4239C61.2502 60.358 57.9307 58.9203 57.3133 57.1966L57.2044 57.0877C58.2555 56.968 59.486 56.5879 60.4578 56.327C62.0875 55.8912 63.5449 56.0044 65.226 55.5685L67.5032 54.9194V54.4857C66.6528 53.614 66.0463 52.4584 65.1193 51.6682C62.6907 49.6005 60.0416 47.5366 57.3138 45.815C55.8011 44.8601 53.9319 44.2384 52.3279 43.429C51.7876 43.1577 50.841 43.0144 50.4844 42.5616C49.6428 41.4892 49.1834 40.1286 48.5343 38.8768C47.1736 36.2556 45.8382 33.3955 44.6312 30.6376C43.8087 28.758 43.2728 26.9035 42.2474 25.218C37.3255 17.1259 32.0279 12.2407 23.8204 7.44023C22.0732 6.41921 19.971 6.01562 17.749 5.48789L14.1708 5.27187C13.4424 4.96836 12.6861 4.0775 12.0025 3.64383C9.28395 1.925 2.30911 -1.81125 0.294421 3.10187C-0.976516 6.20156 2.19591 9.22633 3.33012 10.7986C4.12692 11.8989 5.14575 13.1354 5.71395 14.3746C6.0902 15.1905 6.15419 16.0065 6.47466 16.8678C7.26106 18.9913 7.94848 21.3024 8.96786 23.2635C9.48247 24.2566 10.0507 25.3017 10.7025 26.1904C11.1001 26.7351 11.7854 26.9768 11.8947 27.8162C11.2237 28.7541 11.1854 30.2088 10.8097 31.3944C9.11551 36.7374 9.75645 43.3765 12.2196 47.3287C12.9759 48.5444 14.7576 51.1459 17.2054 50.1484C19.3481 49.2745 18.8696 46.5724 19.4826 44.1864C19.6215 43.6461 19.5362 43.2485 19.8075 42.8854V42.9942L21.7598 46.8951C23.2041 49.2215 25.7651 51.6523 27.9379 53.293C29.0639 54.1433 29.9504 55.6128 31.4072 56.1105V56.0016H31.2984C31.0162 55.5614 30.5743 55.3798 30.2156 55.0276C29.3674 54.1948 28.4235 53.1606 27.7224 52.208C25.7465 49.5272 24.0009 46.5916 22.4117 43.5373C21.651 42.0782 20.9909 40.4698 20.35 38.9851C20.1022 38.4125 20.1066 37.5451 19.5915 37.2504C18.8909 38.3376 17.8568 39.218 17.3143 40.5016C16.4491 42.5545 16.3359 45.0603 16.0154 47.6558C15.8251 47.7241 15.9088 47.6771 15.7978 47.7646C14.2873 47.3993 13.7579 45.8462 13.1957 44.5112C11.7772 41.1403 11.5125 35.712 12.7621 31.8287C13.0847 30.8246 14.546 27.6631 13.9543 26.734C13.6721 25.8092 12.7407 25.2727 12.2196 24.5656C11.5743 23.6917 10.9317 22.5405 10.4849 21.5299C9.32278 18.9022 8.78247 15.9502 7.55802 13.2929C6.97286 12.0219 5.98575 10.7357 5.17419 9.60804C4.27458 8.35625 3.26887 7.43312 2.57216 5.92101C2.32442 5.38289 1.98919 4.52156 2.3545 3.97086C2.47208 3.59679 2.63669 3.44093 3.00583 3.31953C3.63364 2.83445 5.38583 3.48195 6.03934 3.7532C7.77841 4.47507 9.22872 5.16304 10.7025 6.13921C11.4075 6.60679 12.1233 7.51297 12.9775 7.76507H13.9537C15.479 8.11562 17.1879 7.87172 18.6147 8.30539C21.1353 9.07211 23.3933 10.2643 25.4441 11.5587C31.6905 15.5044 36.8005 21.1181 40.295 27.8195C40.8567 28.8985 41.1006 29.9261 41.5961 31.0707C42.5936 33.378 43.8519 35.7514 44.845 38.0094C45.8382 40.2587 46.804 42.5321 48.2072 44.4051C48.9444 45.3901 51.7898 45.9178 53.0843 46.4647C53.9921 46.8469 55.479 47.2467 56.3376 47.7657C57.9782 48.755 59.5675 49.9341 61.108 51.0169C61.8747 51.5594 64.2416 52.7494 64.3592 53.7277L64.3603 53.7261ZM15.9044 12.4261C15.1098 12.4113 14.5482 12.5114 13.9543 12.6421V12.7509H14.0609C14.441 13.5286 15.1098 14.0306 15.5796 14.7011L16.6624 16.9783L16.7712 16.8716C17.4422 16.3975 17.7496 15.6412 17.7452 14.4856C17.4761 14.2012 17.4379 13.8491 17.2027 13.5094C16.8954 13.0588 16.2949 12.8045 15.9039 12.4266L15.9044 12.4261Z" fill="#00618A"/></g><defs><clipPath id="clip0_8936_10874"><rect width="70" height="70" fill="white"/></clipPath></defs></svg>