<svg xmlns="http://www.w3.org/2000/svg" width="36" height="36" viewBox="0 0 36 36" fill="none"><path d="M24.0009 16C24.0009 17.5913 23.3687 19.1174 22.2435 20.2426C21.1183 21.3678 19.5922 22 18.0009 22C16.4096 22 14.8834 21.3678 13.7582 20.2426C12.633 19.1174 12.0009 17.5913 12.0009 16C12.0009 14.4087 12.633 12.8826 13.7582 11.7573C14.8834 10.6321 16.4096 9.99999 18.0009 9.99999C19.5922 9.99999 21.1183 10.6321 22.2435 11.7573C23.3687 12.8826 24.0009 14.4087 24.0009 16ZM22.0009 16C22.0009 14.9391 21.5794 13.9217 20.8293 13.1716C20.0792 12.4214 19.0617 12 18.0009 12C16.94 12 15.9226 12.4214 15.1724 13.1716C14.4223 13.9217 14.0009 14.9391 14.0009 16C14.0009 17.0609 14.4223 18.0783 15.1724 18.8284C15.9226 19.5786 16.94 20 18.0009 20C19.0617 20 20.0792 19.5786 20.8293 18.8284C21.5794 18.0783 22.0009 17.0609 22.0009 16ZM27.9009 25.91C30.5267 23.2828 32.0017 19.7204 32.0017 16.006C32.0017 12.2916 30.5267 8.72916 27.9009 6.10199C26.6008 4.80182 25.0574 3.77045 23.3588 3.0668C21.6601 2.36314 19.8395 2.00098 18.0009 2.00098C16.1622 2.00098 14.3416 2.36314 12.643 3.0668C10.9443 3.77045 9.40091 4.80182 8.10087 6.10199C5.47505 8.72916 4 12.2916 4 16.006C4 19.7204 5.47505 23.2828 8.10087 25.91L11.1429 28.908L15.2289 32.878L15.4949 33.114C17.0449 34.37 19.3149 34.29 20.7749 32.878L25.6449 28.138L27.9009 25.91ZM9.51087 7.51199C10.6253 6.39627 11.9488 5.51116 13.4056 4.90727C14.8624 4.30338 16.4239 3.99255 18.0009 3.99255C19.5779 3.99255 21.1394 4.30338 22.5962 4.90727C24.0529 5.51116 25.3764 6.39627 26.4909 7.51199C28.6794 9.70338 29.9376 12.6549 30.0032 15.7513C30.0688 18.8477 28.9366 21.8499 26.8429 24.132L26.4909 24.5L23.8489 27.108L19.3889 31.446L19.2009 31.606C18.8545 31.8653 18.4333 32.0053 18.0005 32.005C17.5678 32.0046 17.1468 31.8639 16.8009 31.604L16.6149 31.444L10.6549 25.634L9.51087 24.5L9.15887 24.134C7.06509 21.8519 5.93297 18.8497 5.99855 15.7533C6.06413 12.6569 7.32234 9.70338 9.51087 7.51199Z" fill="#FF8343"/></svg>