<svg xmlns="http://www.w3.org/2000/svg" width="62" height="62" viewBox="0 0 62 62" fill="none"><path d="M13.4359 23.5335C13.9639 19.247 16.0411 15.3016 19.2763 12.4405C22.5114 9.57933 26.6812 8 31 8C35.3188 8 39.4886 9.57933 42.7237 12.4405C45.9589 15.3016 48.0361 19.247 48.5641 23.5335C52.2905 23.7783 55.7754 25.4633 58.2815 28.232C60.7876 31.0007 62.1182 34.6358 61.9917 38.3681C61.8653 42.1004 60.2917 45.637 57.604 48.2297C54.9162 50.8224 51.3252 52.2677 47.5907 52.2598H14.4093C10.6748 52.2677 7.0838 50.8224 4.39606 48.2297C1.70831 45.637 0.134715 42.1004 0.00825492 38.3681C-0.118205 34.6358 1.21239 31.0007 3.71848 28.232C6.22457 25.4633 9.70953 23.7783 13.4359 23.5335Z" fill="url(#paint0_linear_8017_7286)"/><path d="M28.7885 37.8811C28.7885 41.6945 27.2736 45.3518 24.5771 48.0483C21.8806 50.7448 18.2233 52.2597 14.4099 52.2597C10.5964 52.2597 6.93917 50.7448 4.24266 48.0483C1.54614 45.3518 0.03125 41.6945 0.03125 37.8811C0.03125 34.0676 1.54614 30.4104 4.24266 27.7138C6.93917 25.0173 10.5964 23.5024 14.4099 23.5024C18.2233 23.5024 21.8806 25.0173 24.5771 27.7138C27.2736 30.4104 28.7885 34.0676 28.7885 37.8811Z" fill="url(#paint1_linear_8017_7286)" fill-opacity="0.3"/><path d="M31.0016 43.4114C34.4085 43.411 37.7429 42.4271 40.6044 40.578C43.4658 38.7289 45.7327 36.0931 47.1328 32.9871C48.5329 29.8812 49.0066 26.4371 48.4972 23.0684C47.9878 19.6998 46.5168 16.5498 44.2609 13.9968C42.005 11.4437 39.0601 9.59606 35.7798 8.67573C32.4996 7.75541 29.0234 7.80152 25.7686 8.80852C22.5139 9.81553 19.6191 11.7406 17.4317 14.3526C15.2443 16.9646 13.8574 20.1525 13.4375 23.5335C13.7619 23.5128 14.0864 23.5025 14.4108 23.5025C16.752 23.502 19.0579 24.0731 21.1281 25.1663C23.1984 26.2595 24.9704 27.8417 26.2902 29.7754C27.61 31.7091 28.4377 33.9358 28.7013 36.2621C28.9649 38.5884 28.6565 40.9438 27.8029 43.1238C28.844 43.3155 29.9103 43.4114 31.0016 43.4114Z" fill="url(#paint2_linear_8017_7286)" fill-opacity="0.3"/><path d="M31.0016 43.4114C34.4085 43.411 37.7429 42.4271 40.6044 40.578C43.4658 38.7289 45.7327 36.0931 47.1328 32.9871C48.5329 29.8812 49.0066 26.4371 48.4972 23.0684C47.9878 19.6998 46.5168 16.5498 44.2609 13.9968C42.005 11.4437 39.0601 9.59606 35.7798 8.67573C32.4996 7.75541 29.0234 7.80152 25.7686 8.80852C22.5139 9.81553 19.6191 11.7406 17.4317 14.3526C15.2443 16.9646 13.8574 20.1525 13.4375 23.5335C13.7619 23.5128 14.0864 23.5025 14.4108 23.5025C16.752 23.502 19.0579 24.0731 21.1281 25.1663C23.1984 26.2595 24.9704 27.8417 26.2902 29.7754C27.61 31.7091 28.4377 33.9358 28.7013 36.2621C28.9649 38.5884 28.6565 40.9438 27.8029 43.1238C28.844 43.3155 29.9103 43.4114 31.0016 43.4114Z" fill="url(#paint3_radial_8017_7286)"/><path d="M13.4359 23.5335C13.9639 19.247 16.0411 15.3016 19.2763 12.4405C22.5114 9.57933 26.6812 8 31 8C35.3188 8 39.4886 9.57933 42.7237 12.4405C45.9589 15.3016 48.0361 19.247 48.5641 23.5335C52.2905 23.7783 55.7754 25.4633 58.2815 28.232C60.7876 31.0007 62.1182 34.6358 61.9917 38.3681C61.8653 42.1004 60.2917 45.637 57.604 48.2297C54.9162 50.8224 51.3252 52.2677 47.5907 52.2598H14.4093C10.6748 52.2677 7.0838 50.8224 4.39606 48.2297C1.70831 45.637 0.134715 42.1004 0.00825492 38.3681C-0.118205 34.6358 1.21239 31.0007 3.71848 28.232C6.22457 25.4633 9.70953 23.7783 13.4359 23.5335Z" fill="url(#paint4_radial_8017_7286)" fill-opacity="0.5"/><defs><linearGradient id="paint0_linear_8017_7286" x1="2.24272" y1="16.3132" x2="30.7699" y2="57.8077" gradientUnits="userSpaceOnUse"><stop stop-color="#0FAFFF"/><stop offset="1" stop-color="#367AF2"/></linearGradient><linearGradient id="paint1_linear_8017_7286" x1="0.0312498" y1="28.4266" x2="19.4181" y2="45.588" gradientUnits="userSpaceOnUse"><stop stop-color="white"/><stop offset="1" stop-color="#FCFCFC" stop-opacity="0"/></linearGradient><linearGradient id="paint2_linear_8017_7286" x1="19.5517" y1="10.0087" x2="24.2325" y2="34.4082" gradientUnits="userSpaceOnUse"><stop stop-color="white"/><stop offset="1" stop-color="#FCFCFC" stop-opacity="0"/></linearGradient><radialGradient id="paint3_radial_8017_7286" cx="0" cy="0" r="1" gradientUnits="userSpaceOnUse" gradientTransform="translate(14.8179 36.9963) rotate(-22.9258) scale(21.5793 19.2903)"><stop offset="0.412" stop-color="#2C87F5"/><stop offset="1" stop-color="#2C87F5" stop-opacity="0"/></radialGradient><radialGradient id="paint4_radial_8017_7286" cx="0" cy="0" r="1" gradientUnits="userSpaceOnUse" gradientTransform="translate(28.419 5.25161) rotate(64.034) scale(54.522 388.785)"><stop offset="0.5" stop-color="#DD3CE2" stop-opacity="0"/><stop offset="1" stop-color="#DD3CE2"/></radialGradient></defs></svg>