<svg xmlns="http://www.w3.org/2000/svg" width="50" height="50" viewBox="0 0 50 50" fill="none"><g clip-path="url(#clip0_8017_6932)"><path d="M46.875 10.1562H42.9688V8.59375H43.75C43.8986 8.59382 44.0441 8.55151 44.1695 8.47179C44.2949 8.39207 44.395 8.27824 44.458 8.14366C44.5209 8.00908 44.5442 7.85933 44.5251 7.71197C44.506 7.56461 44.4452 7.42577 44.35 7.31172L40.4438 2.62422C40.3679 2.5403 40.2754 2.47322 40.172 2.42731C40.0687 2.3814 39.9568 2.35768 39.8438 2.35768C39.7307 2.35768 39.6188 2.3814 39.5155 2.42731C39.4121 2.47322 39.3196 2.5403 39.2437 2.62422L35.3375 7.31172C35.2423 7.42577 35.1815 7.56461 35.1624 7.71197C35.1433 7.85933 35.1666 8.00908 35.2295 8.14366C35.2925 8.27824 35.3926 8.39207 35.518 8.47179C35.6434 8.55151 35.7889 8.59382 35.9375 8.59375H36.7188V10.1562H34.375C34.375 7.66985 33.3873 5.28528 31.6291 3.52712C29.871 1.76897 27.4864 0.78125 25 0.78125C22.5136 0.78125 20.129 1.76897 18.3709 3.52712C16.6127 5.28528 15.625 7.66985 15.625 10.1562H3.125C2.5034 10.1562 1.90726 10.4032 1.46772 10.8427C1.02818 11.2823 0.78125 11.8784 0.78125 12.5V39.0625C0.78125 39.6841 1.02818 40.2802 1.46772 40.7198C1.90726 41.1593 2.5034 41.4062 3.125 41.4062H20.0094L18.968 44.5312H17.1875C16.5659 44.5312 15.9698 44.7782 15.5302 45.2177C15.0907 45.6573 14.8438 46.2534 14.8438 46.875V48.4375C14.8438 48.6447 14.9261 48.8434 15.0726 48.9899C15.2191 49.1364 15.4178 49.2188 15.625 49.2188H34.375C34.5822 49.2188 34.7809 49.1364 34.9274 48.9899C35.0739 48.8434 35.1562 48.6447 35.1562 48.4375V46.875C35.1562 46.2534 34.9093 45.6573 34.4698 45.2177C34.0302 44.7782 33.4341 44.5312 32.8125 44.5312H31.032L29.9906 41.4062H46.875C47.4966 41.4062 48.0927 41.1593 48.5323 40.7198C48.9718 40.2802 49.2188 39.6841 49.2188 39.0625V12.5C49.2188 11.8784 48.9718 11.2823 48.5323 10.8427C48.0927 10.4032 47.4966 10.1562 46.875 10.1562ZM39.8438 4.34531L42.0875 7.0375C41.8992 7.06181 41.7261 7.15389 41.6007 7.29653C41.4753 7.43917 41.4062 7.62259 41.4062 7.8125V14.8438H38.2812V7.8125C38.2813 7.62259 38.2122 7.43917 38.0868 7.29653C37.9614 7.15389 37.7883 7.06181 37.6 7.0375L39.8438 4.34531ZM25 2.34375C26.5452 2.34375 28.0556 2.80194 29.3404 3.66039C30.6252 4.51884 31.6265 5.73899 32.2178 7.16654C32.8091 8.59408 32.9638 10.1649 32.6624 11.6804C32.3609 13.1959 31.6169 14.5879 30.5243 15.6805C29.4317 16.7731 28.0396 17.5172 26.5241 17.8186C25.0087 18.1201 23.4378 17.9654 22.0103 17.3741C20.5827 16.7827 19.3626 15.7814 18.5041 14.4966C17.6457 13.2119 17.1875 11.7014 17.1875 10.1562C17.1898 8.08494 18.0136 6.09913 19.4782 4.63449C20.9429 3.16986 22.9287 2.34602 25 2.34375ZM3.125 11.7188H15.7664C16.1326 13.9029 17.2613 15.8866 18.9518 17.3172C20.6424 18.7479 22.7853 19.533 25 19.533C27.2147 19.533 29.3576 18.7479 31.0482 17.3172C32.7387 15.8866 33.8674 13.9029 34.2336 11.7188H36.7188V15.625C36.7188 15.8322 36.8011 16.0309 36.9476 16.1774C37.0941 16.3239 37.2928 16.4062 37.5 16.4062H42.1875C42.3947 16.4062 42.5934 16.3239 42.7399 16.1774C42.8864 16.0309 42.9688 15.8322 42.9688 15.625V11.7188H46.875C47.0822 11.7188 47.2809 11.8011 47.4274 11.9476C47.5739 12.0941 47.6562 12.2928 47.6562 12.5V33.5938H2.34375V12.5C2.34375 12.2928 2.42606 12.0941 2.57257 11.9476C2.71909 11.8011 2.9178 11.7188 3.125 11.7188ZM33.5938 46.875V47.6562H16.4062V46.875C16.4062 46.6678 16.4886 46.4691 16.6351 46.3226C16.7816 46.1761 16.9803 46.0938 17.1875 46.0938H32.8125C33.0197 46.0938 33.2184 46.1761 33.3649 46.3226C33.5114 46.4691 33.5938 46.6678 33.5938 46.875ZM29.3844 44.5312H20.6156L21.657 41.4062H28.343L29.3844 44.5312ZM46.875 39.8438H3.125C2.9178 39.8438 2.71909 39.7614 2.57257 39.6149C2.42606 39.4684 2.34375 39.2697 2.34375 39.0625V35.1562H47.6562V39.0625C47.6562 39.2697 47.5739 39.4684 47.4274 39.6149C47.2809 39.7614 47.0822 39.8438 46.875 39.8438Z" fill="#FF8343"/><path d="M22.6562 12.5H21.0938C21.0938 13.3288 21.423 14.1237 22.009 14.7097C22.5951 15.2958 23.3899 15.625 24.2188 15.625V16.4062H25.7812V15.625C26.6101 15.625 27.4049 15.2958 27.991 14.7097C28.577 14.1237 28.9062 13.3288 28.9062 12.5C28.9062 11.6712 28.577 10.8763 27.991 10.2903C27.4049 9.70424 26.6101 9.375 25.7812 9.375V6.25C26.1957 6.25 26.5931 6.41462 26.8861 6.70765C27.1791 7.00067 27.3438 7.3981 27.3438 7.8125V8.59375H28.9062V7.8125C28.9062 6.9837 28.577 6.18884 27.991 5.60279C27.4049 5.01674 26.6101 4.6875 25.7812 4.6875V3.90625H24.2188V4.6875C23.3899 4.6875 22.5951 5.01674 22.009 5.60279C21.423 6.18884 21.0938 6.9837 21.0938 7.8125C21.0938 8.6413 21.423 9.43616 22.009 10.0222C22.5951 10.6083 23.3899 10.9375 24.2188 10.9375V14.0625C23.8043 14.0625 23.4069 13.8979 23.1139 13.6049C22.8209 13.3118 22.6562 12.9144 22.6562 12.5ZM22.6562 7.8125C22.6562 7.3981 22.8209 7.00067 23.1139 6.70765C23.4069 6.41462 23.8043 6.25 24.2188 6.25V9.375C23.8043 9.375 23.4069 9.21038 23.1139 8.91735C22.8209 8.62433 22.6562 8.2269 22.6562 7.8125ZM25.7812 10.9375C26.1957 10.9375 26.5931 11.1021 26.8861 11.3951C27.1791 11.6882 27.3438 12.0856 27.3438 12.5C27.3438 12.9144 27.1791 13.3118 26.8861 13.6049C26.5931 13.8979 26.1957 14.0625 25.7812 14.0625V10.9375ZM6.25 32.0312H20.3125C20.5197 32.0312 20.7184 31.9489 20.8649 31.8024C21.0114 31.6559 21.0938 31.4572 21.0938 31.25V28.125C21.0938 27.9178 21.0114 27.7191 20.8649 27.5726C20.7184 27.4261 20.5197 27.3438 20.3125 27.3438H16.4062V21.0938H17.1875C17.3361 21.0938 17.4816 21.0515 17.607 20.9718C17.7324 20.8921 17.8325 20.7782 17.8954 20.6437C17.9584 20.5091 17.9817 20.3593 17.9626 20.212C17.9435 20.0646 17.8827 19.9258 17.7875 19.8117L13.8812 15.1242C13.8054 15.0403 13.7129 14.9732 13.6095 14.9273C13.5062 14.8814 13.3943 14.8577 13.2812 14.8577C13.1682 14.8577 13.0563 14.8814 12.953 14.9273C12.8496 14.9732 12.7571 15.0403 12.6813 15.1242L8.775 19.8117C8.67975 19.9258 8.61901 20.0646 8.59989 20.212C8.58077 20.3593 8.60406 20.5091 8.66705 20.6437C8.73003 20.7782 8.83009 20.8921 8.95549 20.9718C9.08088 21.0515 9.22641 21.0938 9.375 21.0938H10.1562V27.3438H6.25C6.0428 27.3438 5.84409 27.4261 5.69757 27.5726C5.55106 27.7191 5.46875 27.9178 5.46875 28.125V31.25C5.46875 31.4572 5.55106 31.6559 5.69757 31.8024C5.84409 31.9489 6.0428 32.0312 6.25 32.0312ZM11.0375 19.5375L13.2812 16.8453L15.525 19.5375C15.3367 19.5618 15.1636 19.6539 15.0382 19.7965C14.9128 19.9392 14.8437 20.1226 14.8438 20.3125V27.3438H11.7188V20.3125C11.7188 20.1226 11.6497 19.9392 11.5243 19.7965C11.3989 19.6539 11.2258 19.5618 11.0375 19.5375ZM7.03125 28.9062H19.5312V30.4688H7.03125V28.9062Z" fill="#FF8343"/></g><defs><clipPath id="clip0_8017_6932"><rect width="50" height="50" fill="white"/></clipPath></defs></svg>