<svg xmlns="http://www.w3.org/2000/svg" width="50" height="50" viewBox="0 0 50 50" fill="none"><path d="M4.51563 43.6884L6.31251 45.4853C6.52814 45.7009 6.88751 45.7728 7.17501 45.629L9.69065 44.4071C10.05 44.6228 10.4813 44.7665 10.8406 44.9103L11.7032 47.5696C11.775 47.8572 12.0625 48.0728 12.35 48.0728H14.9375C15.225 48.0728 15.5125 47.8572 15.5844 47.5696L16.1594 45.7728L16.5907 46.9946C16.5907 47.0665 16.6625 47.1384 16.7344 47.2103C17.2375 47.7853 17.9563 48.0728 18.7469 48.0728H45.1251C46.7064 48.0728 47.9283 46.779 47.9283 45.2696V12.8539C47.9283 12.6383 47.7845 12.4227 47.6408 12.2789C37.2188 1.71326 37.722 2.00077 37.2188 2.00077H18.8188C17.2375 2.00077 16.0157 3.29452 16.0157 4.8039V26.3665L15.6563 25.1446C15.5844 24.8571 15.2969 24.6415 15.0094 24.6415H12.4219C12.0625 24.6415 11.8469 24.8571 11.7032 25.1446L10.8406 27.804C10.4094 27.9477 10.05 28.0915 9.61877 28.3071L7.17501 27.0852C6.88751 26.8696 6.52814 26.9415 6.31251 27.1571L4.51563 28.954C4.30001 29.1696 4.22813 29.529 4.37188 29.8165L5.59376 32.3321C5.37813 32.7634 5.23438 33.1227 5.09063 33.554L2.50313 34.3446C2.21563 34.4884 2 34.7759 2 35.0634V37.6509C2 37.9384 2.21563 38.2259 2.50313 38.2977L5.16251 39.1602C5.30626 39.5915 5.45001 39.9509 5.66564 40.3821L4.44376 42.8259C4.22813 43.1134 4.30001 43.4728 4.51563 43.6884ZM37.9376 4.44452L45.5564 12.0633H39.6626C38.7282 12.0633 38.0095 11.3445 38.0095 10.4102V4.44452H37.9376ZM17.4532 4.8039C17.4532 4.01327 18.1 3.43827 18.8188 3.43827H36.5001V10.4102C36.5001 12.0633 37.9376 13.5008 39.5907 13.5008H46.5626V45.1978C46.5626 45.9884 45.9157 46.5634 45.197 46.5634H18.8188C18.4594 46.5634 18.1719 46.4196 17.9563 46.2759L17.3094 44.5509C17.4532 44.479 17.5969 44.479 17.6688 44.4071L20.1126 45.629C20.4001 45.7728 20.7594 45.7009 20.9751 45.4853L22.8438 43.6884C23.0594 43.4728 23.1313 43.1134 22.9876 42.8259L21.7657 40.3102C21.9813 39.9509 22.1251 39.5196 22.2688 39.0884L24.9282 38.2259C25.2157 38.154 25.4313 37.8665 25.4313 37.579V35.0634C25.4313 34.7759 25.2157 34.4884 24.9282 34.4165L22.2688 33.554C22.1251 33.1227 21.9813 32.7634 21.7657 32.404L22.9876 29.9602C23.1313 29.6727 23.0594 29.3852 22.8438 29.0977L20.9751 27.1571C20.7594 26.9415 20.4001 26.8696 20.1126 27.0133L17.6688 28.2352C17.5969 28.2352 17.525 28.1633 17.4532 28.1633V4.8039ZM3.4375 37.0759V35.5665L5.95314 34.704C6.16876 34.6321 6.38439 34.4165 6.38439 34.2009C6.52814 33.6977 6.74376 33.1227 7.03126 32.6196C7.17501 32.404 7.17501 32.1884 7.03126 31.9727L5.88126 29.6008L6.95939 28.5227L9.33127 29.7446C9.5469 29.8883 9.8344 29.8165 10.05 29.7446C10.5531 29.4571 11.0563 29.2415 11.6313 29.0977C11.8469 29.0258 12.0625 28.8821 12.1344 28.6665L12.9969 26.1508H14.5063L15.2969 28.6665C15.3688 28.8821 15.5844 29.0977 15.8 29.0977C16.375 29.2415 16.8782 29.4571 17.3813 29.7446C17.5969 29.8883 17.8125 29.8883 18.0282 29.7446L20.4001 28.5946L21.4782 29.6727L20.3282 32.0446C20.2563 32.2602 20.2563 32.4759 20.3282 32.6915C20.6157 33.1946 20.8313 33.6977 20.9751 34.2727C21.0469 34.4884 21.1907 34.704 21.4063 34.7759L23.9219 35.6384V37.1477L21.4063 37.9384C21.1907 38.0102 20.9751 38.2259 20.9751 38.4415C20.8313 39.0165 20.6157 39.5196 20.3282 40.0228C20.1844 40.2384 20.1844 40.454 20.3282 40.6696L21.4782 43.0415L20.4001 44.1196L18.0282 42.9696C17.8125 42.8978 17.5969 42.8978 17.3813 42.9696C16.8782 43.2571 16.375 43.4728 15.8 43.6165C15.5844 43.6884 15.3688 43.8321 15.2969 44.0478L14.4344 46.5634H12.925L12.0625 44.0478C11.9907 43.8321 11.775 43.6165 11.5594 43.5446C11.0563 43.4009 10.4813 43.1853 9.97815 42.8978C9.76252 42.754 9.5469 42.754 9.33127 42.8978L6.95939 44.0478L5.88126 42.9696L7.03126 40.5978C7.10314 40.3821 7.10314 40.0946 7.03126 39.9509C6.74376 39.4477 6.52814 38.9446 6.38439 38.3696C6.31251 38.154 6.16876 38.0102 5.95314 37.9384L3.4375 37.0759Z" fill="#FF8343"/><path d="M13.6461 40.8134C16.0899 40.8134 18.1024 38.8009 18.1024 36.3571C18.1024 33.9134 16.0899 31.9008 13.6461 31.9008C11.2024 31.9008 9.18986 33.9134 9.18986 36.3571C9.18986 38.8009 11.2024 40.8134 13.6461 40.8134ZM13.6461 33.3384C15.2992 33.3384 16.6649 34.704 16.6649 36.3571C16.6649 38.0102 15.2992 39.3759 13.6461 39.3759C11.993 39.3759 10.6274 38.0102 10.6274 36.3571C10.6274 34.6321 11.993 33.3384 13.6461 33.3384ZM43.115 27.229H25.6493C25.218 27.229 24.9305 27.5165 24.9305 27.9477C24.9305 28.379 25.218 28.6665 25.6493 28.6665H43.115C43.5462 28.6665 43.8337 28.379 43.8337 27.9477C43.8337 27.5165 43.4743 27.229 43.115 27.229ZM33.7712 12.0633H26.5837C26.1524 12.0633 25.8649 12.3508 25.8649 12.782C25.8649 13.2133 26.1524 13.5008 26.5837 13.5008H33.7712C34.2024 13.5008 34.4899 13.2133 34.4899 12.782C34.4899 12.3508 34.1306 12.0633 33.7712 12.0633ZM20.9055 13.5008H23.1336C23.5649 13.5008 23.8524 13.2133 23.8524 12.782C23.8524 12.3508 23.5649 12.0633 23.1336 12.0633H20.9055C20.4743 12.0633 20.1868 12.3508 20.1868 12.782C20.1868 13.2133 20.5461 13.5008 20.9055 13.5008ZM27.7337 33.6977H32.6212C33.0524 33.6977 33.3399 33.4102 33.3399 32.979C33.3399 32.5477 33.0524 32.2602 32.6212 32.2602H27.7337C27.3024 32.2602 27.0149 32.5477 27.0149 32.979C27.0149 33.4102 27.3743 33.6977 27.7337 33.6977ZM43.115 32.2602H37.2212C36.7899 32.2602 36.5024 32.5477 36.5024 32.979C36.5024 33.4102 36.7899 33.6977 37.2212 33.6977H43.115C43.5462 33.6977 43.8337 33.4102 43.8337 32.979C43.8337 32.5477 43.4743 32.2602 43.115 32.2602ZM33.6274 17.8852C33.6274 18.3164 33.9149 18.6039 34.3462 18.6039H43.115C43.5462 18.6039 43.8337 18.3164 43.8337 17.8852C43.8337 17.4539 43.5462 17.1664 43.115 17.1664H34.3462C33.9149 17.1664 33.6274 17.4539 33.6274 17.8852ZM20.9055 18.6039H30.6087C31.0399 18.6039 31.3274 18.3164 31.3274 17.8852C31.3274 17.4539 31.0399 17.1664 30.6087 17.1664H20.9055C20.4743 17.1664 20.1868 17.4539 20.1868 17.8852C20.1868 18.3164 20.5461 18.6039 20.9055 18.6039ZM27.7337 38.8009H37.4368C37.8681 38.8009 38.1556 38.5134 38.1556 38.0821C38.1556 37.6509 37.8681 37.3634 37.4368 37.3634H27.7337C27.3024 37.3634 27.0149 37.6509 27.0149 38.0821C27.0149 38.5134 27.3743 38.8009 27.7337 38.8009ZM43.115 37.3634H40.5993C40.1681 37.3634 39.8806 37.6509 39.8806 38.0821C39.8806 38.5134 40.1681 38.8009 40.5993 38.8009H43.115C43.5462 38.8009 43.8337 38.5134 43.8337 38.0821C43.8337 37.6509 43.4743 37.3634 43.115 37.3634ZM43.115 22.1977H40.9587C40.5274 22.1977 40.2399 22.4852 40.2399 22.9164C40.2399 23.3477 40.5274 23.6352 40.9587 23.6352H43.115C43.5462 23.6352 43.8337 23.3477 43.8337 22.9164C43.8337 22.4852 43.4743 22.1977 43.115 22.1977ZM28.668 22.9164C28.668 23.3477 28.9555 23.6352 29.3868 23.6352H37.2212C37.6524 23.6352 37.9399 23.3477 37.9399 22.9164C37.9399 22.4852 37.6524 22.1977 37.2212 22.1977H29.3868C29.0274 22.1977 28.668 22.4852 28.668 22.9164ZM26.8712 22.9164C26.8712 22.4852 26.5837 22.1977 26.1524 22.1977H20.9774C20.5461 22.1977 20.2586 22.4852 20.2586 22.9164C20.2586 23.3477 20.5461 23.6352 20.9774 23.6352H26.1524C26.5118 23.6352 26.8712 23.2758 26.8712 22.9164ZM28.093 42.3946H25.6493C25.218 42.3946 24.9305 42.6821 24.9305 43.1134C24.9305 43.5446 25.218 43.8321 25.6493 43.8321H28.093C28.5243 43.8321 28.8118 43.5446 28.8118 43.1134C28.8118 42.6821 28.4524 42.3946 28.093 42.3946ZM43.115 42.3946H33.7712C33.3399 42.3946 33.0524 42.6821 33.0524 43.1134C33.0524 43.5446 33.3399 43.8321 33.7712 43.8321H43.115C43.5462 43.8321 43.8337 43.5446 43.8337 43.1134C43.8337 42.6821 43.4743 42.3946 43.115 42.3946ZM20.9055 8.46953H33.6993C34.1306 8.46953 34.4181 8.18203 34.4181 7.75078C34.4181 7.31953 34.1306 7.03203 33.6993 7.03203H20.9055C20.4743 7.03203 20.1868 7.31953 20.1868 7.75078C20.1868 8.18203 20.5461 8.46953 20.9055 8.46953ZM6.7461 2.00076C5.52422 2.00076 4.58984 2.93514 4.58984 4.08514V18.6039C4.58984 18.6758 4.58984 18.8196 4.66172 18.8914L7.68048 24.8571C7.82423 25.0727 8.03985 25.2883 8.32735 25.2883C8.61486 25.2883 8.83048 25.1446 8.97423 24.8571C12.2086 18.3883 12.0649 18.8196 12.0649 18.6039V4.08514C12.0649 2.93514 11.1305 2.00076 9.90861 2.00076H6.7461ZM8.32735 22.9883L6.4586 19.3227H10.1242L8.32735 22.9883ZM10.6274 17.8852H6.02735V7.6789H10.6274V17.8852ZM10.6274 4.08514V6.16952H6.02735V4.08514C6.02735 3.72577 6.31485 3.43827 6.7461 3.43827H9.90861C10.3399 3.43827 10.6274 3.72577 10.6274 4.08514Z" fill="#FF8343"/></svg>