<svg xmlns="http://www.w3.org/2000/svg" width="50" height="50" viewBox="0 0 50 50" fill="none"><g clip-path="url(#clip0_7957_6620)"><path d="M31.2004 40.1522C31.1062 40.3759 30.99 40.5802 30.8544 40.7597C29.8163 42.1374 27.981 42.1043 26.1512 40.9171L19.3552 36.5022M0.730469 46.4917H9.33418C10.1037 46.4917 10.7349 45.8622 10.7349 45.0946V38.7744M10.7349 35.4004V29.0416C10.7349 28.274 10.1037 27.6445 9.33418 27.6445H0.730469" stroke="#FF8343" stroke-width="1.5" stroke-miterlimit="10" stroke-linecap="round" stroke-linejoin="round"/><path d="M10.735 43.8052C14.4333 43.8052 15.0368 44.189 19.621 46.9693C24.3049 49.805 26.4031 49.758 30.7437 47.7397L46.9158 40.2157C51.0599 38.2885 49.3353 33.0756 44.7621 34.8592L31.2005 40.1522C32.0199 38.2083 31.278 34.7957 28.7146 33.1169L26.226 31.4851C22.9097 29.3121 18.378 27.7217 14.2589 29.3094L10.735 30.6679M15.1254 3.45197C14.4239 3.03707 13.6671 2.7238 12.8775 2.5215V1.60763C12.8775 1.1714 12.5204 0.815247 12.0803 0.815247H9.42285C8.98545 0.815247 8.62832 1.1714 8.62832 1.60763V2.5215C7.83881 2.72382 7.08199 3.03709 6.38047 3.45197L5.72998 2.80314C5.41992 2.49669 4.91611 2.49669 4.60605 2.80314L2.72373 4.68058C2.4165 4.98702 2.4165 5.4923 2.72373 5.80157L3.37422 6.4504C2.95893 7.14895 2.64483 7.90288 2.44131 8.68966H1.525C1.0876 8.68966 0.730469 9.04865 0.730469 9.48488V12.1356C0.730469 12.5745 1.0876 12.9308 1.525 12.9308H2.44131C2.64432 13.7186 2.95844 14.4735 3.37422 15.1728L2.72373 15.8189C2.4165 16.1281 2.4165 16.6334 2.72373 16.9426L4.60615 18.8174C4.91621 19.1267 5.42002 19.1267 5.73008 18.8174L6.38057 18.1686C7.08149 18.5846 7.83849 18.898 8.62842 19.099V20.013C8.62842 20.4492 8.98555 20.8082 9.42295 20.8082H12.0805C12.5206 20.8082 12.8777 20.4492 12.8777 20.013V19.099C13.6677 18.898 14.4247 18.5846 15.1256 18.1686L15.7733 18.8174C16.0834 19.1267 16.5899 19.1267 16.9 18.8174L18.7796 16.9426C19.0896 16.6333 19.0896 16.128 18.7796 15.8189L18.1291 15.1728C18.5461 14.4741 18.8602 13.719 19.062 12.9308H19.9783C20.4157 12.9308 20.7756 12.5746 20.7756 12.1356V9.48488C20.7756 9.04865 20.4157 8.68966 19.9783 8.68966H19.062C18.8597 7.90247 18.5455 7.14837 18.1291 6.4504L18.7796 5.80157C19.0896 5.4923 19.0896 4.98702 18.7796 4.68058L16.9 2.80304C16.5899 2.49659 16.0834 2.49659 15.7733 2.80304L15.1254 3.45197Z" stroke="#FF8343" stroke-width="1.5" stroke-miterlimit="10" stroke-linecap="round" stroke-linejoin="round"/><path d="M34.0236 10.8103V18.5578C34.0236 18.9113 33.7302 19.2039 33.3759 19.2039H28.7889C28.4317 19.2039 28.1411 18.914 28.1411 18.5578V10.8103M10.7511 15.5841C8.10742 15.5841 5.96484 13.447 5.96484 10.8102C5.96484 8.17336 8.10742 6.03625 10.7511 6.03625C13.3947 6.03625 15.5373 8.17336 15.5373 10.8102C15.5373 13.447 13.3947 15.5841 10.7511 15.5841Z" stroke="#FF8343" stroke-width="1.5" stroke-miterlimit="10" stroke-linecap="round" stroke-linejoin="round"/><path d="M15.957 28.8317V18.9526M20.7766 10.8102H43.9384C45.1868 10.8102 46.2111 11.8318 46.2111 13.077V21.4321M46.1695 24.9607L46.211 34.5086M37.3527 28.8235H41.7293M37.3527 31.7807H41.7293" stroke="#FF8343" stroke-width="1.5" stroke-miterlimit="10" stroke-linecap="round" stroke-linejoin="round"/></g><defs><clipPath id="clip0_7957_6620"><rect width="50" height="50" fill="white"/></clipPath></defs></svg>