<svg xmlns="http://www.w3.org/2000/svg" width="50" height="50" viewBox="0 0 50 50" fill="none"><path d="M47.6562 17.0234C47.2266 17.0234 46.875 17.375 46.875 17.8047V27.6172C46.875 28.0469 47.2266 28.3984 47.6562 28.3984C48.0859 28.3984 48.4375 28.0469 48.4375 27.6172V17.8047C48.4375 17.375 48.0859 17.0234 47.6562 17.0234ZM26.5625 41.4062C26.5625 40.9766 26.2109 40.625 25.7812 40.625H5.46875C4.17969 40.625 3.125 39.5703 3.125 38.2812V35.9375H25.7812C26.2109 35.9375 26.5625 35.5859 26.5625 35.1562C26.5625 34.7266 26.2109 34.375 25.7812 34.375H3.125V10.1562C3.125 8.86719 4.17969 7.8125 5.46875 7.8125H29.3594C29.7891 7.8125 30.1406 7.46094 30.1406 7.03125C30.1406 6.60156 29.7891 6.25 29.3594 6.25H5.46875C3.3125 6.25 1.5625 8 1.5625 10.1562V38.2812C1.5625 40.4375 3.3125 42.1875 5.46875 42.1875H25.7812C26.2109 42.1875 26.5625 41.8359 26.5625 41.4062ZM26.0547 46.875H18.4531L19.4531 44.8828C19.6484 44.5 19.4922 44.0312 19.1016 43.8359C18.7109 43.6406 18.2422 43.7969 18.0547 44.1875L16.4922 47.3125C16.375 47.5547 16.3828 47.8438 16.5234 48.0703C16.6641 48.2969 16.9141 48.4375 17.1875 48.4375H26.0547C26.4844 48.4375 26.8359 48.0859 26.8359 47.6562C26.8359 47.2266 26.4844 46.875 26.0547 46.875ZM46.0938 29.6875H43.75V28.125C43.75 27.6953 43.3984 27.3438 42.9688 27.3438C42.5391 27.3438 42.1875 27.6953 42.1875 28.125V29.6875H34.375V28.125C34.375 27.6953 34.0234 27.3438 33.5938 27.3438C33.1641 27.3438 32.8125 27.6953 32.8125 28.125V29.6875H30.4688C29.1797 29.6875 28.125 30.7422 28.125 32.0312V46.0938C28.125 47.3828 29.1797 48.4375 30.4688 48.4375H46.0938C47.3828 48.4375 48.4375 47.3828 48.4375 46.0938V32.0312C48.4375 30.7422 47.3828 29.6875 46.0938 29.6875ZM30.4688 31.25H46.0938C46.5234 31.25 46.875 31.6016 46.875 32.0312V34.375H29.6875V32.0312C29.6875 31.6016 30.0391 31.25 30.4688 31.25ZM46.0938 46.875H30.4688C30.0391 46.875 29.6875 46.5234 29.6875 46.0938V35.9375H46.875V46.0938C46.875 46.5234 46.5234 46.875 46.0938 46.875Z" fill="#FF8343"/><path d="M10.9375 23.4375H7.03125C6.60156 23.4375 6.25 23.7891 6.25 24.2188V30.4688C6.25 30.8984 6.60156 31.25 7.03125 31.25H10.9375C11.3672 31.25 11.7188 30.8984 11.7188 30.4688V24.2188C11.7188 23.7891 11.3672 23.4375 10.9375 23.4375ZM10.1562 29.6875H7.8125V25H10.1562V29.6875ZM14.0625 31.25H17.9688C18.3984 31.25 18.75 30.8984 18.75 30.4688V19.5312C18.75 19.1016 18.3984 18.75 17.9688 18.75H14.0625C13.6328 18.75 13.2812 19.1016 13.2812 19.5312V30.4688C13.2812 30.8984 13.6328 31.25 14.0625 31.25ZM14.8438 20.3125H17.1875V29.6875H14.8438V20.3125ZM21.0938 21.0938C20.6641 21.0938 20.3125 21.4453 20.3125 21.875V30.4688C20.3125 30.8984 20.6641 31.25 21.0938 31.25H25C25.4297 31.25 25.7812 30.8984 25.7812 30.4688V21.875C25.7812 21.4453 25.4297 21.0938 25 21.0938H21.0938ZM24.2188 29.6875H21.875V22.6562H24.2188V29.6875ZM7.03125 11.7188H16.4062C16.8359 11.7188 17.1875 11.3672 17.1875 10.9375C17.1875 10.5078 16.8359 10.1562 16.4062 10.1562H7.03125C6.60156 10.1562 6.25 10.5078 6.25 10.9375C6.25 11.3672 6.60156 11.7188 7.03125 11.7188ZM17.1875 14.0625C17.1875 13.6328 16.8359 13.2812 16.4062 13.2812H7.03125C6.60156 13.2812 6.25 13.6328 6.25 14.0625C6.25 14.4922 6.60156 14.8438 7.03125 14.8438H16.4062C16.8359 14.8438 17.1875 14.4922 17.1875 14.0625ZM10.9375 16.4062H7.03125C6.60156 16.4062 6.25 16.7578 6.25 17.1875C6.25 17.6172 6.60156 17.9688 7.03125 17.9688H10.9375C11.3672 17.9688 11.7188 17.6172 11.7188 17.1875C11.7188 16.7578 11.3672 16.4062 10.9375 16.4062ZM39.8438 18.75C44.5859 18.75 48.4375 14.8984 48.4375 10.1562C48.4375 5.41406 44.5859 1.5625 39.8438 1.5625C35.1016 1.5625 31.25 5.41406 31.25 10.1562C31.25 14.8984 35.1016 18.75 39.8438 18.75ZM39.8438 3.125C43.7188 3.125 46.875 6.28125 46.875 10.1562C46.875 14.0312 43.7188 17.1875 39.8438 17.1875C35.9688 17.1875 32.8125 14.0312 32.8125 10.1562C32.8125 6.28125 35.9688 3.125 39.8438 3.125Z" fill="#FF8343"/><path d="M39.4141 10.8047L41.7578 12.3672C41.8906 12.4531 42.0391 12.5 42.1875 12.5C42.4375 12.5 42.6875 12.375 42.8359 12.1484C43.0781 11.7891 42.9766 11.3047 42.6172 11.0625L40.625 9.73438V6.25C40.625 5.82031 40.2734 5.46875 39.8438 5.46875C39.4141 5.46875 39.0625 5.82031 39.0625 6.25V10.1562C39.0625 10.4141 39.1953 10.6641 39.4141 10.8047ZM35.1562 37.5H32.0312C31.6016 37.5 31.25 37.8516 31.25 38.2812V41.4062C31.25 41.8359 31.6016 42.1875 32.0312 42.1875H35.1562C35.5859 42.1875 35.9375 41.8359 35.9375 41.4062V38.2812C35.9375 37.8516 35.5859 37.5 35.1562 37.5ZM34.375 40.625H32.8125V39.0625H34.375V40.625Z" fill="#FF8343"/></svg>