<svg xmlns="http://www.w3.org/2000/svg" width="62" height="62" viewBox="0 0 62 62" fill="none"><path d="M23.354 48.0312H38.638L42.1889 55.0955H19.8125L23.354 48.0312Z" fill="#5D5B68"/><path d="M15.4062 55.0955H46.5847V58.853H15.4062V55.0955Z" fill="#848792"/><path d="M56.8522 3.14697H5.148C3.34436 3.14697 1.87891 4.61243 1.87891 6.41606V40.4503H60.1213V6.41606C60.1213 4.61243 58.6559 3.14697 56.8522 3.14697Z" fill="#E6E9EE"/><path d="M57.2562 3.18457C57.275 3.32548 57.3032 3.45699 57.3032 3.5979C57.3032 22.3952 42.0662 37.6321 23.2689 37.6321H1.87891V40.4503H60.1213V6.41609C60.1213 4.75336 58.8719 3.39124 57.2562 3.18457Z" fill="#C8CED6"/><path d="M1.87891 40.4502V44.7714C1.87891 46.575 3.34436 48.0405 5.148 48.0405H56.8522C58.6559 48.0405 60.1213 46.575 60.1213 44.7714V40.4502H1.87891Z" fill="#848792"/><path d="M43.3189 14.1379H47.8374V35.7534H43.3189V14.1379ZM32.7216 35.7506H28.2031V23.5385H32.7216V35.7506Z" fill="#2C92BF"/><path d="M50.8711 23.5413H55.3896V35.7534H50.8711V23.5413Z" fill="#4EC4A5"/><path d="M55.3866 35.7505H53.5078V23.5383H55.3866V35.7505Z" fill="#30AA87"/><path d="M40.2763 35.7551H35.7578V29.1887H40.2763V35.7551Z" fill="#4EC4A5"/><path d="M16.3478 7.85339C16.2727 7.85339 16.2069 7.84399 16.1318 7.84399C10.8618 7.84399 6.57812 12.1276 6.57812 17.407C6.57812 20.1031 7.696 22.5267 9.49025 24.2646L16.3478 17.407V7.85339Z" fill="#E1533B"/><path d="M9.48828 24.2644C11.2074 25.9366 13.5465 26.9605 16.1392 26.9605C21.4186 26.9605 25.7022 22.6769 25.7022 17.3975H16.3459L9.48828 24.2644Z" fill="#F8CE01"/><path d="M16.3477 7.85327V17.4069H25.6946C25.6946 12.1933 21.5331 7.966 16.3477 7.85327Z" fill="#5F6FE7"/><path d="M40.2733 35.7551H38.3945V29.1887H40.2733V35.7551Z" fill="#30AA87"/><path d="M47.8286 35.7524H45.9498V14.137H47.8286V35.7524ZM32.7147 35.7505H30.8359V23.5384H32.7147V35.7505Z" fill="#1F81A3"/><path d="M42.1893 55.7999H19.8129C19.5687 55.7999 19.3432 55.6778 19.2117 55.4617C19.0802 55.2456 19.0708 54.992 19.1835 54.7759L22.7344 47.7211C22.7943 47.6057 22.8846 47.5088 22.9955 47.4409C23.1064 47.373 23.2338 47.3367 23.3638 47.3359H38.6478C38.9108 47.3359 39.155 47.4862 39.2771 47.7211L42.8281 54.7759C42.9408 54.992 42.9314 55.255 42.7999 55.4617C42.6684 55.6684 42.4335 55.7999 42.1893 55.7999ZM20.9496 54.3908H41.0432L38.2062 48.745H23.7959L20.9496 54.3908Z" fill="black"/><path d="M46.5955 59.5575H15.4076C15.0224 59.5575 14.7031 59.2381 14.7031 58.853V55.0954C14.7031 54.7103 15.0224 54.3909 15.4076 54.3909H46.5955C46.9806 54.3909 47.3 54.7103 47.3 55.0954V58.853C47.3 59.2381 46.9806 59.5575 46.5955 59.5575ZM16.1121 58.1484H45.8815V55.8H16.1121V58.1484ZM60.1227 41.1548H1.88033C1.49518 41.1548 1.17578 40.8354 1.17578 40.4503V6.41602C1.17578 4.22723 2.96063 2.44238 5.14942 2.44238H56.8537C59.0424 2.44238 60.8273 4.22723 60.8273 6.41602V40.4503C60.8273 40.8354 60.5079 41.1548 60.1227 41.1548ZM2.58487 39.7457H59.4182V6.41602C59.4182 5.00693 58.2721 3.85147 56.8537 3.85147H5.14942C3.74033 3.85147 2.58487 4.99753 2.58487 6.41602V39.7457Z" fill="black"/><path d="M56.8537 48.7357H5.14942C2.96063 48.7357 1.17578 46.9509 1.17578 44.7621V40.4409C1.17578 40.0557 1.49518 39.7363 1.88033 39.7363H60.1227C60.5079 39.7363 60.8273 40.0557 60.8273 40.4409V44.7621C60.8273 46.9603 59.0424 48.7357 56.8537 48.7357ZM2.58487 41.1548V44.7715C2.58487 46.1806 3.73093 47.336 5.14942 47.336H56.8537C58.2628 47.336 59.4182 46.19 59.4182 44.7715V41.1548H2.58487Z" fill="black"/><path d="M31.0019 45.1847C31.5207 45.1847 31.9413 44.7641 31.9413 44.2453C31.9413 43.7265 31.5207 43.3059 31.0019 43.3059C30.4831 43.3059 30.0625 43.7265 30.0625 44.2453C30.0625 44.7641 30.4831 45.1847 31.0019 45.1847Z" fill="black"/><path d="M47.8245 36.4579H43.306C42.9208 36.4579 42.6014 36.1385 42.6014 35.7533V14.1379C42.6014 13.7527 42.9208 13.4333 43.306 13.4333H47.8245C48.2096 13.4333 48.529 13.7527 48.529 14.1379V35.7533C48.529 36.1385 48.219 36.4579 47.8245 36.4579ZM44.0199 35.0488H47.1293V14.8424H44.0199V35.0488ZM32.719 36.4579H28.2005C27.8154 36.4579 27.496 36.1385 27.496 35.7533V23.5412C27.496 23.1561 27.8154 22.8367 28.2005 22.8367H32.719C33.1042 22.8367 33.4236 23.1561 33.4236 23.5412V35.7533C33.4236 36.1385 33.1042 36.4579 32.719 36.4579ZM28.9051 35.0488H32.0145V24.2458H28.9051V35.0488ZM55.3866 36.4579H50.8681C50.483 36.4579 50.1636 36.1385 50.1636 35.7533V23.5412C50.1636 23.1561 50.483 22.8367 50.8681 22.8367H55.3866C55.7718 22.8367 56.0911 23.1561 56.0911 23.5412V35.7533C56.0911 36.1385 55.7718 36.4579 55.3866 36.4579ZM51.5727 35.0488H54.6821V24.2458H51.5727V35.0488ZM40.2718 36.4579H35.7533C35.3681 36.4579 35.0487 36.1385 35.0487 35.7533V29.187C35.0487 28.8018 35.3681 28.4824 35.7533 28.4824H40.2718C40.6569 28.4824 40.9763 28.8018 40.9763 29.187V35.7533C40.9763 36.1385 40.6569 36.4579 40.2718 36.4579ZM36.4578 35.0488H39.5672V29.8915H36.4578V35.0488ZM22.6299 33.17H6.57569C6.19054 33.17 5.87115 32.8506 5.87115 32.4655C5.87115 32.0803 6.19054 31.7609 6.57569 31.7609H22.6299C23.0151 31.7609 23.3345 32.0803 23.3345 32.4655C23.3345 32.8506 23.0151 33.17 22.6299 33.17ZM16.3454 36.4579H6.57569C6.19054 36.4579 5.87115 36.1385 5.87115 35.7533C5.87115 35.3682 6.19054 35.0488 6.57569 35.0488H16.3454C16.5322 35.0488 16.7114 35.123 16.8436 35.2552C16.9757 35.3873 17.0499 35.5665 17.0499 35.7533C17.0499 35.9402 16.9757 36.1194 16.8436 36.2515C16.7114 36.3837 16.5322 36.4579 16.3454 36.4579ZM9.48781 24.9691C9.30933 24.9691 9.13084 24.9033 8.99933 24.7718C8.00644 23.82 7.21721 22.6764 6.67949 21.4104C6.14177 20.1444 5.86676 18.7824 5.87115 17.407C5.87115 11.7424 10.4742 7.1394 16.1387 7.1394C16.1951 7.1394 16.2421 7.1394 16.2984 7.1488C16.6836 7.15819 17.0593 7.46819 17.0593 7.85334V17.407C17.0593 17.5949 16.9842 17.7733 16.8527 17.9049L9.99509 24.7624C9.84478 24.9033 9.6663 24.9691 9.48781 24.9691ZM15.6408 8.56728C10.9533 8.8491 7.28024 12.7006 7.28024 17.407C7.28024 19.5864 8.05993 21.6436 9.49721 23.2594L15.6408 17.1158V8.56728Z" fill="black"/><path d="M16.1406 27.6651C13.4633 27.6651 10.927 26.6412 9.00122 24.7718C8.8697 24.6403 8.78516 24.4618 8.78516 24.2739C8.78516 24.086 8.86031 23.9075 8.99182 23.7666L15.8494 16.9091C15.9814 16.7769 16.1605 16.7026 16.3473 16.7024H25.6942C26.0794 16.7024 26.3988 17.0218 26.3988 17.4069C26.3988 23.0621 21.7958 27.6651 16.1406 27.6651ZM10.5136 24.2363C12.0965 25.545 14.0868 26.2594 16.1406 26.256C20.7906 26.256 24.6045 22.6581 24.9709 18.1021H16.6479L10.5136 24.2363Z" fill="black"/><path d="M25.6921 18.1115H16.3452C15.96 18.1115 15.6406 17.7921 15.6406 17.4069V7.85328C15.6406 7.6654 15.7158 7.47752 15.8567 7.34601C15.9882 7.21449 16.1855 7.13934 16.364 7.14874C21.897 7.27086 26.3967 11.8739 26.3967 17.4069C26.3967 17.7921 26.0867 18.1115 25.6921 18.1115ZM17.0497 16.7024H24.9594C24.6212 12.4939 21.2582 9.04631 17.0497 8.6048V16.7024Z" fill="black"/></svg>