<svg xmlns="http://www.w3.org/2000/svg" width="50" height="50" viewBox="0 0 50 50" fill="none"><g clip-path="url(#clip0_7957_6641)"><path d="M4.35062 19.3437C4.30104 19.2786 4.26476 19.2045 4.24386 19.1254C4.22297 19.0464 4.21787 18.964 4.22885 18.8829C4.23983 18.8019 4.26669 18.7238 4.30787 18.6532C4.34906 18.5825 4.40377 18.5207 4.46888 18.4712L20.9015 5.96295C21.007 5.88255 21.1355 5.83798 21.2682 5.83574C21.4009 5.8335 21.5308 5.87371 21.639 5.9505L30.5301 12.2679L41.3579 1.44013H37.6878C37.3444 1.44013 37.0654 1.16108 37.0654 0.817719C37.0654 0.474358 37.3444 0.195312 37.6878 0.195312H42.86C43.2033 0.195312 43.4824 0.474358 43.4824 0.817719V5.98992C43.4824 6.33328 43.2033 6.61232 42.86 6.61232C42.5166 6.61232 42.2376 6.33328 42.2376 5.98992V2.31979L31.0384 13.52C30.9343 13.6239 30.7968 13.6876 30.6503 13.7C30.5037 13.7123 30.3575 13.6724 30.2376 13.5874L21.2915 7.23058L5.22303 19.4619C5.11506 19.5449 4.98264 19.5898 4.84647 19.5895C4.65871 19.5885 4.47303 19.5044 4.35062 19.3437ZM44.751 40.2119C44.751 42.5625 42.8382 44.4754 40.4876 44.4754C38.1369 44.4754 36.2241 42.5625 36.2241 40.2119C36.2241 37.8613 38.1369 35.9484 40.4876 35.9484C42.8382 35.9495 44.751 37.8613 44.751 40.2119ZM43.5062 40.2119C43.5062 38.548 42.1525 37.1932 40.4876 37.1932C38.8237 37.1932 37.4689 38.547 37.4689 40.2119C37.4689 41.8769 38.8226 43.2306 40.4876 43.2306C42.1515 43.2306 43.5062 41.8769 43.5062 40.2119ZM50 39.1901V41.2347C50 41.9132 49.4481 42.465 48.7697 42.465H47.306C47.1948 42.8002 47.0593 43.1268 46.9004 43.4422L47.9357 44.4775C48.1681 44.7098 48.2956 45.0179 48.2956 45.3468C48.2956 45.6756 48.1681 45.9847 47.9357 46.2161L46.4907 47.6611C46.0114 48.1403 45.2313 48.1403 44.7521 47.6611L43.7168 46.6258C43.4014 46.7847 43.0748 46.9203 42.7396 47.0314V48.4951C42.7396 49.1735 42.1878 49.7254 41.5104 49.7254H39.4658C38.7873 49.7254 38.2365 49.1735 38.2365 48.4951V47.0314C37.9004 46.9204 37.5726 46.7845 37.2593 46.6258L36.2241 47.6611C35.9917 47.8934 35.6836 48.021 35.3548 48.021C35.0259 48.021 34.7168 47.8934 34.4855 47.6611L33.0176 46.1932C31.0985 48.3571 28.2988 49.7244 25.1846 49.7244C21.9782 49.7244 19.1037 48.2742 17.1815 45.9961L15.5166 47.6611C15.0373 48.1403 14.2573 48.1403 13.777 47.6611L12.7417 46.6258C12.4263 46.7847 12.0997 46.9203 11.7645 47.0314V48.4951C11.7645 49.1735 11.2127 49.7254 10.5353 49.7254H8.49066C7.81224 49.7254 7.26141 49.1735 7.26141 48.4951V47.0314C6.92635 46.9204 6.59751 46.7845 6.28423 46.6258L5.24896 47.6611C4.76971 48.1403 3.98963 48.1403 3.50934 47.6611L2.06432 46.2161C1.58506 45.7368 1.58506 44.9567 2.06432 44.4775L3.09959 43.4422C2.94083 43.1268 2.80527 42.8002 2.69398 42.465H1.23029C0.551867 42.465 0 41.9132 0 41.2347V39.1901C0 38.5117 0.551867 37.9598 1.23029 37.9598H2.69398C2.80498 37.6248 2.94087 37.297 3.09959 36.9827L2.06432 35.9474C1.83195 35.7161 1.70436 35.4069 1.70436 35.0781C1.70436 34.7493 1.83195 34.4401 2.06432 34.2088L3.50934 32.7638C3.98859 32.2845 4.76867 32.2845 5.24792 32.7638L6.2832 33.799C6.5986 33.6402 6.9252 33.5047 7.26037 33.3934V25.5854C7.26037 25.242 7.53942 24.9629 7.88278 24.9629H13.8039C14.1473 24.9629 14.4263 25.242 14.4263 25.5854V32.4235C14.6218 32.3869 14.8232 32.3986 15.0131 32.4578C15.203 32.5169 15.3755 32.6216 15.5156 32.7627L16.3672 33.6144C16.7002 33.0968 17.0768 32.6103 17.4927 32.159V15.8592C17.4927 15.5159 17.7718 15.2368 18.1151 15.2368H24.0363C24.3797 15.2368 24.6587 15.5159 24.6587 15.8592V28.8001C25.8029 28.7416 26.949 28.872 28.0508 29.186V20.7202C28.0508 20.3768 28.3299 20.0978 28.6732 20.0978H34.5944C34.9378 20.0978 35.2168 20.3768 35.2168 20.7202V32.4111C35.2614 32.4059 35.306 32.4028 35.3517 32.4028C35.6805 32.4028 35.9896 32.5304 36.221 32.7627L37.2562 33.798C37.5716 33.6392 37.8982 33.5036 38.2334 33.3924V31.9287C38.2334 31.5833 38.3776 31.271 38.6079 31.047V11.2907C38.6079 10.9474 38.8869 10.6683 39.2303 10.6683H45.1515C45.4948 10.6683 45.7739 10.9474 45.7739 11.2907V32.4152C46.0443 32.4486 46.2958 32.5713 46.4886 32.7638L47.9336 34.2088C48.166 34.4401 48.2936 34.7493 48.2936 35.0781C48.2936 35.4069 48.166 35.7161 47.9336 35.9474L46.8983 36.9827C47.0571 37.299 47.194 37.6269 47.3039 37.9598H48.7676C49.4481 37.9609 50 38.5117 50 39.1901ZM39.8548 11.9132V30.7005H41.5093C42.1878 30.7005 42.7386 31.2524 42.7386 31.9298V33.3934C43.0726 33.5044 43.4015 33.6403 43.7158 33.799L44.5311 32.9847V11.9132H39.8548ZM29.2967 29.6289C31.1515 30.4246 32.7324 31.741 33.8537 33.3934L33.9741 33.2731V21.3426H29.2977V29.6289H29.2967ZM18.7386 16.4816V31.0117C20.0757 29.964 21.6722 29.2347 23.4149 28.937V16.4816H18.7386ZM8.50519 26.2078V30.6995H10.5342C11.2127 30.6995 11.7635 31.2513 11.7635 31.9287V33.3924C12.0975 33.5034 12.4263 33.6393 12.7407 33.798L13.1815 33.3571V26.2067H8.50519V26.2078ZM16.4284 44.9889C15.3454 43.3405 14.7147 41.3706 14.7147 39.2565C14.7147 37.6424 15.082 36.1123 15.7376 34.7461L14.6463 33.6549L13.6141 34.687C13.2365 35.0636 12.6639 35.1559 12.1888 34.9142C11.9231 34.7801 11.6478 34.6661 11.3651 34.5729C10.8589 34.4069 10.5187 33.937 10.5187 33.4049V31.9453H8.50519V33.4049C8.50519 33.937 8.16494 34.4069 7.65975 34.5729C7.37863 34.6652 7.10166 34.7804 6.8361 34.9142C6.60494 35.0316 6.34258 35.0728 6.08656 35.032C5.83054 34.9912 5.594 34.8704 5.41079 34.687L4.37863 33.6549L2.95436 35.0791L3.98651 36.1113C4.36307 36.4878 4.45539 37.0605 4.21369 37.5366C4.07988 37.8011 3.96473 38.0791 3.87241 38.3603C3.70643 38.8665 3.23651 39.2067 2.70436 39.2067H1.24481V41.2212H2.70436C3.23651 41.2212 3.70643 41.5615 3.87241 42.0677C3.96473 42.3488 4.07988 42.6258 4.21369 42.8914C4.3311 43.1225 4.37236 43.3849 4.33155 43.6409C4.29074 43.8969 4.16997 44.1335 3.98651 44.3167L2.95436 45.3488L4.37863 46.7731L5.41079 45.741C5.78734 45.3644 6.361 45.2721 6.8361 45.5138C7.10062 45.6476 7.37759 45.7627 7.65975 45.8551C8.16597 46.021 8.50519 46.491 8.50519 47.0231V48.4827H10.5197V47.0231C10.5197 46.491 10.86 46.021 11.3662 45.8551C11.6473 45.7627 11.9243 45.6476 12.1898 45.5138C12.421 45.3964 12.6834 45.3551 12.9394 45.3959C13.1954 45.4367 13.432 45.5575 13.6151 45.741L14.6473 46.7731L16.4284 44.9889ZM34.4087 39.2555C34.4087 34.1694 30.2707 30.0314 25.1846 30.0314C20.0985 30.0314 15.9606 34.1694 15.9606 39.2555C15.9606 44.3416 20.0985 48.4795 25.1846 48.4795C30.2707 48.4795 34.4087 44.3416 34.4087 39.2555ZM48.7552 39.2057H47.2956C46.7635 39.2057 46.2936 38.8654 46.1276 38.3603C46.0353 38.0791 45.9201 37.8022 45.7863 37.5366C45.6689 37.3055 45.6276 37.0431 45.6685 36.7871C45.7093 36.531 45.83 36.2945 46.0135 36.1113L47.0456 35.0791L45.6214 33.6549L44.5892 34.687C44.2116 35.0636 43.639 35.1559 43.1639 34.9142C42.8982 34.7801 42.6229 34.6661 42.3402 34.5729C41.834 34.4069 41.4938 33.937 41.4938 33.4049V31.9453H39.4803V33.4049C39.4803 33.937 39.14 34.4069 38.6349 34.5729C38.3537 34.6652 38.0768 34.7804 37.8112 34.9142C37.58 35.0316 37.3177 35.0728 37.0617 35.032C36.8056 34.9912 36.5691 34.8704 36.3859 34.687L35.3537 33.6549L34.5093 34.4993C35.2407 35.9277 35.6535 37.5439 35.6535 39.2565C35.6535 41.4661 34.9647 43.5179 33.7915 45.2088L35.3537 46.771L36.3859 45.7389C36.7625 45.3623 37.3351 45.27 37.8112 45.5117C38.0757 45.6455 38.3527 45.7607 38.6349 45.853C39.1411 46.019 39.4803 46.4889 39.4803 47.021V48.4806H41.4938V47.021C41.4938 46.4889 41.834 46.019 42.3402 45.853C42.6214 45.7607 42.8983 45.6455 43.1639 45.5117C43.395 45.394 43.6574 45.3526 43.9135 45.3934C44.1696 45.4342 44.4062 45.5552 44.5892 45.7389L45.6214 46.771L47.0456 45.3468L46.0135 44.3146C45.83 44.1314 45.7092 43.8949 45.6684 43.6389C45.6276 43.3828 45.6688 43.1204 45.7863 42.8893C45.9212 42.6237 46.0353 42.3468 46.1276 42.0656C46.2936 41.5594 46.7635 41.2192 47.2956 41.2192H48.7552V39.2057ZM13.7759 40.2119C13.7759 42.5625 11.8631 44.4754 9.51245 44.4754C7.16183 44.4754 5.24896 42.5625 5.24896 40.2119C5.24896 37.8613 7.16183 35.9484 9.51245 35.9484C11.8631 35.9495 13.7759 37.8613 13.7759 40.2119ZM12.5311 40.2119C12.5311 38.548 11.1774 37.1932 9.51245 37.1932C7.84751 37.1932 6.49378 38.547 6.49378 40.2119C6.49378 41.8769 7.84751 43.2306 9.51245 43.2306C11.1774 43.2306 12.5311 41.8769 12.5311 40.2119ZM30.3205 35.2347C31.1681 36.0822 31.1681 37.463 30.3205 38.3105L25.3548 43.2762C24.9305 43.7005 24.3734 43.9121 23.8164 43.9121C23.2593 43.9121 22.7023 43.7005 22.279 43.2762L20.0477 41.0449C19.2002 40.1974 19.2002 38.8177 20.0477 37.9692C20.4575 37.5594 21.0031 37.3343 21.5861 37.3343C22.1691 37.3343 22.7147 37.5594 23.1245 37.9692L23.8185 38.6632L27.2469 35.2347C28.0923 34.3872 29.473 34.3872 30.3205 35.2347ZM29.7106 36.7731C29.7112 36.651 29.6876 36.53 29.6411 36.4172C29.5946 36.3043 29.5262 36.2017 29.4398 36.1154C29.0768 35.7524 28.4865 35.7524 28.1245 36.1154L24.2562 39.9837C24.1395 40.1003 23.9813 40.1657 23.8164 40.1657C23.6515 40.1657 23.4933 40.1003 23.3766 39.9837L22.2427 38.8499C22.0685 38.6756 21.8351 38.5791 21.5851 38.5791C21.3351 38.5791 21.1017 38.6756 20.9274 38.8499C20.5643 39.2129 20.5643 39.8032 20.9274 40.1652L23.1587 42.3966C23.5218 42.7586 24.111 42.7596 24.4741 42.3966L29.4398 37.4308C29.6151 37.2555 29.7106 37.0221 29.7106 36.7731Z" fill="#FF8343"/></g><defs><clipPath id="clip0_7957_6641"><rect width="50" height="50" fill="white"/></clipPath></defs></svg>