<svg xmlns="http://www.w3.org/2000/svg" width="50" height="50" viewBox="0 0 50 50" fill="none"><g clip-path="url(#clip0_8017_6928)"><path d="M42.442 15.2012H33.3129V12.8366C33.3129 12.3316 33.1125 11.8702 32.7333 11.5021L28.7447 7.51338C28.3765 7.13428 27.9151 6.93389 27.4103 6.93389H17.3707C17.1894 6.93389 17.0155 7.00591 16.8873 7.13411C16.7591 7.26231 16.6871 7.43618 16.6871 7.61748V15.2012H7.55801C6.44766 15.2012 5.54424 16.1045 5.54424 17.2149V40.8277C5.54424 41.9382 6.44756 42.8415 7.55801 42.8415H21.4056V45.0096H19.0719C17.4942 45.0096 16.2106 46.2931 16.2106 47.8707V48.9258C16.2106 49.1071 16.2827 49.281 16.4109 49.4092C16.5391 49.5374 16.7129 49.6094 16.8942 49.6094H33.1057C33.287 49.6094 33.4608 49.5374 33.589 49.4092C33.7172 49.281 33.7893 49.1071 33.7893 48.9258V47.8707C33.7893 46.2931 32.5057 45.0096 30.928 45.0096H28.5944V42.8415H42.442C43.5523 42.8415 44.4558 41.9382 44.4558 40.8277V17.2149C44.4558 16.1046 43.5524 15.2012 42.442 15.2012ZM34.6943 25.2072L35.4321 26.9881C35.4752 27.0921 35.5433 27.1839 35.6305 27.2552C35.7176 27.3266 35.821 27.3753 35.9314 27.3971L36.6889 27.5464V28.9005L35.9314 29.0498C35.821 29.0716 35.7176 29.1203 35.6305 29.1917C35.5434 29.263 35.4752 29.3548 35.4321 29.4588L34.6943 31.2396C34.6513 31.3437 34.6345 31.4568 34.6457 31.5688C34.6568 31.6809 34.6954 31.7885 34.7581 31.882L35.1882 32.5233L34.2307 33.4809L33.5894 33.0508C33.4958 32.9881 33.3882 32.9494 33.2762 32.9383C33.1641 32.9272 33.051 32.9439 32.947 32.987L31.1662 33.7248C31.0622 33.7679 30.9704 33.836 30.8991 33.9231C30.8277 34.0102 30.779 34.1136 30.7572 34.224L30.6078 34.9815H29.2537L29.1044 34.224C29.0826 34.1136 29.0339 34.0102 28.9625 33.9231C28.8912 33.836 28.7994 33.7678 28.6954 33.7247L26.9146 32.9869C26.8105 32.9438 26.6974 32.927 26.5854 32.9382C26.4733 32.9493 26.3657 32.9879 26.2722 33.0507L25.6309 33.4808L24.6733 32.5232L25.1034 31.8819C25.1662 31.7884 25.2048 31.6808 25.2159 31.5687C25.2271 31.4567 25.2103 31.3436 25.1672 31.2396L24.4294 29.4587C24.3863 29.3547 24.3182 29.2629 24.2311 29.1915C24.144 29.1202 24.0406 29.0715 23.9301 29.0497L23.1727 28.9004V27.5463L23.9301 27.397C24.0405 27.3752 24.1439 27.3265 24.231 27.2551C24.3181 27.1838 24.3863 27.092 24.4294 26.988L25.1672 25.2071C25.2103 25.1031 25.227 24.99 25.2159 24.8779C25.2047 24.7659 25.1661 24.6583 25.1034 24.5647L24.6733 23.9233L25.6309 22.9658L26.2722 23.3959C26.3657 23.4586 26.4733 23.4973 26.5854 23.5084C26.6974 23.5196 26.8105 23.5028 26.9146 23.4597L28.6954 22.7219C28.7994 22.6788 28.8912 22.6107 28.9626 22.5236C29.0339 22.4364 29.0826 22.333 29.1044 22.2226L29.2537 21.4651H30.6078L30.7572 22.2227C30.779 22.3331 30.8277 22.4365 30.8991 22.5236C30.9704 22.6107 31.0622 22.6788 31.1662 22.7219L32.947 23.4597C33.051 23.5028 33.1641 23.5195 33.2762 23.5084C33.3882 23.4973 33.4958 23.4586 33.5894 23.3959L34.2307 22.9658L35.1882 23.9233L34.7581 24.5646C34.6954 24.6582 34.6567 24.7658 34.6456 24.8778C34.6345 24.9899 34.6512 25.103 34.6943 25.207V25.2072ZM29.3503 10.0526L30.1942 10.8966H29.3503V10.0526ZM18.0543 8.30117H27.4103C27.5009 8.30117 27.6231 8.32012 27.7658 8.46797L27.7741 8.47647L27.7999 8.50225C27.9174 8.62324 27.9831 8.78526 27.9831 8.95391V11.5802C27.9831 11.7615 28.0551 11.9354 28.1833 12.0635C28.3115 12.1917 28.4854 12.2638 28.6667 12.2638H31.293C31.4615 12.2638 31.6217 12.3287 31.7442 12.4466L31.7704 12.4728L31.779 12.4812C31.9267 12.6237 31.9456 12.7461 31.9456 12.8367V21.1835L31.8966 20.9347C31.8012 20.45 31.3734 20.0982 30.8794 20.0982H28.9819C28.4881 20.0982 28.0603 20.45 27.9647 20.9344L27.8337 21.5992L26.7293 22.0567L26.1664 21.6793C25.7563 21.4044 25.2052 21.4582 24.8561 21.8073L23.5145 23.1489C23.1651 23.4981 23.1113 24.0493 23.3864 24.4595L23.7639 25.0224L23.3063 26.1268L22.6416 26.2578C22.5063 26.2847 22.3778 26.3386 22.2637 26.4161H18.0543V8.30117ZM21.8054 27.7832V29.1723C21.8054 29.6663 22.1571 30.094 22.6415 30.1895L23.3063 30.3205L23.7639 31.4249L23.3863 31.9879C23.1114 32.398 23.1652 32.9491 23.5144 33.2982L24.8561 34.6399C25.2052 34.9891 25.7563 35.0428 26.1665 34.7679L26.7293 34.3904L27.8337 34.8479L27.9647 35.5127C28.0603 35.9973 28.488 36.3489 28.9819 36.3489H30.8794C31.3734 36.3489 31.8012 35.9971 31.8965 35.5128L32.0275 34.8479L33.1319 34.3903L33.6948 34.7679C34.1049 35.0427 34.656 34.9891 35.0053 34.6399L36.347 33.2982C36.6962 32.949 36.75 32.3979 36.475 31.9877L36.0976 31.4249L36.5551 30.3205L37.2196 30.1895C37.7043 30.094 38.0561 29.6663 38.0561 29.1723V27.2748C38.0561 26.781 37.7043 26.3531 37.2198 26.2576L36.5551 26.1266L36.0976 25.0222L36.4751 24.4592C36.7501 24.0489 36.6962 23.4979 36.347 23.1488L35.0052 21.807C34.6559 21.4579 34.1047 21.4042 33.6948 21.6792L33.3128 21.9354V19.6469H40.01V37.5214H9.99004V19.6469H16.6871V27.0995C16.6871 27.2808 16.7591 27.4547 16.8873 27.5829C17.0155 27.7111 17.1894 27.7831 17.3707 27.7831H21.8054V27.7832ZM32.4221 47.8708V48.2423H17.5778V47.8708C17.5778 47.047 18.248 46.3769 19.0719 46.3769H30.928C31.7519 46.3769 32.4221 47.0471 32.4221 47.8708ZM27.2272 45.0097H22.7728V42.8416H27.2272V45.0097ZM43.0886 40.8278C43.0884 40.9993 43.0202 41.1636 42.899 41.2848C42.7778 41.4061 42.6134 41.4742 42.442 41.4744H7.55801C7.38658 41.4742 7.22222 41.4061 7.10101 41.2848C6.97979 41.1636 6.91161 40.9993 6.91143 40.8278V17.215C6.91161 17.0436 6.97979 16.8793 7.10101 16.758C7.22222 16.6368 7.38658 16.5686 7.55801 16.5685H16.6871V18.2798H9.30645C9.12514 18.2798 8.95127 18.3518 8.82307 18.48C8.69487 18.6082 8.62285 18.7821 8.62285 18.9634V38.2051C8.62285 38.3864 8.69487 38.5603 8.82307 38.6884C8.95127 38.8167 9.12514 38.8887 9.30645 38.8887H40.6936C40.8749 38.8887 41.0487 38.8167 41.1769 38.6884C41.3051 38.5603 41.3771 38.3864 41.3771 38.2051V18.9634C41.3771 18.7821 41.3051 18.6082 41.1769 18.48C41.0487 18.3518 40.8749 18.2798 40.6936 18.2798H33.3128V16.5685H42.4419C42.6133 16.5686 42.7777 16.6368 42.8989 16.758C43.0201 16.8793 43.0883 17.0436 43.0885 17.215L43.0886 40.8278ZM15.5353 10.9487V3.21699C15.5353 1.65859 14.2674 0.390625 12.7089 0.390625H3.21689C1.6585 0.390625 0.390625 1.6585 0.390625 3.21699V10.9487C0.390625 12.5072 1.6585 13.7751 3.21689 13.7751H12.7089C14.2673 13.7751 15.5353 12.5072 15.5353 10.9487ZM12.7089 12.4079H6.71934L10.6657 8.46152C10.7474 8.37988 10.8568 8.33486 10.9737 8.33486C11.0906 8.33486 11.2001 8.37988 11.2817 8.46152L14.1229 11.3026C13.9641 11.9364 13.3912 12.4079 12.7089 12.4079ZM3.21689 1.75781H12.7089C13.5135 1.75781 14.1681 2.4124 14.1681 3.21699V9.41445L12.2485 7.49492C11.5456 6.79209 10.402 6.79209 9.69902 7.49492L8.78936 8.40459L6.72822 6.34346C6.0252 5.64053 4.88145 5.64062 4.17871 6.34346L1.75791 8.76426V3.21709C1.75791 2.4125 2.4125 1.75791 3.21699 1.75791L3.21689 1.75781ZM1.75781 10.9487V10.6977L5.14531 7.31016C5.22709 7.22859 5.33787 7.18279 5.45337 7.18279C5.56887 7.18279 5.67965 7.22859 5.76143 7.31016L7.82256 9.37129L4.78594 12.4079H3.21699C2.4124 12.4079 1.75781 11.7533 1.75781 10.9487ZM9.87549 4.02842C9.87549 3.38223 10.4025 2.85527 11.0487 2.85527C11.6949 2.85527 12.2219 3.38223 12.2219 4.02842C12.2219 4.67461 11.6949 5.20156 11.0487 5.20156C10.4025 5.20156 9.87549 4.67451 9.87549 4.02842ZM42.6448 0.390625C38.8046 0.390625 35.6803 3.51494 35.6803 7.35518C35.6803 11.1954 38.8046 14.3197 42.6448 14.3197C46.4851 14.3197 49.6094 11.1954 49.6094 7.35518C49.6094 3.51494 46.4851 0.390625 42.6448 0.390625ZM42.6448 12.9526C39.5584 12.9526 37.0475 10.4417 37.0475 7.35527C37.0475 4.26885 39.5584 1.75791 42.6448 1.75791C45.7313 1.75791 48.2422 4.26885 48.2422 7.35527C48.2422 10.4417 45.7313 12.9526 42.6448 12.9526ZM45.6644 6.22813L41.8873 4.04756C41.4799 3.81221 40.9933 3.81211 40.5857 4.04746C40.1782 4.28271 39.9349 4.704 39.9349 5.17461V9.53604C39.9349 10.0063 40.1781 10.4277 40.5856 10.6632C40.7894 10.7809 41.0129 10.8396 41.2364 10.8396C41.46 10.8396 41.6834 10.7809 41.8871 10.6632L45.6643 8.48242C46.0717 8.24717 46.3149 7.82578 46.3149 7.35527C46.3149 6.88477 46.0717 6.46348 45.6643 6.22813H45.6644ZM41.3021 9.42217V5.28828L44.8822 7.35518L41.3021 9.42217ZM19.8134 14.2795C19.8134 14.0982 19.8854 13.9243 20.0136 13.7961C20.1418 13.6679 20.3157 13.5959 20.497 13.5959H29.503C29.6843 13.5959 29.8582 13.6679 29.9864 13.7961C30.1146 13.9243 30.1866 14.0982 30.1866 14.2795C30.1866 14.4608 30.1146 14.6347 29.9864 14.7629C29.8582 14.8911 29.6843 14.9631 29.503 14.9631H20.497C20.3157 14.9631 20.1418 14.8911 20.0136 14.7629C19.8854 14.6347 19.8134 14.4608 19.8134 14.2795ZM19.8134 17.3725C19.8134 17.1912 19.8854 17.0173 20.0136 16.8891C20.1418 16.7609 20.3157 16.6889 20.497 16.6889H29.503C29.6843 16.6889 29.8582 16.7609 29.9864 16.8891C30.1146 17.0173 30.1866 17.1912 30.1866 17.3725C30.1866 17.5538 30.1146 17.7276 29.9864 17.8558C29.8582 17.984 29.6843 18.0561 29.503 18.0561H20.497C20.3157 18.0561 20.1418 17.984 20.0136 17.8558C19.8854 17.7276 19.8134 17.5538 19.8134 17.3725ZM20.497 21.1489C20.3157 21.1489 20.1418 21.0769 20.0136 20.9487C19.8854 20.8205 19.8134 20.6466 19.8134 20.4653C19.8134 20.284 19.8854 20.1102 20.0136 19.982C20.1418 19.8538 20.3157 19.7817 20.497 19.7817H24.2007C24.382 19.7817 24.5559 19.8538 24.6841 19.982C24.8123 20.1102 24.8843 20.284 24.8843 20.4653C24.8843 20.6466 24.8123 20.8205 24.6841 20.9487C24.5559 21.0769 24.382 21.1489 24.2007 21.1489H20.497ZM19.8134 11.1865C19.8134 11.0052 19.8854 10.8313 20.0136 10.7031C20.1418 10.575 20.3157 10.5029 20.497 10.5029H25.2354C25.4167 10.5029 25.5905 10.575 25.7187 10.7031C25.8469 10.8313 25.9189 11.0052 25.9189 11.1865C25.9189 11.3678 25.8469 11.5417 25.7187 11.6699C25.5905 11.7981 25.4167 11.8701 25.2354 11.8701H20.497C20.3157 11.8701 20.1418 11.7981 20.0136 11.6699C19.8854 11.5417 19.8134 11.3678 19.8134 11.1865ZM29.9308 23.7235C27.4495 23.7235 25.4309 25.7422 25.4309 28.2234C25.4309 30.7047 27.4495 32.7234 29.9308 32.7234C32.412 32.7234 34.4308 30.7048 34.4308 28.2234C34.4308 25.7421 32.4121 23.7235 29.9308 23.7235ZM29.9308 31.3563C28.2034 31.3563 26.798 29.9509 26.798 28.2234C26.798 26.496 28.2034 25.0907 29.9308 25.0907C31.6581 25.0907 33.0636 26.4961 33.0636 28.2234C33.0636 29.9508 31.6582 31.3563 29.9308 31.3563Z" fill="#FF8343"/></g><defs><clipPath id="clip0_8017_6928"><rect width="50" height="50" fill="white"/></clipPath></defs></svg>