<svg xmlns="http://www.w3.org/2000/svg" width="50" height="50" viewBox="0 0 50 50" fill="none"><path d="M19.4412 22.7969V23.8271H18.825C18.2635 23.8271 17.8065 24.2842 17.8065 24.8457V29.4053C17.8065 29.9668 18.2635 30.4238 18.825 30.4238H25.7254C26.2869 30.4238 26.744 29.9668 26.744 29.4053V24.8457C26.744 24.2842 26.2869 23.8271 25.7254 23.8271H25.1092V22.7969C25.1092 21.2344 23.8377 19.9629 22.2752 19.9629C20.7127 19.9629 19.4412 21.2344 19.4412 22.7969ZM25.5711 29.252H18.9774V24.999H25.5711V29.252ZM23.9363 22.7969V23.8271H20.6121V22.7969C20.6121 21.8809 21.3572 21.1348 22.2742 21.1348C23.1912 21.1348 23.9363 21.8809 23.9363 22.7969ZM21.1151 26.5947C21.1151 25.9551 21.6356 25.4355 22.2742 25.4355C22.9129 25.4355 23.4334 25.9561 23.4334 26.5947C23.4334 27.0205 23.202 27.3916 22.8602 27.5938V28.1455C22.8602 28.4688 22.5975 28.7314 22.2742 28.7314C21.951 28.7314 21.6883 28.4688 21.6883 28.1455V27.5938C21.3465 27.3916 21.1151 27.0205 21.1151 26.5947ZM48.3455 31.293L44.1795 23.7637V17.0576C44.1795 15.7617 43.1258 14.708 41.8299 14.708H40.5457L23.9783 1.82422C22.9588 1.03125 21.5897 1.03125 20.5701 1.82422L2.29767 16.0342C0.807434 17.1934 0.536927 19.3486 1.69611 20.8398C2.36993 21.707 3.38165 22.1611 4.40314 22.1611C5.07306 22.1611 5.74689 21.9648 6.33283 21.5635V38.6357C4.89435 38.6973 3.74298 39.8867 3.74298 41.3398C3.74298 42.833 4.95782 44.0469 6.45001 44.0469H38.0975C38.7654 44.0469 39.3777 43.8027 39.8504 43.4004C40.0237 43.9563 40.3708 44.4421 40.8406 44.7861C41.3348 45.1465 41.5955 45.6611 41.5955 46.2725V48.1797C41.5955 48.5029 41.8582 48.7656 42.1815 48.7656H48.4393C48.7625 48.7656 49.0252 48.5029 49.0252 48.1797V33.9258C49.0252 32.9678 48.8094 32.1318 48.3455 31.293ZM43.0067 17.0566V36.0059L39.7576 32.7568C38.5848 31.584 36.6756 31.584 35.5018 32.7568C34.9354 33.3232 34.6229 34.0791 34.6229 34.8848C34.6229 35.6904 34.9344 36.4463 35.5018 37.0127C36.0174 37.5283 36.5555 38.0557 37.075 38.5654C37.2733 38.7598 37.4734 38.9561 37.6736 39.1533H30.1736C29.5242 39.1533 28.9959 38.625 28.9959 37.9756V17.0566C28.9959 16.4072 29.5242 15.8789 30.1736 15.8789H41.8279C42.4783 15.8789 43.0067 16.4072 43.0067 17.0566ZM27.825 31.6025C26.6229 32.9395 24.9813 33.9932 22.9363 34.7334L22.2742 34.9736L21.6121 34.7334C15.8572 32.6484 13.4568 28.3115 14.2733 21.4746L14.4031 20.3867L15.4676 19.9951C17.6199 19.2041 19.5359 18.2217 21.1629 17.0742L22.2733 16.291L23.3836 17.0742C24.6883 17.9941 26.1815 18.8076 27.824 19.499V31.6025H27.825ZM27.825 17.0566V18.2236C26.4402 17.6094 25.1756 16.9033 24.0604 16.1172L22.6121 15.0957C22.5132 15.0261 22.3952 14.9888 22.2742 14.9888C22.1533 14.9888 22.0353 15.0261 21.9363 15.0957L20.4881 16.1172C18.9442 17.2051 17.119 18.1406 15.0633 18.8955L13.6619 19.4102C13.5605 19.4475 13.4713 19.5121 13.4043 19.5969C13.3372 19.6817 13.2949 19.7833 13.282 19.8906L13.1092 21.335C12.2303 28.6895 14.9568 33.5684 21.2117 35.835L22.074 36.1475C22.2027 36.1943 22.3438 36.1943 22.4725 36.1475L23.3338 35.835C25.1082 35.1924 26.6111 34.3252 27.8231 33.25V37.9746C27.8231 38.2031 27.8563 38.4229 27.9168 38.6318H7.50568V20.6611L21.2899 9.94141C21.8787 9.4834 22.6697 9.4834 23.2596 9.94141L29.5115 14.8037C28.5379 15.0898 27.825 15.9912 27.825 17.0566ZM2.62189 20.1211C1.85919 19.1406 2.03693 17.7227 3.0174 16.96L21.2899 2.74902C21.8787 2.29102 22.6697 2.29102 23.2596 2.74902L38.6365 14.707H31.2977L23.9793 9.01562C22.9598 8.22266 21.5906 8.22266 20.5711 9.01562L5.78302 20.5166C4.80255 21.2783 3.38361 21.1016 2.62189 20.1211ZM38.0984 42.876H6.45099C5.60431 42.876 4.91583 42.1875 4.91583 41.3408C4.91583 40.4941 5.60431 39.8057 6.45099 39.8057H28.7029C29.1196 40.1429 29.6396 40.3266 30.1756 40.3262H38.8553C38.9832 40.4551 39.1121 40.584 39.2391 40.7129C39.4129 40.8896 39.5438 41.083 39.6326 41.291C39.6336 41.3076 39.6346 41.3242 39.6346 41.3418C39.6336 42.1865 38.9451 42.876 38.0984 42.876ZM47.8533 47.5947H42.7674V46.2734C42.7674 45.2871 42.3279 44.4229 41.5311 43.8408C41.3354 43.6978 41.1762 43.5108 41.0662 43.2948C40.9563 43.0788 40.8987 42.84 40.8983 42.5977C40.8983 42.5303 40.9031 42.4619 40.9109 42.3945C41.034 41.4551 40.7361 40.5664 40.0721 39.8906C39.3582 39.165 38.6141 38.4346 37.8943 37.7285C37.3768 37.2207 36.8406 36.6953 36.3289 36.1836C35.9842 35.8389 35.7938 35.377 35.7938 34.8848C35.7938 34.3926 35.9842 33.9307 36.3289 33.5859C37.0447 32.8701 38.2108 32.8701 38.9276 33.5859L42.4861 37.1445C42.7703 37.4287 43.1942 37.5137 43.5652 37.3594C43.9363 37.2051 44.1766 36.8467 44.1766 36.4443V26.1836L47.3172 31.8604C47.6863 32.5273 47.8504 33.1641 47.8504 33.9258V47.5947H47.8533ZM30.2371 22.4551C31.7752 20.9189 33.8201 20.0723 35.994 20.0723C38.1727 20.0723 40.2195 20.9219 41.7596 22.4629C41.814 22.5174 41.8571 22.5821 41.8864 22.6532C41.9158 22.7244 41.9309 22.8007 41.9308 22.8776C41.9307 22.9546 41.9155 23.0308 41.8859 23.1019C41.8564 23.173 41.8131 23.2376 41.7586 23.292C41.7041 23.3464 41.6394 23.3895 41.5683 23.4189C41.4971 23.4482 41.4208 23.4633 41.3439 23.4632C41.2669 23.4631 41.1906 23.4479 41.1196 23.4183C41.0485 23.3888 40.9839 23.3455 40.9295 23.291C39.6111 21.9707 37.8582 21.2441 35.993 21.2441C34.1317 21.2441 32.3817 21.9688 31.0643 23.2842C31.0098 23.3386 30.9451 23.3817 30.8739 23.4111C30.8028 23.4405 30.7265 23.4555 30.6495 23.4555C30.5725 23.4554 30.4963 23.4401 30.4252 23.4106C30.3541 23.381 30.2895 23.3377 30.2352 23.2832C30.0076 23.0547 30.0086 22.6846 30.2371 22.4551ZM40.0359 24.1885C40.2645 24.418 40.2645 24.7891 40.035 25.0176C39.9207 25.1318 39.7713 25.1885 39.6209 25.1885C39.4705 25.1885 39.3201 25.1309 39.2059 25.0166C38.3484 24.1572 37.2078 23.6836 35.994 23.6836C34.784 23.6836 33.6453 24.1543 32.7889 25.0098C32.5594 25.2383 32.1883 25.2383 31.9598 25.0088C31.7313 24.7793 31.7313 24.4092 31.9608 24.1797C33.0389 23.1045 34.4705 22.5117 35.994 22.5117C37.5213 22.5107 38.9568 23.1064 40.0359 24.1885ZM38.3123 25.9131C38.3666 25.9676 38.4097 26.0324 38.439 26.1036C38.4683 26.1748 38.4833 26.251 38.4831 26.328C38.4829 26.405 38.4676 26.4812 38.4379 26.5523C38.4083 26.6234 38.3649 26.6879 38.3104 26.7422C38.2562 26.7965 38.1918 26.8396 38.1209 26.8689C38.05 26.8982 37.974 26.9132 37.8973 26.9131C37.7469 26.9131 37.5965 26.8555 37.4822 26.7402C37.2877 26.5437 37.0561 26.3878 36.8007 26.2817C36.5454 26.1756 36.2715 26.1213 35.9949 26.1221C35.4363 26.1221 34.91 26.3398 34.5135 26.7344C34.284 26.9629 33.9129 26.9619 33.6844 26.7324C33.4559 26.5029 33.4568 26.1318 33.6863 25.9033C34.3035 25.2881 35.1238 24.9502 35.9949 24.9502C36.8709 24.9492 37.6942 25.291 38.3123 25.9131ZM36.0018 26.9307C35.2186 26.9307 34.5818 27.5674 34.5818 28.3506C34.5818 29.1338 35.2186 29.7705 36.0018 29.7705C36.785 29.7705 37.4217 29.1338 37.4217 28.3506C37.4217 27.5674 36.785 26.9307 36.0018 26.9307ZM36.0018 28.5977C35.8651 28.5977 35.7537 28.4863 35.7537 28.3496C35.7537 28.2129 35.8651 28.1016 36.0018 28.1016C36.1385 28.1016 36.2498 28.2129 36.2498 28.3496C36.2498 28.4863 36.1385 28.5977 36.0018 28.5977Z" fill="#FF8343"/></svg>