<svg xmlns="http://www.w3.org/2000/svg" width="50" height="50" viewBox="0 0 50 50" fill="none"><path fill-rule="evenodd" clip-rule="evenodd" d="M17.1956 37.3119H13.5047V28.173C13.5047 27.848 13.7802 27.5808 14.1107 27.5808H16.6172C16.9202 27.5808 17.1956 27.848 17.1956 28.173V37.3119ZM24.1366 43.9775V38.7992H10.0618C9.67619 38.7992 9.31813 38.4714 9.31813 38.0556C9.31813 37.6508 9.67619 37.3119 10.0618 37.3119H12.0173V28.173C12.0173 27.0355 12.9538 26.0963 14.1107 26.0963H16.6172C17.7464 26.0963 18.683 27.0356 18.683 28.173V37.3119H21.5751V23.7688C21.5751 22.6285 22.484 21.6892 23.6409 21.6892H24.1367V19.0644H23.3655C22.2638 19.0644 21.3823 18.172 21.3823 17.095V14.4398C21.3823 13.608 21.9056 12.9056 22.6217 12.6081V9.71883C22.6217 9.34144 22.8971 9.02476 23.2827 8.97518C23.5665 8.94643 23.8523 8.94368 24.1366 8.96697V6.02518C24.1366 4.92617 23.2552 4.02277 22.1534 4.02277H18.2697L17.8015 5.43847C17.4435 6.52916 16.4795 7.23156 15.3226 7.23156H11.2737C10.1444 7.23156 9.1803 6.52916 8.82236 5.43847L8.35413 4.02277H4.49804C3.36879 4.02277 2.48731 4.92617 2.48731 6.02518V43.9775C2.48731 45.0875 3.36867 45.9771 4.49804 45.9771H22.1535C23.2552 45.9772 24.1366 45.0875 24.1366 43.9775ZM16.6998 4.02277L16.3968 4.97575C16.2591 5.44949 15.846 5.74695 15.3227 5.74695H11.2738C10.778 5.74695 10.3649 5.44949 10.2272 4.97575L9.92418 4.02277H16.6998ZM26.2575 13.955H27.5244C27.9927 13.955 28.3507 14.3214 28.3507 14.7868V16.7369C28.3507 17.2025 27.9927 17.5798 27.5244 17.5798H23.3654C23.0899 17.5798 22.8696 17.3621 22.8696 17.095V14.4398C22.8696 14.1725 23.0899 13.955 23.3654 13.955C23.7785 13.955 24.109 13.619 24.109 13.2141V10.4405C24.8461 10.5093 25.5137 10.9296 25.5137 11.6772V13.2141C25.5137 13.619 25.8443 13.955 26.2575 13.955ZM26.7257 23.7688V37.3119H23.0624V23.7688C23.0624 23.441 23.3103 23.1739 23.6408 23.1739H26.1473C26.4778 23.1739 26.7257 23.4411 26.7257 23.7688ZM32.5925 29.7485C32.5925 29.4207 32.868 29.1535 33.1985 29.1535H35.6774C36.0079 29.1535 36.2834 29.4208 36.2834 29.7485V37.3119H32.5925V29.7485ZM42.1225 18.3124C42.1225 17.9846 42.398 17.7175 42.7285 17.7175H45.235C45.5655 17.7175 45.8134 17.9847 45.8134 18.3124V37.3119H42.1225V18.3124ZM49.2563 37.3119H47.3007V18.3124C47.3007 17.1638 46.3642 16.2329 45.2349 16.2329H42.7284C41.5991 16.2329 40.635 17.1638 40.635 18.3124V37.3119H37.7704V29.7485C37.7704 28.5999 36.834 27.6689 35.6771 27.6689H33.1985C32.0417 27.6689 31.1051 28.5999 31.1051 29.7485V37.3119H28.213V23.7688C28.213 22.6285 27.2766 21.6892 26.1472 21.6892H25.6239V19.0644H27.5243C28.7913 19.0644 29.838 18.0149 29.838 16.7369V14.7868C29.838 13.5115 28.7914 12.4704 27.5243 12.4704H27.001V11.6772C27.001 10.7316 26.473 9.82777 25.6239 9.39102V6.02518C25.6239 4.10259 24.0814 2.53816 22.1534 2.53816H4.49804C2.54239 2.53816 1 4.10259 1 6.02518V43.9775C1 45.8973 2.54251 47.4617 4.49804 47.4617H22.1535C24.0816 47.4617 25.624 45.8973 25.624 43.9775V38.7992H49.2563C49.3542 38.7999 49.4512 38.7811 49.5417 38.7439C49.6322 38.7068 49.7144 38.652 49.7836 38.5829C49.8528 38.5137 49.9075 38.4314 49.9447 38.3409C49.9818 38.2504 50.0006 38.1534 50 38.0556C50 37.6508 49.6695 37.3119 49.2563 37.3119ZM32.3996 19.5491C32.3996 19.4216 32.542 19.2201 32.7852 19.3315L36.3383 21.3806C36.4886 21.4691 36.4886 21.7302 36.3383 21.8186L32.7852 23.8679C32.5998 23.977 32.3996 23.8143 32.3996 23.6476V19.5491ZM31.7937 25.1542C31.2428 24.8374 30.9123 24.2811 30.9123 23.6476V19.5491C30.9123 18.221 32.3684 17.3838 33.529 18.0453L37.0821 20.1056C38.2356 20.76 38.2117 22.4546 37.0821 23.1051L33.529 25.1543C32.9771 25.4707 32.3485 25.4705 31.7937 25.1542ZM13.3946 18.0343C14.2208 18.0343 14.9094 17.5081 15.1573 16.748L15.3501 16.1723L15.5429 16.748C15.7908 17.5081 16.5069 18.0343 17.3056 18.0343L17.9116 18.0259L17.4158 18.3813C16.7548 18.8578 16.5069 19.6868 16.7548 20.4608L16.92 21.0365L16.4518 20.6785C16.1309 20.4475 15.7455 20.3232 15.35 20.3232C14.9546 20.3232 14.5692 20.4475 14.2483 20.6785L13.7801 21.0365L13.9729 20.4608C14.2207 19.6868 13.9453 18.8577 13.2843 18.3813L12.7885 18.0259L13.3946 18.0343ZM11.1361 18.6704C10.2361 18.0165 10.6947 16.5383 11.8246 16.5413L13.3946 16.5497C13.5874 16.5497 13.6975 16.4505 13.7526 16.2935L14.2484 14.7978C14.5746 13.7373 16.1126 13.6951 16.4519 14.7978L16.9477 16.2935C17.0028 16.4505 17.1405 16.5497 17.3057 16.5497L18.8757 16.5413C20.0326 16.5383 20.447 18.0293 19.5643 18.6704L18.2973 19.5904C18.1596 19.6867 18.1045 19.8356 18.1596 19.9952L18.6553 21.4908C18.7931 21.9756 18.6278 22.5099 18.2147 22.8074C17.8057 23.1122 17.2434 23.113 16.8375 22.8074L15.5704 21.8764C15.4327 21.7773 15.2675 21.7773 15.1298 21.8764L13.8628 22.8074C12.9526 23.4694 11.7138 22.5879 12.0724 21.4908L12.5406 19.9952C12.5957 19.8354 12.5406 19.6867 12.4029 19.5904L11.1361 18.6704ZM10.8331 43.1264C10.8331 42.7187 11.1636 42.3827 11.5767 42.3827H15.0472C15.4604 42.3827 15.7909 42.7187 15.7909 43.1264C15.7909 43.5313 15.4604 43.8673 15.0472 43.8673H11.5767C11.1636 43.8673 10.8331 43.5313 10.8331 43.1264ZM42.5357 7.55937C42.8662 7.55937 43.1967 7.7081 43.417 7.96419C43.7087 8.3028 44.2718 8.28301 44.5463 7.96419C45.2517 7.14499 46.5846 7.65032 46.5846 8.7382C46.5846 10.0052 45.2625 11.6083 43.9679 12.3107C42.7009 11.6083 41.3512 10.0053 41.3512 8.7382C41.3513 8.08268 41.8747 7.55937 42.5357 7.55937ZM43.6649 13.8173C41.8471 13.0047 39.8639 10.7683 39.8639 8.73831C39.8639 6.59234 42.2987 5.37506 43.9679 6.49903C45.7737 5.35921 48.0719 6.64563 48.0719 8.73831C48.0719 10.7683 46.1162 13.0048 44.2709 13.8173C44.055 13.9152 43.9042 13.9011 43.6649 13.8173Z" fill="#FF8343"/></svg>