<svg xmlns="http://www.w3.org/2000/svg" width="50" height="50" viewBox="0 0 50 50" fill="none"><g clip-path="url(#clip0_8017_6873)"><path d="M47.36 38.7301L48.8486 40.2187L50 39.0673L48.5114 37.5788C48.2839 37.3525 48.1035 37.0833 47.9807 36.7868C47.8579 36.4904 47.7952 36.1725 47.796 35.8516V28.9194C47.7969 28.5985 47.7341 28.2806 47.6113 27.9842C47.4885 27.6878 47.3081 27.4186 47.0806 27.1924L46.1677 26.2794V12.7762C46.167 12.1287 45.9094 11.5079 45.4515 11.05C44.9937 10.5921 44.3728 10.3345 43.7253 10.3338H6.2747C5.62715 10.3345 5.00633 10.5921 4.54845 11.05C4.09056 11.5079 3.833 12.1287 3.83227 12.7762V26.2794L2.91942 27.1923C2.69189 27.4185 2.51151 27.6877 2.38871 27.9842C2.2659 28.2806 2.20312 28.5985 2.20399 28.9194V35.8516C2.20484 36.1725 2.14204 36.4903 2.01924 36.7867C1.89644 37.0832 1.71606 37.3523 1.48856 37.5786L0 39.0673L1.1514 40.2187L2.64006 38.73C3.01922 38.3529 3.31982 37.9043 3.52446 37.4102C3.7291 36.9161 3.83372 36.3864 3.83227 35.8516V28.9194C3.83198 28.8124 3.8529 28.7065 3.89383 28.6077C3.93476 28.5089 3.99488 28.4192 4.07072 28.3438L8.47869 23.9357C8.75787 23.6565 9.13651 23.4997 9.53131 23.4997C9.92612 23.4997 10.3047 23.6566 10.5839 23.9357C10.8631 24.2149 11.0199 24.5936 11.0199 24.9884C11.0199 25.3832 10.863 25.7618 10.5839 26.041L7.80428 28.8206C7.57675 29.0468 7.39637 29.316 7.27357 29.6124C7.15076 29.9089 7.08798 30.2268 7.08885 30.5477V33.4671L8.19934 34.5776C8.88186 35.2564 9.42296 36.0638 9.79134 36.9531C10.1597 37.8424 10.348 38.796 10.3454 39.7586V42.0854C10.3455 42.4631 10.4332 42.8357 10.6018 43.1738C10.7703 43.5118 11.015 43.8062 11.3167 44.0335L9.90934 45.4408C9.68309 45.6683 9.41395 45.8487 9.11751 45.9715C8.82106 46.0942 8.50321 46.157 8.18234 46.1561H6.80949C6.2747 46.1546 5.74493 46.2593 5.25085 46.4639C4.75677 46.6686 4.3082 46.9692 3.93109 47.3484L2.44243 48.837L3.59383 49.9884L5.08249 48.4997C5.30875 48.2722 5.57789 48.0918 5.87433 47.969C6.17077 47.8463 6.48863 47.7835 6.80949 47.7844H8.18234C8.71713 47.7859 9.2469 47.6812 9.74098 47.4766C10.2351 47.2719 10.6836 46.9713 11.0607 46.5921L13.1251 44.5278H36.8749L38.9391 46.592C39.3163 46.9712 39.7648 47.2719 40.2589 47.4766C40.753 47.6812 41.2828 47.7859 41.8177 47.7844H43.1905C43.5114 47.7835 43.8292 47.8463 44.1257 47.9691C44.4221 48.0919 44.6913 48.2723 44.9175 48.4998L46.4062 49.9884L47.5576 48.837L46.069 47.3485C45.6919 46.9693 45.2433 46.6686 44.7492 46.4639C44.2551 46.2593 43.7253 46.1546 43.1905 46.1561H41.8177C41.4968 46.157 41.1789 46.0942 40.8825 45.9714C40.586 45.8486 40.3169 45.6682 40.0907 45.4407L38.6834 44.0335C38.985 43.8061 39.2298 43.5118 39.3983 43.1738C39.5668 42.8357 39.6546 42.4631 39.6546 42.0854V39.7587C39.6519 38.7961 39.8403 37.8425 40.2086 36.9531C40.577 36.0638 41.1181 35.2564 41.8007 34.5776L42.9112 33.467V30.5477C42.912 30.2268 42.8492 29.9089 42.7264 29.6125C42.6036 29.3161 42.4232 29.0469 42.1957 28.8207L39.4161 26.0411C39.2779 25.9028 39.1682 25.7387 39.0934 25.5581C39.0186 25.3775 38.9801 25.184 38.9801 24.9885C38.9801 24.793 39.0186 24.5994 39.0934 24.4188C39.1682 24.2382 39.2779 24.0741 39.4161 23.9358C39.5543 23.7976 39.7184 23.688 39.899 23.6131C40.0796 23.5383 40.2732 23.4998 40.4687 23.4998C40.6642 23.4998 40.8577 23.5383 41.0384 23.6131C41.219 23.6879 41.3831 23.7976 41.5213 23.9358L45.9293 28.3438C46.0051 28.4192 46.0652 28.5089 46.1062 28.6077C46.1471 28.7065 46.168 28.8124 46.1677 28.9194V35.8516C46.1663 36.3864 46.2709 36.9162 46.4756 37.4103C46.6802 37.9044 46.9809 38.353 47.36 38.7301ZM10.4496 34.7581H15.2303V39.643H11.9709C11.9536 37.9007 11.4246 36.202 10.4496 34.7581ZM38.0263 42.0854C38.026 42.3012 37.9402 42.5082 37.7875 42.6608C37.6349 42.8134 37.428 42.8993 37.2121 42.8995H12.7878C12.572 42.8993 12.3651 42.8134 12.2125 42.6608C12.0598 42.5082 11.974 42.3012 11.9737 42.0854V41.2712H38.0263V42.0854ZM16.8586 39.643V34.7581H24.1859V39.643H16.8586ZM25.8141 39.643V34.7581H33.1414V39.643H25.8141ZM38.0291 39.643H34.7697V34.7581H39.5504C38.5754 36.202 38.0464 37.9007 38.0291 39.643ZM41.2829 21.9791C41.0174 21.9076 40.7437 21.8714 40.4687 21.8714C39.8523 21.8714 39.2496 22.0543 38.7371 22.3968C38.2245 22.7392 37.825 23.226 37.5891 23.7956C37.3532 24.3651 37.2915 24.9918 37.4117 25.5964C37.532 26.2011 37.8288 26.7565 38.2647 27.1924L41.0444 29.9721C41.1203 30.0475 41.1804 30.1372 41.2213 30.236C41.2622 30.3348 41.2832 30.4407 41.2829 30.5477V32.7927L40.9456 33.1298H9.05439L8.71713 32.7927V30.5477C8.71684 30.4407 8.73776 30.3348 8.77869 30.236C8.81962 30.1372 8.87974 30.0475 8.95558 29.9721L11.7353 27.1923C12.2205 26.7065 12.5317 26.0741 12.6208 25.3932C12.7098 24.7124 12.5715 24.0213 12.2275 23.427C11.8835 22.8328 11.3529 22.3688 10.7182 22.107C10.0835 21.8452 9.38004 21.8002 8.71713 21.9791V15.2187H41.2829V21.9791ZM44.5394 24.6511L42.9112 23.0228V13.5904H7.08885V23.0228L5.46056 24.6511V12.7762C5.46083 12.5604 5.54669 12.3535 5.69931 12.2008C5.85194 12.0482 6.05886 11.9624 6.2747 11.9621H43.7253C43.9411 11.9624 44.1481 12.0482 44.3007 12.2008C44.4533 12.3535 44.5392 12.5604 44.5394 12.7762V24.6511Z" fill="#FF8343"/><path d="M22.5829 28.2001C22.8371 28.341 23.1244 28.4113 23.4149 28.4037C23.7055 28.396 23.9887 28.3108 24.2352 28.1568L28.3981 25.555C28.6323 25.4086 28.8254 25.2051 28.9593 24.9635C29.0932 24.722 29.1634 24.4504 29.1634 24.1742C29.1634 23.898 29.0932 23.6264 28.9593 23.3849C28.8254 23.1433 28.6323 22.9398 28.3981 22.7934L24.2353 20.1917C23.9888 20.0376 23.7056 19.9524 23.415 19.9447C23.1245 19.9371 22.8372 20.0073 22.5829 20.1482C22.3287 20.2891 22.1168 20.4955 21.9693 20.7459C21.8217 20.9964 21.7439 21.2817 21.7439 21.5724V26.776C21.744 27.0667 21.8218 27.352 21.9693 27.6024C22.1168 27.8529 22.3287 28.0593 22.5829 28.2002V28.2001ZM23.3722 21.5725L27.5351 24.1742L23.3722 26.776V21.5725ZM25.0005 2.19233C25.9631 2.18969 26.9167 2.37802 27.8061 2.74642C28.6954 3.11481 29.5029 3.65595 30.1817 4.33852L31.333 3.18701C29.6535 1.50754 27.3756 0.564026 25.0005 0.564026C22.6253 0.564026 20.3475 1.50754 18.668 3.18701L19.8193 4.33852C20.4981 3.65595 21.3055 3.11481 22.1949 2.74642C23.0842 2.37802 24.0378 2.18969 25.0005 2.19233Z" fill="#FF8343"/><path d="M29.029 5.48973C28.4998 4.96053 27.8715 4.54074 27.1801 4.25434C26.4886 3.96794 25.7476 3.82053 24.9992 3.82053C24.2508 3.82053 23.5097 3.96794 22.8182 4.25434C22.1268 4.54074 21.4986 4.96053 20.9694 5.48973L22.1208 6.64123C22.8842 5.87784 23.9196 5.44897 24.9992 5.44897C26.0788 5.44897 27.1142 5.87784 27.8776 6.64123L29.029 5.48973ZM23.2722 7.79263L24.4236 8.94393C24.5762 8.79131 24.7833 8.70556 24.9992 8.70556C25.215 8.70556 25.4221 8.79131 25.5748 8.94393L26.7263 7.79263C26.4995 7.5658 26.2302 7.38585 25.9339 7.26309C25.6375 7.14032 25.3199 7.07713 24.9992 7.07713C24.6784 7.07713 24.3608 7.14032 24.0644 7.26309C23.7681 7.38585 23.499 7.5658 23.2722 7.79263ZM24.9992 31.5015C26.4484 31.5015 27.865 31.0718 29.07 30.2666C30.275 29.4615 31.2141 28.3171 31.7687 26.9782C32.3233 25.6394 32.4684 24.1661 32.1857 22.7447C31.9029 21.3234 31.2051 20.0178 30.1803 18.993C29.1556 17.9683 27.85 17.2704 26.4286 16.9877C25.0073 16.705 23.534 16.8501 22.1951 17.4047C20.8562 17.9593 19.7119 18.8984 18.9067 20.1034C18.1016 21.3084 17.6719 22.725 17.6719 24.1742C17.6741 26.1169 18.4467 27.9793 19.8204 29.353C21.1941 30.7266 23.0565 31.4993 24.9992 31.5015ZM24.9992 18.4752C26.1263 18.4752 27.2282 18.8095 28.1654 19.4357C29.1026 20.0619 29.833 20.9519 30.2644 21.9933C30.6957 23.0347 30.8086 24.1805 30.5887 25.286C30.3688 26.3915 29.826 27.407 29.029 28.204C28.2319 29.001 27.2165 29.5438 26.111 29.7637C25.0055 29.9836 23.8596 29.8708 22.8183 29.4394C21.7769 29.0081 20.8868 28.2776 20.2606 27.3404C19.6344 26.4032 19.3002 25.3014 19.3002 24.1742C19.3019 22.6633 19.9028 21.2147 20.9712 20.1463C22.0396 19.0779 23.4882 18.4769 24.9992 18.4752Z" fill="#FF8343"/></g><defs><clipPath id="clip0_8017_6873"><rect width="50" height="50" fill="white"/></clipPath></defs></svg>