<svg xmlns="http://www.w3.org/2000/svg" width="49" height="50" viewBox="0 0 49 50" fill="none"><path d="M29.2368 21.9624C29.2368 19.1189 26.9238 16.8049 24.0793 16.8049C21.2348 16.8049 18.9217 19.1179 18.9217 21.9624C18.9217 24.8069 21.2348 27.1199 24.0793 27.1199C26.9238 27.1199 29.2368 24.8059 29.2368 21.9624ZM24.0793 25.9004C21.9085 25.9004 20.1413 24.1341 20.1413 21.9624C20.1413 19.7907 21.9075 18.0244 24.0793 18.0244C26.251 18.0244 28.0173 19.7907 28.0173 21.9624C28.0173 24.1341 26.25 25.9004 24.0793 25.9004ZM25.4543 34.5305C26.2409 34.5305 26.8811 33.8902 26.8811 33.1037V31.1209C26.8811 31.0254 26.9329 30.9543 27.0234 30.9238C27.473 30.7755 27.9109 30.5937 28.3333 30.3801C28.4187 30.3364 28.5061 30.3506 28.5732 30.4187L29.9756 31.8211C30.5315 32.377 31.437 32.377 31.9929 31.8211L33.938 29.878C34.0366 29.7795 34.1189 29.6687 34.1829 29.5498H38.6138C43.876 29.5498 48.1565 25.2693 48.1565 20.0071C48.1565 15.2378 44.5681 11.1839 39.8923 10.5498C39.7134 8.19614 38.6972 6.00915 36.9969 4.34248C35.1656 2.54777 32.7439 1.55894 30.1799 1.55894C27.8435 1.55894 25.6311 2.37703 23.872 3.87602C23.0824 2.68384 22.0098 1.70585 20.75 1.02947C19.4901 0.353091 18.0824 -0.000602884 16.6524 7.71405e-07C11.876 7.71405e-07 7.98882 3.88618 7.98882 8.66362C7.98882 9.30488 8.05894 9.93902 8.19715 10.5589C3.54472 11.2195 0 15.2348 0 20.0061C0 25.2683 4.28049 29.5488 9.54268 29.5488H13.9736C14.0386 29.6677 14.1199 29.7785 14.2185 29.877L16.1626 31.8211C16.7185 32.377 17.624 32.377 18.1799 31.8211L19.5823 30.4187C19.6494 30.3516 19.7368 30.3374 19.8222 30.3801C20.2439 30.5935 20.685 30.7764 21.1321 30.9238C21.2226 30.9533 21.2744 31.0254 21.2744 31.1209V33.1037C21.2744 33.8902 21.9146 34.5305 22.7012 34.5305H23.4695V36.873H8.11281C7.77642 36.873 7.50305 37.1463 7.50305 37.4827V41.563H4.50508C4.1687 41.563 3.89533 41.8364 3.89533 42.1728V49.3902C3.89533 49.7266 4.1687 50 4.50508 50H11.7215C12.0579 50 12.3313 49.7266 12.3313 49.3902V42.1738C12.3313 41.8374 12.0579 41.564 11.7215 41.564H8.72256V38.0935H23.4695V41.564H20.4705C20.1341 41.564 19.8608 41.8374 19.8608 42.1738V49.3902C19.8608 49.7266 20.1341 50 20.4705 50H27.687C28.0234 50 28.2967 49.7266 28.2967 49.3902V42.1738C28.2967 41.8374 28.0234 41.564 27.687 41.564H24.689V38.0935H39.436V41.564H36.437C36.1006 41.564 35.8272 41.8374 35.8272 42.1738V49.3902C35.8272 49.7266 36.1006 50 36.437 50H43.6535C43.9898 50 44.2632 49.7266 44.2632 49.3902V42.1738C44.2632 41.8374 43.9898 41.564 43.6535 41.564H40.6545V37.4837C40.6545 37.1474 40.3811 36.874 40.0447 36.874H24.689V34.5315H25.4543V34.5305ZM11.1118 48.7805H5.11484V42.7835H11.1118V48.7805ZM27.0783 48.7805H21.0813V42.7835H27.0783V48.7805ZM43.0437 48.7805H37.0467V42.7835H43.0437V48.7805ZM1.21951 20.0061C1.21951 15.628 4.64126 11.9797 9.01016 11.7002C9.19715 11.688 9.3689 11.5904 9.47459 11.436C9.58029 11.2815 9.60976 11.0864 9.55285 10.9075C9.32379 10.1813 9.20759 9.42413 9.20833 8.6626C9.20833 4.55793 12.5478 1.2185 16.6524 1.2185C19.3872 1.2185 21.8963 2.71342 23.2012 5.12094C23.2463 5.20437 23.3103 5.27612 23.3881 5.33047C23.4658 5.38482 23.5552 5.42026 23.649 5.43398C23.7429 5.4477 23.8386 5.43932 23.9287 5.40949C24.0187 5.37967 24.1006 5.32923 24.1677 5.2622C25.7764 3.65955 27.9116 2.77744 30.1819 2.77744C34.7805 2.77744 38.6026 6.51626 38.7012 11.1118C38.7046 11.2629 38.764 11.4073 38.8678 11.5172C38.9716 11.627 39.1125 11.6944 39.2632 11.7063C43.5671 12.0417 46.938 15.687 46.938 20.0041C46.938 24.5935 43.2043 28.3272 38.6148 28.3272H34.25C34.1789 28.1535 34.0742 27.9939 33.938 27.8577L32.5356 26.4553C32.4685 26.3882 32.4543 26.3008 32.4969 26.2154C32.7104 25.7937 32.8933 25.3526 33.0406 24.9055C33.0701 24.815 33.1423 24.7632 33.2378 24.7632H35.2205C36.0071 24.7632 36.6474 24.123 36.6474 23.3364V20.5864C36.6474 19.7998 36.0071 19.1596 35.2205 19.1596H33.2378C33.1423 19.1596 33.0711 19.1077 33.0406 19.0173C32.8923 18.5677 32.7106 18.1298 32.4969 17.7073C32.4543 17.622 32.4675 17.5346 32.5356 17.4675L33.938 16.065C34.4939 15.5091 34.4939 14.6037 33.938 14.0478L31.9939 12.1037C31.438 11.5478 30.5325 11.5478 29.9766 12.1037L28.5742 13.5061C28.5071 13.5732 28.4197 13.5874 28.3343 13.5447C27.9119 13.3311 27.474 13.1493 27.0244 13.001C26.9339 12.9715 26.8821 12.8994 26.8821 12.8039V10.8211C26.8821 10.0346 26.2419 9.39431 25.4553 9.39431H22.7053C21.9187 9.39431 21.2785 10.0346 21.2785 10.8211V12.8039C21.2785 12.8994 21.2266 12.9705 21.1362 13.001C20.6865 13.1491 20.2486 13.3309 19.8262 13.5447C19.7409 13.5874 19.6535 13.5742 19.5864 13.5061L18.1839 12.1037C17.628 11.5478 16.7226 11.5478 16.1667 12.1037L14.2226 14.0478C14.0896 14.18 13.9843 14.3372 13.9126 14.5105C13.8409 14.6837 13.8043 14.8694 13.8049 15.0569C13.8049 15.438 13.9533 15.7967 14.2226 16.0661L15.625 17.4685C15.6921 17.5356 15.7063 17.624 15.6636 17.7083C15.4498 18.1307 15.268 18.5686 15.1199 19.0183C15.0904 19.1087 15.0183 19.1606 14.9228 19.1606H12.94C12.1535 19.1606 11.5132 19.8008 11.5132 20.5874V23.3374C11.5132 24.124 12.1535 24.7642 12.94 24.7642H14.9228C15.0183 24.7642 15.0894 24.8161 15.1199 24.9065C15.2682 25.3561 15.45 25.794 15.6636 26.2165C15.7063 26.3018 15.6931 26.3892 15.625 26.4563L14.2226 27.8587C14.088 27.9927 13.9819 28.1524 13.9106 28.3283H9.54573C4.95427 28.3293 1.21951 24.5955 1.21951 20.0061ZM22.497 33.1037V31.1209C22.497 30.503 22.1026 29.9583 21.5152 29.7652C21.126 29.6372 20.7429 29.4787 20.375 29.2927C20.1068 29.1564 19.8024 29.1086 19.5053 29.156C19.2083 29.2035 18.9339 29.3438 18.7215 29.5569L17.3191 30.9594C17.2398 31.0386 17.1057 31.0386 17.0264 30.9594L15.0823 29.0152C15.0305 28.9634 15.0224 28.9014 15.0224 28.8689C15.0224 28.8364 15.0305 28.7744 15.0823 28.7226L16.4848 27.3201C16.9217 26.8831 17.0285 26.2185 16.749 25.6667C16.563 25.2998 16.4035 24.9167 16.2764 24.5274C16.0833 23.94 15.5386 23.5457 14.9207 23.5457H12.938C12.8252 23.5457 12.7307 23.4512 12.7307 23.3384V20.5884C12.7307 20.4756 12.8252 20.3811 12.938 20.3811H14.9207C15.5386 20.3811 16.0833 19.9868 16.2764 19.3994C16.4045 19.0091 16.564 18.626 16.749 18.2591C16.8855 17.991 16.9334 17.6865 16.8859 17.3894C16.8385 17.0923 16.698 16.8179 16.4848 16.6057L15.0823 15.2033C15.0305 15.1514 15.0224 15.0894 15.0224 15.0569C15.0224 15.0244 15.0305 14.9624 15.0823 14.9106L17.0264 12.9665C17.1057 12.8872 17.2398 12.8872 17.3191 12.9665L18.7215 14.3689C19.1585 14.8059 19.8232 14.9126 20.375 14.6331C20.7419 14.4472 21.125 14.2886 21.5142 14.1606C22.1016 13.9675 22.4959 13.4228 22.4959 12.8049V10.8222C22.4959 10.7094 22.5904 10.6148 22.7033 10.6148H25.4533C25.5661 10.6148 25.6606 10.7094 25.6606 10.8222V12.8049C25.6606 13.4228 26.0549 13.9675 26.6423 14.1606C27.0315 14.2886 27.4146 14.4472 27.7815 14.6331C28.0496 14.7696 28.3541 14.8176 28.6512 14.7701C28.9483 14.7226 29.2227 14.5821 29.435 14.3689L30.8374 12.9665C30.9167 12.8872 31.0508 12.8872 31.1301 12.9665L33.0742 14.9106C33.1535 14.9898 33.1535 15.124 33.0742 15.2033L31.6717 16.6057C31.2348 17.0427 31.128 17.7073 31.4075 18.2591C31.5935 18.626 31.753 19.0091 31.8801 19.3984C32.0732 19.9858 32.6179 20.3801 33.2358 20.3801H35.2185C35.3313 20.3801 35.4258 20.4746 35.4258 20.5874V23.3374C35.4258 23.4502 35.3313 23.5447 35.2185 23.5447H33.2358C32.6179 23.5447 32.0732 23.939 31.8801 24.5264C31.752 24.9156 31.5935 25.2988 31.4075 25.6656C31.271 25.9338 31.2231 26.2383 31.2706 26.5354C31.318 26.8325 31.4585 27.1069 31.6717 27.3191L33.0742 28.7215C33.126 28.7734 33.1341 28.8354 33.1341 28.8679C33.1341 28.9004 33.126 28.9624 33.0742 29.0142L31.1301 30.9583C31.0508 31.0376 30.9167 31.0376 30.8374 30.9583L29.435 29.5559C28.998 29.1189 28.3333 29.0122 27.7815 29.2917C27.4143 29.4779 27.0335 29.6359 26.6423 29.7642C26.0549 29.9573 25.6606 30.502 25.6606 31.1199V33.1026C25.6606 33.2154 25.5661 33.31 25.4533 33.31H22.7033C22.5925 33.311 22.497 33.2165 22.497 33.1037Z" fill="#FF8343"/></svg>