<svg xmlns="http://www.w3.org/2000/svg" width="48" height="44" viewBox="0 0 48 44" fill="none"><path d="M48 1.61476C48 12.1898 48 22.7648 48 33.3398C47.4 34.7398 46.9375 35.0523 45.4 35.0523C44.125 35.0523 42.8375 35.0523 41.5625 35.0523C41.3375 35.0523 41.1 35.0523 40.8625 35.0523C40.7875 38.4648 39.35 41.0273 36.25 42.4148C33.15 43.8023 30.2875 43.1523 27.725 40.9773C27.25 42.2023 26.775 42.5148 25.4375 42.5148C24.425 42.5148 23.4125 42.5148 22.3875 42.5148C21.2125 42.5148 20.4625 41.7523 20.45 40.5773C20.45 40.1398 20.45 39.7023 20.45 39.2648C20.45 38.1898 20.45 38.1898 19.45 37.7648C19.3125 37.7023 19.1625 37.6523 19.025 37.5773C18.6875 37.3773 18.425 37.4648 18.1625 37.7523C17.7375 38.2023 17.2875 38.6398 16.8375 39.0773C15.9875 39.9148 14.95 39.9148 14.1 39.0898C13.525 38.5273 12.95 37.9398 12.375 37.3773C11.725 36.7398 10.975 36.1523 11.075 35.0648C10.825 35.0648 10.6375 35.0648 10.45 35.0648C7.7125 35.0648 4.9875 35.0648 2.25 35.0648C1.175 35.0648 0.500003 34.6023 0.112503 33.6398C0.0875031 33.5773 0.0375 33.5148 0 33.4523C0 22.8523 0 12.2398 0 1.63976C0.475 0.389758 1.4 -0.0352432 2.7125 0.00225681C4.775 0.0647568 6.8375 0.0147576 8.9 0.0147576C9.05 0.0147576 9.2125 0.00225643 9.3625 0.0272564C9.725 0.0772564 9.925 0.289758 9.95 0.639758C9.975 0.989758 9.825 1.25226 9.475 1.35226C9.3 1.40226 9.1 1.41476 8.925 1.41476C8.2375 1.42726 7.5625 1.41476 6.85 1.41476C6.85 2.76476 6.85 4.06476 6.85 5.38976C20.1 5.38976 33.325 5.38976 46.5875 5.38976C46.5875 4.41476 46.5875 3.46476 46.5875 2.51476C46.5875 1.56476 46.4375 1.41476 45.475 1.41476C34.6625 1.41476 23.85 1.41476 13.0375 1.41476C12.8 1.41476 12.5625 1.41476 12.3375 1.35226C11.9875 1.26476 11.8375 0.989758 11.875 0.639758C11.9125 0.289758 12.1125 0.0647564 12.475 0.0272564C12.6625 0.00225643 12.85 0.0147576 13.0375 0.0147576C23.85 0.0147576 34.6625 0.0147576 45.475 0.0147576C45.65 0.0147576 45.825 0.0147576 45.9875 0.0147576C46.85 0.0647576 47.45 0.489758 47.825 1.26476C47.875 1.37726 47.9375 1.50226 48 1.61476ZM1.4125 6.83976C1.4125 7.01476 1.4125 7.17726 1.4125 7.32726C1.4125 15.7648 1.4125 24.2023 1.4125 32.6398C1.4125 33.4523 1.6125 33.6523 2.4375 33.6523C5.3125 33.6523 8.1875 33.6273 11.0625 33.6648C11.7625 33.6773 12.2625 33.5023 12.725 32.9773C13.4375 32.1773 13.475 32.3648 13.0375 31.3898C12.95 31.1898 12.8625 30.9898 12.8 30.7773C12.7 30.4648 12.5 30.3398 12.175 30.3398C11.4875 30.3523 10.8 30.3523 10.1125 30.3398C9.075 30.3273 8.3 29.5773 8.275 28.5398C8.25 27.3273 8.25 26.1023 8.275 24.8898C8.3 23.8648 9.05 23.1398 10.075 23.1148C10.575 23.1023 11.075 23.1148 11.575 23.1148C12.75 23.1148 12.6 23.1898 12.9875 22.1773C13.05 22.0023 13.125 21.8273 13.225 21.6648C13.4 21.3398 13.35 21.0898 13.075 20.8398C12.6125 20.4023 12.1625 19.9398 11.7125 19.4898C10.875 18.6398 10.875 17.6023 11.7125 16.7523C12.5 15.9523 13.3 15.1648 14.1 14.3648C14.95 13.5273 15.975 13.5273 16.8375 14.3648C17.3125 14.8148 17.775 15.2773 18.225 15.7523C18.45 15.9898 18.6875 16.0273 18.975 15.8898C19.3125 15.7273 19.6625 15.5773 20.0125 15.4648C20.35 15.3523 20.475 15.1398 20.4625 14.8023C20.4375 14.1648 20.45 13.5273 20.4625 12.8898C20.475 11.7023 21.2 10.9648 22.4 10.9523C23.525 10.9398 24.65 10.9398 25.775 10.9523C26.9875 10.9648 27.6875 11.6648 27.7125 12.8773C27.725 13.5273 27.725 14.1898 27.7125 14.8398C27.7125 15.1648 27.8375 15.3648 28.15 15.4648C28.5125 15.5898 28.875 15.7523 29.225 15.9148C29.5 16.0398 29.725 16.0023 29.9375 15.7773C30.4 15.2898 30.8875 14.8273 31.3625 14.3523C32.175 13.5523 33.2125 13.5398 34.025 14.3273C34.8625 15.1398 35.6875 15.9648 36.5125 16.8148C37.2875 17.6023 37.275 18.6523 36.5 19.4398C36.0375 19.9273 35.5625 20.4023 35.075 20.8648C34.8375 21.0898 34.7875 21.3148 34.9375 21.6148C35.1 21.9398 35.2375 22.2648 35.35 22.6023C35.4625 22.9773 35.6875 23.1273 36.075 23.1148C36.7 23.0898 37.325 23.1023 37.95 23.1148C39.1875 23.1273 39.8875 23.8273 39.9 25.0648C39.9125 26.0773 39.875 27.0898 39.9125 28.1023C39.9375 29.0023 39.7 29.7398 38.825 30.1773C39.7375 31.1898 40.325 32.3398 40.65 33.6273C42.3375 33.6273 43.975 33.6273 45.6125 33.6273C46.4 33.6273 46.6 33.4273 46.6 32.6273C46.6 24.1898 46.6 15.7523 46.6 7.31476C46.6 7.15226 46.6 6.98976 46.6 6.82726C31.5 6.83976 16.475 6.83976 1.4125 6.83976ZM31.7 27.7648C32.5875 27.7648 33.4375 27.7023 34.2625 27.7773C35.2875 27.8773 36.225 28.2773 37.1 28.8023C37.8875 29.2648 38.4625 28.9398 38.4625 28.0523C38.4625 27.0648 38.45 26.0898 38.4625 25.1023C38.4625 24.6898 38.2875 24.5148 37.875 24.5273C37.225 24.5398 36.5625 24.5398 35.9125 24.5273C35.025 24.5148 34.4 24.1023 34.075 23.2648C33.925 22.8773 33.75 22.4898 33.5875 22.1023C33.25 21.3023 33.375 20.5773 34 19.9523C34.4625 19.4898 34.925 19.0148 35.4 18.5648C35.7125 18.2648 35.725 18.0023 35.4125 17.7023C34.6375 16.9523 33.875 16.1898 33.125 15.4148C32.8125 15.0898 32.55 15.1273 32.2625 15.4273C31.8 15.9148 31.325 16.3898 30.8375 16.8523C30.2375 17.4273 29.5375 17.5648 28.7625 17.2398C28.3875 17.0898 28.0125 16.9273 27.6375 16.7773C26.7125 16.4148 26.3125 15.8523 26.3 14.8523C26.2875 14.2023 26.2875 13.5398 26.3 12.8898C26.3 12.5148 26.1375 12.3523 25.7625 12.3523C24.65 12.3648 23.55 12.3648 22.4375 12.3523C22.0375 12.3523 21.8625 12.5148 21.875 12.9148C21.8875 13.6148 21.8875 14.3148 21.875 15.0148C21.8625 15.8148 21.475 16.3648 20.7375 16.6898C20.3375 16.8648 19.925 17.0273 19.525 17.1898C18.625 17.5773 17.9625 17.4523 17.2625 16.7648C16.8 16.3148 16.35 15.8648 15.9 15.4023C15.6125 15.1023 15.3625 15.0773 15.0625 15.3898C14.3 16.1648 13.525 16.9398 12.7375 17.7023C12.4375 18.0023 12.45 18.2523 12.75 18.5273C13.2125 18.9648 13.6625 19.4273 14.1125 19.8773C14.8 20.5648 14.925 21.2523 14.5375 22.1398C14.3875 22.5023 14.225 22.8523 14.0875 23.2148C13.7625 24.0773 13.125 24.4898 12.2125 24.4898C11.575 24.5023 10.925 24.5023 10.2875 24.4898C9.85 24.4773 9.6625 24.6398 9.6625 25.0898C9.675 26.1648 9.675 27.2398 9.6625 28.3148C9.6625 28.7648 9.8625 28.9273 10.3 28.9148C10.95 28.9023 11.6125 28.9023 12.2625 28.9148C13.1375 28.9273 13.7375 29.3398 14.0625 30.1523C14.225 30.5398 14.3875 30.9273 14.55 31.3148C14.9 32.1523 14.775 32.8398 14.125 33.5023C13.6625 33.9648 13.2 34.4398 12.7375 34.8898C12.4375 35.1773 12.4375 35.4273 12.7375 35.7148C13.525 36.4773 14.2875 37.2523 15.0625 38.0273C15.3625 38.3398 15.6125 38.3023 15.8875 38.0023C16.3625 37.5023 16.85 37.0148 17.35 36.5523C17.9375 35.9898 18.625 35.8648 19.3875 36.1773C19.8125 36.3523 20.225 36.5273 20.6375 36.6898C21.45 37.0273 21.8625 37.6148 21.8625 38.5023C21.8625 39.1773 21.8625 39.8398 21.8625 40.5148C21.8625 40.8648 22 41.0773 22.375 41.0773C23.5125 41.0773 24.6625 41.0898 25.8 41.0648C25.9625 41.0648 26.25 40.8773 26.25 40.7773C26.2375 40.0773 26.325 39.3148 26.1 38.6773C25.6875 37.5148 25.35 36.3648 25.4 35.1273C25.4125 34.8523 25.4 34.5773 25.4 34.2773C25.3 34.2898 25.225 34.3023 25.1625 34.3023C21.4 34.8148 17.85 32.5648 16.7375 28.9523C16.5125 28.2398 16.6375 27.8273 17.0875 27.6898C17.575 27.5523 17.8625 27.7898 18.0875 28.5273C19.0375 31.6523 22.2375 33.5273 25.4375 32.8273C25.7125 32.7648 25.8875 32.6523 26 32.3648C26.775 30.5523 28.0625 29.2148 29.8375 28.3898C30.125 28.2523 30.225 28.0773 30.275 27.8023C30.45 26.7648 30.3875 25.7523 30.0625 24.7523C29.2125 22.1523 26.7125 20.3648 24.025 20.4148C21.175 20.4773 18.8375 22.2773 18.025 25.0523C17.85 25.6273 17.55 25.8523 17.1 25.7398C16.6625 25.6273 16.5125 25.2523 16.675 24.6773C17.55 21.4648 20.225 19.3023 23.65 19.0273C26.675 18.7773 29.7375 20.6148 31.0625 23.4648C31.675 24.8398 31.9 26.2523 31.7 27.7648ZM39.4125 35.3773C39.4 31.8898 36.5625 29.0773 33.075 29.0898C29.575 29.1023 26.775 31.9273 26.775 35.4148C26.7875 38.9023 29.6 41.7023 33.1 41.7023C36.6125 41.6773 39.4375 38.8523 39.4125 35.3773ZM5.4 5.37726C5.4 4.03976 5.4 2.73976 5.4 1.41476C4.25 1.41476 3.125 1.40226 2.0125 1.42726C1.6375 1.43976 1.425 1.71476 1.4125 2.08976C1.4 3.17726 1.4125 4.26476 1.4125 5.38976C2.7625 5.37726 4.075 5.37726 5.4 5.37726Z" fill="#FF8343"/><path d="M39.0145 14.7273C40.4895 14.7273 41.9395 14.7273 43.4145 14.7273C43.4145 13.2648 43.4145 11.8273 43.4145 10.3523C41.9645 10.3523 40.5145 10.3523 38.9895 10.3523C38.9895 10.5898 39.002 10.8398 38.9895 11.0898C38.9645 11.5023 38.677 11.7648 38.2895 11.7648C37.9145 11.7648 37.627 11.5023 37.5895 11.0898C37.5895 11.0648 37.5895 11.0273 37.5895 11.0023C37.527 9.52727 37.6395 8.82726 39.577 8.91476C40.8895 8.96476 42.202 8.92727 43.5145 8.92727C44.402 8.92727 44.852 9.36477 44.852 10.2398C44.8645 11.7773 44.8645 13.3273 44.852 14.8648C44.8395 15.7273 44.4145 16.1648 43.552 16.1648C42.002 16.1773 40.4645 16.1773 38.9145 16.1648C37.8395 16.1523 37.1645 15.0023 37.6895 14.0523C37.802 13.8523 38.152 13.6648 38.352 13.7023C38.577 13.7398 38.802 14.0148 38.9645 14.2273C39.052 14.3148 39.002 14.5148 39.0145 14.7273Z" fill="#FF8343"/><path d="M7.37221 10.3147C6.30971 10.3147 5.2472 10.3147 4.1972 10.3147C3.6222 10.3147 3.28471 10.0397 3.29721 9.60223C3.30971 9.17723 3.63471 8.91473 4.18471 8.91473C6.33471 8.91473 8.4847 8.91473 10.6347 8.91473C11.1847 8.91473 11.5097 9.17723 11.5097 9.60223C11.5097 10.0272 11.1847 10.3147 10.6472 10.3147C9.55971 10.3147 8.47221 10.3147 7.37221 10.3147Z" fill="#FF8343"/><path d="M7.36875 16.0273C6.29375 16.0273 5.21875 16.0273 4.14375 16.0273C3.60625 16.0273 3.28125 15.7523 3.28125 15.3148C3.29375 14.9023 3.60625 14.6273 4.11875 14.6273C6.30625 14.6273 8.48125 14.6273 10.6688 14.6273C11.1688 14.6273 11.4937 14.9148 11.5062 15.3148C11.5187 15.7398 11.1938 16.0148 10.6438 16.0273C9.55625 16.0273 8.46875 16.0273 7.36875 16.0273Z" fill="#FF8343"/><path d="M7.4 11.7773C8.525 11.7773 9.65 11.7648 10.775 11.7773C11.2125 11.7773 11.5125 12.0898 11.5125 12.4648C11.5125 12.8398 11.225 13.1273 10.775 13.1648C10.6625 13.1773 10.5625 13.1648 10.45 13.1648C8.425 13.1648 6.3875 13.1648 4.3625 13.1648C4.275 13.1648 4.175 13.1648 4.0875 13.1648C3.6125 13.1273 3.3125 12.8523 3.3125 12.4648C3.3125 12.0648 3.625 11.7773 4.0875 11.7773C5.1875 11.7648 6.3 11.7773 7.4 11.7773Z" fill="#FF8343"/><path d="M5.88475 17.5022C6.49725 17.5022 7.09725 17.4897 7.70975 17.5022C8.17225 17.5147 8.44725 17.7522 8.47225 18.1522C8.49725 18.5647 8.20975 18.8772 7.74725 18.8897C6.50975 18.9022 5.28475 18.9022 4.04725 18.8897C3.58475 18.8897 3.28475 18.5522 3.29725 18.1522C3.32225 17.7772 3.60975 17.5022 4.05975 17.4897C4.67225 17.4897 5.27225 17.5022 5.88475 17.5022Z" fill="#FF8343"/><path d="M28.0485 26.7398C28.0485 28.9398 26.2485 30.7273 24.0485 30.7148C21.8735 30.7023 20.0985 28.9148 20.086 26.7523C20.0735 24.5648 21.8735 22.7648 24.0735 22.7648C26.286 22.7523 28.0485 24.5273 28.0485 26.7398ZM26.636 26.7148C26.636 25.2898 25.4985 24.1648 24.086 24.1648C22.6485 24.1648 21.486 25.3273 21.4985 26.7398C21.511 28.1398 22.6735 29.2898 24.0735 29.3023C25.486 29.3148 26.6485 28.1398 26.636 26.7148Z" fill="#FF8343"/><path d="M32.3626 37.1522C33.4126 35.6522 34.4251 34.2022 35.4376 32.7647C35.5376 32.6272 35.6251 32.4772 35.7376 32.3522C35.9876 32.0772 36.3001 32.0147 36.6251 32.2147C36.9751 32.4272 37.0251 32.7522 36.8876 33.1147C36.8501 33.2272 36.7626 33.3272 36.6876 33.4272C35.5251 35.0897 34.3626 36.7397 33.2001 38.4022C32.7251 39.0897 32.3501 39.1147 31.7751 38.5397C30.9251 37.6897 30.0751 36.8397 29.2251 36.0022C28.7501 35.5272 28.6876 35.1272 29.0251 34.8022C29.3626 34.4772 29.7501 34.5522 30.2376 35.0397C30.9376 35.7272 31.6251 36.4147 32.3626 37.1522Z" fill="#FF8343"/></svg>