<svg xmlns="http://www.w3.org/2000/svg" width="54" height="54" viewBox="0 0 54 54" fill="none"><path d="M0 18.7201C0 9.89529 0 5.4829 2.74155 2.74155C5.48311 0.000210822 9.89508 0 18.7201 0H35.2801C44.1047 0 48.5169 0 51.2587 2.74155C54 5.4829 54 9.89508 54 18.7201V35.2801C54 44.1047 54 48.5169 51.2584 51.2587C48.5169 54 44.1049 54 35.2799 54H18.7203C9.8955 54 5.48311 54 2.74177 51.2584C0.000421844 48.5169 0 44.1049 0 35.2799V18.7201Z" fill="#4945FF"/><path d="M37.2582 16.3799H19.0781V25.65H28.3482V34.9198H37.6181V16.74C37.6181 16.541 37.4569 16.3799 37.2582 16.3799Z" fill="white"/><path d="M27.9883 25.6499H28.3484V26.01H27.9883V25.6499Z" fill="white"/><path d="M19.0783 25.65H27.9883C28.1872 25.65 28.3483 25.8111 28.3483 26.0098V34.9198H19.4383C19.3911 34.9198 19.3443 34.9106 19.3006 34.8925C19.2569 34.8744 19.2172 34.8479 19.1837 34.8145C19.1503 34.7811 19.1238 34.7414 19.1057 34.6977C19.0876 34.654 19.0783 34.6072 19.0783 34.56V25.65ZM28.3483 34.9198H37.6182L28.6555 43.8825C28.5422 43.996 28.3483 43.9157 28.3483 43.7556V34.9198ZM19.0783 25.65H10.2427C10.0824 25.65 10.0023 25.4559 10.1155 25.3426L19.0783 16.3799V25.65Z" fill="#9593FF"/></svg>