<svg xmlns="http://www.w3.org/2000/svg" width="45" height="50" viewBox="0 0 45 50" fill="none"><path d="M25.9261 46.4256C25.9261 47.0518 25.941 47.6034 25.9261 48.1551C25.9112 49.2285 25.1657 49.9739 24.0923 49.9888C22.9443 50.0037 21.7815 50.0037 20.6335 49.9888C19.5302 49.9739 18.7997 49.2136 18.7848 48.1103C18.7848 47.5736 18.7848 47.0369 18.7848 46.4256C18.2183 46.4256 17.6816 46.4256 17.1598 46.4256C15.9522 46.4107 15.2067 45.6951 15.2067 44.4726C15.2067 41.7145 15.1918 38.9713 15.2067 36.2132C15.2067 35.8256 15.0874 35.6317 14.7595 35.4379C9.12396 32.1878 6.36585 25.956 7.33492 20.082C8.40835 13.4774 13.1791 8.60226 19.5452 7.39466C27.9238 5.79943 36.0789 11.5393 37.361 19.918C38.3301 26.2542 35.4676 32.2176 29.9216 35.4677C29.5936 35.6616 29.5191 35.8703 29.5191 36.2281C29.534 38.9415 29.534 41.6549 29.5191 44.3682C29.5191 45.7398 28.8333 46.4256 27.4617 46.4406C26.9697 46.4256 26.4777 46.4256 25.9261 46.4256ZM27.7151 37.4804C27.7151 36.8841 27.7598 36.3474 27.7002 35.8106C27.5959 34.9161 27.9835 34.439 28.7587 34.0365C33.7084 31.4275 36.5262 25.6876 35.5869 20.2609C34.275 12.6574 27.4617 7.85683 19.8582 9.15389C12.8064 10.3615 7.812 17.4878 9.09415 24.4949C9.89922 28.893 12.2995 32.1431 16.2503 34.2452C16.7572 34.5136 16.9958 34.8714 16.9659 35.4379C16.9361 36.1237 16.9659 36.7946 16.9659 37.4655C18.5015 37.4655 19.9626 37.4655 21.4386 37.4655C21.4386 36.1983 21.4535 34.9608 21.4236 33.7383C21.4236 33.5296 21.2746 33.2911 21.1255 33.1271C20.4397 32.4115 19.7241 31.7257 19.0383 31.025C18.755 30.7417 18.6059 30.3541 18.8593 30.0112C19.0532 29.7726 19.3961 29.549 19.6942 29.5192C19.9328 29.4894 20.231 29.7279 20.4397 29.9217C21.0658 30.5181 21.6622 31.1442 22.3182 31.8002C22.9891 31.1144 23.6003 30.4882 24.2265 29.877C24.7036 29.3999 25.2105 29.3552 25.5981 29.7428C26.0155 30.1304 25.9708 30.6522 25.4788 31.1591C24.8228 31.8151 24.1519 32.4711 23.5109 33.142C23.3916 33.2613 23.2276 33.4402 23.2276 33.5892C23.2127 34.8863 23.2127 36.1834 23.2127 37.4953C24.7483 37.4804 26.1944 37.4804 27.7151 37.4804ZM16.9958 41.0287C20.5888 41.0287 24.137 41.0287 27.6853 41.0287C27.6853 40.4323 27.6853 39.8807 27.6853 39.3142C24.1072 39.3142 20.5738 39.3142 16.9958 39.3142C16.9958 39.8956 16.9958 40.4473 16.9958 41.0287ZM17.0107 44.6068C20.6037 44.6068 24.137 44.6068 27.6704 44.6068C27.6704 44.0104 27.6704 43.4439 27.6704 42.8923C24.0923 42.8923 20.5589 42.8923 17.0107 42.8923C17.0107 43.4588 17.0107 44.0104 17.0107 44.6068ZM24.0923 48.1998C24.0923 47.6183 24.0923 47.0369 24.0923 46.4704C22.9145 46.4704 21.7516 46.4704 20.6037 46.4704C20.6037 47.0667 20.6037 47.6332 20.6037 48.1998C21.7815 48.1998 22.9145 48.1998 24.0923 48.1998Z" fill="#FF8343"/><path d="M10.6749 9.80993C10.496 10.0186 10.3618 10.3615 10.1083 10.451C9.83997 10.5554 9.3778 10.5554 9.19889 10.3914C8.24474 9.51175 7.3204 8.60232 6.44078 7.64816C6.1277 7.30526 6.20225 6.87291 6.53024 6.54492C6.87314 6.18711 7.3204 6.11257 7.6782 6.45547C8.61745 7.34999 9.52688 8.27433 10.4363 9.19867C10.5407 9.31794 10.5705 9.54157 10.6749 9.80993Z" fill="#FF8343"/><path d="M38.509 7.0518C38.4047 7.32016 38.3748 7.54379 38.2556 7.66306C37.3461 8.5874 36.4516 9.52664 35.4974 10.4063C35.1396 10.7342 34.6924 10.6597 34.3495 10.3168C34.0066 9.959 33.9618 9.51174 34.3047 9.16884C35.1695 8.25941 36.064 7.34997 36.9883 6.50018C37.1821 6.32127 37.6443 6.29146 37.8978 6.38091C38.1512 6.48527 38.3152 6.82817 38.509 7.0518Z" fill="#FF8343"/><path d="M10.7043 34.9012C10.5105 35.2143 10.4061 35.4827 10.2272 35.6765C9.46685 36.4666 8.69159 37.2419 7.90143 38.0022C7.42435 38.4644 6.91746 38.4942 6.52984 38.0917C6.15712 37.7041 6.18693 37.2121 6.63419 36.7648C7.42435 35.9746 8.21451 35.1845 9.00468 34.3943C9.30285 34.0962 9.67556 33.9322 10.0632 34.1707C10.3017 34.3347 10.4657 34.6329 10.7043 34.9012Z" fill="#FF8343"/><path d="M23.2428 2.68357C23.2428 3.26501 23.2577 3.83154 23.2428 4.41297C23.2279 4.97951 22.8552 5.35223 22.3483 5.35223C21.8414 5.35223 21.4687 4.97951 21.4687 4.39807C21.4538 3.2501 21.4538 2.08722 21.4687 0.939249C21.4687 0.372718 21.8563 0 22.3632 0C22.8701 0 23.2279 0.372719 23.2428 0.954158C23.2577 1.5356 23.2428 2.10213 23.2428 2.68357Z" fill="#FF8343"/><path d="M2.62394 23.2128C2.07232 23.2128 1.50578 23.2277 0.954161 23.2128C0.372721 23.1979 0 22.8401 0 22.3332C0 21.8263 0.372725 21.4387 0.939256 21.4387C2.08723 21.4238 3.2501 21.4238 4.39807 21.4387C4.97951 21.4387 5.35223 21.8114 5.35223 22.3183C5.35223 22.8401 4.96461 23.1979 4.36826 23.2277C4.35335 23.2277 4.33844 23.2277 4.30862 23.2277C3.74209 23.2128 3.17556 23.2128 2.62394 23.2128Z" fill="#FF8343"/><path d="M42.0725 21.4238C42.6242 21.4238 43.1907 21.4089 43.7423 21.4238C44.3088 21.4387 44.6965 21.7965 44.6965 22.3034C44.6965 22.8103 44.3237 23.183 43.7572 23.1979C42.6092 23.2128 41.4464 23.2128 40.2984 23.1979C39.7319 23.1979 39.3442 22.8252 39.3442 22.3183C39.3442 21.8114 39.717 21.4387 40.2835 21.4238C40.8798 21.4089 41.4762 21.4238 42.0725 21.4238Z" fill="#FF8343"/><path d="M37.5846 38.4644C37.2715 38.2706 37.0032 38.1811 36.8094 37.9873C36.0192 37.227 35.244 36.4517 34.4687 35.6616C34.0214 35.2143 34.0065 34.7223 34.3792 34.3347C34.752 33.9471 35.2589 33.9471 35.7061 34.3943C36.5261 35.1845 37.3461 35.9746 38.0915 36.8095C38.2853 37.0332 38.3599 37.5102 38.2853 37.8084C38.2257 38.0619 37.853 38.2408 37.5846 38.4644Z" fill="#FF8343"/></svg>