<svg xmlns="http://www.w3.org/2000/svg" width="54" height="54" viewBox="0 0 54 54" fill="none"><path d="M0 0H54V54H0V0Z" fill="#F03E2F"/><path d="M16.6306 13.9907C16.6306 18.6305 19.547 21.3917 25.3862 22.8471L31.5734 24.2566C37.0996 25.5037 40.4644 28.6011 40.4644 33.6467C40.5053 35.8508 39.7767 38.0002 38.404 39.7251C38.404 34.6909 35.7533 31.971 29.3594 30.335L23.2844 28.9778C18.4193 27.8873 14.6647 25.3413 14.6647 19.8603C14.6408 17.7383 15.3334 15.6703 16.6306 13.9907Z" fill="white"/><path d="M34.6003 32.4114C37.2395 34.0702 38.3963 36.3901 38.3963 39.7196C36.2122 42.4685 32.3744 44.0113 27.8642 44.0113C20.2717 44.0113 14.9582 40.3401 13.7773 33.9601H21.0686C22.0073 36.8892 24.493 38.2464 27.8106 38.2464C31.8606 38.2464 34.553 36.1235 34.6062 32.3996M20.4189 20.8693C19.2183 20.1708 18.2296 19.1597 17.5582 17.9436C16.8912 16.7363 16.5697 15.3687 16.6288 13.9907C18.7365 11.2645 22.4026 9.60022 26.8719 9.60022C34.6062 9.60022 39.081 13.6135 40.1855 19.2628H33.1714C32.3981 17.0353 30.4617 15.3014 26.931 15.3014C23.1586 15.3014 20.5843 17.4589 20.4366 20.8693" fill="#F9B1AB"/></svg>