<svg xmlns="http://www.w3.org/2000/svg" width="59" height="56" viewBox="0 0 59 56" fill="none"><path d="M19.6687 0.000858229H37.1272L19.004 53.6981C18.8179 54.2501 18.4633 54.7297 17.9901 55.0694C17.517 55.4092 16.9492 55.5919 16.3667 55.5918H2.78005C2.33878 55.5918 1.90385 55.4867 1.51122 55.2853C1.11859 55.0839 0.779521 54.792 0.522046 54.4336C0.264467 54.0753 0.0960075 53.6608 0.0306346 53.2243C-0.0347384 52.7879 0.0048582 52.3422 0.146141 51.9242L17.0314 1.89411C17.2177 1.34225 17.5723 0.8627 18.0454 0.522929C18.5185 0.183158 19.0862 0.000270162 19.6687 0V0.000858229Z" fill="url(#paint0_linear_8017_7393)"/><path d="M45.0384 36.0173H17.3535C17.0961 36.0168 16.8445 36.0939 16.6315 36.2386C16.4186 36.3832 16.2541 36.5887 16.1596 36.8281C16.0652 37.0676 16.0451 37.33 16.102 37.5811C16.1589 37.8322 16.2901 38.0603 16.4785 38.2357L34.2681 54.8401C34.7863 55.3229 35.4681 55.5915 36.1763 55.5919H51.8526L45.0384 36.0173Z" fill="#0078D4"/><path d="M19.6683 0.000756938C19.0794 -0.00172485 18.5051 0.184281 18.0295 0.531571C17.5539 0.87886 17.2019 1.36921 17.0249 1.93091L0.166716 51.8786C0.0163204 52.2982 -0.0308359 52.7478 0.0292332 53.1895C0.0893023 53.6312 0.254831 54.0519 0.511825 54.4161C0.768819 54.7803 1.10972 55.0772 1.50572 55.2819C1.90171 55.4865 2.34115 55.5928 2.78689 55.5917H16.7245C17.2436 55.499 17.7288 55.2702 18.1305 54.9286C18.5322 54.587 18.836 54.1449 19.0109 53.6474L22.3725 43.7396L34.3813 54.9399C34.8844 55.3561 35.5156 55.5863 36.1686 55.5917H51.7866L44.9367 36.0172L24.9687 36.0219L37.1899 0.000756938H19.6683Z" fill="url(#paint1_linear_8017_7393)"/><path d="M41.9697 1.89141C41.7836 1.3404 41.4293 0.861622 40.9569 0.522463C40.4844 0.183303 39.9174 0.000833897 39.3358 0.000732422H19.8789C20.4604 0.000923635 21.0273 0.183435 21.4997 0.522588C21.9721 0.861741 22.3263 1.34047 22.5124 1.89141L39.398 51.9236C39.5394 52.3418 39.5791 52.7876 39.5139 53.2241C39.4487 53.6607 39.2804 54.0754 39.0231 54.434C38.7657 54.7926 38.4266 55.0847 38.0338 55.2862C37.6411 55.4877 37.206 55.5927 36.7646 55.5925H56.2223C56.6636 55.5922 57.0984 55.4869 57.4909 55.2853C57.8834 55.0837 58.2223 54.7916 58.4795 54.4331C58.7368 54.0747 58.9051 53.6601 58.9704 53.2237C59.0358 52.7874 58.9963 52.3417 58.8554 51.9236L41.9697 1.89141Z" fill="url(#paint2_linear_8017_7393)"/><defs><linearGradient id="paint0_linear_8017_7393" x1="26.0321" y1="4.12036" x2="7.9011" y2="57.6829" gradientUnits="userSpaceOnUse"><stop stop-color="#114A8B"/><stop offset="1" stop-color="#0669BC"/></linearGradient><linearGradient id="paint1_linear_8017_7393" x1="31.6951" y1="29.0819" x2="27.5013" y2="30.4996" gradientUnits="userSpaceOnUse"><stop stop-opacity="0.3"/><stop offset="0.071" stop-opacity="0.2"/><stop offset="0.321" stop-opacity="0.1"/><stop offset="0.623" stop-opacity="0.05"/><stop offset="1" stop-opacity="0"/></linearGradient><linearGradient id="paint2_linear_8017_7393" x1="29.3911" y1="2.55783" x2="49.2934" y2="55.5809" gradientUnits="userSpaceOnUse"><stop stop-color="#3CCBF4"/><stop offset="1" stop-color="#2892DF"/></linearGradient></defs></svg>