<svg xmlns="http://www.w3.org/2000/svg" width="60" height="57" viewBox="0 0 60 57" fill="none"><path d="M50.7754 14.7447V30.1624C50.7754 33.9934 47.6732 37.0956 43.8422 37.0956H6.93327C3.10222 37.0956 0 33.9934 0 30.1624V14.7447C0 10.923 3.10222 7.8208 6.93327 7.8208H43.8422C47.6732 7.8208 50.7754 10.923 50.7754 14.7447Z" fill="#5B52C5"/><path d="M54.5137 18.4825V33.9002C54.5137 37.7312 51.4115 40.8334 47.5804 40.8334H10.6715C6.8405 40.8334 3.73828 37.7312 3.73828 33.9002V18.4825C3.73828 14.6608 6.8405 11.5586 10.6715 11.5586H47.5804C51.4115 11.5586 54.5137 14.6608 54.5137 18.4825Z" fill="#8F90FB"/><path d="M16.9104 18.6042H19.181L24.5538 33.4238H22.358L20.8536 28.9854H14.9949L13.3877 33.4238H11.332L16.9104 18.6042ZM20.2089 27.3502L17.9569 20.8L15.5649 27.3502H20.2089ZM32.1038 22.9491C32.4308 23.1547 32.7953 23.5004 33.2064 24.005V18.5481H34.9537V33.4144H33.3185V31.9101C32.898 32.5735 32.3935 33.0594 31.8141 33.349C31.2348 33.648 30.5714 33.7882 29.8239 33.7882C28.6185 33.7882 27.5813 33.2836 26.6936 32.2745C25.8153 31.2653 25.3761 29.9198 25.3761 28.2378C25.3761 26.6681 25.7779 25.3038 26.5815 24.1452C27.3851 22.9959 28.5344 22.4165 30.0294 22.4165C30.8517 22.4259 31.5432 22.6034 32.1038 22.9491ZM28.0298 31.0504C28.525 31.826 29.3099 32.2184 30.3938 32.2184C31.2348 32.2184 31.9263 31.854 32.4682 31.1345C33.0102 30.415 33.2811 29.3778 33.2811 28.0229C33.2811 26.6587 33.0008 25.6496 32.4402 24.9955C31.8795 24.3414 31.1974 24.0143 30.3752 24.0143C29.4594 24.0143 28.7213 24.3601 28.1513 25.0609C27.5813 25.7617 27.301 26.7895 27.301 28.1444C27.2916 29.3031 27.5346 30.2748 28.0298 31.0504ZM38.71 30.0319C38.7661 30.6393 38.9156 31.0971 39.1679 31.4242C39.6257 32.0128 40.42 32.3025 41.5506 32.3025C42.2234 32.3025 42.8121 32.153 43.326 31.8633C43.8399 31.5737 44.0922 31.1158 44.0922 30.5084C44.0922 30.0412 43.8866 29.6955 43.4755 29.4526C43.2138 29.3031 42.6999 29.1349 41.9244 28.9387L40.4854 28.5742C39.5603 28.35 38.8876 28.0883 38.4484 27.808C37.6728 27.3128 37.2804 26.64 37.2804 25.771C37.2804 24.7525 37.6448 23.9209 38.383 23.2855C39.1212 22.6501 40.1116 22.3418 41.3544 22.3418C42.9802 22.3418 44.1576 22.8183 44.8771 23.7714C45.3256 24.3788 45.5499 25.0328 45.5312 25.7243H43.8119C43.7745 25.3132 43.6343 24.9394 43.382 24.603C42.9616 24.1265 42.2421 23.8835 41.2142 23.8835C40.5321 23.8835 40.0088 24.0143 39.6538 24.276C39.2987 24.5376 39.1212 24.8833 39.1212 25.3132C39.1212 25.7804 39.3548 26.1635 39.8126 26.4438C40.0836 26.612 40.476 26.7615 40.9993 26.883L42.1954 27.1726C43.5035 27.4903 44.3725 27.7987 44.821 28.0883C45.5312 28.5555 45.8769 29.2844 45.8769 30.2748C45.8769 31.2373 45.5125 32.0689 44.7836 32.7697C44.0548 33.4705 42.9429 33.8162 41.4478 33.8162C39.8407 33.8162 38.7007 33.4518 38.0373 32.723C37.3645 31.9941 37.0094 31.0878 36.9627 30.0132H38.71V30.0319Z" fill="white"/><path d="M52.283 42.5247L50.7786 43.7113L55.7403 49.9812C56.4037 50.8221 56.2635 52.0369 55.4226 52.7003L51.3486 55.924C50.5076 56.5874 49.2929 56.4472 48.6295 55.6063L43.6678 49.3364L42.5278 50.2335C41.3318 51.1772 39.5751 50.4297 39.435 48.916L38.3604 37.5443C38.2296 36.1614 39.5751 35.1055 40.8833 35.5447L51.7037 39.2075C53.152 39.7028 53.4697 41.5902 52.283 42.5247Z" fill="#26C666"/><path d="M54.9353 39.8801L53.4309 41.0668L58.3926 47.3366C59.056 48.1776 58.9159 49.3923 58.0749 50.0558L54.0009 53.2794C53.16 53.9429 51.9452 53.8027 51.2818 52.9618L46.3201 46.6919L45.1802 47.5889C43.9841 48.5327 42.2275 47.7852 42.0873 46.2714L41.0127 34.8998C40.8819 33.5168 42.2275 32.461 43.5356 32.9001L54.356 36.563C55.795 37.0582 56.122 38.9364 54.9353 39.8801Z" fill="#54E28E"/><path d="M49.908 20.1831C55.4814 20.1831 59.9995 15.665 59.9995 10.0915C59.9995 4.51814 55.4814 0 49.908 0C44.3345 0 39.8164 4.51814 39.8164 10.0915C39.8164 15.665 44.3345 20.1831 49.908 20.1831Z" fill="#FBE063"/><path d="M49.9053 16.7352C53.5745 16.7352 56.5489 13.7608 56.5489 10.0916C56.5489 6.42244 53.5745 3.448 49.9053 3.448C46.2362 3.448 43.2617 6.42244 43.2617 10.0916C43.2617 13.7608 46.2362 16.7352 49.9053 16.7352Z" fill="#F9A41A"/><path d="M48.1571 6.91463C48.5216 6.52218 49.0261 6.31661 49.6709 6.31661V5.67188H50.1287V6.30727C50.7735 6.35399 51.2687 6.54087 51.6144 6.87725C51.9602 7.21364 52.1377 7.65281 52.1564 8.20411H51.3061C51.2892 7.98026 51.2221 7.76309 51.1099 7.56871C50.9043 7.24167 50.5772 7.07348 50.1381 7.05479V9.40949C50.8856 9.6244 51.3995 9.82062 51.6705 9.99816C52.1097 10.3065 52.3246 10.755 52.3246 11.3437C52.3246 12.2033 52.0443 12.8201 51.4836 13.1751C51.1753 13.3714 50.7268 13.5115 50.1381 13.5769V14.5207H49.6802V13.5769C48.7365 13.5115 48.1011 13.1845 47.7647 12.5771C47.5778 12.2501 47.4844 11.8109 47.4844 11.2503H48.344C48.3721 11.6894 48.4375 12.0165 48.5496 12.222C48.7458 12.5865 49.1196 12.792 49.6615 12.8387V10.1944C48.9607 10.0636 48.4468 9.83931 48.1104 9.53096C47.774 9.2226 47.6058 8.79278 47.6058 8.24148C47.6152 7.74625 47.7927 7.30708 48.1571 6.91463ZM48.8112 8.93294C49.0261 9.11048 49.3065 9.24129 49.6709 9.31604V7.0361C49.2504 7.05479 48.942 7.18561 48.7645 7.42855C48.587 7.6715 48.4935 7.92378 48.4935 8.19476C48.4935 8.50311 48.5963 8.7554 48.8112 8.93294ZM51.278 12.2594C51.3902 12.0632 51.4462 11.8389 51.4462 11.5866C51.4462 11.1849 51.2967 10.8765 50.9977 10.6616C50.8295 10.5401 50.5399 10.4186 50.1381 10.3159V12.8668C50.6894 12.8387 51.0725 12.6425 51.278 12.2594Z" fill="#FBE063"/><path d="M15.5767 55.2699C20.7579 55.2699 24.9581 51.0697 24.9581 45.8885C24.9581 40.7073 20.7579 36.5071 15.5767 36.5071C10.3955 36.5071 6.19531 40.7073 6.19531 45.8885C6.19531 51.0697 10.3955 55.2699 15.5767 55.2699Z" fill="#FBE063"/><path d="M15.5748 52.065C18.986 52.065 21.7512 49.2997 21.7512 45.8886C21.7512 42.4774 18.986 39.7122 15.5748 39.7122C12.1637 39.7122 9.39844 42.4774 9.39844 45.8886C9.39844 49.2997 12.1637 52.065 15.5748 52.065Z" fill="#F9A41A"/><path d="M13.9533 42.9358C14.2897 42.5713 14.7569 42.3845 15.3643 42.3751V41.7771H15.7941V42.3658C16.3921 42.4125 16.85 42.5807 17.177 42.8984C17.5041 43.2161 17.6629 43.6179 17.6816 44.1318H16.8874C16.8687 43.9075 16.8033 43.702 16.7005 43.5431C16.5136 43.2348 16.2052 43.0759 15.7941 43.0666V45.2624C16.4949 45.4586 16.9621 45.6455 17.2144 45.8137C17.6162 46.094 17.8218 46.5145 17.8218 47.0658C17.8218 47.8694 17.5601 48.4394 17.0369 48.7758C16.7472 48.9627 16.3267 49.0841 15.7848 49.1495V50.0279H15.3549V49.1495C14.4766 49.0935 13.8879 48.7851 13.5702 48.2151C13.402 47.9068 13.3086 47.4956 13.3086 46.9817H14.1122C14.1402 47.3929 14.2056 47.6919 14.3084 47.8881C14.4953 48.2245 14.841 48.4207 15.3456 48.4581V46.0006C14.6915 45.8791 14.215 45.6736 13.9066 45.3839C13.5983 45.0942 13.4394 44.6924 13.4394 44.1785C13.4581 43.7113 13.6169 43.3002 13.9533 42.9358ZM14.5607 44.8139C14.7569 44.9821 15.0279 45.1036 15.3549 45.169V43.0479C14.9625 43.0666 14.6822 43.1787 14.514 43.4123C14.3458 43.6366 14.2617 43.8702 14.2617 44.1224C14.271 44.4121 14.3645 44.6457 14.5607 44.8139ZM16.8593 47.9068C16.9621 47.7292 17.0088 47.5143 17.0088 47.2807C17.0088 46.907 16.8687 46.6173 16.5977 46.4211C16.4388 46.3089 16.1679 46.1968 15.7941 46.094V48.4674C16.308 48.4487 16.6631 48.2619 16.8593 47.9068Z" fill="#FBE063"/></svg>