<svg xmlns="http://www.w3.org/2000/svg" width="48" height="47" viewBox="0 0 48 47" fill="none"><path d="M47.055 7.96608C46.6872 9.3515 46.3071 10.7369 45.9516 12.1223C44.934 16.0579 43.9409 19.9934 42.9233 23.929C42.3103 26.2952 40.4835 27.6929 38.0314 27.6929C35.8368 27.6929 33.6545 27.6929 31.4599 27.6929C31.1902 27.6929 31.0431 27.7174 30.9327 28.0362C30.4546 29.5197 29.1795 30.4392 27.6102 30.4515C24.0057 30.4637 20.4134 30.4515 16.8089 30.4637C16.5514 30.4637 16.2571 30.5373 16.0365 30.6721C14.5284 31.5058 13.0204 32.3641 11.5124 33.2223C11.2059 33.3939 10.973 33.6146 11.022 33.9824C11.071 34.387 11.3408 34.5954 11.7576 34.5954C12.3216 34.5954 12.8856 34.5954 13.4618 34.5954C22.9881 34.5954 32.5266 34.5954 42.0528 34.5954C43.3524 34.5954 44.2842 35.4537 44.2964 36.6429C44.3087 37.7341 43.4627 38.6536 42.3716 38.7272C42.249 38.7394 42.1264 38.7272 42.0038 38.7272C31.9626 38.7272 21.9337 38.7272 11.8925 38.7272C9.50173 38.7272 7.60138 37.305 7.0374 35.0981C6.51021 33.0629 7.35617 30.9174 9.18296 29.8262C10.4703 29.0538 11.7821 28.3304 13.094 27.6071C13.3637 27.46 13.4373 27.3251 13.3637 26.9941C11.635 20.2754 9.91858 13.5568 8.18988 6.8504C7.7485 5.1217 6.46118 4.14088 4.68343 4.12861C3.9846 4.12861 3.2735 4.09183 2.57466 4.14087C1.28733 4.21444 0.41685 3.71176 0 2.48573C0 2.21601 0 1.93402 0 1.6643C0.41685 0.438266 1.28733 -0.0766667 2.57466 0.0091554C3.37158 0.0581966 4.1685 0.00915615 4.96542 0.0214164C8.2757 0.0827179 11.1201 2.22827 12.0886 5.39142C12.2603 5.94314 12.3952 6.50711 12.5545 7.08335C12.7752 7.08335 12.9714 7.08335 13.1676 7.08335C24.1405 7.08335 35.1012 7.08335 46.0742 7.07108C46.5033 7.07108 46.8589 7.14465 47.0918 7.53697C47.055 7.65958 47.055 7.8067 47.055 7.96608ZM8.76611 4.60677C9.03584 5.28108 9.35461 5.8941 9.52625 6.55615C11.304 13.4464 13.0695 20.3367 14.835 27.227C15.0189 27.9258 14.933 28.0975 14.3078 28.453C12.8856 29.2622 11.4511 30.0591 10.0412 30.8806C8.93775 31.5181 8.31248 32.4744 8.26343 33.7495C8.17761 35.7847 9.74693 37.3295 11.8925 37.3295C21.8846 37.3295 31.8768 37.3295 41.8689 37.3295C42.58 37.3295 42.911 37.1211 42.9233 36.6552C42.9356 36.177 42.5923 35.9441 41.8566 35.9441C31.8645 35.9441 21.8724 35.9441 11.8802 35.9441C10.7645 35.9441 9.96762 35.3801 9.71015 34.3993C9.45269 33.443 9.86953 32.548 10.8381 31.9963C12.4319 31.089 14.0258 30.1817 15.6319 29.2867C15.8893 29.1519 16.2081 29.066 16.5024 29.066C18.2433 29.0415 19.9965 29.0538 21.7375 29.0538C23.6869 29.0538 25.624 29.0538 27.5734 29.0538C28.542 29.0538 29.3021 28.5143 29.535 27.6806C29.3634 27.6806 29.1918 27.6806 29.0324 27.6806C25.0968 27.6806 21.1613 27.6806 17.2134 27.6806C16.4656 27.6806 16.3307 27.5703 16.1468 26.8347C14.3691 19.9076 12.5913 12.9928 10.8258 6.06574C10.6052 5.19526 10.2373 4.4106 9.67337 3.71176C9.33008 4.05505 9.02358 4.36156 8.76611 4.60677ZM25.6731 19.8708C25.5872 18.1789 25.5014 16.5238 25.4156 14.8441C25.1949 14.8441 25.0355 14.8441 24.8639 14.8441C24.1283 14.8441 23.3926 14.8564 22.657 14.8441C22.2157 14.8319 21.9459 14.5621 21.9337 14.1821C21.9214 13.7775 22.2034 13.4955 22.6693 13.4832C22.8409 13.471 23.0003 13.4832 23.172 13.4832C23.8831 13.4832 24.5942 13.4832 25.342 13.4832C25.2562 11.7668 25.1581 10.1116 25.0723 8.4565C23.2333 8.4565 21.4678 8.4565 19.6655 8.4565C20.254 12.2817 20.8425 16.0824 21.4187 19.8831C22.8532 19.8708 24.2263 19.8708 25.6731 19.8708ZM19.0525 13.4464C18.795 11.7423 18.5376 10.0871 18.2801 8.43198C16.4533 8.43198 14.6756 8.43198 12.861 8.43198C13.2902 10.1239 13.7193 11.779 14.1484 13.4464C15.779 13.4464 17.3851 13.4464 19.0525 13.4464ZM31.6316 13.4587C31.7174 11.7668 31.8032 10.1239 31.889 8.4565C30.05 8.4565 28.2722 8.4565 26.47 8.4565C26.5558 10.1484 26.6416 11.8036 26.7397 13.4587C28.3826 13.4587 29.9764 13.4587 31.6316 13.4587ZM38.6812 8.4565C36.8544 8.4565 35.0644 8.4565 33.2744 8.4565C33.1886 10.1362 33.1028 11.779 33.017 13.4342C34.6721 13.4342 36.2782 13.4342 37.9088 13.4342C38.1786 11.7668 38.4238 10.1239 38.6812 8.4565ZM40.0789 8.43198C39.8214 10.1239 39.564 11.779 39.3188 13.4342C40.9862 13.4342 42.58 13.4342 44.1984 13.4342C44.6275 11.7668 45.0443 10.1116 45.4734 8.43198C43.6589 8.43198 41.8934 8.43198 40.0789 8.43198ZM15.7913 19.8708C17.2257 19.8708 18.6234 19.8708 20.0456 19.8708C19.7881 18.1912 19.5307 16.536 19.2732 14.8686C17.6793 14.8686 16.11 14.8686 14.5162 14.8686C14.9453 16.5483 15.3621 18.2034 15.7913 19.8708ZM31.558 14.8686C29.9519 14.8686 28.3948 14.8686 26.801 14.8686C26.8868 16.5483 26.9727 18.2034 27.0585 19.8586C28.5052 19.8586 29.8906 19.8586 31.3005 19.8586C31.3864 18.1912 31.4722 16.5483 31.558 14.8686ZM32.9434 14.8564C32.8576 16.536 32.7718 18.2034 32.686 19.8586C34.1449 19.8586 35.5303 19.8586 36.928 19.8586C37.1855 18.1789 37.4429 16.536 37.6881 14.8564C36.082 14.8564 34.5373 14.8564 32.9434 14.8564ZM42.5432 19.8708C42.9723 18.1912 43.4014 16.536 43.8305 14.8686C42.2367 14.8686 40.6797 14.8686 39.0981 14.8686C38.8406 16.5483 38.5832 18.1912 38.3257 19.8708C39.7479 19.8708 41.121 19.8708 42.5432 19.8708ZM16.1591 21.293C16.6004 22.9849 17.0173 24.6401 17.4464 26.2952C18.6479 26.2952 19.8249 26.2952 21.0387 26.2952C20.7812 24.6156 20.5237 22.9604 20.2663 21.293C18.8931 21.293 17.5445 21.293 16.1591 21.293ZM27.132 21.2808C27.2179 22.9849 27.3037 24.6401 27.3895 26.283C28.6155 26.283 29.7803 26.283 30.9695 26.283C31.0553 24.6033 31.1411 22.9482 31.227 21.2808C29.8416 21.2808 28.5174 21.2808 27.132 21.2808ZM26.0041 26.2952C25.9183 24.6033 25.8324 22.9482 25.7466 21.293C24.3735 21.293 23.0248 21.293 21.6517 21.293C21.9091 22.9727 22.1666 24.6278 22.4241 26.2952C23.6256 26.2952 24.7903 26.2952 26.0041 26.2952ZM36.7073 21.293C35.3219 21.293 33.9733 21.293 32.6246 21.293C32.5388 22.9727 32.453 24.6156 32.3672 26.283C33.5687 26.283 34.7457 26.283 35.9472 26.283C36.1924 24.6278 36.4499 22.9727 36.7073 21.293ZM38.105 21.2808C37.8475 22.9604 37.5901 24.6156 37.3449 26.2707C39.049 26.5159 40.5693 25.9029 41.1946 24.542C41.6605 23.5244 41.8934 22.3965 42.2367 21.2685C40.8023 21.2808 39.4904 21.2808 38.105 21.2808ZM8.64351 2.69416C8.55769 2.6206 8.49638 2.57156 8.43508 2.53478C8.34926 2.47347 8.26344 2.41217 8.17762 2.35087C6.22823 1.02676 4.02138 1.35779 1.86357 1.39457C1.5448 1.39457 1.34863 1.71334 1.36089 2.05662C1.37315 2.39991 1.56932 2.6206 1.90035 2.70642C2.04747 2.7432 2.20685 2.73094 2.35398 2.73094C3.34706 2.7432 4.3524 2.65738 5.33323 2.79224C6.15467 2.90258 6.93933 3.28265 7.78529 3.55238C8.00597 3.33169 8.31248 3.02519 8.64351 2.69416Z" fill="#FF8343"/><path d="M15.3238 46.966C15.0296 46.868 14.7353 46.7944 14.4533 46.6718C12.8963 46.0097 12.0748 44.3056 12.4794 42.6627C12.884 41.0688 14.4288 39.9654 16.0962 40.088C17.7513 40.2106 19.1 41.547 19.2593 43.2021C19.4187 44.845 18.3398 46.4021 16.7215 46.8434C16.5866 46.8802 16.464 46.917 16.3291 46.966C16.0104 46.966 15.6671 46.966 15.3238 46.966ZM13.7667 43.5209C13.7667 44.6611 14.6985 45.5929 15.8387 45.5929C16.9544 45.5929 17.8862 44.6734 17.8985 43.5577C17.9107 42.4175 16.9912 41.4734 15.851 41.4612C14.7108 41.4489 13.7667 42.3807 13.7667 43.5209Z" fill="#FF8343"/><path d="M38.9625 46.966C38.6682 46.868 38.374 46.7944 38.092 46.6718C36.5349 46.0097 35.7135 44.3056 36.1181 42.6627C36.5227 41.0688 38.0675 39.9654 39.7349 40.088C41.39 40.2106 42.7386 41.547 42.898 43.2021C43.0574 44.845 41.9785 46.4021 40.3601 46.8434C40.2253 46.8802 40.1027 46.917 39.9678 46.966C39.6368 46.966 39.3058 46.966 38.9625 46.966ZM39.4651 41.4612C38.3249 41.4612 37.3932 42.4052 37.4054 43.5332C37.4177 44.6489 38.3372 45.5684 39.4529 45.5806C40.5931 45.5929 41.5371 44.6611 41.5371 43.5209C41.5371 42.393 40.6053 41.4612 39.4651 41.4612Z" fill="#FF8343"/><path d="M16.5259 43.5333C16.5259 43.9134 16.1826 44.2321 15.8025 44.2076C15.4347 44.1954 15.1405 43.8766 15.1527 43.5088C15.1527 43.1287 15.496 42.8099 15.8761 42.8345C16.2316 42.859 16.5259 43.1655 16.5259 43.5333Z" fill="#FF8343"/><path d="M40.1509 43.5333C40.1386 43.9134 39.8076 44.2199 39.4275 44.2076C39.0597 44.1831 38.7655 43.8766 38.7777 43.5088C38.79 43.1287 39.121 42.8222 39.5011 42.8345C39.8689 42.859 40.1631 43.1778 40.1509 43.5333Z" fill="#FF8343"/></svg>