<svg xmlns="http://www.w3.org/2000/svg" width="62" height="50" viewBox="0 0 62 50" fill="none"><path d="M41.2311 13.7909L46.6205 8.38969L46.9797 6.11542C37.1588 -2.83434 21.5471 -1.81953 12.6937 8.2329C10.2348 11.0249 8.41037 14.5057 7.4375 18.1001L9.36773 17.8276L20.1463 16.046L20.9784 15.1933C25.773 9.91615 33.8798 9.2062 39.4157 13.6962L41.2311 13.7909Z" fill="#EA4335"/><path d="M54.3001 17.9412C53.0614 13.3694 50.518 9.25938 46.982 6.11548L39.418 13.6961C40.9943 14.987 42.2576 16.6198 43.1126 18.4714C43.9675 20.3229 44.3918 22.3448 44.3535 24.3847V25.7303C48.0711 25.7303 51.0856 28.7509 51.0856 32.4769C51.0856 36.2031 48.0713 39.148 44.3535 39.148H30.8707L29.5469 40.5883V48.6805L30.8707 49.9502H44.3533C54.0238 50.0257 61.9247 42.306 62 32.6143C62.0225 29.722 61.3314 26.869 59.988 24.309C58.6446 21.7491 56.6907 19.5616 54.3001 17.9412Z" fill="#4285F4"/><path d="M17.4067 49.9505H30.8706V39.1481H17.4067C16.4536 39.1477 15.5119 38.9409 14.646 38.5417L12.7359 39.1291L7.30869 44.5303L6.83594 46.3687C9.87951 48.6718 13.593 49.967 17.4067 49.9505Z" fill="#34A853"/><path d="M17.4061 14.9092C7.73555 14.9667 -0.0573229 22.8706 0.000317706 32.5626C0.0161986 35.2333 0.640149 37.8652 1.82463 40.2577C3.00911 42.6502 4.72287 44.7402 6.83533 46.3684L14.6454 38.5417C11.2572 37.0072 9.75127 33.0111 11.2821 29.6155C12.813 26.2199 16.8006 24.7106 20.1886 26.2446C21.6816 26.9207 22.8773 28.1192 23.5518 29.6155L31.3619 21.7883C29.7227 19.6407 27.6099 17.9022 25.1889 16.7088C22.7678 15.5155 20.1041 14.8994 17.4061 14.9092Z" fill="#FBBC05"/></svg>