<svg xmlns="http://www.w3.org/2000/svg" width="45" height="45" viewBox="0 0 45 45" fill="none"><path d="M36.7641 0.0158691C37.1759 0.0950648 37.5878 0.190099 37.9996 0.261376C38.3322 0.316812 38.5856 0.467285 38.6885 0.791987C38.7915 1.13253 38.6568 1.41763 38.4114 1.66314C36.9938 3.08074 35.5842 4.50626 34.1508 5.90802C33.9132 6.13769 33.8736 6.32776 33.9766 6.62871C34.325 7.61865 34.6418 8.62444 34.9982 9.61438C35.0536 9.77277 35.2278 9.95492 35.3862 10.0104C36.3919 10.3667 37.4135 10.6835 38.4193 11.032C38.6885 11.127 38.8628 11.0953 39.0687 10.8894C40.4545 9.47975 41.8562 8.09383 43.2579 6.69206C43.5272 6.4228 43.7885 6.17729 44.2162 6.31984C44.6359 6.45448 44.7151 6.80294 44.7864 7.17516C45.6733 11.7843 43.2659 15.6174 39.6863 17.2251C38.0867 17.9458 36.4078 18.1754 34.6735 17.8903C34.3884 17.8428 34.1904 17.8824 33.9766 18.0962C32.7808 19.3158 31.5612 20.5196 30.3258 21.763C30.8247 22.2698 31.3157 22.7529 31.7988 23.236C32.4165 23.8538 32.4165 24.1626 31.8146 24.7803C31.5612 25.0417 31.3632 25.3189 31.4662 25.7149C31.6087 26.2534 32.1947 26.4989 32.6857 26.2217C32.7491 26.1821 32.8124 26.1425 32.8679 26.095C33.8578 25.303 33.8657 25.303 34.7527 26.19C37.5402 28.9777 40.3199 31.7575 43.1075 34.5373C44.0023 35.4242 44.6596 36.4538 44.8814 37.6972C45.6733 42.045 42.3789 44.999 39.0924 44.999C37.3185 44.999 35.8455 44.3892 34.6022 43.1537C31.7037 40.2552 28.8053 37.3645 25.9068 34.4581C25.3842 33.9354 25.3921 33.5948 25.891 33.0721C26.0098 32.9454 26.1365 32.8187 26.2236 32.6682C26.4295 32.3277 26.382 31.9792 26.1128 31.702C25.8356 31.4011 25.4713 31.3457 25.1149 31.5516C24.9407 31.6466 24.7982 31.805 24.6477 31.9476C24.1884 32.3673 23.8241 32.3752 23.3885 31.9476C22.8579 31.4249 22.3432 30.8863 21.67 30.2053C21.5513 30.4112 21.48 30.6012 21.3454 30.7359C20.2842 31.8129 19.223 32.8821 18.146 33.9354C17.9084 34.165 17.8451 34.3789 17.8846 34.7036C18.344 38.2832 17.1165 41.1739 14.2339 43.328C10.203 46.3453 4.11306 45.1653 1.4522 40.8887C-1.69175 35.8281 0.557323 29.4371 6.19583 27.4888C7.5421 27.0216 8.93589 26.9107 10.3455 27.1562C10.6227 27.2037 10.8286 27.1641 11.0424 26.9424C16.3246 21.6442 21.6146 16.3619 26.9047 11.0716C27.0947 10.8815 27.166 10.7152 27.1264 10.4222C26.3899 5.44077 29.5655 1.04541 34.5388 0.142582C34.7527 0.102984 34.9665 0.0713059 35.1803 0.031708C35.7109 0.0158689 36.2336 0.0158691 36.7641 0.0158691ZM36.3919 1.52851C34.9823 1.46515 33.7232 1.73441 32.559 2.34422C29.5101 3.95189 28.0055 7.11972 28.6786 10.5172C28.7736 11.0082 28.7103 11.3725 28.3381 11.7447C22.7946 17.2726 17.259 22.8084 11.7314 28.3521C11.375 28.7085 11.0187 28.756 10.5435 28.7005C9.68822 28.6055 8.8171 28.4867 7.97766 28.5897C3.66167 29.1282 0.747383 33.1988 1.54723 37.4596C2.12533 40.5086 4.46943 42.8528 7.55794 43.4705C10.4643 44.0486 13.5607 42.7578 15.2238 40.2314C16.38 38.4733 16.7443 36.5567 16.3166 34.4897C16.2295 34.07 16.2295 33.7057 16.5701 33.3572C22.161 27.7739 27.752 22.1907 33.3351 16.5994C33.6202 16.3143 33.9291 16.2272 34.325 16.2985C34.9269 16.4014 35.5446 16.5123 36.1544 16.5044C40.2565 16.4252 43.4955 13.099 43.4876 9.0125C43.4876 8.90954 43.4559 8.80659 43.4322 8.71155C43.3926 8.68779 43.353 8.67195 43.3134 8.6482C43.2183 8.77491 43.1391 8.92538 43.0283 9.03625C41.9117 10.1608 40.7871 11.2696 39.6784 12.3941C39.3379 12.7426 38.9895 12.8218 38.5301 12.6634C37.1918 12.1962 35.8455 11.7527 34.4992 11.3171C34.0716 11.1745 33.8182 10.9132 33.6836 10.4855C33.2559 9.15505 32.8124 7.81664 32.3531 6.49407C32.1868 6.0189 32.266 5.66252 32.6303 5.30614C33.7786 4.18156 34.911 3.03322 36.0514 1.89281C36.1464 1.79777 36.2415 1.69482 36.3919 1.52851ZM29.2488 22.8876C27.1343 25.0179 25.012 27.1483 22.9292 29.2311C23.2856 29.5954 23.6657 29.9835 24.0617 30.3953C24.1488 30.3399 24.2517 30.2686 24.3705 30.2053C25.2892 29.6905 26.4137 29.8568 27.1581 30.6012C27.8946 31.3377 28.0688 32.5098 27.5224 33.3889C27.3244 33.6978 27.3877 33.8482 27.6174 34.0779C30.2624 36.7072 32.8995 39.3523 35.5367 41.9896C35.6792 42.1321 35.8297 42.2667 35.9168 42.3459C38.0629 40.1997 40.1932 38.0694 42.276 35.9786C39.4329 33.1434 36.5424 30.2686 33.644 27.378C32.5749 28.059 31.4741 28.0115 30.6346 27.2117C29.7477 26.3722 29.6685 25.2951 30.3733 24.0597C29.9932 23.6637 29.6131 23.2677 29.2488 22.8876ZM37.4531 43.2171C38.9974 43.8586 41.0722 43.3359 42.2364 42.0846C43.5589 40.6749 43.7569 38.4416 43.1867 37.4833C41.2781 39.3919 39.3617 41.3085 37.4531 43.2171Z" fill="#FF8343"/><path d="M4.00087 0.0158389C5.6164 0.950347 7.21609 1.90861 8.85537 2.80353C9.44932 3.12823 9.8136 3.53212 9.88488 4.20529C10.0591 5.74168 10.8273 6.89002 11.9518 7.95124C14.5731 10.438 17.0835 13.0435 19.6414 15.5936C19.7523 15.7045 19.8869 15.7995 19.9898 15.8866C19.6018 16.2509 19.2613 16.5836 18.8812 16.9399C18.8495 16.9083 18.7307 16.8053 18.6198 16.6944C15.5709 13.6454 12.5141 10.5964 9.47307 7.5315C9.22758 7.286 9.04544 6.93754 8.94249 6.60492C8.72867 5.92383 8.58612 5.21899 8.40397 4.52999C8.3723 4.40328 8.30103 4.23697 8.19808 4.17361C6.77261 3.34206 5.33922 2.52634 3.94544 1.73438C3.19311 2.47882 2.47246 3.19158 1.72013 3.94394C2.51205 5.33779 3.32774 6.77123 4.15926 8.19675C4.23053 8.31554 4.40476 8.38682 4.5473 8.42642C5.09373 8.57689 5.64808 8.7432 6.20242 8.83823C6.8518 8.94911 7.3428 9.27381 7.80211 9.74106C10.7402 12.703 13.694 15.6491 16.64 18.5951C16.7509 18.706 16.8934 18.801 17.0439 18.9198C16.6321 19.2921 16.2757 19.6088 15.8006 20.0286C15.761 19.9573 15.6897 19.7831 15.5709 19.6564C12.6091 16.6786 9.63938 13.7088 6.66174 10.7468C6.46376 10.5568 6.18658 10.4063 5.92525 10.3271C5.21252 10.1133 4.47603 9.98657 3.76329 9.7569C3.47028 9.66187 3.15351 9.44012 3.00305 9.18669C2.0369 7.56318 1.11826 5.92383 0.183791 4.28448C-0.0933832 3.80139 -0.0617033 3.51629 0.310502 3.13615C1.24497 2.1858 2.18736 1.25129 3.13767 0.308863C3.25646 0.190069 3.41485 0.102954 3.54947 0C3.70786 0.0158391 3.85833 0.0158389 4.00087 0.0158389Z" fill="#FF8343"/><path d="M8.96968 40.5007C8.28071 40.5007 7.59173 40.4927 6.90276 40.5007C6.51472 40.5086 6.22962 40.3581 6.03164 40.0255C5.32683 38.8455 4.62202 37.6654 3.90928 36.4934C3.70338 36.1528 3.7113 35.8439 3.90928 35.5034C4.62202 34.3313 5.32683 33.1513 6.03164 31.9713C6.2217 31.6466 6.49096 31.504 6.86316 31.504C8.28071 31.5119 9.69826 31.5119 11.1237 31.504C11.4959 31.504 11.7573 31.6545 11.9473 31.9792C12.6521 33.1592 13.357 34.3392 14.0697 35.5113C14.2756 35.844 14.2677 36.1687 14.0618 36.5013C13.349 37.6734 12.6442 38.8534 11.9394 40.0334C11.7414 40.3739 11.4563 40.5086 11.0683 40.5086C10.3793 40.4927 9.6745 40.5007 8.96968 40.5007ZM8.99344 39.0039C9.50819 39.0039 10.0229 39.0197 10.5298 38.9959C10.6802 38.988 10.8861 38.8692 10.9653 38.7425C11.4801 37.9268 11.979 37.0952 12.4542 36.2558C12.5254 36.1291 12.5333 35.8835 12.4621 35.7568C11.9869 34.9174 11.488 34.0858 10.9733 33.2701C10.8941 33.1434 10.6882 33.0167 10.5377 33.0087C9.51611 32.985 8.48661 32.985 7.46502 33.0087C7.31456 33.0087 7.10074 33.1275 7.02155 33.2622C6.5068 34.0779 6.00788 34.9094 5.53273 35.7489C5.46146 35.8756 5.46146 36.1211 5.53273 36.2478C6.00788 37.0873 6.5068 37.9189 7.02155 38.7267C7.10866 38.8613 7.3304 38.9722 7.4967 38.988C7.99562 39.0276 8.49453 39.0039 8.99344 39.0039Z" fill="#FF8343"/><path d="M14.7392 31.1874C14.4382 30.9023 14.1056 30.5776 13.8047 30.2767C19.2927 24.7884 24.7729 19.3081 30.2688 13.8119C30.5381 14.1049 30.8548 14.4613 31.132 14.7781C25.7073 20.2188 20.2272 25.6992 14.7392 31.1874Z" fill="#FF8343"/><path d="M37.67 38.695C35.223 36.2478 32.7522 33.7769 30.2734 31.2981C30.614 30.9892 30.9703 30.6724 31.2871 30.3873C33.7025 32.7949 36.1812 35.2816 38.6837 37.7763C38.3748 38.0455 38.0264 38.3703 37.67 38.695Z" fill="#FF8343"/></svg>