<svg xmlns="http://www.w3.org/2000/svg" width="50" height="50" viewBox="0 0 50 50" fill="none"><g clip-path="url(#clip0_7716_7204)"><path d="M-1.58697e-06 34.9401C0.260415 34.4844 0.65104 34.3281 1.17187 34.3542C1.99219 34.3932 2.82552 34.3672 3.71094 34.3672C3.71094 34.1588 3.71094 33.9766 3.71094 33.8073C3.71094 30.8776 3.71094 27.9609 3.71094 25.0312C3.71094 24.224 3.95833 23.9766 4.7526 23.9766C6.21094 23.9766 7.68229 23.9766 9.14063 23.9766C9.92188 23.9766 10.1693 24.224 10.1693 25.0052C10.1693 27.9349 10.1693 30.8516 10.1693 33.7812C10.1693 33.9635 10.1693 34.1328 10.1693 34.3411C10.9115 34.3411 11.6146 34.3411 12.3958 34.3411C12.3958 34.1589 12.3958 33.9766 12.3958 33.7943C12.3958 27.6354 12.3958 21.4766 12.3958 15.3177C12.3958 14.4062 12.6172 14.1849 13.5026 14.1849C14.9219 14.1849 16.3281 14.1849 17.7474 14.1849C18.6198 14.1849 18.8411 14.4062 18.8411 15.2656C18.8411 21.4245 18.8411 27.5833 18.8411 33.7422C18.8411 33.9375 18.8411 34.1198 18.8411 34.3411C19.5964 34.3411 20.2995 34.3411 21.0677 34.3411C21.0677 34.1458 21.0677 33.9505 21.0677 33.7682C21.0677 29.25 21.0677 24.7318 21.0677 20.2135C21.0677 19.2891 21.2891 19.0807 22.2266 19.0677C23.6458 19.0677 25.0521 19.0677 26.4714 19.0677C27.2786 19.0677 27.526 19.3151 27.526 20.1094C27.526 23.4036 27.526 26.7109 27.526 30.0052C27.526 30.1745 27.526 30.3437 27.526 30.526C27.5651 30.5391 27.5911 30.5521 27.6302 30.5651C27.8255 30.2266 28.0339 29.888 28.2292 29.5365C28.737 28.651 29.4401 27.8177 29.7005 26.8542C29.9609 25.9167 29.7656 24.849 29.7656 23.8464C29.7656 19.3672 29.7656 14.875 29.7656 10.3958C29.7656 9.4974 29.974 9.28906 30.8854 9.28906C32.3307 9.28906 33.776 9.28906 35.2344 9.28906C35.9766 9.28906 36.224 9.53646 36.224 10.2917C36.224 13.0521 36.224 15.8125 36.224 18.5729C36.224 18.7552 36.224 18.9245 36.224 19.1328C37.0443 19.3802 37.474 20.0182 37.8646 20.7083C41.7318 27.401 45.599 34.0937 49.4662 40.7865C49.6484 41.112 49.8047 41.4505 49.974 41.776C49.974 42.1276 49.974 42.4922 49.974 42.8438C49.5052 44.1328 48.5547 44.6016 47.2005 44.5885C39.4271 44.5625 31.6536 44.5755 23.8672 44.5755C23.5417 44.5755 23.2161 44.5625 22.9036 44.4974C21.7578 44.237 20.9896 43.0651 21.237 41.9062C21.3151 41.5547 21.4714 41.2161 21.6146 40.8255C21.3932 40.8255 21.2109 40.8255 21.0156 40.8255C14.362 40.8255 7.70833 40.8255 1.05468 40.8385C0.533849 40.8385 0.182292 40.6953 -0.0390625 40.2266C3.72529e-09 38.4427 -1.58697e-06 36.6979 -1.58697e-06 34.9401ZM35.625 43.013C39.5312 43.013 43.4375 43.013 47.3438 43.013C47.526 43.013 47.7083 43.026 47.8776 42.987C48.3464 42.8958 48.5677 42.4661 48.3984 42.0234C48.3464 41.8932 48.2682 41.763 48.1901 41.6328C45.1042 36.3073 42.0312 30.9818 38.9453 25.6562C38.0859 24.1719 37.2266 22.6745 36.3542 21.1901C35.8984 20.4089 35.3386 20.4089 34.8698 21.2031C34.8568 21.2292 34.8438 21.2552 34.8177 21.2943C31.8099 26.4896 28.8021 31.6849 25.7943 36.8932C24.8437 38.5339 23.8932 40.1745 22.9427 41.8281C22.5651 42.4792 22.8646 42.987 23.6068 43.013C23.737 43.013 23.8672 43.013 23.9974 43.013C27.8776 43.013 31.7578 43.013 35.625 43.013ZM24.5313 35.9557C16.849 35.9557 9.23177 35.9557 1.61459 35.9557C1.61459 37.0625 1.61459 38.1432 1.61459 39.25C1.83594 39.25 2.00521 39.25 2.1875 39.25C4.34896 39.25 6.51042 39.25 8.6849 39.25C13.1771 39.25 17.6693 39.25 22.1615 39.237C22.3438 39.237 22.6302 39.1849 22.7083 39.0677C23.3333 38.0651 23.9063 37.0365 24.5313 35.9557ZM13.9974 15.7604C13.9974 21.9714 13.9974 28.1562 13.9974 34.3411C15.1042 34.3411 16.1849 34.3411 17.2786 34.3411C17.2786 28.1302 17.2786 21.9583 17.2786 15.7604C16.1719 15.7604 15.1042 15.7604 13.9974 15.7604ZM22.6823 34.3542C23.5547 34.3542 24.388 34.3542 25.2214 34.3542C25.3255 34.3542 25.4818 34.3151 25.5078 34.25C25.6901 33.8464 25.9635 33.4297 25.9766 33.013C26.0156 29.0677 26.0026 25.1224 26.0026 21.1641C26.0026 20.9948 25.9896 20.8255 25.9766 20.6432C24.8568 20.6432 23.7891 20.6432 22.6953 20.6432C22.6823 25.2135 22.6823 29.7578 22.6823 34.3542ZM31.3672 10.8646C31.3672 15.2786 31.3672 19.6406 31.3672 24.0937C31.4974 23.8724 31.5885 23.7422 31.6667 23.612C32.3047 22.5182 32.9297 21.4115 33.5807 20.3307C33.776 20.0052 34.0365 19.6927 34.349 19.4583C34.6094 19.263 34.6875 19.0937 34.6875 18.7812C34.6745 16.2943 34.6875 13.8073 34.6745 11.3333C34.6745 11.1771 34.6615 11.0208 34.6484 10.8516C33.5417 10.8646 32.474 10.8646 31.3672 10.8646ZM8.59375 25.5651C7.48698 25.5651 6.39323 25.5651 5.3125 25.5651C5.3125 28.5208 5.3125 31.4245 5.3125 34.3151C6.43229 34.3151 7.51302 34.3151 8.59375 34.3151C8.59375 31.3854 8.59375 28.4818 8.59375 25.5651Z" fill="#FF8343"/><path d="M24.1659 11.164C26.6268 8.50773 29.0748 5.87752 31.6138 3.14315C31.0409 3.14315 30.5852 3.14315 30.1295 3.14315C29.9211 3.14315 29.6998 3.14315 29.5044 3.09107C29.1008 2.97388 28.9315 2.6744 28.9706 2.27075C29.0097 1.89315 29.244 1.61971 29.6347 1.60669C30.9237 1.58065 32.1998 1.58065 33.4888 1.60669C33.9185 1.61971 34.1789 1.91919 34.1789 2.34888C34.192 3.58586 34.192 4.82283 34.1789 6.04679C34.1789 6.4895 33.8664 6.78898 33.4498 6.802C33.0201 6.81502 32.6685 6.52857 32.6425 6.07284C32.6164 5.552 32.6294 5.03117 32.6294 4.52336C32.5774 4.48429 32.5253 4.43221 32.4732 4.39315C32.3821 4.53638 32.317 4.69263 32.1998 4.82283C29.869 7.33586 27.5383 9.84888 25.2076 12.3619C24.5305 13.0911 24.3873 13.1041 23.5409 12.6223C21.093 11.2421 18.6451 9.8619 16.1972 8.48169C16.067 8.41659 15.9367 8.35148 15.7805 8.27336C15.3117 8.79419 14.869 9.302 14.4133 9.80982C12.1867 12.3098 9.9732 14.8228 7.74664 17.3228C7.6555 17.427 7.55133 17.5442 7.44716 17.6353C7.10862 17.8958 6.74404 17.9088 6.43154 17.6223C6.11904 17.3359 6.06695 16.9713 6.31435 16.6197C6.45758 16.4244 6.62685 16.2421 6.7831 16.0598C9.46539 13.039 12.1607 10.0051 14.843 6.98429C15.3638 6.39836 15.5982 6.3593 16.2623 6.7369C18.8925 8.19523 21.5097 9.66659 24.1659 11.164Z" fill="#FF8343"/><path d="M35.6115 25.8774C37.0438 25.8774 38.0984 27.0493 37.9422 28.4556C37.6557 31.0988 37.3823 33.742 37.0958 36.3853C37.0828 36.5155 37.0568 36.6457 37.0438 36.7759C36.9135 37.5441 36.3406 38.0519 35.6115 38.0519C34.8823 38.0389 34.2703 37.492 34.1922 36.7108C33.8927 34.0155 33.5932 31.3332 33.3198 28.6379C33.1505 27.0363 34.1271 25.8774 35.6115 25.8774ZM35.5854 35.0311C35.6115 35.0311 35.6375 35.0311 35.6505 35.0181C35.7026 34.6144 35.7417 34.2108 35.7938 33.8201C35.9891 31.9842 36.1974 30.1353 36.3927 28.2993C36.4448 27.8045 36.1453 27.466 35.6766 27.4399C35.1818 27.4139 34.8563 27.7264 34.8693 28.2472C34.8693 28.3644 34.8823 28.4686 34.8953 28.5858C35.1167 30.7342 35.3511 32.8826 35.5854 35.0311Z" fill="#FF8343"/><path d="M35.5996 42.0493C34.5839 42.0363 33.7636 41.1899 33.7897 40.1613C33.8027 39.1717 34.649 38.3514 35.6517 38.3644C36.6412 38.3774 37.4746 39.2238 37.4746 40.2134C37.4615 41.229 36.6152 42.0623 35.5996 42.0493ZM35.5865 40.604C35.7298 40.4217 35.873 40.3045 35.873 40.2134C35.86 40.1092 35.7167 39.979 35.6126 39.9399C35.5605 39.9269 35.3782 40.0832 35.3782 40.1743C35.3652 40.2785 35.4824 40.3957 35.5865 40.604Z" fill="#FF8343"/></g><defs><clipPath id="clip0_7716_7204"><rect width="50" height="50" fill="white"/></clipPath></defs></svg>