<svg xmlns="http://www.w3.org/2000/svg" width="50" height="50" viewBox="0 0 50 50" fill="none"><path d="M7.76001 31.3933C8.48917 31.0677 9.14022 30.7422 9.81731 30.4948C13.8668 28.9454 17.6558 29.4922 21.1064 32.0834C22.5126 33.1381 24.01 33.6719 25.7678 33.6198C27.2131 33.5677 28.6715 33.6849 30.1168 33.5938C32.6819 33.4375 34.7652 35.5469 34.1142 38.4375C34.5048 38.3073 34.8564 38.1771 35.2209 38.0599C38.1897 37.0052 41.1454 35.9245 44.1272 34.8829C46.3538 34.1016 48.6064 35.3907 49.1012 37.6823C49.4397 39.2448 48.6845 40.8334 47.2001 41.7188C44.0621 43.5938 40.7678 45.1172 37.3173 46.3151C34.3485 47.3438 31.3538 48.2422 28.2288 48.6719C24.5048 49.1797 20.859 48.7761 17.3303 47.5131C15.1558 46.7318 12.9944 45.9245 10.6897 45.586C9.7522 45.4558 8.78866 45.3776 7.81209 45.2735C7.79907 45.6771 7.79907 45.9636 7.76001 46.25C7.66886 47.0704 7.05689 47.6693 6.23658 47.6823C4.97356 47.7084 3.69751 47.7084 2.43449 47.6823C1.54908 47.6693 0.88501 47.0183 0.88501 46.1328C0.871989 40.8203 0.871989 35.5079 0.88501 30.1954C0.88501 29.2839 1.53605 28.6329 2.44751 28.6068C3.69751 28.5808 4.96053 28.5808 6.21053 28.6068C7.10897 28.6329 7.72095 29.2579 7.77303 30.1563C7.78605 30.5339 7.76001 30.9375 7.76001 31.3933ZM7.76001 43.9323C8.73657 44.0235 9.62199 44.0886 10.5074 44.2058C12.9032 44.5313 15.1819 45.2995 17.4345 46.1459C20.9892 47.461 24.6741 47.9688 28.4241 47.2657C30.9111 46.8099 33.372 46.1459 35.7808 45.4037C39.5699 44.2448 43.1506 42.5912 46.5491 40.5339C47.4605 39.987 47.9293 39.1927 47.8121 38.1381C47.6428 36.5495 46.1194 35.612 44.5829 36.1329C42.721 36.7709 40.885 37.448 39.023 38.112C36.8485 38.8933 34.6611 39.6224 32.5126 40.4688C31.484 40.8724 30.4683 41.0287 29.3746 41.0157C27.2392 40.9896 25.1038 41.0157 22.9814 41.0026C22.8251 41.0026 22.6558 41.0026 22.4996 40.9766C22.148 40.8985 21.9527 40.6901 21.9657 40.3256C21.9788 39.948 22.2001 39.7266 22.5647 39.6875C22.7079 39.6615 22.8512 39.6745 23.0074 39.6745C25.4553 39.6745 27.8902 39.6745 30.3381 39.6745C31.523 39.6745 32.5256 38.9714 32.8121 37.9818C33.2678 36.4323 32.148 34.948 30.4683 34.9219C28.8538 34.8959 27.2392 34.8698 25.6376 34.9219C23.6454 34.987 21.9006 34.4011 20.3512 33.1511C19.3355 32.3438 18.1897 31.7579 16.9527 31.3933C13.8538 30.4688 10.9762 31.1329 8.22876 32.6823C7.8772 32.8776 7.73397 33.099 7.73397 33.5157C7.76001 36.8099 7.74699 40.1042 7.74699 43.4115C7.76001 43.5677 7.76001 43.737 7.76001 43.9323ZM6.44491 38.112C6.44491 35.5599 6.43188 33.0079 6.45792 30.4688C6.45792 30.0521 6.34074 29.8959 5.89803 29.8959C4.84334 29.9219 3.78866 29.9219 2.72095 29.8959C2.27824 29.8829 2.16105 30.0651 2.17408 30.4688C2.1871 35.573 2.1871 40.6641 2.17408 45.7683C2.17408 46.1849 2.30428 46.3542 2.73397 46.3412C3.76262 46.3151 4.77824 46.3412 5.80688 46.3282C6.41886 46.3282 6.44491 46.3021 6.44491 45.7032C6.44491 43.1771 6.44491 40.6511 6.44491 38.112Z" fill="#FF8343"/><path d="M17.0695 23.2943C17.1476 22.7475 17.2648 21.9272 17.395 21.1068C17.5122 20.4037 17.2909 19.8308 16.7831 19.349C16.3404 18.9324 15.9107 18.5157 15.507 18.086C14.1789 16.6667 14.1659 15.5079 15.494 14.0756C15.8325 13.711 16.1841 13.3334 16.5747 13.0209C17.369 12.3568 17.5383 11.5365 17.343 10.573C17.2128 9.93497 17.1216 9.29694 17.0825 8.6459C17.0044 7.23965 17.6164 6.3933 18.9966 6.05476C19.7388 5.87247 20.494 5.7683 21.2492 5.66413C21.9654 5.55997 22.4862 5.22142 22.7987 4.55736C23.0982 3.94538 23.3976 3.3334 23.7362 2.73445C24.5956 1.22403 25.6893 0.885487 27.2648 1.58861C27.9029 1.87507 28.5148 2.21361 29.1398 2.52611C29.7258 2.82559 30.3247 2.83861 30.9237 2.53913C31.5226 2.23965 32.1086 1.92715 32.7075 1.6407C34.4003 0.846425 35.494 1.19799 36.4185 2.82559C36.731 3.38549 37.0174 3.97142 37.3039 4.55736C37.6164 5.19538 38.1242 5.53392 38.8143 5.63809C39.3872 5.72924 39.9732 5.80736 40.5461 5.91153C42.5773 6.27611 43.3065 7.31778 42.9549 9.37507C42.8508 9.98705 42.7596 10.599 42.6815 11.198C42.6034 11.7709 42.7857 12.2527 43.1893 12.6563C43.5669 13.0339 43.9706 13.3985 44.3351 13.7891C44.6346 14.1147 44.9341 14.4402 45.1685 14.8048C45.7154 15.6251 45.7414 16.5105 45.1685 17.3178C44.7518 17.9037 44.257 18.4636 43.7101 18.9324C42.8117 19.7006 42.4862 20.586 42.7857 21.7449C42.9289 22.3178 42.994 22.9298 43.02 23.5287C43.0982 24.9089 42.4862 25.7553 41.132 26.0808C40.3898 26.2631 39.6346 26.3673 38.8794 26.4714C38.1242 26.5756 37.5903 26.9532 37.2648 27.6433C37.0044 28.2032 36.731 28.7501 36.4315 29.2969C35.5201 30.9245 34.4133 31.2761 32.7336 30.4949C32.1867 30.2344 31.6529 29.961 31.132 29.6745C30.4159 29.2839 29.7128 29.2969 28.9966 29.6876C28.3846 30.0261 27.7596 30.3516 27.1216 30.6251C25.7284 31.224 24.6997 30.9115 23.9055 29.6225C23.5148 28.9975 23.1893 28.3074 22.8638 27.6433C22.5383 26.9792 22.0305 26.6016 21.2883 26.4975C20.5331 26.3933 19.7779 26.2761 19.0357 26.0938C17.6294 25.7683 17.0305 24.935 17.0695 23.2943ZM41.7049 8.75007C41.718 7.78653 41.5096 7.50007 40.7414 7.30476C40.3508 7.21361 39.9471 7.12247 39.5435 7.09642C37.7075 6.99226 36.4055 6.17195 35.7414 4.40111C35.5721 3.9584 35.3378 3.55476 35.0773 3.15111C34.6607 2.50007 34.3091 2.38288 33.593 2.68236C33.007 2.92976 32.4471 3.21622 31.8872 3.52872C30.6372 4.21882 29.4133 4.21882 28.1763 3.5157C27.6815 3.22924 27.1737 2.96882 26.6529 2.74747C25.7935 2.35684 25.3898 2.47403 24.9211 3.29434C24.5565 3.91934 24.244 4.5834 23.9055 5.23445C23.4107 6.17194 22.6424 6.73184 21.5878 6.90111C20.8325 7.03132 20.0773 7.12247 19.3351 7.29174C18.5539 7.46101 18.3065 7.82559 18.3846 8.61986C18.4367 9.1407 18.5148 9.64851 18.632 10.1563C18.9966 11.7058 18.619 13.0079 17.382 14.0495C16.9914 14.3881 16.6268 14.7657 16.2753 15.1563C15.6763 15.8334 15.6763 16.2761 16.2883 16.9532C16.731 17.448 17.2128 17.9167 17.6945 18.3725C18.5799 19.2318 18.9185 20.2475 18.6971 21.4714C18.5799 22.1225 18.4628 22.7865 18.3976 23.4376C18.3065 24.2579 18.5669 24.6225 19.3612 24.8178C19.7518 24.9089 20.1555 25.0001 20.5591 25.0261C22.4211 25.1173 23.7232 25.9766 24.3872 27.7475C24.5305 28.1381 24.7518 28.5157 24.9732 28.8673C25.4289 29.6094 25.8065 29.7397 26.6008 29.4011C27.2258 29.1277 27.8247 28.8022 28.4367 28.4897C29.5305 27.9298 30.6112 27.9298 31.7049 28.4897C32.2909 28.8022 32.8898 29.1016 33.4888 29.3881C34.2961 29.7527 34.6997 29.6355 35.1555 28.8673C35.468 28.3334 35.7414 27.7865 36.0018 27.2266C36.5878 25.9376 37.5904 25.2735 38.9836 25.1173C39.6216 25.0522 40.2726 24.935 40.8976 24.7787C41.5357 24.6225 41.744 24.336 41.7049 23.685C41.6659 23.073 41.5878 22.461 41.4575 21.862C41.119 20.3777 41.4966 19.1407 42.6555 18.1381C43.007 17.8256 43.3456 17.5001 43.6711 17.1485C44.4654 16.2891 44.4654 15.8464 43.6581 14.974C43.1763 14.4532 42.6424 13.9584 42.1476 13.4506C41.4966 12.7605 41.2492 11.9272 41.3794 10.9897C41.4836 10.1954 41.6138 9.38809 41.7049 8.75007Z" fill="#FF8343"/><path d="M39.3094 16.0676C39.3094 21.1588 35.1557 25.3124 30.0646 25.3254C24.9474 25.3385 20.7807 21.1588 20.7937 16.0416C20.8068 10.9374 24.9474 6.80981 30.0646 6.80981C35.1557 6.82284 39.2963 10.9635 39.3094 16.0676ZM30.0385 8.15096C25.6505 8.15096 22.0828 11.7187 22.0958 16.0806C22.1088 20.4556 25.6765 23.9973 30.0776 23.9843C34.4396 23.9713 37.9943 20.4296 37.9943 16.0806C37.9943 11.7056 34.4265 8.15096 30.0385 8.15096Z" fill="#FF8343"/><path d="M28.4505 15.6251C29.6874 14.3751 30.8593 13.2032 32.0312 12.0314C32.5781 11.4845 33.2421 11.2241 34.0234 11.3673C35.7031 11.6798 36.4453 13.672 35.2734 14.909C33.5286 16.7449 31.7187 18.5287 29.8958 20.2866C29.0885 21.0678 27.8385 21.0027 27.0182 20.2345C26.289 19.5444 25.5729 18.8282 24.8697 18.0991C24.0364 17.2267 24.0755 15.8985 24.9088 15.0652C25.7551 14.2319 27.0442 14.2189 27.9426 15.0392C28.1249 15.2084 28.2551 15.4037 28.4505 15.6251ZM28.4635 19.5574C28.7109 19.4272 28.9713 19.3491 29.1275 19.1928C30.8333 17.5131 32.513 15.8334 34.2057 14.1407C34.2577 14.0886 34.3229 14.0235 34.3619 13.9584C34.5833 13.5808 34.5702 13.2032 34.2447 12.8907C33.9322 12.5782 33.5546 12.5652 33.177 12.7996C33.0468 12.8907 32.9296 13.0079 32.8124 13.1251C31.5755 14.3621 30.3385 15.5991 29.0885 16.836C28.6588 17.2657 28.3593 17.2657 27.9166 16.8491C27.6562 16.6017 27.4088 16.3413 27.1484 16.0939C26.7187 15.6772 26.2109 15.6511 25.8463 15.9897C25.4817 16.3543 25.4947 16.836 25.9244 17.2788C26.5364 17.9038 27.1614 18.5287 27.7864 19.1277C27.9817 19.31 28.2291 19.4142 28.4635 19.5574Z" fill="#FF8343"/></svg>