<svg xmlns="http://www.w3.org/2000/svg" width="36" height="36" viewBox="0 0 36 36" fill="none"><path d="M11.71 15.6311L11.7861 15.635C12.1644 15.6734 12.46 15.9928 12.46 16.3811C12.46 16.7695 12.1644 17.0889 11.7861 17.1272L11.71 17.1311H11.6953C11.2811 17.1311 10.9453 16.7953 10.9453 16.3811C10.9453 15.9669 11.2811 15.6311 11.6953 15.6311H11.71ZM18.0176 15.6311L18.0938 15.635C18.472 15.6734 18.7676 15.9928 18.7676 16.3811C18.7676 16.7695 18.472 17.0889 18.0938 17.1272L18.0176 17.1311H18.0049C17.5907 17.1311 17.2549 16.7953 17.2549 16.3811C17.2549 15.9669 17.5907 15.6311 18.0049 15.6311H18.0176ZM24.3262 15.6311C24.7404 15.6311 25.0762 15.9669 25.0762 16.3811C25.0762 16.7953 24.7404 17.1311 24.3262 17.1311H24.3125C23.8983 17.1311 23.5625 16.7953 23.5625 16.3811C23.5625 15.9669 23.8983 15.6311 24.3125 15.6311H24.3262Z" stroke="#FF8343" stroke-width="1.5" stroke-linecap="round" stroke-linejoin="round"/><path d="M2.20312 16.3811C2.20312 15.1654 2.22365 13.9765 2.26628 12.8286C2.39733 9.0819 2.46364 7.20776 3.98727 5.6715C5.5109 4.13682 7.43872 4.05471 11.2912 3.88893C13.5236 3.79521 15.7577 3.74889 17.992 3.74999C20.3288 3.74999 22.5787 3.79736 24.6928 3.88893C28.5453 4.05471 30.4716 4.13682 31.9968 5.67308C33.5204 7.20776 33.5867 9.0819 33.7178 12.8286C33.8011 15.1962 33.8011 17.566 33.7178 19.9336C33.5867 23.6803 33.5204 25.5545 31.9968 27.0907C30.4732 28.6254 28.5453 28.7075 24.6928 28.8733C23.5329 28.9228 22.3356 28.9596 21.1009 28.9838C19.9325 29.0059 19.3467 29.0154 18.832 29.2128C18.3173 29.4101 17.8847 29.778 17.0194 30.5201L13.579 33.4726C13.4116 33.6161 13.2065 33.7085 12.9881 33.7389C12.7697 33.7694 12.5472 33.7365 12.3469 33.6443C12.1466 33.552 11.977 33.4043 11.8581 33.2185C11.7393 33.0328 11.6763 32.8168 11.6765 32.5963V28.8891L11.2912 28.8733C7.43872 28.7075 5.51248 28.6254 3.98727 27.0891C2.46364 25.5545 2.39733 23.6803 2.26628 19.9336C2.22441 18.7499 2.20335 17.5656 2.20312 16.3811Z" stroke="#FF8343" stroke-width="2" stroke-linecap="round" stroke-linejoin="round"/></svg>