<svg xmlns="http://www.w3.org/2000/svg" width="50" height="50" viewBox="0 0 50 50" fill="none"><path d="M3.72324 26.9365C3.78434 25.6044 3.84544 24.3213 3.89432 23.0503C4.1143 17.7709 4.32205 12.4794 4.54202 7.2C4.56646 6.57674 4.762 6.39343 5.38525 6.39343C6.4729 6.39343 7.54832 6.39343 8.63597 6.39343C9.34477 6.39343 9.52808 6.5523 9.55252 7.27333C9.66251 9.7908 9.76027 12.296 9.85804 14.8135C10.0169 18.7608 10.1758 22.7081 10.3347 26.6432C10.3347 26.7165 10.3469 26.7898 10.3713 26.912C10.8113 26.912 11.239 26.912 11.7156 26.912C11.8011 25.8366 11.8867 24.7856 11.9722 23.7224C12.1311 21.6083 12.29 19.4941 12.4488 17.3799C12.4855 16.891 12.7177 16.6711 13.2065 16.6588C14.2575 16.6466 15.3085 16.6466 16.3717 16.6588C16.9216 16.6588 17.1416 16.8666 17.1905 17.4288C17.3249 19.1763 17.4471 20.9239 17.5815 22.6715C17.6793 23.9791 17.7771 25.2867 17.8626 26.5943C17.8748 26.8754 17.9848 26.9487 18.2537 26.9609C18.7914 26.9854 19.2558 26.8876 19.7324 26.6065C23.7164 24.2601 27.7003 21.926 31.6965 19.5918C31.8676 19.4941 32.0387 19.3841 32.2342 19.3474C32.6497 19.2619 32.9674 19.5918 32.9674 20.1173C32.9797 21.2416 32.9674 22.3782 32.9674 23.5025C32.9674 24.5534 32.9674 25.6044 32.9674 26.7287C33.2119 26.5943 33.3952 26.4965 33.5663 26.3866C37.4525 24.1135 41.3264 21.8404 45.2126 19.5674C45.3104 19.5185 45.3959 19.4574 45.4937 19.4085C45.9703 19.2008 46.398 19.4452 46.4469 19.9707C46.4591 20.0929 46.4469 20.2151 46.4469 20.3373C46.4469 28.9162 46.4469 37.5074 46.4469 46.0864C46.4469 46.9418 46.2758 47.1129 45.4326 47.1129C31.2565 47.1129 17.0805 47.1129 2.91666 47.1129C2.07343 47.1129 1.90234 46.9541 1.90234 46.0986C1.90234 40.0493 1.90234 34.0001 1.90234 27.9386C1.90234 27.1076 2.06121 26.9609 2.89222 26.9609C3.14886 26.9365 3.4055 26.9365 3.72324 26.9365ZM45.1393 28.2563C31.1466 28.2563 17.1783 28.2563 3.22218 28.2563C3.22218 34.1223 3.22218 39.9516 3.22218 45.7809C17.2149 45.7809 31.1588 45.7809 45.1393 45.7809C45.1393 39.9394 45.1393 34.1223 45.1393 28.2563ZM5.80076 7.68883C5.54413 14.1169 5.27527 20.4962 5.01863 26.912C6.38735 26.912 7.70719 26.912 9.07592 26.912C8.81928 20.4839 8.55042 14.1047 8.29379 7.68883C7.46278 7.68883 6.66843 7.68883 5.80076 7.68883ZM31.6354 26.8998C31.6354 24.9567 31.6354 23.0503 31.6354 21.0828C28.3236 23.0259 25.0729 24.9323 21.6999 26.8998C25.1095 26.8998 28.3725 26.8998 31.6354 26.8998ZM45.1271 26.8998C45.1271 24.9567 45.1271 23.0503 45.1271 21.0828C41.8275 23.0136 38.5768 24.9201 35.3261 26.8265C35.3383 26.8509 35.3505 26.8754 35.3505 26.8998C38.6134 26.8998 41.8641 26.8998 45.1271 26.8998ZM13.6954 17.9542C13.4754 20.9605 13.2432 23.918 13.0232 26.912C14.2453 26.912 15.394 26.912 16.6161 26.912C16.3961 23.918 16.1639 20.9483 15.944 17.9542C15.1863 17.9542 14.4653 17.9542 13.6954 17.9542Z" fill="#FF8343"/><path d="M40.2524 7.1145C43.3198 7.17561 45.7395 8.11661 47.7559 10.0353C48.147 10.4141 48.1959 10.7685 47.9148 11.0618C47.6337 11.3551 47.2671 11.3184 46.8761 10.964C43.1243 7.54223 37.9305 7.54223 34.2032 10.9518C33.7877 11.3307 33.3599 11.3551 33.1033 11.0007C32.8589 10.6463 32.9811 10.3408 33.2744 10.0719C34.7653 8.6421 36.5251 7.71332 38.5537 7.32226C39.2137 7.20005 39.8858 7.15116 40.2524 7.1145Z" fill="#FF8343"/><path d="M46.1652 12.2471C46.1652 12.8581 45.6397 13.1636 45.212 12.9192C45.102 12.8581 45.0165 12.7726 44.9309 12.687C42.3768 10.3529 38.6861 10.3651 36.1198 12.6993C35.7287 13.0537 35.3499 13.1025 35.081 12.8215C34.7999 12.5404 34.8366 12.1738 35.191 11.8194C36.462 10.6095 37.9651 9.88848 39.7127 9.71739C42.0346 9.49742 44.0877 10.1696 45.8108 11.7583C45.9819 11.9171 46.0919 12.1371 46.1652 12.2471Z" fill="#FF8343"/><path d="M19.2937 3.76596C18.4016 3.77818 17.6683 3.47266 16.9595 3.05716C16.6173 2.86163 16.2752 2.64165 15.9208 2.495C15.102 2.15282 14.3076 2.21393 13.5988 2.7883C13.5621 2.81274 13.5255 2.8494 13.4888 2.87385C13.1344 3.10604 12.7678 3.06938 12.5478 2.77608C12.3279 2.48278 12.389 2.11616 12.7189 1.8473C13.7455 1.01629 14.9064 0.77188 16.1529 1.22405C16.6662 1.40736 17.1428 1.68844 17.6194 1.95729C18.6826 2.58055 19.7214 2.75164 20.7602 1.90841C21.0657 1.66399 21.3956 1.70066 21.6523 2.00617C21.8967 2.28725 21.8478 2.65387 21.5178 2.93495C20.8579 3.47266 20.1125 3.77818 19.2937 3.76596Z" fill="#FF8343"/><path d="M22.5802 11.2939C23.399 11.2939 24.1323 11.5628 24.8289 11.9661C25.2077 12.1861 25.5865 12.4183 26.002 12.5893C26.7964 12.9071 27.5541 12.8338 28.2507 12.296C28.3118 12.2472 28.3729 12.1983 28.434 12.1616C28.7517 11.9661 29.045 11.9905 29.3016 12.2716C29.5338 12.5282 29.4972 12.9193 29.2039 13.1637C28.1773 14.0314 27.0164 14.2758 25.7454 13.8481C25.2566 13.677 24.7922 13.4326 24.3522 13.1637C23.2524 12.5038 22.1892 12.2716 21.1015 13.1637C20.8082 13.4081 20.4049 13.3348 20.2094 13.0415C19.9772 12.7115 20.0383 12.406 20.3438 12.1494C20.9671 11.6117 21.7126 11.2939 22.5802 11.2939Z" fill="#FF8343"/><path d="M14.2826 5.78231C13.4027 5.79453 12.6694 5.50123 11.9606 5.08572C11.6429 4.90241 11.3374 4.70688 10.9952 4.56023C10.1275 4.16917 9.30872 4.20583 8.55104 4.81687C8.5266 4.84131 8.50215 4.85353 8.47771 4.86575C8.12331 5.11016 7.76891 5.08572 7.53671 4.80465C7.30452 4.51135 7.3534 4.13251 7.70781 3.85143C8.74657 3.02042 9.89531 2.80045 11.1418 3.25261C11.6062 3.4237 12.0584 3.66812 12.4861 3.92475C13.586 4.58467 14.6492 4.81687 15.7368 3.91253C16.0423 3.66812 16.3845 3.717 16.6167 4.03474C16.8489 4.35248 16.7878 4.68244 16.4945 4.92685C15.859 5.46457 15.1136 5.79453 14.2826 5.78231Z" fill="#FF8343"/><path d="M21.8465 16.06C21.0155 16.0355 20.2701 15.7422 19.5368 15.3145C19.1457 15.0823 18.7425 14.8624 18.3147 14.7035C17.5937 14.4346 16.9094 14.5446 16.2861 15.009C16.2494 15.0334 16.2128 15.0701 16.1761 15.0945C15.7728 15.3756 15.4062 15.3634 15.174 15.0457C14.9418 14.7279 15.0151 14.3735 15.4184 14.068C16.4083 13.2981 17.5082 13.0903 18.6936 13.4814C19.2313 13.6647 19.7446 13.958 20.2456 14.2391C21.3088 14.8501 22.3476 15.0334 23.3863 14.178C23.6796 13.9336 24.0218 13.9702 24.2785 14.2758C24.5229 14.5568 24.4618 14.9235 24.1318 15.1923C23.4841 15.7545 22.7264 16.0478 21.8465 16.06Z" fill="#FF8343"/><path d="M40.5452 12.1494C41.9628 12.1739 43.1971 12.6505 44.2359 13.6159C44.5903 13.9459 44.627 14.3247 44.3581 14.6058C44.0892 14.8869 43.7348 14.8869 43.3927 14.5569C41.7917 13.0293 39.2498 13.0537 37.6856 14.5691C37.3556 14.8869 36.9768 14.8746 36.7201 14.5936C36.4635 14.3125 36.5002 13.9459 36.8423 13.6281C37.8689 12.6505 39.1154 12.1739 40.5452 12.1494Z" fill="#FF8343"/><path d="M40.5197 18.2842C39.4931 18.272 38.6621 17.441 38.6621 16.4145C38.6621 15.3757 39.5176 14.5325 40.5563 14.5325C41.5829 14.5447 42.4139 15.3879 42.4139 16.4022C42.4139 17.4532 41.5584 18.2965 40.5197 18.2842ZM39.9453 16.3656C39.9453 16.72 40.2141 17.0011 40.5197 17.0011C40.8741 16.9888 41.0818 16.7933 41.1185 16.4389C41.1551 16.1089 40.8496 15.8034 40.5197 15.8279C40.1653 15.8523 39.9819 16.0601 39.9453 16.3656Z" fill="#FF8343"/><path d="M12.6819 39.2795C11.2888 39.2795 9.90782 39.2795 8.51465 39.2795C7.81807 39.2795 7.63477 39.0962 7.63477 38.4118C7.63477 36.2732 7.63477 34.1468 7.63477 32.0082C7.63477 31.3238 7.81807 31.1405 8.51465 31.1405C11.2765 31.1405 14.0384 31.1405 16.8003 31.1405C17.5213 31.1405 17.7046 31.3238 17.7046 32.0326C17.7046 34.1468 17.7046 36.2732 17.7046 38.3874C17.7046 39.0962 17.5213 39.2673 16.8003 39.2673C15.4316 39.2795 14.0507 39.2795 12.6819 39.2795ZM8.94238 37.9597C11.4354 37.9597 13.904 37.9597 16.397 37.9597C16.397 36.1143 16.397 34.2935 16.397 32.4481C13.904 32.4481 11.4354 32.4481 8.94238 32.4481C8.94238 34.2935 8.94238 36.1021 8.94238 37.9597Z" fill="#FF8343"/><path d="M26.3924 39.2795C25.0359 39.2795 23.6794 39.2795 22.3106 39.2795C21.5407 39.2795 21.3574 39.0962 21.3574 38.3507C21.3574 36.261 21.3574 34.1712 21.3574 32.0937C21.3574 31.3604 21.5407 31.1649 22.274 31.1649C25.0359 31.1649 27.7977 31.1649 30.5596 31.1649C31.2562 31.1649 31.4395 31.3482 31.4395 32.0326C31.4395 34.1712 31.4395 36.2976 31.4395 38.4363C31.4395 39.1206 31.2562 39.2917 30.5596 39.3039C29.1665 39.2795 27.7733 39.2795 26.3924 39.2795ZM22.665 32.4481C22.665 34.2934 22.665 36.1143 22.665 37.9474C25.1703 37.9474 27.6389 37.9474 30.1197 37.9474C30.1197 36.0899 30.1197 34.269 30.1197 32.4481C27.6267 32.4481 25.1581 32.4481 22.665 32.4481Z" fill="#FF8343"/><path d="M43.5132 32.9246C43.5132 33.2913 43.5254 33.6579 43.5132 34.0245C43.5009 34.44 43.281 34.6844 42.8532 34.6844C42.1078 34.6966 41.3623 34.6966 40.6046 34.6844C40.1769 34.6844 39.9447 34.4278 39.9447 34.0245C39.9325 33.2913 39.9325 32.558 39.9447 31.8248C39.9569 31.3848 40.1769 31.1404 40.6291 31.1282C41.3623 31.1038 42.0956 31.1038 42.8288 31.1282C43.2932 31.1404 43.5009 31.3848 43.5132 31.8614C43.5254 32.2158 43.5132 32.5702 43.5132 32.9246ZM42.2055 33.389C42.2055 33.0591 42.2055 32.7536 42.2055 32.448C41.8634 32.448 41.5578 32.448 41.2645 32.448C41.2645 32.7902 41.2645 33.0835 41.2645 33.389C41.5945 33.389 41.8878 33.389 42.2055 33.389Z" fill="#FF8343"/><path d="M43.5132 37.5197C43.5132 37.8741 43.5254 38.2163 43.5132 38.5707C43.5009 39.0229 43.2932 39.2673 42.8532 39.2795C42.1078 39.304 41.3623 39.304 40.6046 39.2795C40.1891 39.2673 39.9569 39.0229 39.9447 38.6074C39.9325 37.8741 39.9325 37.1409 39.9447 36.4076C39.9569 35.9555 40.1891 35.7355 40.6291 35.7233C41.3623 35.7111 42.0956 35.7111 42.8288 35.7233C43.281 35.7355 43.4887 35.9555 43.5009 36.4076C43.5254 36.7987 43.5132 37.1653 43.5132 37.5197ZM42.2055 37.0431C41.8634 37.0431 41.5701 37.0431 41.2523 37.0431C41.2523 37.3731 41.2523 37.6786 41.2523 37.9841C41.5823 37.9841 41.8756 37.9841 42.2055 37.9841C42.2055 37.6664 42.2055 37.3731 42.2055 37.0431Z" fill="#FF8343"/><path d="M38.6763 32.9246C38.6763 33.2913 38.6763 33.6579 38.6763 34.0245C38.6641 34.4522 38.4441 34.6844 38.0164 34.6844C37.2709 34.6966 36.5255 34.6966 35.7678 34.6844C35.3401 34.6844 35.1201 34.4278 35.1079 34.0245C35.0834 33.2913 35.0956 32.558 35.1079 31.8248C35.1201 31.3848 35.3523 31.1404 35.7922 31.1282C36.5255 31.1038 37.2587 31.1038 37.992 31.1282C38.4441 31.1404 38.6519 31.3726 38.6763 31.8248C38.6763 31.8492 38.6763 31.8859 38.6763 31.9103C38.6763 32.2525 38.6763 32.5825 38.6763 32.9246ZM36.4155 32.4236C36.4155 32.7658 36.4155 33.0591 36.4155 33.3646C36.7454 33.3646 37.051 33.3646 37.3687 33.3646C37.3687 33.0346 37.3687 32.7413 37.3687 32.4236C37.0387 32.4236 36.7454 32.4236 36.4155 32.4236Z" fill="#FF8343"/><path d="M38.6742 37.4951C38.6742 37.8618 38.6742 38.2284 38.6742 38.595C38.6742 39.0227 38.4542 39.2672 38.0387 39.2794C37.281 39.3038 36.5111 39.3038 35.7534 39.2794C35.3623 39.2672 35.1302 39.0227 35.1179 38.6317C35.0935 37.8862 35.0935 37.1407 35.1179 36.3953C35.1302 35.9553 35.3746 35.7354 35.8267 35.7354C36.5478 35.7231 37.2566 35.7231 37.9776 35.7354C38.4542 35.7476 38.662 35.9553 38.6742 36.4442C38.6742 36.7986 38.6742 37.153 38.6742 37.4951ZM36.4011 37.984C36.7311 37.984 37.0366 37.984 37.3543 37.984C37.3543 37.654 37.3543 37.3485 37.3543 37.043C37.0244 37.043 36.7189 37.043 36.4011 37.043C36.4011 37.3607 36.4011 37.654 36.4011 37.984Z" fill="#FF8343"/></svg>