<svg xmlns="http://www.w3.org/2000/svg" width="70" height="70" viewBox="0 0 70 70" fill="none"><path fill-rule="evenodd" clip-rule="evenodd" d="M40.9732 8.01184L55.3489 16.3122C55.7639 15.873 56.2402 15.4961 56.763 15.1932C59.7444 13.4791 63.5472 14.4968 65.279 17.4784C66.993 20.4599 65.9753 24.2625 62.9938 25.9943C62.4749 26.2931 61.9157 26.5158 61.3335 26.6554V43.2622C61.9094 43.4021 62.4624 43.6232 62.976 43.9189C65.9753 45.6507 66.993 49.4535 65.2612 52.4351C63.5472 55.4164 59.7266 56.4341 56.7451 54.7203C56.1675 54.3888 55.6472 53.9664 55.2041 53.4693L40.9158 61.7186C41.125 62.3522 41.2312 63.0153 41.2306 63.6825C41.2306 67.1103 38.4456 69.9135 34.9998 69.9135C31.554 69.9135 28.7691 67.1281 28.7691 63.6825C28.7691 63.07 28.8571 62.4784 29.0212 61.9196L14.6493 53.6217C14.2389 54.0522 13.7693 54.4221 13.2546 54.7203C10.2553 56.4341 6.45248 55.4164 4.73846 52.4351C3.02467 49.4535 4.04235 45.6507 7.02367 43.9189C7.53725 43.6231 8.09032 43.4019 8.66623 43.2619V26.6554C8.08397 26.5158 7.52481 26.2931 7.00592 25.9943C4.02436 24.2805 3.00669 20.4599 4.72071 17.4784C6.43474 14.4968 10.2551 13.4791 13.2367 15.1932C13.7566 15.4945 14.2306 15.869 14.6439 16.3051L29.0238 8.0026C28.8543 7.42727 28.7685 6.83052 28.7691 6.23073C28.7691 2.78542 31.554 0 34.9998 0C38.4456 0 41.2306 2.78517 41.2306 6.23073C41.2306 6.85003 41.1406 7.44771 40.9732 8.01184ZM39.4755 10.5693L53.8855 18.8891C53.6561 19.6912 53.5903 20.5312 53.692 21.3593C53.7938 22.1873 54.061 22.9864 54.4778 23.7091C55.355 25.235 56.7839 26.2466 58.3699 26.6408V43.2683C58.2889 43.288 58.2084 43.3094 58.1285 43.3324L39.308 10.7358C39.3649 10.6813 39.4207 10.6257 39.4755 10.5693ZM30.6956 10.7397L11.8753 43.3358C11.7939 43.3123 11.7121 43.2904 11.6298 43.2702V26.6411C13.2157 26.2468 14.6447 25.2352 15.5219 23.7093C15.9395 22.9853 16.207 22.1845 16.3084 21.3547C16.4097 20.525 16.3429 19.6834 16.1118 18.8801L30.5177 10.5627C30.5758 10.6228 30.6351 10.682 30.6956 10.7397ZM36.7409 12.216L55.5568 44.8049C55.1258 45.2161 54.7563 45.6874 54.4598 46.2041C54.1641 46.7177 53.943 47.2708 53.8031 47.8467H16.1971C16.057 47.2708 15.8357 46.7177 15.5398 46.2041C15.2424 45.6909 14.8737 45.2225 14.4446 44.8129L33.2642 12.2174C33.8284 12.3799 34.4127 12.4621 34.9998 12.4615C35.6043 12.4615 36.1884 12.3759 36.7409 12.216ZM39.6077 59.4849L53.9242 51.2191C53.8813 51.0841 53.8429 50.9478 53.8092 50.8103H16.189C16.1691 50.8911 16.1476 50.9715 16.1244 51.0514L30.5109 59.3578C31.0918 58.7537 31.789 58.2735 32.5605 57.9459C33.332 57.6183 34.1617 57.4502 34.9998 57.4518C35.8673 57.4502 36.7254 57.6303 37.519 57.9805C38.3127 58.3306 39.0241 58.8431 39.6077 59.4849Z" fill="#E535AB"/></svg>