<svg xmlns="http://www.w3.org/2000/svg" width="70" height="70" viewBox="0 0 70 70" fill="none"><path d="M57.5539 24.0461C56.809 23.7905 56.0577 23.5538 55.3008 23.3359C55.428 22.8164 55.545 22.3032 55.6489 21.799C57.3546 13.519 56.2395 6.84849 52.4308 4.65224C48.7791 2.54677 42.8069 4.7422 36.7754 9.99138C36.181 10.5096 35.5997 11.0428 35.0323 11.5904C34.6524 11.2263 34.2657 10.8692 33.8726 10.5194C27.5513 4.90681 21.2152 2.5413 17.4106 4.74384C13.7621 6.85587 12.6818 13.1266 14.2174 20.9737C14.3702 21.7509 14.5427 22.5241 14.7347 23.2925C13.8379 23.5473 12.9724 23.8186 12.1442 24.1073C4.73293 26.6913 0 30.7406 0 34.9409C0 39.279 5.08102 43.6302 12.8002 46.2686C13.426 46.4816 14.057 46.679 14.6926 46.8606C14.4863 47.6882 14.303 48.5214 14.143 49.3593C12.679 57.0702 13.8223 63.1927 17.4609 65.2914C21.219 67.4586 27.5267 65.2312 33.6684 59.8623C34.1663 59.4258 34.6534 58.9769 35.1291 58.5161C35.7436 59.1091 36.3746 59.6848 37.0212 60.2426C42.9707 65.3619 48.8463 67.4291 52.4814 65.3247C56.236 63.1512 57.4563 56.5739 55.872 48.5718C55.7472 47.9449 55.6073 47.3211 55.4523 46.7009C55.8953 46.5697 56.33 46.4346 56.7539 46.294C64.7787 43.6354 70 39.337 70 34.9409C70 30.7253 65.1142 26.6486 57.5539 24.0461ZM55.8135 43.4558C55.4303 43.5823 55.0384 43.7049 54.6377 43.8235C53.7518 41.0189 52.5563 38.0368 51.0932 34.9554C52.4893 31.9476 53.6389 29.0035 54.4999 26.2172C55.2161 26.4244 55.9109 26.6429 56.5808 26.8734C63.0585 29.1036 67.0097 32.4004 67.0097 34.9409C67.0097 37.6468 62.7424 41.1597 55.8135 43.4558ZM52.9386 49.1525C53.6391 52.6908 53.7389 55.8901 53.2749 58.3912C52.8582 60.6386 52.0198 62.1367 50.983 62.7369C48.7771 64.0139 44.0595 62.3541 38.9717 57.9758C38.3702 57.4572 37.7833 56.922 37.2116 56.3708C39.1841 54.2136 41.1553 51.7059 43.0793 48.9207C46.4633 48.6204 49.6604 48.1293 52.5596 47.4592C52.7027 48.0356 52.829 48.6 52.9386 49.1525ZM23.8645 62.5163C21.7093 63.2772 19.9927 63.2991 18.955 62.7008C16.747 61.4274 15.829 56.5113 17.0811 49.9171C17.2299 49.1379 17.4004 48.3629 17.5921 47.5931C20.4594 48.2275 23.6332 48.6836 27.0252 48.9587C28.9622 51.684 30.9903 54.189 33.0343 56.3825C32.5999 56.8028 32.1552 57.2123 31.7007 57.6108C28.9846 59.9848 26.2631 61.6692 23.8645 62.5163ZM13.7676 43.4391C10.3543 42.2723 7.53539 40.7561 5.60328 39.1015C3.86695 37.6149 2.99059 36.1386 2.99059 34.9409C2.99059 32.3919 6.79055 29.1408 13.1286 26.9311C13.8977 26.6631 14.7027 26.4102 15.5381 26.1729C16.4142 29.0221 17.5632 32.0012 18.9498 35.0136C17.5451 38.0707 16.3797 41.0974 15.4952 43.9802C14.915 43.814 14.3389 43.6335 13.7676 43.4391ZM17.1522 20.3992C15.8367 13.6762 16.7103 8.60478 18.909 7.33192C21.2507 5.97622 26.4291 7.90915 31.8872 12.7556C32.2431 13.0723 32.5933 13.3955 32.9375 13.7249C30.9036 15.9088 28.8941 18.3952 26.9743 21.1044C23.6821 21.4096 20.5308 21.8996 17.6334 22.5561C17.4549 21.8414 17.2944 21.122 17.1522 20.3992ZM47.3471 27.8556C46.6627 26.6735 45.953 25.5063 45.2184 24.3548C47.4518 24.6372 49.5917 25.0121 51.6012 25.4704C50.998 27.4042 50.2461 29.4257 49.3609 31.4983C48.714 30.2708 48.0426 29.0563 47.3471 27.8556ZM35.0336 15.8624C36.4129 17.3567 37.7943 19.0249 39.153 20.8351C36.3967 20.7049 33.6359 20.7044 30.8796 20.8334C32.2396 19.04 33.6328 17.3739 35.0336 15.8624ZM22.6412 27.8758C21.9544 29.0669 21.2955 30.2738 20.665 31.4956C19.7944 29.4303 19.0493 27.3995 18.4409 25.4384C20.4381 24.9916 22.5679 24.6263 24.7871 24.349C24.0443 25.5076 23.3288 26.6837 22.6412 27.8758ZM24.8508 45.7452C22.558 45.4893 20.3962 45.1429 18.3996 44.7081C19.0176 42.712 19.7791 40.638 20.6686 38.5284C21.3015 39.7511 21.9632 40.9588 22.6529 42.1504C23.3622 43.3754 24.0967 44.5752 24.8508 45.7452ZM35.1162 54.23C33.6987 52.701 32.285 51.0092 30.9045 49.1897C32.2448 49.2422 33.6112 49.269 35 49.269C36.4268 49.269 37.8372 49.237 39.2254 49.1752C37.8623 51.0275 36.4861 52.7217 35.1162 54.23ZM49.3891 38.4207C50.3248 40.5535 51.1134 42.6166 51.7396 44.5785C49.7101 45.0417 47.5188 45.4147 45.2099 45.6917C45.9498 44.5188 46.6662 43.3313 47.3588 42.1299C48.0631 40.9087 48.74 39.672 49.3891 38.4207ZM44.7686 40.6358C43.7081 42.4777 42.5882 44.2847 41.4105 46.054C39.277 46.2052 37.1388 46.2802 35 46.279C32.8215 46.279 30.7027 46.2112 28.6623 46.0788C27.4537 44.3138 26.3124 42.5036 25.2407 40.6522C24.174 38.8107 23.178 36.9292 22.2543 35.012C23.1757 33.0943 24.1689 31.212 25.232 29.3691L25.2317 29.3693C26.2942 27.5258 27.4264 25.7234 28.6259 23.9659C30.7076 23.8084 32.8423 23.7264 34.9997 23.7264C37.167 23.7264 39.3047 23.8093 41.3859 23.9679C42.5732 25.7227 43.6982 27.5189 44.7587 29.3532C45.8251 31.1922 46.8316 33.0653 47.7764 34.9696C46.8412 36.8934 45.838 38.7833 44.7686 40.6358ZM50.9373 7.24251C53.2812 8.59439 54.1928 14.0459 52.7201 21.1949C52.6257 21.6514 52.5209 22.1153 52.4057 22.5867C49.5012 21.9163 46.3477 21.4178 43.0459 21.108C41.1225 18.369 39.1295 15.8788 37.1287 13.723C37.6531 13.2176 38.1899 12.7252 38.7387 12.2464C43.9067 7.74919 48.7367 5.97349 50.9373 7.24251ZM35 28.6901C38.4521 28.6901 41.2508 31.4888 41.2508 34.9409C41.2508 38.3931 38.4521 41.1917 35 41.1917C31.5479 41.1917 28.7492 38.3931 28.7492 34.9409C28.7492 31.4888 31.5479 28.6901 35 28.6901Z" fill="#00D8FF"/></svg>