<svg xmlns="http://www.w3.org/2000/svg" width="62" height="62" viewBox="0 0 62 62" fill="none"><path d="M57.9996 52.4922C58.0053 53.549 57.7788 54.5949 57.3353 55.5606C56.8917 56.5263 56.2411 57.3896 55.4266 58.0935C54.6122 58.7974 53.6525 59.3257 52.6111 59.6435C51.5697 59.9612 50.4704 60.0611 49.3861 59.9365C45.439 59.3712 42.5467 56.047 42.643 52.1863V7.80084C42.5476 3.93612 45.4471 0.610005 49.3993 0.0508545C50.4825 -0.0719257 51.5804 0.0293054 52.6203 0.347852C53.6601 0.666398 54.6182 1.195 55.4312 1.89869C56.2442 2.60238 56.8936 3.46512 57.3363 4.42985C57.7791 5.39457 58.0052 6.43929 57.9996 7.4949V52.4922Z" fill="#F9AB00"/><path d="M9.67834 45.1372C13.919 45.1372 17.3567 48.4645 17.3567 52.5687C17.3567 56.6731 13.919 60.0003 9.67834 60.0003C5.43766 60.0003 2 56.6731 2 52.5689C2 48.4648 5.43766 45.1372 9.67834 45.1372ZM29.8817 22.613C25.6211 22.8391 22.3151 26.2982 22.4142 30.4271V50.3891C22.4142 55.8065 24.8771 59.0954 28.4856 59.7964C29.6043 60.0159 30.7596 59.9917 31.8674 59.7254C32.9753 59.4591 34.008 58.9575 34.8907 58.257C35.7734 57.5564 36.4839 56.6745 36.9707 55.6752C37.4575 54.6759 37.7083 53.5842 37.705 52.4794V30.0831C37.707 29.093 37.5051 28.1124 37.1113 27.1986C36.7175 26.2848 36.1397 25.456 35.4114 24.7607C34.6832 24.0653 33.8191 23.5173 32.8697 23.1486C31.9203 22.7799 30.9045 22.5977 29.8817 22.613Z" fill="#E37400"/></svg>