<svg xmlns="http://www.w3.org/2000/svg" width="70" height="70" viewBox="0 0 70 70" fill="none"><path d="M34.8539 2C18.0676 2 19.1157 9.27955 19.1157 9.27955L19.1343 16.8214H35.1532V19.0857H12.7719C12.7719 19.0857 2.03027 17.8674 2.03027 34.8047C2.03027 51.7425 11.4058 51.1418 11.4058 51.1418H17.0011V43.2821C17.0011 43.2821 16.6994 33.9065 26.2269 33.9065H42.1148C42.1148 33.9065 51.0411 34.0508 51.0411 25.2796V10.7769C51.0411 10.7769 52.3968 2 34.8539 2ZM26.0211 7.07174C26.3996 7.0714 26.7745 7.1457 27.1243 7.29041C27.4741 7.43511 27.7919 7.64737 28.0596 7.91503C28.3272 8.1827 28.5395 8.50052 28.6842 8.85031C28.8289 9.2001 28.9032 9.57499 28.9029 9.95353C28.9032 10.3321 28.8289 10.707 28.6842 11.0567C28.5395 11.4065 28.3272 11.7243 28.0596 11.992C27.7919 12.2597 27.4741 12.4719 27.1243 12.6166C26.7745 12.7613 26.3996 12.8357 26.0211 12.8353C25.6426 12.8357 25.2677 12.7613 24.9179 12.6166C24.5681 12.4719 24.2503 12.2597 23.9826 11.992C23.7149 11.7243 23.5027 11.4065 23.358 11.0567C23.2133 10.707 23.139 10.3321 23.1393 9.95353C23.139 9.57499 23.2133 9.2001 23.358 8.85031C23.5027 8.50052 23.7149 8.1827 23.9826 7.91503C24.2503 7.64737 24.5681 7.43511 24.9179 7.29041C25.2677 7.1457 25.6426 7.0714 26.0211 7.07174Z" fill="url(#paint0_linear_8936_10855)"/><path d="M35.3309 67.7799C52.1172 67.7799 51.0691 60.5003 51.0691 60.5003L51.0505 52.9587H35.0313V50.6945H57.4127C57.4127 50.6945 68.1543 51.9127 68.1543 34.9749C68.1543 18.0373 58.7787 18.638 58.7787 18.638H53.1835V26.4975C53.1835 26.4975 53.4851 35.8731 43.9576 35.8731H28.0697C28.0697 35.8731 19.1434 35.7288 19.1434 44.5003V59.0032C19.1434 59.0032 17.788 67.7799 35.3306 67.7799M44.1634 62.7086C43.7849 62.709 43.41 62.6347 43.0602 62.49C42.7104 62.3453 42.3926 62.133 42.125 61.8653C41.8573 61.5977 41.645 61.2798 41.5003 60.9301C41.3556 60.5803 41.2813 60.2054 41.2817 59.8268C41.2813 59.4483 41.3556 59.0734 41.5003 58.7235C41.6449 58.3737 41.8572 58.0559 42.1249 57.7882C42.3925 57.5205 42.7104 57.3082 43.0602 57.1635C43.41 57.0188 43.7849 56.9445 44.1634 56.9448C44.542 56.9445 44.9169 57.0188 45.2667 57.1635C45.6165 57.3082 45.9343 57.5204 46.2019 57.7881C46.4696 58.0558 46.6819 58.3736 46.8266 58.7234C46.9713 59.0732 47.0456 59.448 47.0452 59.8266C47.0456 60.2051 46.9713 60.58 46.8266 60.9298C46.6819 61.2796 46.4696 61.5974 46.2019 61.8651C45.9343 62.1327 45.6165 62.345 45.2667 62.4897C44.9169 62.6344 44.542 62.709 44.1634 62.7086Z" fill="url(#paint1_linear_8936_10855)"/><defs><linearGradient id="paint0_linear_8936_10855" x1="637.477" y1="593.65" x2="3914.37" y2="3837.85" gradientUnits="userSpaceOnUse"><stop stop-color="#387EB8"/><stop offset="1" stop-color="#366994"/></linearGradient><linearGradient id="paint1_linear_8936_10855" x1="957.063" y1="1029.98" x2="4476.06" y2="4356.6" gradientUnits="userSpaceOnUse"><stop stop-color="#FFE052"/><stop offset="1" stop-color="#FFC331"/></linearGradient></defs></svg>