<svg xmlns="http://www.w3.org/2000/svg" width="70" height="70" viewBox="0 0 70 70" fill="none"><path d="M39.7293 10.7466V21.4944L58.3434 32.2422V21.4944L39.7293 10.7466ZM2.5 21.4944V32.2422L11.8069 37.6148V26.8683L2.5 21.4944ZM30.4211 26.8683L21.1141 32.2419V64.4828L30.4211 69.8567V48.3624L39.7293 53.7363V42.9885L30.4211 37.6148V26.8683Z" fill="#E55B2D"/><path d="M39.729 10.7466L11.8066 26.8683V37.6148L30.4208 26.8683V37.6148L39.729 32.2422V10.7466ZM67.6513 16.1205L58.3431 21.4944V32.2422L67.6513 26.8683V16.1205ZM49.0362 37.6148L39.7292 42.9887V53.7365L49.0362 48.3624V37.6148ZM39.7292 53.7365L30.4208 48.3624V69.8567L39.729 64.4828L39.7292 53.7365Z" fill="#ED8E24"/><path d="M39.7293 0L2.5 21.4943L11.8069 26.8682L39.7293 10.7465L58.3434 21.4943L67.6516 16.1204L39.7293 0ZM39.7293 32.2419L30.4211 37.6145L39.7293 42.9887L49.0362 37.6148L39.7293 32.2419Z" fill="#F8BF3C"/></svg>