<svg xmlns="http://www.w3.org/2000/svg" width="62" height="62" viewBox="0 0 62 62" fill="none"><path d="M17.5344 26.4065C17.5344 27.1651 17.6167 27.7801 17.7603 28.2311C17.9427 28.7385 18.1622 29.2318 18.4171 29.707C18.5198 29.871 18.5607 30.0349 18.5607 30.1786C18.5607 30.3834 18.4377 30.5885 18.1708 30.7936L16.8775 31.6545C16.6927 31.7776 16.508 31.839 16.3435 31.839C16.1384 31.839 15.933 31.7365 15.7276 31.5519C15.4508 31.2553 15.2033 30.9327 14.9887 30.5885C14.7833 30.2403 14.578 29.8504 14.3523 29.3791C12.7507 31.2649 10.7388 32.2079 8.31645 32.208C6.59208 32.208 5.21645 31.7159 4.21041 30.7321C3.2046 29.7479 2.69141 28.436 2.69141 26.7961C2.69141 25.0537 3.30729 23.6393 4.55964 22.5733C5.81175 21.5073 7.47485 20.9743 9.58939 20.9743C10.2874 20.9743 11.0059 21.0357 11.7654 21.1383C12.5252 21.2408 13.3053 21.4048 14.1265 21.5893V20.0928C14.1265 18.5347 13.7979 17.4484 13.1614 16.8129C12.5046 16.1774 11.3959 15.8697 9.81511 15.8697C9.09654 15.8697 8.35763 15.952 7.59788 16.1365C6.83814 16.321 6.09923 16.5464 5.38066 16.8334C5.05225 16.9768 4.80595 17.0588 4.66209 17.0999C4.51823 17.1411 4.41578 17.1614 4.33368 17.1614C4.0462 17.1614 3.90259 16.9563 3.90259 16.5258V15.5213C3.90259 15.1934 3.94376 14.9474 4.0462 14.804C4.14889 14.6604 4.33368 14.517 4.62116 14.3735C5.33965 14.0044 6.20183 13.6968 7.20772 13.451C8.21401 13.1845 9.28157 13.0616 10.4106 13.0616C12.8538 13.0616 14.64 13.6149 15.7896 14.722C16.9187 15.8289 17.4937 17.5098 17.4937 19.7649V26.4065H17.5344ZM9.19923 29.5225C9.87687 29.5225 10.5749 29.3997 11.3138 29.1535C12.0529 28.9075 12.71 28.4565 13.2641 27.8415C13.5927 27.4522 13.8391 27.0217 13.9621 26.5296C14.0854 26.0377 14.1675 25.4431 14.1675 24.7461V23.8852C13.5448 23.734 12.9143 23.6177 12.2786 23.5367C11.6386 23.4556 10.9941 23.4145 10.3489 23.4136C8.97327 23.4136 7.96746 23.6801 7.29006 24.2337C6.61266 24.7872 6.28402 25.5662 6.28402 26.591C6.28402 27.5545 6.53032 28.272 7.04352 28.7641C7.53637 29.2766 8.25494 29.5225 9.19923 29.5225ZM25.6847 31.7365C25.3151 31.7365 25.0688 31.675 24.9046 31.5314C24.7404 31.4085 24.5965 31.1215 24.4735 30.7321L19.6491 14.886C19.5256 14.4758 19.4641 14.2093 19.4641 14.0659C19.4641 13.738 19.6283 13.5533 19.957 13.5533H21.9688C22.3587 13.5533 22.6259 13.6149 22.7695 13.7583C22.9337 13.8814 23.057 14.1685 23.18 14.5578L26.629 28.1286L29.8317 14.5578C29.9344 14.1479 30.0576 13.8814 30.2216 13.7583C30.386 13.6355 30.6735 13.5535 31.0431 13.5535H32.6854C33.0753 13.5535 33.3424 13.6149 33.5064 13.7583C33.6708 13.8814 33.8144 14.1685 33.8965 14.5578L37.1404 28.2926L40.6918 14.5578C40.8149 14.1479 40.9587 13.8814 41.1023 13.7583C41.2665 13.6355 41.5334 13.5535 41.903 13.5535H43.8122C44.1408 13.5535 44.3256 13.7175 44.3256 14.0659C44.3256 14.1685 44.305 14.271 44.2844 14.3939C44.2639 14.5167 44.2229 14.6809 44.1408 14.9065L39.1929 30.7525C39.0699 31.1626 38.9262 31.4291 38.7618 31.5519C38.5976 31.675 38.3307 31.757 37.982 31.757H36.2165C35.8263 31.757 35.5594 31.6956 35.395 31.5519C35.2308 31.4085 35.0871 31.142 35.005 30.7321L31.8227 17.5098L28.6612 30.7113C28.5587 31.1215 28.4355 31.388 28.2712 31.5314C28.107 31.675 27.8196 31.7365 27.4502 31.7365H25.6847ZM52.0654 32.29C50.9979 32.29 49.9303 32.1669 48.9039 31.921C47.8773 31.675 47.0769 31.4083 46.5431 31.1012C46.2144 30.9164 45.9885 30.7116 45.9066 30.5271C45.8268 30.3461 45.7848 30.1507 45.7833 29.953V28.9075C45.7833 28.4771 45.9475 28.272 46.2556 28.272C46.3813 28.2725 46.5061 28.2933 46.6252 28.3337C46.7482 28.3748 46.933 28.4565 47.1384 28.5385C47.8634 28.8572 48.6204 29.0977 49.3965 29.256C50.2007 29.4188 51.0192 29.5012 51.8397 29.502C53.133 29.502 54.1391 29.2766 54.837 28.8256C55.535 28.3745 55.9046 27.7187 55.9046 26.8781C55.9046 26.3042 55.7198 25.8327 55.3502 25.4431C54.9807 25.0535 54.2827 24.7053 53.2769 24.3771L50.2999 23.4547C48.8012 22.9832 47.6928 22.2862 47.0151 21.3636C46.3377 20.4616 45.9887 19.4573 45.9887 18.3913C45.9887 17.5304 46.1735 16.7719 46.5431 16.1157C46.9124 15.4598 47.4053 14.886 48.0212 14.435C48.637 13.9634 49.335 13.6149 50.1563 13.369C50.9773 13.123 51.8395 13.0205 52.7428 13.0205C53.1945 13.0205 53.6668 13.0411 54.1185 13.1025C54.5907 13.1639 55.0218 13.2459 55.4529 13.3279C55.8634 13.4304 56.2536 13.5329 56.6232 13.656C56.9926 13.7789 57.28 13.9018 57.4854 14.0248C57.7728 14.189 57.978 14.353 58.1012 14.5375C58.2244 14.7015 58.286 14.9269 58.286 15.2139V16.1774C58.286 16.6078 58.1218 16.8334 57.8138 16.8334C57.6496 16.8334 57.3827 16.7512 57.0339 16.5873C55.8633 16.0543 54.5494 15.7878 53.0921 15.7878C51.9218 15.7878 50.9979 15.9723 50.3614 16.3619C49.7252 16.7512 49.3965 17.3459 49.3965 18.1862C49.3965 18.7603 49.6019 19.2522 50.0124 19.6418C50.4229 20.0314 51.1827 20.4207 52.2708 20.7692L55.186 21.6918C56.6641 22.1634 57.7317 22.8192 58.3681 23.6596C59.0046 24.4999 59.3127 25.4636 59.3127 26.5296C59.3127 27.4111 59.1276 28.2106 58.7786 28.9075C58.4093 29.6045 57.9165 30.2195 57.28 30.7116C56.6435 31.224 55.884 31.5931 55.0012 31.8596C54.0773 32.1466 53.1124 32.29 52.0654 32.29Z" fill="#252F3E"/><path d="M55.9431 42.2527C49.189 47.2341 39.3755 49.8785 30.938 49.8785C19.1127 49.8785 8.45789 45.5121 0.410238 38.2552C-0.22623 37.6814 0.348481 36.9024 1.10798 37.3532C9.81268 42.3963 20.5498 45.4506 31.6565 45.4506C39.1498 45.4506 47.3823 43.8928 54.9579 40.6948C56.087 40.1821 57.0518 41.4329 55.9431 42.2527ZM58.7559 39.0547C57.8937 37.9479 53.0485 38.5217 50.8518 38.7882C50.1948 38.8704 50.0921 38.2963 50.6876 37.8659C54.5471 35.1598 60.891 35.939 61.6299 36.8408C62.3691 37.7633 61.4245 44.0976 57.8113 47.1316C57.2572 47.6032 56.7234 47.3572 56.9697 46.7423C57.7908 44.7126 59.6181 40.1413 58.7559 39.0547Z" fill="#FF9900"/></svg>