<svg xmlns="http://www.w3.org/2000/svg" width="70" height="70" viewBox="0 0 70 70" fill="none"><path d="M67.2574 51.664C63.5217 53.6111 44.17 61.5679 40.0501 63.7157C35.9302 65.8636 33.6416 65.8431 30.3868 64.2872C27.1324 62.7314 6.53871 54.4129 2.82898 52.6396C0.975078 51.7537 0 51.0056 0 50.299V43.2235C0 43.2235 26.8105 37.387 31.1388 35.8341C35.4668 34.2813 36.9685 34.2252 40.6517 35.5744C44.3354 36.9241 66.3597 40.8977 70 42.2309L69.9984 49.2063C69.9989 49.9058 69.1589 50.6731 67.2574 51.664Z" fill="#912626"/><path d="M67.256 44.6307C63.5206 46.577 44.1694 54.5341 40.0495 56.6817C35.9299 58.83 33.6412 58.809 30.3868 57.2531C27.132 55.6984 6.5392 47.3785 2.82974 45.6063C-0.87971 43.8331 -0.957366 42.6127 2.68646 41.1859C6.33029 39.7586 26.8102 31.7236 31.139 30.1708C35.467 28.6185 36.9684 28.5619 40.6516 29.9116C44.3351 31.2607 63.5709 38.9172 67.2106 40.2502C70.8517 41.5849 70.9914 42.6838 67.256 44.6307Z" fill="#C6302B"/><path d="M67.2574 40.2156C63.5217 42.163 44.17 50.1195 40.0501 52.2682C35.9302 54.4155 33.6416 54.3947 30.3868 52.8388C27.1321 51.2838 6.53871 42.9644 2.82898 41.1912C0.975078 40.3053 0 39.5582 0 38.8514V31.7751C0 31.7751 26.8105 25.9389 31.1388 24.386C35.4668 22.8332 36.9685 22.7768 40.6517 24.1262C44.3357 25.4757 66.36 29.4484 70 30.782L69.9984 37.7582C69.9989 38.4574 69.1589 39.2246 67.2574 40.2156Z" fill="#912626"/><path d="M67.256 33.1818C63.5206 35.1287 44.1694 43.0852 40.0495 45.2336C35.9299 47.3812 33.6412 47.3601 30.3868 45.8043C27.132 44.2495 6.5392 35.9299 2.82974 34.1575C-0.87971 32.3848 -0.957366 31.1641 2.68646 29.7368C6.33029 28.3103 26.8105 20.2748 31.139 18.7222C35.467 17.1696 36.9684 17.1133 40.6516 18.4627C44.3351 19.8118 63.5709 27.4678 67.2106 28.8014C70.8517 30.1357 70.9914 31.235 67.256 33.1818Z" fill="#C6302B"/><path d="M67.2574 28.3425C63.5217 30.2893 44.17 38.2464 40.0501 40.395C35.9302 42.5426 33.6416 42.5216 30.3868 40.9657C27.1321 39.4107 6.53871 31.0911 2.82898 29.3186C0.975078 28.4319 0 27.6846 0 26.9786V19.902C0 19.902 26.8105 14.066 31.1388 12.5134C35.4668 10.9603 36.9685 10.9045 40.6517 12.2537C44.3357 13.6031 66.36 17.5759 70 18.9094L69.9984 25.8854C69.9989 26.584 69.1589 27.3513 67.2574 28.3425Z" fill="#912626"/><path d="M67.2557 21.309C63.5202 23.2558 44.1691 31.2129 40.0492 33.3604C35.9296 35.508 33.6409 35.487 30.3864 33.9319C27.132 32.3761 6.53886 24.057 2.82968 22.2843C-0.879501 20.5116 -0.957431 19.291 2.68612 17.8639C6.32995 16.4371 26.8101 8.40271 31.1387 6.84958C35.4666 5.29673 36.9681 5.24095 40.6513 6.59037C44.3345 7.93978 63.5705 15.5958 67.2103 16.9293C70.8514 18.2626 70.9911 19.3621 67.2557 21.309Z" fill="#C6302B"/><path d="M43.5538 14.4256L37.5354 15.0504L36.1882 18.2923L34.0122 14.6747L27.0628 14.0502L32.2482 12.1801L30.6924 9.30957L35.5473 11.2083L40.1241 9.70988L38.887 12.678L43.5538 14.4256ZM35.8289 30.1532L24.5969 25.4946L40.6914 23.0241L35.8289 30.1532ZM20.2566 16.2275C25.0076 16.2275 28.859 17.7205 28.859 19.5618C28.859 21.4037 25.0076 22.8964 20.2566 22.8964C15.5057 22.8964 11.6543 21.4034 11.6543 19.5618C11.6543 17.7205 15.5057 16.2275 20.2566 16.2275Z" fill="white"/><path d="M50.667 15.312L60.1925 19.0762L50.6752 22.8367L50.667 15.312Z" fill="#621B1C"/><path d="M40.1279 19.4806L50.6662 15.312L50.6744 22.8367L49.6411 23.2409L40.1279 19.4806Z" fill="#9A2928"/></svg>