<svg xmlns="http://www.w3.org/2000/svg" width="62" height="62" viewBox="0 0 62 62" fill="none"><path d="M22.2138 42.8126C19.0216 39.8125 17.144 35.6876 17.144 31.0001C17.144 26.3125 19.0216 22.1876 22.0261 19.1875C24.6549 16.5627 24.6549 12.4376 22.0261 9.81253C19.3972 7.18749 15.2664 7.18749 12.6375 9.81253C7.37985 15.25 4 22.7501 4 31.0001C4 39.25 7.37985 46.7501 12.8252 52.1876C15.4541 54.8126 19.5851 54.8126 22.2138 52.1876C24.6549 49.5626 24.6549 45.4375 22.2138 42.8126Z" fill="#FAE501"/><path d="M22.2117 19.1874C25.2162 15.9999 29.347 14.125 34.0414 14.125C38.7358 14.125 42.8667 15.9999 45.8711 19C48.4997 21.625 52.6308 21.625 55.2597 19C57.8885 16.375 57.8885 12.2501 55.2597 9.62504C49.8143 4.37496 42.3034 1 34.0414 1C25.7795 1 18.2686 4.37496 12.8232 9.81247C10.1944 12.4375 10.1944 16.5626 12.8232 19.1874C15.452 21.625 19.5831 21.625 22.2117 19.1874Z" fill="#4FB5E1"/><path d="M45.8711 42.8126C42.8667 45.9999 38.7358 47.875 34.0414 47.875C29.347 47.875 25.2162 45.9999 22.2117 42.9998C19.5831 40.375 15.452 40.375 12.8232 42.9998C10.1944 45.6251 10.1944 49.7499 12.8232 52.375C18.2686 57.6251 25.7795 61 34.0414 61C42.3034 61 49.8143 57.6251 55.2597 52.1875C57.8885 49.5625 57.8885 45.4374 55.2597 42.8126C52.6308 40.375 48.4997 40.375 45.8711 42.8126Z" fill="#F05751"/><path d="M17.5173 21.0625C21.1469 21.0625 24.0893 18.1244 24.0893 14.5C24.0893 10.8756 21.1469 7.9375 17.5173 7.9375C13.8877 7.9375 10.9453 10.8756 10.9453 14.5C10.9453 18.1244 13.8877 21.0625 17.5173 21.0625Z" fill="#0681B6"/><path d="M17.5173 54.0625C21.1469 54.0625 24.0893 51.1244 24.0893 47.5C24.0893 43.8756 21.1469 40.9375 17.5173 40.9375C13.8877 40.9375 10.9453 43.8756 10.9453 47.5C10.9453 51.1244 13.8877 54.0625 17.5173 54.0625Z" fill="#CD4739"/></svg>