<svg xmlns="http://www.w3.org/2000/svg" width="50" height="50" viewBox="0 0 50 50" fill="none"><path d="M19.6773 45.3821C19.6773 41.8149 19.6773 38.2709 19.6773 34.696C20.1858 34.696 20.6635 34.696 21.172 34.696C21.172 38.7563 21.172 42.8242 21.172 47C20.0934 46.9461 18.9994 47.0077 17.9438 46.8074C16.3182 46.4992 15.0932 44.9429 15.0778 43.2788C15.047 40.5591 15.0547 37.8394 15.0855 35.1198C15.0932 34.4803 15.2781 33.8409 15.3937 33.1321C15.2011 33.1321 14.9931 33.1321 14.7927 33.1321C12.9052 33.1321 11.0176 33.1321 9.12999 33.1321C5.87102 33.1398 3.54429 35.4665 3.55199 38.7332C3.55199 39.9428 3.50577 41.1755 3.65986 42.3696C3.85247 43.8643 5.25467 45.1586 6.61835 45.2896C6.61835 43.9105 6.61835 42.5391 6.61835 41.1678C6.61835 39.7964 6.61835 38.4173 6.61835 37.0074C7.12684 37.0074 7.61222 37.0074 8.13612 37.0074C8.13612 39.7887 8.13612 42.5623 8.13612 45.3975C10.4551 45.3975 12.728 45.3975 15.0316 45.3975C15.0316 45.9291 15.0316 46.3991 15.0316 46.9538C14.8775 46.9538 14.708 46.9538 14.5385 46.9538C12.2041 46.9538 9.86961 46.9538 7.53518 46.9538C4.33014 46.9461 2.01111 44.6193 2.01111 41.4066C2.01111 40.1277 1.94177 38.8333 2.10356 37.5775C2.5196 34.2492 5.25467 31.7298 8.60609 31.6297C11.033 31.5603 13.4676 31.6605 15.8945 31.6682C16.0486 31.6682 16.2566 31.5681 16.349 31.4371C17.7975 29.4802 19.739 28.5325 22.1582 28.5325C24.0766 28.5248 25.995 28.5248 27.9134 28.5325C30.3325 28.5402 32.2741 29.4879 33.7302 31.4294C33.8304 31.5681 34.0923 31.6605 34.2772 31.6605C36.8505 31.6759 39.4315 31.5295 41.9893 31.7067C45.2791 31.9379 47.9063 34.7962 48.045 38.0937C48.1066 39.5575 48.1298 41.0445 47.9526 42.5006C47.6521 44.9969 45.387 46.923 42.883 46.9538C40.356 46.9846 37.8289 46.9615 35.3019 46.9615C35.2248 46.9615 35.1478 46.9538 35.04 46.9384C35.04 46.4453 35.04 45.9753 35.04 45.4437C37.3128 45.4437 39.5856 45.4437 41.92 45.4437C41.92 42.6008 41.92 39.8118 41.92 36.9997C42.4516 36.9997 42.9216 36.9997 43.4455 36.9997C43.4455 39.7733 43.4455 42.5314 43.4455 45.2896C44.8014 45.1818 46.1882 43.872 46.4194 42.3774C46.5581 41.5145 46.5272 40.6285 46.5195 39.7501C46.5118 38.9412 46.5349 38.1014 46.3731 37.3155C45.8724 34.9503 43.8538 33.2399 41.4346 33.1552C39.262 33.0781 37.0816 33.1398 34.909 33.1398C34.8319 33.1398 34.7549 33.1629 34.7241 33.1706C35.2942 36.5528 34.9629 39.9505 34.9937 43.325C35.0091 45.2819 33.2988 46.8844 31.3418 46.9461C30.5406 46.9692 29.747 46.9461 28.9149 46.9461C28.9149 42.8627 28.9149 38.7948 28.9149 34.696C29.3926 34.696 29.8626 34.696 30.3942 34.696C30.3942 38.2478 30.3942 41.7995 30.3942 45.3436C32.2201 45.6903 33.4837 44.6579 33.4837 42.8781C33.4837 40.4667 33.4837 38.0475 33.4837 35.636C33.4759 32.4078 31.1492 30.0734 27.9134 30.0657C25.995 30.058 24.0766 30.058 22.1582 30.0657C18.9146 30.0811 16.5956 32.4001 16.5956 35.636C16.5879 37.9704 16.6572 40.3126 16.5725 42.6393C16.5262 44.2572 17.5047 45.6671 19.6773 45.3821Z" fill="#FF8343"/><path d="M43.4994 26.1749C43.4994 25.6972 43.4994 25.2272 43.4994 24.7187C44.1081 24.6032 44.2622 24.1794 44.2545 23.6016C44.2314 22.261 44.2468 20.9128 44.2468 19.5722C44.2468 18.8017 43.9925 18.5475 43.199 18.5475C42.0279 18.5475 40.8645 18.5552 39.6935 18.5321C39.5471 18.5321 39.3005 18.4011 39.2774 18.2932C38.8768 16.6676 38.2142 15.1498 37.2974 13.6937C38.2065 12.7923 39.1002 11.9063 39.9939 11.0126C40.6334 10.3731 40.6334 10.0649 39.9862 9.41776C39.0463 8.47782 38.114 7.53788 37.1741 6.59794C36.6425 6.06634 36.2727 6.05863 35.7488 6.58253C34.9167 7.40691 34.0923 8.22358 33.2757 9.06336C33.0677 9.27908 32.9136 9.34842 32.6362 9.17122C31.3573 8.36226 29.9705 7.78443 28.4989 7.44543C28.1676 7.36839 28.1137 7.2143 28.1214 6.92153C28.1368 5.73505 28.1291 4.55627 28.1291 3.36979C28.1291 2.70721 27.8518 2.42215 27.2046 2.42215C25.7793 2.41445 24.354 2.41445 22.9363 2.42215C22.2584 2.42215 21.9964 2.70721 21.9887 3.40061C21.9887 4.58709 21.9887 5.76587 21.9887 6.95235C21.9887 7.16037 22.0272 7.34527 21.719 7.41461C20.1011 7.79213 18.5988 8.4393 17.158 9.35613C17.0271 9.23285 16.9038 9.11729 16.7805 9.00172C15.9561 8.17735 15.1318 7.34527 14.2997 6.5286C13.8605 6.09716 13.4445 6.09716 13.0053 6.53631C11.9807 7.55329 10.9637 8.57027 9.94669 9.58726C9.49984 10.0341 9.50754 10.4193 9.9621 10.8739C10.8943 11.8138 11.842 12.7461 12.7819 13.6937C12.4892 14.233 12.1656 14.7338 11.9344 15.2731C11.5723 16.136 11.2256 17.022 10.9637 17.9234C10.825 18.4011 10.6709 18.5937 10.1393 18.5706C9.05298 18.5167 7.96666 18.5552 6.88034 18.5552C6.1253 18.5552 5.86335 18.8172 5.86335 19.5568C5.86335 20.9359 5.86335 22.3073 5.86335 23.6863C5.86335 24.3412 5.97892 24.503 6.61839 24.7496C6.61839 25.2195 6.61839 25.6972 6.61839 26.1749C5.53977 26.329 4.39181 25.3428 4.35329 24.1409C4.29936 22.4767 4.30706 20.8126 4.35329 19.1484C4.38411 17.962 5.4165 17.0528 6.65691 17.022C7.51981 17.0066 8.3827 17.0143 9.24559 17.022C9.47673 17.022 9.61541 16.9912 9.70786 16.737C10.0546 15.8124 10.4321 14.8956 10.8327 13.9017C10.2549 13.3316 9.61541 12.6998 8.99135 12.0681C7.78946 10.8662 7.78946 9.58726 8.99135 8.38537C9.9544 7.42232 10.9097 6.45926 11.8728 5.50392C12.9745 4.40989 14.3382 4.40989 15.4399 5.49621C16.0101 6.05864 16.5802 6.61335 17.1272 7.19889C17.3352 7.42232 17.4893 7.40691 17.7436 7.29134C18.5294 6.93694 19.323 6.59794 20.1242 6.29747C20.3862 6.19731 20.4632 6.08175 20.4555 5.8198C20.4401 4.97231 20.4478 4.12483 20.4555 3.27734C20.4709 1.90595 21.4417 0.919788 22.8131 0.904379C24.3 0.88897 25.787 0.88897 27.2739 0.904379C28.6761 0.912083 29.6469 1.89825 29.6623 3.30045C29.67 4.13253 29.6777 4.96461 29.6546 5.79668C29.6469 6.07404 29.7316 6.20502 30.009 6.31288C30.818 6.61335 31.6115 6.94464 32.3897 7.31445C32.667 7.44543 32.8134 7.3915 32.9983 7.19118C33.5684 6.60565 34.1463 6.02782 34.7241 5.45769C35.7488 4.45612 37.1279 4.433 38.1526 5.43458C39.2158 6.47467 40.2713 7.52247 41.3037 8.59339C42.259 9.57955 42.259 10.9124 41.3037 11.8986C40.7027 12.5226 40.0941 13.1313 39.47 13.7322C39.2774 13.9171 39.262 14.0558 39.3776 14.3024C39.7397 15.0882 40.071 15.8818 40.3791 16.683C40.4793 16.9604 40.6026 17.0451 40.8876 17.0451C41.7043 17.0297 42.521 17.0374 43.3376 17.0374C44.8015 17.0451 45.7722 18.0159 45.7799 19.472C45.7876 20.9744 45.7954 22.4768 45.7722 23.9791C45.7645 25.2272 44.709 26.2519 43.4994 26.1749Z" fill="#FF8343"/><path d="M35.8332 21.583C35.2784 21.583 34.8085 21.583 34.2923 21.583C34.1767 18.5166 32.9517 15.9973 30.4632 14.1559C28.7143 12.8693 26.7265 12.2915 24.5616 12.407C19.9467 12.6536 15.9635 16.344 15.8171 21.5676C15.3317 21.5676 14.8463 21.5676 14.2993 21.5676C14.4149 17.985 15.8094 15.0342 18.7294 12.954C22.3273 10.3885 26.2258 10.0957 30.1242 12.1605C33.8146 14.1251 35.6097 17.3687 35.8332 21.583Z" fill="#FF8343"/><path d="M25.0552 27.7466C22.5128 27.7466 20.448 25.6895 20.448 23.1547C20.448 20.62 22.5205 18.5398 25.0475 18.5398C27.5746 18.5398 29.6548 20.6123 29.6548 23.147C29.6625 25.6818 27.5977 27.7466 25.0552 27.7466ZM25.009 26.2134C26.7194 26.2288 28.1062 24.8805 28.1216 23.1779C28.137 21.4829 26.7579 20.0884 25.0706 20.073C23.4065 20.0653 22.0043 21.429 21.9812 23.0931C21.9581 24.8035 23.314 26.198 25.009 26.2134Z" fill="#FF8343"/><path d="M11.9733 30.8206C9.43085 30.8129 7.38148 28.7405 7.38918 26.198C7.39689 23.6709 9.49249 21.5908 12.0195 21.6062C14.5543 21.6216 16.6114 23.7018 16.6037 26.2365C16.596 28.779 14.5235 30.8284 11.9733 30.8206ZM11.9579 29.2875C13.6683 29.3029 15.0551 27.9469 15.0705 26.2519C15.0859 24.557 13.7068 23.1625 12.0118 23.147C10.3477 23.1393 8.94547 24.503 8.93007 26.1749C8.90695 27.8776 10.2629 29.2721 11.9579 29.2875Z" fill="#FF8343"/><path d="M38.1067 30.8206C35.5643 30.8206 33.4995 28.7635 33.4995 26.221C33.4995 23.694 35.5797 21.6138 38.1067 21.6061C40.6338 21.6061 42.714 23.6863 42.714 26.2133C42.714 28.7558 40.6492 30.8206 38.1067 30.8206ZM38.0913 29.2874C39.8017 29.2951 41.1731 27.9237 41.1731 26.2287C41.1731 24.5338 39.7786 23.147 38.0913 23.1547C36.4195 23.1624 35.0404 24.5338 35.0327 26.2056C35.025 27.9006 36.3887 29.2797 38.0913 29.2874Z" fill="#FF8343"/><path d="M28.0981 45.4435C28.0981 45.952 28.0981 46.4296 28.0981 46.9227C26.0718 46.9227 24.061 46.9227 22.0193 46.9227C22.0193 46.4451 22.0193 45.9597 22.0193 45.4435C24.0301 45.4435 26.041 45.4435 28.0981 45.4435Z" fill="#FF8343"/></svg>