<svg xmlns="http://www.w3.org/2000/svg" width="70" height="70" viewBox="0 0 70 70" fill="none"><path d="M5 5V65H65V5H5ZM25 35H40V40H35V60H30V40H25V35ZM50 35H60V40H50V45H55C56.3249 45.004 57.5943 45.532 58.5312 46.4688C59.468 47.4057 59.996 48.6751 60 50V55C59.996 56.3249 59.468 57.5943 58.5312 58.5312C57.5943 59.468 56.3249 59.996 55 60H45V55H55V50H50C48.6751 49.996 47.4057 49.468 46.4688 48.5312C45.532 47.5943 45.004 46.3249 45 45V40C45.004 38.6751 45.532 37.4057 46.4688 36.4688C47.4057 35.532 48.6751 35.004 50 35Z" fill="#0288D1"/></svg>