<svg xmlns="http://www.w3.org/2000/svg" width="62" height="62" viewBox="0 0 62 62" fill="none"><path d="M61.9283 17.67C61.9128 17.6118 61.8838 17.5615 61.8624 17.5053C61.8259 17.4008 61.7806 17.2997 61.7268 17.203C61.631 17.0639 61.5261 16.9312 61.4129 16.8058C61.3588 16.7561 61.3019 16.7096 61.2424 16.6663C61.1912 16.6196 61.1375 16.5756 61.0816 16.5346L60.9964 16.4958L60.9286 16.4493L49.3036 10.6368C49.0346 10.5025 48.7381 10.4325 48.4375 10.4325C48.1369 10.4325 47.8404 10.5025 47.5714 10.6368L35.9464 16.4493L35.8786 16.4958L35.7934 16.5346C35.7375 16.5756 35.6838 16.6196 35.6326 16.6663C35.4891 16.7653 35.3661 16.8909 35.2703 17.0364C35.226 17.0897 35.1846 17.1453 35.1462 17.203C35.0932 17.2998 35.0484 17.4009 35.0126 17.5053C34.9932 17.5615 34.9622 17.6118 34.9467 17.67C34.8999 17.8371 34.8758 18.0098 34.875 18.1834V28.611L27.125 32.486V10.4334C27.1242 10.2598 27.1001 10.0871 27.0533 9.91996C27.0378 9.86184 27.0087 9.81146 26.9874 9.75527C26.9509 9.65084 26.9056 9.54972 26.8518 9.45302C26.8141 9.39535 26.7734 9.33973 26.7297 9.2864C26.6339 9.14092 26.5109 9.01527 26.3674 8.91634C26.3162 8.86957 26.2625 8.82559 26.2066 8.78459L26.1214 8.74584L26.0536 8.69934L14.4286 2.88684C14.1596 2.75245 13.8631 2.6825 13.5625 2.6825C13.2619 2.6825 12.9654 2.75245 12.6964 2.88684L1.07144 8.69934L1.00363 8.74584L0.918375 8.78459C0.862452 8.82559 0.80877 8.86957 0.757563 8.91634C0.698129 8.95956 0.641204 9.00614 0.587062 9.05584C0.516595 9.12755 0.451816 9.20463 0.393312 9.2864C0.349691 9.33973 0.308946 9.39535 0.27125 9.45302C0.21816 9.54978 0.173435 9.6509 0.137562 9.75527C0.118188 9.81146 0.0871875 9.86184 0.0716875 9.91996C0.0248994 10.0871 0.000787766 10.2598 0 10.4334L0 47.2459C0.0001921 47.6056 0.100523 47.9582 0.289758 48.2641C0.478992 48.57 0.749656 48.8172 1.07144 48.978L12.6964 54.7905L24.3214 60.603C24.3486 60.6166 24.3796 60.6127 24.4106 60.6243C24.6519 60.7445 24.9179 60.807 25.1875 60.807C25.4571 60.807 25.7231 60.7445 25.9644 60.6243C25.9935 60.6127 26.0264 60.6166 26.0536 60.605L49.3036 48.98C49.6256 48.819 49.8965 48.5715 50.0858 48.2652C50.275 47.9589 50.3752 47.6059 50.375 47.2459V36.8183L60.9286 31.5405C61.2503 31.3797 61.521 31.1325 61.7102 30.8266C61.8995 30.5207 61.9998 30.1681 62 29.8084V18.1834C61.9992 18.0098 61.9751 17.8371 61.9283 17.67ZM17.8948 41.4334L26.0536 37.353H26.0555L36.8125 31.9745L44.1053 35.6209L25.1875 45.0798L17.8948 41.4334ZM46.5 25.1933V32.486L38.75 28.611V21.3183L46.5 25.1933ZM48.4375 14.537L55.7303 18.1834L48.4375 21.8298L41.1447 18.1834L48.4375 14.537ZM15.5 38.2985V17.4433L23.25 13.5683V34.4235L15.5 38.2985ZM13.5625 6.78702L20.8552 10.4334L13.5625 14.0798L6.26975 10.4334L13.5625 6.78702ZM3.875 13.5683L11.625 17.4433V49.9235L3.875 46.0485V13.5683ZM15.5 44.5683L23.25 48.4433V55.736L15.5 51.861V44.5683ZM46.5 46.0485L27.125 55.736V48.4433L46.5 38.7558V46.0485ZM58.125 28.611L50.375 32.486V25.1933L58.125 21.3183V28.611Z" fill="#FF5252"/></svg>