<svg xmlns="http://www.w3.org/2000/svg" width="50" height="50" viewBox="0 0 50 50" fill="none"><g clip-path="url(#clip0_7768_6499)"><path d="M33.1972 31.5247C34.1494 30.4366 34.8295 30.3005 36.1898 30.4366C37.1419 28.8043 38.0941 28.3962 39.7264 29.0763C39.8624 28.9403 39.9984 28.6683 40.2705 28.5322C41.2227 27.5801 42.8549 27.7161 43.8071 28.8043C45.1673 30.7086 46.6636 32.749 48.0238 34.6533C48.2959 35.0614 48.2959 35.4694 48.4319 35.8775C48.5679 36.6937 48.5679 37.3738 48.5679 38.1899C48.5679 38.462 48.7039 38.598 48.84 38.734C49.384 39.5502 49.9282 40.3663 50.4723 41.1824C50.0642 41.4545 49.6561 41.7265 49.248 42.1346C48.5679 41.1824 47.8878 40.2303 47.3437 39.1421C47.0717 38.598 47.0717 37.7818 47.0717 37.1017C47.0717 36.0135 46.7996 35.1974 46.1195 34.3812C45.0313 33.021 44.0791 31.5248 42.991 30.0285C42.8549 29.8925 42.8549 29.7564 42.7189 29.6204C42.4468 29.2123 41.9028 29.2123 41.6307 29.4844C41.2227 29.7564 41.2226 30.1645 41.4947 30.5726C42.0387 31.3887 42.5829 32.0688 43.1269 32.885C43.263 33.021 43.263 33.157 43.399 33.2931C42.9909 33.5651 42.5828 33.8372 42.1748 34.1092C41.3586 33.021 40.5425 31.7968 39.7264 30.7086C39.4543 30.3006 39.1823 30.0285 38.6382 30.1645C37.822 30.3005 37.55 31.1167 38.0941 31.7968C38.7742 32.749 39.4543 33.7011 40.1344 34.6533C40.2704 34.9254 40.5425 35.1974 40.8145 35.6054C40.4065 35.8775 39.9984 36.1495 39.5904 36.4216C39.4543 36.2856 39.3183 36.1496 39.3183 36.0135C38.3661 34.7893 37.55 33.4291 36.5978 32.2049C36.3258 31.7968 35.9177 31.6608 35.5097 31.7968C35.1016 31.9328 34.8295 32.2049 34.8295 32.613C34.8295 32.885 34.9656 33.2931 35.1016 33.4291C35.9178 34.6533 36.8699 36.0135 37.8221 37.2377C37.9581 37.3738 37.958 37.5098 38.0941 37.6458C37.686 37.9179 37.278 38.1899 36.8699 38.462C36.7339 38.3259 36.5978 38.1899 36.5978 38.0539C34.2854 34.7893 31.9731 31.5247 29.6607 28.2602C29.5246 28.1242 29.3886 27.8521 29.2525 27.7161C28.9805 27.444 28.4364 27.444 28.0284 27.7161C27.6203 27.9881 27.4843 28.3962 27.6203 28.9403C27.7563 29.0763 27.7563 29.2123 27.8923 29.4844C30.4767 33.021 32.9252 36.6937 35.5097 40.2303C35.6457 40.3663 35.6457 40.5023 35.7817 40.7744C35.3737 41.0464 34.9656 41.3185 34.5575 41.5905C34.0134 40.7744 33.4693 39.9582 32.9252 39.2781C32.3811 38.598 31.837 38.0539 30.8848 37.9179C30.4768 37.9179 30.2047 37.9179 30.0687 38.1899C29.7967 38.462 29.9327 38.87 30.0687 39.1421C30.6128 39.9582 31.1569 40.7744 31.701 41.4545C32.1091 41.9986 32.5171 42.5426 32.9252 43.0867C33.1972 43.4948 33.4693 43.6308 34.0134 43.7669C35.2376 44.0389 36.5979 44.1749 37.8221 44.447C38.5022 44.583 39.0462 44.8551 39.4543 45.3992C39.9984 46.2153 40.5425 47.0314 41.2227 47.8476C40.8146 48.1196 40.4065 48.3917 39.9984 48.7998C39.4543 48.1196 39.0463 47.4395 38.5022 46.6234C38.2301 46.2153 37.822 45.9432 37.278 45.8072C36.0537 45.6712 34.8295 45.3992 33.6053 45.2631C33.6053 45.5352 33.4693 45.8072 33.4693 46.0793C33.0612 47.5755 31.701 48.5277 30.2047 48.6637C27.7563 48.6637 25.3079 48.6637 22.8595 48.6637C17.4185 48.6637 11.9776 48.6637 6.53666 48.6637C4.63233 48.6637 3.27205 47.5755 3 45.8072C3 45.5352 3 45.2632 3 44.9911C3 31.5248 3 18.0584 3 4.45606C3 2.27968 4.49628 0.783447 6.67265 0.783447C14.562 0.783447 22.3153 0.783447 30.2047 0.783447C32.3811 0.783447 33.8774 2.27968 33.8774 4.45606C33.8774 13.1616 33.8774 22.0031 33.8774 30.7086C33.1972 31.1167 33.1972 31.3887 33.1972 31.5247ZM28.3004 33.4291C27.2122 33.4291 26.2601 33.4291 25.3079 33.4291C24.0837 33.4291 23.4035 32.6129 23.4035 31.5247C23.4035 26.6279 23.4035 21.7311 23.4035 16.8342C23.4035 15.61 24.2197 14.7939 25.4439 14.7939C25.988 14.7939 26.5321 14.7939 27.0762 14.7939C28.4364 14.6578 29.3886 15.474 29.3886 16.9702C29.3886 19.9628 29.3886 23.0913 29.3886 26.0838C29.3886 26.2198 29.3886 26.4919 29.5246 26.6279C29.9327 27.036 30.3408 27.4441 30.7488 27.8521C31.1569 28.2602 31.4289 28.8043 31.837 29.3484C31.837 29.3484 31.837 29.3484 31.973 29.3484C31.973 28.2602 31.973 27.172 31.973 26.0838C31.973 19.0106 31.973 11.8013 31.973 4.72812C31.973 3.36789 31.1569 2.55174 29.7967 2.55174C29.2526 2.55174 28.7085 2.55174 28.1644 2.55174C20.8191 2.55174 13.6099 2.55174 6.2646 2.55174C5.7205 2.55174 5.17636 2.68774 4.76829 2.95979C4.2242 3.36786 4.08817 4.048 4.08817 4.72812C4.08817 16.9702 4.08817 29.0763 4.08817 41.3185C4.08817 42.6787 4.08817 43.9029 4.08817 45.2631C4.08817 46.4873 4.90431 47.3035 6.12853 47.3035C14.0179 47.3035 22.0433 47.3035 29.9326 47.3035C30.2047 47.3035 30.6128 47.1675 30.8848 47.0315C31.973 46.4874 32.2451 45.1271 31.5649 44.175C30.6128 42.8147 29.6607 41.4545 28.7085 40.0942C27.7563 38.734 28.3004 36.9657 29.7967 36.5576C30.0687 36.4216 30.3407 36.4216 30.6128 36.4216C30.6128 36.2856 30.4768 36.2856 30.4768 36.1496C29.5246 35.1974 28.8445 34.2452 28.3004 33.4291ZM27.2122 31.9328C26.8041 31.3887 26.3961 30.8446 26.124 30.3005C25.1718 28.8043 25.7159 26.9 27.4842 26.4919C27.7563 26.3559 27.7563 26.3558 27.7563 26.0838C27.7563 23.0913 27.7563 19.9628 27.7563 16.9702C27.7563 16.5622 27.6202 16.4262 27.2122 16.4262C26.6681 16.4262 26.1241 16.4262 25.58 16.4262C24.8998 16.4262 24.8998 16.4262 24.8998 17.1063C24.8998 21.8671 24.8998 26.6279 24.8998 31.3888C24.8998 31.5248 24.8998 31.6608 24.8998 31.6608C25.0359 31.7968 25.1719 32.0689 25.3079 32.0689C25.852 31.9328 26.396 31.9328 27.2122 31.9328Z" fill="#FF8343"/><path d="M20.8171 26.4919C20.8171 28.1242 20.8171 29.7565 20.8171 31.3888C20.8171 32.749 20.137 33.4291 18.7767 33.4291C18.0966 33.4291 17.5525 33.4291 16.8724 33.4291C15.6482 33.4291 14.9681 32.749 14.832 31.5248C14.832 28.2602 14.832 24.8596 14.832 21.5951C14.832 20.3708 15.5122 19.6907 16.7364 19.6907C17.4165 19.6907 18.0966 19.6907 18.7767 19.6907C20.001 19.6907 20.681 20.5069 20.681 21.5951C20.8171 23.0913 20.8171 24.8596 20.8171 26.4919ZM19.1848 26.4919C19.1848 24.8596 19.1848 23.2273 19.1848 21.5951C19.1848 21.187 19.0487 21.051 18.6407 21.051C18.0966 21.051 17.4165 21.051 16.8724 21.051C16.4643 21.051 16.3283 21.187 16.3283 21.5951C16.3283 24.8596 16.3283 28.1242 16.3283 31.3888C16.3283 31.7968 16.4643 31.9329 16.8724 31.9329C17.4165 31.9329 17.9606 31.9329 18.5047 31.9329C19.1848 31.9329 19.1848 31.9329 19.1848 31.2527C19.1848 29.6205 19.1848 28.1242 19.1848 26.4919Z" fill="#FF8343"/><path d="M12.2494 28.8044C12.2494 29.6205 12.2494 30.5727 12.2494 31.3888C12.2494 32.6131 11.5693 33.2932 10.3451 33.2932C9.66499 33.2932 8.98487 33.2932 8.30475 33.2932C7.08054 33.2932 6.40039 32.477 6.40039 31.3888C6.40039 29.6205 6.40039 27.8522 6.40039 26.0839C6.40039 24.9957 7.08054 24.1796 8.30475 24.1796C8.98487 24.1796 9.80098 24.1796 10.4811 24.1796C11.7053 24.1796 12.3855 24.9957 12.3855 26.0839C12.2494 27.1721 12.2494 27.9882 12.2494 28.8044ZM10.7532 28.9404C10.7532 28.1242 10.7532 27.1721 10.7532 26.356C10.7532 25.9479 10.6171 25.8119 10.209 25.8119C9.52892 25.8119 8.98487 25.8119 8.30475 25.8119C7.89668 25.8119 7.76063 25.9479 7.76063 26.356C7.76063 27.9882 7.76063 29.7566 7.76063 31.3888C7.76063 31.7969 7.89668 31.9329 8.30475 31.9329C8.98487 31.9329 9.52892 31.9329 10.209 31.9329C10.6171 31.9329 10.7532 31.7969 10.7532 31.3888C10.7532 30.5727 10.7532 29.7565 10.7532 28.9404Z" fill="#FF8343"/><path d="M17.8246 40.0944C19.4568 40.0944 20.8171 41.4546 20.8171 43.0869C20.8171 44.7191 19.4568 46.0794 17.8246 46.0794C16.1923 46.0794 14.832 44.7191 14.832 43.0869C14.832 41.4546 16.1923 40.0944 17.8246 40.0944ZM16.3283 43.0869C16.3283 43.903 17.0084 44.5831 17.8246 44.5831C18.6407 44.5831 19.3208 43.903 19.3208 43.0869C19.3208 42.2707 18.6407 41.5906 17.8246 41.5906C17.0084 41.5906 16.3283 42.2707 16.3283 43.0869Z" fill="#FF8343"/><path d="M21.2244 4.32019C21.2244 4.86428 21.2244 5.27236 21.2244 5.81646C18.912 5.81646 16.5995 5.81646 14.2871 5.81646C14.2871 5.27236 14.2871 4.86428 14.2871 4.32019C16.5995 4.32019 18.912 4.32019 21.2244 4.32019Z" fill="#FF8343"/></g><defs><clipPath id="clip0_7768_6499"><rect width="50" height="50" fill="white"/></clipPath></defs></svg>