<svg xmlns="http://www.w3.org/2000/svg" width="50" height="50" viewBox="0 0 50 50" fill="none"><path d="M48.3092 3.68516C48.3092 8.89333 48.3092 14.1015 48.3092 19.3218C47.8236 20.7301 46.816 21.2764 45.3591 21.1671C44.5943 21.1186 43.8173 21.1428 43.0403 21.155C42.0206 21.1671 41.2679 20.7301 40.7701 19.8438C40.7094 19.7467 40.588 19.6253 40.4909 19.6253C39.9203 19.601 39.3497 19.6132 38.7306 19.6132C39.6896 22.1019 39.9931 24.6392 39.5925 27.2615C39.204 29.8717 38.16 32.1905 36.4482 34.3636C37.298 34.0843 38.0021 33.8172 38.7306 33.6109C39.9689 33.2467 41.2436 33.8051 41.8142 34.9342C42.4576 36.1967 42.0084 37.6171 40.7094 38.4184C36.6182 40.9072 32.5269 43.3959 28.4478 45.8847C27.4523 46.4917 26.3718 46.783 25.2063 46.7709C21.6371 46.7588 18.08 46.7709 14.5108 46.7709C12.9204 46.7709 11.33 46.7709 9.72752 46.7709C9.56969 46.7709 9.32688 46.7952 9.29046 46.8923C8.96268 47.645 8.33139 48.0335 7.61511 48.3127C6.27968 48.3127 4.94426 48.3127 3.60883 48.3127C2.61333 48.0335 1.98204 47.4022 1.69067 46.4067C1.69067 41.1985 1.69067 35.9904 1.69067 30.7701C2.17628 29.3618 3.18392 28.8155 4.64075 28.9247C5.40559 28.9733 6.18257 28.949 6.95954 28.9369C7.97932 28.9247 8.73201 29.3618 9.22976 30.248C9.29046 30.3451 9.41187 30.4665 9.50899 30.4665C10.0796 30.4908 10.6502 30.4787 11.2693 30.4787C10.3103 27.9899 10.0067 25.4526 10.4074 22.8303C10.7959 20.2323 11.8521 17.9014 13.5395 15.7283C12.7262 15.9954 12.0463 16.226 11.3786 16.4446C10.4923 16.7359 9.66681 16.6024 8.92626 16.0439C7.42087 14.8785 7.60297 12.7175 9.27833 11.6977C13.3817 9.19683 17.4851 6.70808 21.5885 4.20719C22.5598 3.61232 23.6038 3.3331 24.745 3.3331C29.9046 3.34524 35.0642 3.3331 40.2238 3.34524C40.5152 3.34524 40.6973 3.29667 40.8672 2.99317C41.2921 2.21619 41.9841 1.81556 42.8704 1.79128C43.3438 1.77914 43.8052 1.79128 44.2787 1.79128C44.6671 1.79128 45.0678 1.79128 45.4563 1.79128C47.1195 1.77914 47.6779 2.15549 48.3092 3.68516ZM26.566 37.6657C28.6906 36.9616 30.7666 36.2696 32.8547 35.5654C32.9882 35.5169 33.1218 35.4198 33.2432 35.3348C38.0143 31.6441 39.6047 24.7606 36.9217 19.3582C36.861 19.2247 36.7638 19.0911 36.6546 19.0183C35.7926 18.4598 34.9064 17.9257 34.0444 17.3672C33.146 16.7723 32.1748 16.4688 31.0822 16.4931C29.9896 16.5174 28.897 16.5295 27.8043 16.481C27.2823 16.4567 26.736 16.4081 26.2504 16.226C24.5265 15.5705 23.5188 14.3322 23.4338 12.414C21.3093 13.1181 19.1969 13.8223 17.0845 14.5264C16.9752 14.5628 16.8781 14.6478 16.781 14.7206C12.0099 18.3506 10.3952 25.3798 13.1025 30.7336C13.1632 30.855 13.2725 30.9886 13.3817 31.0614C14.1466 31.547 14.9235 32.0205 15.6884 32.5182C16.4532 33.016 17.2545 33.4895 18.1893 33.538C19.4883 33.5987 20.7994 33.623 22.0984 33.5623C24.2108 33.4773 26.5296 35.1163 26.566 37.6657ZM40.5273 4.89919C40.3816 4.88705 40.2967 4.87491 40.2117 4.87491C34.9914 4.87491 29.7711 4.87491 24.5508 4.87491C23.7738 4.87491 23.0696 5.11771 22.4019 5.51834C18.3714 7.98281 14.3287 10.4351 10.286 12.8875C10.1403 12.9725 9.9946 13.0574 9.8732 13.1667C9.55756 13.4338 9.42401 13.7737 9.50899 14.1743C9.59398 14.5992 9.84892 14.9027 10.2738 14.9756C10.5409 15.0241 10.8444 14.9756 11.1115 14.8906C15.4698 13.4459 19.8161 11.9891 24.1744 10.5444C24.6236 10.3987 25.1213 10.3259 25.5948 10.3137C27.2823 10.2895 28.9577 10.3016 30.6452 10.3016C31.9563 10.3137 33.1582 9.96167 34.2265 9.19683C34.7 8.8569 35.1492 8.90547 35.4284 9.29396C35.7076 9.68244 35.5984 10.1074 35.1249 10.4594C33.8502 11.3942 32.4055 11.8434 30.8273 11.8555C29.1883 11.8677 27.5494 11.8555 25.9105 11.8555C25.267 11.8555 24.9878 12.1105 25.0606 12.7539C25.1092 13.1181 25.2427 13.4945 25.4613 13.7858C26.0076 14.5385 26.7846 14.9392 27.7194 14.9513C28.8605 14.9635 29.9896 14.9756 31.1308 14.9513C32.5026 14.9149 33.7288 15.3034 34.8578 16.0561C35.4648 16.4567 36.0597 16.8695 36.6789 17.258C37.8565 17.9985 39.1555 18.1563 40.5395 18.0107C40.5273 13.6402 40.5273 9.29395 40.5273 4.89919ZM9.48471 32.0691C9.48471 36.4517 9.48471 40.81 9.48471 45.2169C9.6911 45.2169 9.86106 45.2169 10.0432 45.2169C14.4865 45.2169 18.9298 45.2169 23.3853 45.2169C26.8453 45.2169 26.2747 45.3869 29.2126 43.5901C32.7454 41.4413 36.2782 39.2925 39.811 37.1315C40.0781 36.9616 40.3331 36.7066 40.4666 36.4274C40.6487 36.0511 40.5273 35.6504 40.2117 35.3469C39.8353 34.9827 39.4104 35.007 38.937 35.1648C34.9307 36.5124 30.9244 37.8357 26.9181 39.1954C25.7769 39.5839 24.6236 39.8267 23.4096 39.7781C22.0134 39.7296 20.6173 39.766 19.2212 39.766C17.9829 39.766 16.866 40.1059 15.8583 40.8343C15.3484 41.1985 14.8993 41.1742 14.62 40.7736C14.3165 40.3608 14.4501 39.9359 14.9842 39.5596C16.2347 38.6734 17.6308 38.2363 19.1605 38.2242C20.8116 38.212 22.4626 38.2242 24.1258 38.2242C24.7571 38.2242 25.0121 38.0056 24.9635 37.3622C24.9271 36.998 24.7936 36.6095 24.5872 36.3181C24.0409 35.5412 23.2517 35.1405 22.2927 35.1284C21.0786 35.1163 19.8646 35.1163 18.6506 35.1284C17.558 35.1284 16.5503 34.8735 15.6155 34.3029C14.9478 33.8901 14.2923 33.4409 13.6367 33.0039C12.3862 32.1662 11.0022 31.8991 9.48471 32.0691ZM42.1055 11.4549C42.1055 13.8465 42.1055 16.2382 42.1055 18.6298C42.1055 19.3582 42.3484 19.601 43.0889 19.601C43.9994 19.601 44.9099 19.601 45.8205 19.601C46.4882 19.601 46.7553 19.3218 46.7553 18.6541C46.7553 13.8587 46.7553 9.05115 46.7553 4.25575C46.7553 3.60018 46.4639 3.32095 45.8083 3.32095C44.9342 3.32095 44.048 3.32095 43.1739 3.32095C42.3483 3.32095 42.1055 3.55162 42.1055 4.36502C42.1055 6.73236 42.1055 9.08757 42.1055 11.4549ZM7.89434 38.6491C7.89434 36.2453 7.89434 33.8294 7.89434 31.4256C7.89434 30.7458 7.63939 30.4908 6.97168 30.4787C6.04902 30.4787 5.12636 30.4787 4.19156 30.4787C3.52385 30.4787 3.24462 30.7458 3.24462 31.4013C3.24462 36.1967 3.24462 41.0043 3.24462 45.7997C3.24462 46.4795 3.53599 46.7466 4.22799 46.7466C5.10209 46.7466 5.98832 46.7466 6.86241 46.7466C7.65153 46.7466 7.89434 46.5038 7.89434 45.7147C7.89434 43.3716 7.89434 41.0043 7.89434 38.6491Z" fill="#FF8343"/><path d="M25.8016 20.5115C25.8016 21.7741 25.8016 23.0124 25.8016 24.2992C26.0808 24.3599 26.3722 24.4206 26.6635 24.5056C27.574 24.7606 28.3753 25.1855 28.9823 25.9382C29.9778 27.1765 29.8686 28.779 28.691 29.908C27.999 30.5879 27.1491 30.9764 26.2022 31.1221C25.8501 31.1828 25.7409 31.3284 25.7773 31.6562C25.7894 31.8383 25.7894 32.0204 25.7409 32.2025C25.6559 32.591 25.3888 32.7974 24.9882 32.7974C24.5876 32.7974 24.3447 32.5789 24.2476 32.1904C24.2355 32.1661 24.2233 32.1297 24.2355 32.1054C24.3812 31.3527 23.9684 31.1706 23.3007 31.0006C21.9167 30.6486 20.8119 29.8837 20.4234 28.4026C20.3749 28.1963 20.3506 27.9899 20.3506 27.7713C20.3506 27.3586 20.642 27.0429 21.0426 27.0065C21.4311 26.9701 21.771 27.225 21.8681 27.6257C22.1595 28.8397 22.8636 29.4346 24.1748 29.5924C24.1748 28.3419 24.1748 27.1036 24.1748 25.8046C23.9077 25.7439 23.6163 25.6832 23.3371 25.5982C22.4144 25.3433 21.5889 24.8941 20.994 24.1293C20.0107 22.891 20.1564 21.2642 21.3461 20.1594C22.0381 19.5038 22.8758 19.1275 23.8106 18.9697C24.1626 18.909 24.2719 18.7633 24.2355 18.4355C24.2233 18.2534 24.2233 18.0713 24.2719 17.8892C24.3569 17.5007 24.624 17.2943 25.0246 17.2943C25.4252 17.2943 25.668 17.5128 25.7651 17.9013C25.7651 17.9135 25.7773 17.9377 25.7773 17.9499C25.6073 18.7876 26.1294 18.9454 26.7971 19.1275C28.1446 19.4917 29.2008 20.2687 29.5893 21.7012C29.6379 21.9076 29.6622 22.114 29.6622 22.3325C29.6622 22.7453 29.3708 23.0609 28.9702 23.0973C28.5817 23.1338 28.2418 22.8788 28.1325 22.4782C27.829 21.2642 27.137 20.6572 25.8016 20.5115ZM25.8137 29.6167C26.615 29.4588 27.307 29.1918 27.8047 28.5726C28.1689 28.1113 28.2175 27.565 27.9018 27.1036C27.4162 26.3752 26.6757 26.0717 25.8137 25.9382C25.8137 27.1643 25.8137 28.3662 25.8137 29.6167ZM24.1869 20.4872C23.3735 20.645 22.6694 20.9121 22.1716 21.5555C21.8074 22.029 21.7953 22.5875 22.1474 23.0731C22.6451 23.7529 23.3614 24.0321 24.1869 24.1778C24.1869 22.9274 24.1869 21.7255 24.1869 20.4872Z" fill="#FF8343"/><path d="M36.6546 24.4327C36.6789 29.9444 33.5103 34.412 28.8848 36.0145C28.2657 36.233 27.7801 35.9902 27.6951 35.4439C27.6344 35.0312 27.8408 34.7398 28.3628 34.5577C30.6087 33.7322 32.3934 32.336 33.6195 30.2843C35.2949 27.4921 35.5498 24.5299 34.4451 21.4705C34.1658 20.7057 34.2508 20.3172 34.7486 20.1229C35.2342 19.9287 35.6105 20.1715 35.8897 20.8999C36.3996 22.2232 36.6424 23.5951 36.6546 24.4327Z" fill="#FF8343"/><path d="M13.3208 25.0762C13.3329 20.1473 16.4894 15.6796 21.1148 14.0893C21.7583 13.8708 22.3046 14.1621 22.3046 14.7448C22.3046 15.2426 21.9525 15.4368 21.5519 15.5825C20.2043 16.056 19.0146 16.8087 17.9948 17.7921C15.069 20.6086 14.1221 24.882 15.5789 28.6576C15.6275 28.7668 15.676 28.8761 15.7003 28.9975C15.8217 29.4588 15.6275 29.8473 15.2147 29.9809C14.8262 30.1144 14.4013 29.9566 14.2677 29.5195C13.9642 28.5119 13.685 27.4921 13.4543 26.4602C13.3451 26.0231 13.3572 25.5375 13.3208 25.0762Z" fill="#FF8343"/></svg>