<svg xmlns="http://www.w3.org/2000/svg" width="50" height="50" viewBox="0 0 50 50" fill="none"><g clip-path="url(#clip0_7521_5760)"><path d="M17.5916 15.6837C17.5916 13.4899 17.605 11.2961 17.5781 9.11578C17.5781 8.56397 17.7665 8.21404 18.2511 7.94486C22.0734 5.75107 25.8957 3.54381 29.7046 1.33656C30.1352 1.0943 30.4986 1.08084 30.9159 1.33656C34.7651 3.57073 38.6009 5.79144 42.4636 7.9987C42.8673 8.2275 43.0558 8.55051 43.0423 9.02157C43.0423 13.463 43.0423 17.9179 43.0423 22.3593C43.0423 22.8304 42.8404 23.1399 42.4366 23.3687C38.5874 25.5894 34.7382 27.7967 30.8889 30.0309C30.4583 30.2731 30.0949 30.2462 29.6777 30.0039C25.8553 27.7832 22.0196 25.576 18.1838 23.3687C17.7531 23.1265 17.5781 22.8035 17.5781 22.3055C17.5916 20.0982 17.5916 17.891 17.5916 15.6837ZM29.4892 27.9851C29.5027 27.8505 29.5161 27.7832 29.5161 27.7025C29.5161 23.9609 29.5161 20.2193 29.5296 16.4778C29.5296 16.1682 29.3681 16.0471 29.1393 15.9125C26.0034 14.109 22.8675 12.2921 19.7315 10.4751C19.5835 10.3944 19.422 10.3136 19.2336 10.2194C19.2201 10.354 19.2066 10.4213 19.2066 10.4886C19.2066 14.2302 19.2066 17.9717 19.1932 21.7133C19.1932 22.0228 19.3278 22.144 19.57 22.2786C22.7598 24.109 25.9361 25.9528 29.1124 27.7832C29.22 27.8505 29.3277 27.9044 29.4892 27.9851ZM41.4407 10.179C40.6332 10.6501 39.9198 11.0673 39.1931 11.4576C38.897 11.6191 38.8162 11.8076 38.8162 12.1306C38.8297 13.5572 38.8162 14.9704 38.8297 16.397C38.8297 16.8815 38.6547 17.218 38.224 17.4603C37.1877 18.039 36.1648 18.6447 35.1419 19.2369C34.3479 19.681 33.7557 19.3311 33.7557 18.4159C33.7557 17.2988 33.7557 16.1817 33.7557 15.0511C33.7557 14.93 33.7288 14.8089 33.7153 14.6474C32.9482 15.0915 32.2214 15.5222 31.4946 15.926C31.212 16.074 31.1312 16.249 31.1447 16.5585C31.1581 20.2328 31.1447 23.9205 31.1581 27.5948C31.1581 27.7159 31.1716 27.8371 31.185 27.9851C31.2793 27.9447 31.3196 27.9447 31.36 27.9178C34.6305 26.0336 37.901 24.1359 41.1715 22.2651C41.4407 22.1036 41.4676 21.9017 41.4676 21.646C41.4676 19.4522 41.4676 17.2719 41.4676 15.0781C41.4407 13.4765 41.4407 11.8883 41.4407 10.179ZM32.9347 13.2207C29.5296 11.2557 26.1918 9.33113 22.854 7.40651C22.7598 7.35267 22.5848 7.3123 22.4906 7.36613C21.6831 7.81027 20.889 8.28133 20.0815 8.75239C20.1218 8.80623 20.1219 8.81969 20.1353 8.83315C23.4597 10.7578 26.7705 12.6824 30.0949 14.5935C30.1891 14.6474 30.3641 14.6878 30.4583 14.6339C31.2658 14.1898 32.0733 13.7187 32.9347 13.2207ZM40.6197 8.79277C40.2832 8.60434 40.0275 8.44284 39.7718 8.29479C36.7705 6.5586 33.7691 4.8224 30.7544 3.09967C30.5794 3.00546 30.3102 2.88433 30.1756 2.95162C29.3546 3.3823 28.5606 3.86682 27.6992 4.35134C31.1043 6.31634 34.4421 8.24096 37.7933 10.1656C37.901 10.2194 38.0894 10.2329 38.1971 10.179C38.9777 9.73489 39.7583 9.27729 40.6197 8.79277ZM24.2537 6.34326C27.6588 8.30825 30.9832 10.2194 34.3075 12.144C34.4152 12.1979 34.5901 12.2652 34.6709 12.2113C35.2362 11.9152 35.788 11.5788 36.3936 11.2288C32.9885 9.26383 29.6642 7.33921 26.3398 5.42805C26.2322 5.36076 26.0303 5.33384 25.9361 5.38768C25.3843 5.67031 24.8594 5.99333 24.2537 6.34326ZM35.3438 17.2315C35.7476 17.0027 36.0571 16.7873 36.3802 16.6528C37.0531 16.397 37.2685 15.9529 37.2146 15.2261C37.1473 14.3917 37.2012 13.5438 37.2012 12.6151C36.5686 12.9785 36.0437 13.2746 35.5188 13.5976C35.4246 13.6514 35.3573 13.8129 35.3573 13.9206C35.3438 14.9973 35.3438 16.0606 35.3438 17.2315Z" fill="#FF8343"/><path d="M12.5103 44.3511C12.7391 44.7549 12.941 45.1048 13.1294 45.4548C13.762 46.6122 13.4659 47.7562 12.3353 48.4292C11.5951 48.8598 10.8549 49.2771 10.1146 49.6943C8.99755 50.2999 7.85354 49.9904 7.22098 48.9002C4.90605 44.8356 2.60459 40.7711 0.316578 36.693C-0.315989 35.5759 0.0204874 34.4185 1.13757 33.7725C1.87781 33.3418 2.61805 32.9245 3.35829 32.5208C4.46191 31.9151 5.60592 32.2381 6.25194 33.3149C6.42691 33.6109 6.60187 33.9205 6.7903 34.2435C7.94776 33.5706 9.06485 32.9111 10.1954 32.2785C11.5547 31.4979 12.9141 30.7038 14.3138 29.9905C15.9558 29.1561 17.6247 29.0618 19.4013 29.6944C21.7566 30.5289 24.1657 31.2287 26.5479 31.9824C26.8844 32.0901 27.2343 32.117 27.5708 32.2112C29.3743 32.7765 30.2895 34.6473 29.6569 36.4239C29.6165 36.545 29.5627 36.6661 29.4685 36.9487C29.9934 36.693 30.4106 36.5315 30.8009 36.3027C33.5061 34.7415 36.1979 33.1668 38.9032 31.5921C40.0202 30.9461 41.1777 30.3943 42.4698 30.1789C44.5828 29.8155 46.2517 30.8519 46.642 32.79C46.9246 34.2031 46.3324 35.6163 45.1077 36.3835C40.0741 39.4925 35.0405 42.5746 30.0068 45.6836C28.3379 46.7199 26.5479 46.9621 24.6637 46.4642C21.3528 45.5893 18.0554 44.7011 14.7579 43.7858C14.1792 43.6243 13.6678 43.5571 13.1833 43.9743C12.9814 44.1089 12.7526 44.2031 12.5103 44.3511ZM11.7162 42.9379C12.2277 42.6418 12.6853 42.413 13.116 42.1304C13.4794 41.8882 13.8427 41.8747 14.26 41.9824C17.7189 42.9245 21.2047 43.8128 24.6502 44.7818C26.3864 45.2663 27.9476 45.0644 29.4819 44.0954C32.7525 42.0227 36.0768 40.0174 39.3742 37.9851C41.0162 36.9757 42.6447 35.9663 44.2732 34.9568C44.9327 34.5396 45.2154 33.7321 45.0135 32.938C44.8116 32.1574 44.2463 31.7132 43.3984 31.6998C43.0619 31.6998 42.712 31.6863 42.4159 31.794C41.5007 32.1439 40.5586 32.4804 39.7107 32.9515C36.9382 34.5127 34.1926 36.1547 31.4335 37.7563C30.1549 38.4965 28.7821 38.8464 27.342 38.5369C25.0271 38.0389 22.7391 37.4467 20.4376 36.868C19.9396 36.7469 19.6973 36.3162 19.805 35.8855C19.9261 35.4279 20.3434 35.1856 20.8683 35.3202C21.4066 35.4548 21.9315 35.6163 22.4564 35.7644C23.7485 36.1008 25.0271 36.4642 26.3326 36.7469C27.2747 36.9487 28.0553 36.3835 28.2168 35.5221C28.3649 34.6742 27.8265 33.8936 26.9248 33.6648C26.5614 33.584 26.198 33.5302 25.8481 33.4225C23.4658 32.6688 21.0836 31.9017 18.7014 31.1211C17.9342 30.8653 17.1671 30.6769 16.3865 30.9192C15.6059 31.148 14.8387 31.4441 14.1254 31.8344C12.0258 33.0053 9.95313 34.2301 7.86701 35.4279C7.7728 35.4817 7.69204 35.5625 7.58437 35.6432C8.97063 38.0927 10.33 40.4884 11.7162 42.9379ZM11.9047 46.6391C11.8105 46.4238 11.7566 46.2892 11.6759 46.1681C9.42824 42.1842 7.16715 38.2004 4.90606 34.2166C4.63688 33.7455 4.47537 33.7052 3.97739 33.9878C3.37174 34.3243 2.75264 34.6742 2.14699 35.0241C1.50096 35.3875 1.47404 35.4817 1.82397 36.1143C2.64496 37.5679 3.46595 39.0214 4.28694 40.475C5.70013 42.9649 7.09985 45.4413 8.51303 47.9312C8.79567 48.4292 8.94371 48.4695 9.42823 48.2004C10.1012 47.8235 10.7741 47.4601 11.4336 47.0564C11.622 46.9621 11.7566 46.7872 11.9047 46.6391Z" fill="#FF8343"/><path d="M20.8848 3.59768C20.8579 4.10912 20.656 4.40521 20.2523 4.49943C19.8485 4.59364 19.4716 4.44559 19.3505 4.05528C19.0275 3.00549 18.7449 1.94224 18.5026 0.865532C18.4084 0.461765 18.691 0.165672 19.0813 0.0445418C19.4582 -0.0631292 19.8485 0.0580011 19.9696 0.421391C20.3195 1.4981 20.6022 2.58827 20.8848 3.59768Z" fill="#FF8343"/><path d="M40.6385 4.51288C40.0463 4.52634 39.6426 4.06874 39.7637 3.54384C40.006 2.56134 40.2751 1.57884 40.5578 0.596347C40.6924 0.152205 41.123 -0.0900547 41.5268 0.0310751C41.971 0.152205 42.2132 0.569431 42.0921 1.05395C41.8498 1.99607 41.5941 2.92473 41.3518 3.8534C41.2442 4.25716 40.9885 4.48596 40.6385 4.51288Z" fill="#FF8343"/><path d="M44.7894 7.9583C44.6279 7.7968 44.3452 7.62183 44.2106 7.37957C44.0491 7.05656 44.1433 6.69317 44.4529 6.49129C45.3816 5.92602 46.3102 5.3742 47.2658 4.86276C47.6426 4.66088 48.033 4.82239 48.2483 5.21269C48.4502 5.57608 48.4098 5.97985 48.0599 6.19519C47.1312 6.77392 46.1622 7.31228 45.2066 7.85063C45.1393 7.90447 45.0316 7.90447 44.7894 7.9583Z" fill="#FF8343"/><path d="M15.7775 7.99876C15.4815 7.87763 15.3065 7.82379 15.145 7.74304C14.3509 7.28544 13.5568 6.82784 12.7628 6.37023C12.2513 6.07414 12.1167 5.63 12.359 5.19931C12.6013 4.79555 13.0589 4.70133 13.5434 4.97051C14.3778 5.44157 15.1854 5.91263 16.0198 6.39715C16.3967 6.61249 16.5851 6.97589 16.4101 7.36619C16.289 7.62191 15.9794 7.79687 15.7775 7.99876Z" fill="#FF8343"/><path d="M48.3503 14.1628C47.4216 13.9071 46.3583 13.6379 45.3086 13.3015C44.9182 13.1803 44.7702 12.8035 44.8779 12.3863C44.9855 11.9825 45.2951 11.7133 45.6989 11.8075C46.789 12.0633 47.8657 12.3459 48.929 12.6689C49.3058 12.79 49.4539 13.1803 49.3328 13.5841C49.2116 14.0148 48.9155 14.2032 48.3503 14.1628Z" fill="#FF8343"/><path d="M14.7727 11.821C15.3514 11.8076 15.6341 12.0229 15.7283 12.4267C15.836 12.8304 15.6745 13.2073 15.2841 13.3284C14.2344 13.6514 13.1711 13.9341 12.0944 14.1763C11.6906 14.2705 11.3811 14.0148 11.2599 13.6111C11.1388 13.2073 11.2869 12.817 11.6772 12.6959C12.7539 12.3459 13.8306 12.0767 14.7727 11.821Z" fill="#FF8343"/><path d="M4.05065 37.2987C3.51229 37.2987 3.05469 36.8411 3.05469 36.3027C3.05469 35.7644 3.52575 35.3202 4.0641 35.3337C4.589 35.3471 5.01969 35.7778 5.01969 36.3027C5.03315 36.8276 4.57554 37.2987 4.05065 37.2987Z" fill="#FF8343"/></g><defs><clipPath id="clip0_7521_5760"><rect width="50" height="50" fill="white"/></clipPath></defs></svg>