<svg xmlns="http://www.w3.org/2000/svg" width="50" height="50" viewBox="0 0 50 50" fill="none"><g clip-path="url(#clip0_7768_6523)"><path d="M50.0007 36.0217C49.7682 36.2053 49.5601 36.4378 49.3031 36.5847C45.215 38.7756 41.1024 40.9421 37.0143 43.1452C36.5125 43.4145 36.1208 43.4145 35.6312 43.1085C31.4942 40.477 27.3326 37.8821 23.1833 35.2751C22.8529 35.067 22.7305 34.8222 22.7305 34.455C22.7427 30.7953 22.7427 27.1234 22.7305 23.4637C22.7305 22.9863 22.9385 22.7048 23.3425 22.4967C27.5285 20.2568 31.7267 18.0292 35.9005 15.7771C36.2922 15.569 36.5614 15.7281 36.8797 15.8872C40.7842 18.0047 44.6887 20.1222 48.5932 22.2519C49.095 22.5212 49.5356 22.8884 50.013 23.2189C50.0007 27.4783 50.0007 31.75 50.0007 36.0217ZM35.5088 41.3582C35.521 41.1869 35.5455 41.0645 35.5455 40.9543C35.5455 37.723 35.5455 34.4795 35.5578 31.2482C35.5578 30.9299 35.4109 30.7953 35.1783 30.6607C31.6288 28.6656 28.067 26.6582 24.5175 24.6509C24.4073 24.5897 24.2849 24.5408 24.1258 24.4551C24.1136 24.5897 24.0891 24.6754 24.0891 24.7611C24.0891 27.7843 24.0768 30.8075 24.1013 33.8308C24.1013 34.0021 24.2727 34.2469 24.4318 34.3448C27.1123 36.0584 29.8051 37.7475 32.4856 39.4488C33.477 40.0731 34.4684 40.6973 35.5088 41.3582ZM37.0755 41.4194C37.2346 41.346 37.357 41.297 37.4794 41.2358C41.0657 39.3632 44.6519 37.4782 48.2382 35.6055C48.5442 35.4464 48.5932 35.2506 48.5932 34.9568C48.5809 31.7255 48.5932 28.482 48.5932 25.2507C48.5932 25.0915 48.5809 24.9324 48.5687 24.7121C47.5528 25.2507 46.6103 25.7403 45.6801 26.2666C45.5822 26.3278 45.5332 26.5481 45.5332 26.695C45.521 27.821 45.521 28.9593 45.5332 30.0854C45.5332 30.4526 45.423 30.7341 45.0926 30.9177C44.0889 31.4685 43.0852 32.0193 42.0693 32.5578C41.5308 32.8393 41.0412 32.5701 40.9922 31.9581C40.9555 31.5174 40.98 31.0768 40.98 30.6362C40.98 30.0609 40.98 29.4856 40.98 28.8492C40.7474 28.9593 40.6006 29.0328 40.4537 29.1062C39.45 29.657 38.4464 30.2078 37.4305 30.7463C37.149 30.8932 37.0633 31.0646 37.0633 31.3828C37.0755 34.5896 37.0755 37.7965 37.0755 41.0033C37.051 41.1134 37.0633 41.2481 37.0755 41.4194ZM40.1599 27.6007C40.0008 27.5028 39.9274 27.4538 39.8539 27.4049C36.1942 25.4098 32.5345 23.4147 28.8748 21.4196C28.6423 21.2972 28.4709 21.3095 28.2506 21.4319C27.7243 21.7378 27.1735 22.0071 26.635 22.3009C26.0719 22.6069 25.4967 22.9129 24.9214 23.2311C24.9826 23.2923 24.9948 23.329 25.0193 23.3413C28.7157 25.4343 32.4121 27.515 36.1086 29.5958C36.2065 29.657 36.3901 29.6815 36.4758 29.6325C37.6875 28.9838 38.887 28.3106 40.1599 27.6007ZM47.822 23.4269C47.7486 23.3657 47.7119 23.3168 47.6629 23.2923C43.9665 21.285 40.2578 19.2776 36.5614 17.2703C36.4635 17.2214 36.3166 17.1846 36.231 17.2214C35.3007 17.6987 34.3705 18.1883 33.4403 18.6657C33.477 18.7391 33.477 18.7758 33.5015 18.7881C37.2346 20.8443 40.9678 22.8884 44.7009 24.9324C44.7988 24.9814 44.9702 24.9814 45.0681 24.9324C45.9738 24.4428 46.8796 23.941 47.822 23.4269ZM42.3753 30.7219C42.9384 30.4159 43.4524 30.1588 43.942 29.8528C44.0399 29.7916 44.0767 29.5958 44.0767 29.4612C44.0889 28.5309 44.0767 27.6007 44.0889 26.6705C44.0889 26.4012 44.0032 26.2543 43.7707 26.1319C42.8527 25.6423 41.9469 25.1405 41.029 24.6387C38.0669 23.023 35.1171 21.3951 32.1551 19.7795C31.996 19.6938 31.7512 19.5836 31.6166 19.6448C31.0902 19.8774 30.6007 20.1834 30.0621 20.4649C30.2212 20.5506 30.3191 20.624 30.4293 20.673C34.1747 22.6925 37.9201 24.7366 41.6777 26.7317C42.1795 27.001 42.3998 27.3192 42.3753 27.8822C42.3509 28.8124 42.3753 29.7304 42.3753 30.7219Z" fill="#FF8343"/><path d="M3 7.89467C3.2448 7.53971 3.58751 7.46628 3.99142 7.46628C6.58626 7.47851 9.19333 7.46628 11.7882 7.47852C12.1064 7.47852 12.3145 7.39284 12.4981 7.11132C13.1957 6.04646 14.1137 5.20191 15.252 4.6144C15.3989 4.54096 15.5335 4.33289 15.558 4.17377C15.8763 1.78701 17.8958 0 20.3193 0C22.8285 0 24.7501 1.29742 25.3131 3.52506C25.4967 4.25945 25.8272 4.68784 26.4637 5.0428C27.3327 5.54463 28.0426 6.25454 28.5689 7.11132C28.7403 7.39284 28.9361 7.46627 29.2299 7.45403C31.8125 7.44179 34.3951 7.45403 36.9899 7.45403C37.8834 7.45403 38.0548 7.62539 38.0548 8.53113C38.0548 10.208 38.0548 11.8848 38.0548 13.5739C38.0548 13.9166 38.018 14.2594 37.6509 14.4307C37.1245 14.6755 36.6227 14.3206 36.6227 13.6841C36.6105 12.2765 36.6227 10.8689 36.6227 9.4736C36.6227 9.30224 36.6227 9.14313 36.6227 8.93505C34.2359 8.93505 31.8614 8.93505 29.5604 8.93505C29.6216 9.76736 29.695 10.5997 29.7195 11.432C29.7439 12.0684 29.4992 12.301 28.8749 12.301C23.3058 12.301 17.7367 12.301 12.1676 12.301C11.5801 12.301 11.3475 12.0807 11.3598 11.5054C11.3843 10.6609 11.4455 9.80408 11.4944 8.93505C9.21782 8.93505 6.85554 8.93505 4.46878 8.93505C4.46878 21.1014 4.46878 33.2678 4.46878 45.4586C15.1419 45.4586 25.8027 45.4586 36.5493 45.4586C36.5493 45.226 36.537 44.9812 36.5493 44.7487C36.5738 44.2836 36.8553 44.0021 37.2592 44.0143C37.6264 44.0265 37.9569 44.357 37.9813 44.7732C37.9936 45.2505 38.0425 45.7279 37.9691 46.193C37.9324 46.4623 37.6876 46.6948 37.5407 46.9396C26.0353 46.9396 14.5299 46.9396 3.02448 46.9396C3 33.9165 3 20.9056 3 7.89467ZM28.165 10.8689C28.214 8.71473 26.8064 6.64621 24.6644 5.72822C24.2116 5.53239 24.0035 5.27535 23.9912 4.77352C23.979 2.90083 22.4246 1.45653 20.4539 1.44429C18.4956 1.43205 16.9289 2.83963 16.8922 4.70008C16.8799 5.26311 16.6596 5.55687 16.17 5.77718C14.8359 6.40141 13.8445 7.3806 13.2202 8.72697C12.9142 9.40016 12.7429 10.0978 12.7674 10.8689C17.9203 10.8689 23.0243 10.8689 28.165 10.8689Z" fill="#FF8343"/><path d="M13.465 38.3105C13.465 39.1306 13.465 39.9629 13.465 40.783C13.465 41.346 13.2202 41.5908 12.6571 41.5908C11.1149 41.603 9.57269 41.603 8.03048 41.5908C7.45521 41.5908 7.22266 41.3582 7.22266 40.783C7.22266 39.1184 7.22266 37.4538 7.22266 35.8014C7.22266 35.2139 7.44297 34.9936 8.01824 34.9936C9.56046 34.9813 11.1027 34.9813 12.6449 34.9936C13.2202 34.9936 13.4649 35.2506 13.4772 35.8381C13.4649 36.6704 13.465 37.4905 13.465 38.3105ZM8.64247 40.1465C9.79301 40.1465 10.8946 40.1465 12.0207 40.1465C12.0207 38.898 12.0207 37.6741 12.0207 36.4256C10.8824 36.4256 9.78077 36.4256 8.64247 36.4256C8.64247 37.6741 8.64247 38.898 8.64247 40.1465Z" fill="#FF8343"/><path d="M7.21146 19.1186C7.21146 18.3108 7.21146 17.503 7.21146 16.6951C7.21146 16.0954 7.44402 15.8751 8.04377 15.8751C9.57374 15.8751 11.1037 15.8751 12.6337 15.8751C13.2334 15.8751 13.466 16.1076 13.466 16.7074C13.466 18.3597 13.466 19.9999 13.466 21.6522C13.466 22.252 13.2334 22.4723 12.6214 22.4723C11.0915 22.4723 9.5615 22.4723 8.03152 22.4723C7.43177 22.4723 7.21146 22.252 7.19922 21.64C7.21146 20.7955 7.21146 19.9632 7.21146 19.1186ZM8.65576 17.2459C8.65576 18.5189 8.65576 19.7428 8.65576 20.9668C9.79406 20.9668 10.8956 20.9668 12.0095 20.9668C12.0095 19.7061 12.0095 18.4821 12.0095 17.2459C10.8712 17.2459 9.78182 17.2459 8.65576 17.2459Z" fill="#FF8343"/><path d="M7.21146 28.6901C7.21146 27.8455 7.19922 27.0132 7.21146 26.1687C7.21146 25.6179 7.44401 25.3853 7.99481 25.3853C9.54926 25.3731 11.116 25.3731 12.6704 25.3853C13.2212 25.3853 13.4538 25.6301 13.4538 26.1687C13.466 27.8455 13.466 29.5224 13.4538 31.1992C13.4538 31.7378 13.209 31.9826 12.6582 31.9826C11.1037 31.9826 9.53702 31.9826 7.98257 31.9826C7.43178 31.9826 7.19922 31.75 7.19922 31.1992C7.19922 30.3792 7.21146 29.5346 7.21146 28.6901ZM8.65576 26.8419C8.65576 28.1148 8.65576 29.3266 8.65576 30.5505C9.79406 30.5505 10.9079 30.5505 12.0095 30.5505C12.0095 29.2898 12.0095 28.0659 12.0095 26.8419C10.8589 26.8419 9.76958 26.8419 8.65576 26.8419Z" fill="#FF8343"/><path d="M20.5646 18.4331C22.2048 18.4331 23.8327 18.4331 25.4728 18.4331C26.0603 18.4331 26.3418 18.6657 26.3541 19.1186C26.3541 19.5714 26.0603 19.8407 25.4973 19.8407C22.1925 19.8407 18.9 19.853 15.5953 19.8407C14.9466 19.8407 14.6161 19.4001 14.8119 18.8738C14.9466 18.5188 15.2281 18.4209 15.583 18.4209C17.2354 18.4331 18.9 18.4331 20.5646 18.4331Z" fill="#FF8343"/><path d="M19.6206 38.9593C18.1274 38.9593 16.6219 38.9593 15.1286 38.9593C14.5656 38.9593 14.2841 38.739 14.2718 38.2984C14.2596 37.8455 14.5778 37.5518 15.1164 37.5518C18.1274 37.5518 21.1384 37.5518 24.1493 37.5518C24.7124 37.5518 25.0184 37.821 25.0061 38.2739C24.9939 38.7145 24.7001 38.9593 24.1616 38.9593C22.6439 38.9716 21.1261 38.9593 19.6206 38.9593Z" fill="#FF8343"/><path d="M18.3598 29.4368C17.4296 29.4368 16.4993 29.4368 15.5691 29.4368C14.9938 29.4368 14.6879 29.2042 14.6879 28.7513C14.6756 28.2985 14.9816 28.0414 15.5446 28.0414C17.4173 28.0414 19.3023 28.0414 21.1749 28.0414C21.7135 28.0414 22.0073 28.2985 22.0195 28.7391C22.0317 29.2042 21.738 29.449 21.1627 29.449C20.2202 29.4368 19.29 29.4368 18.3598 29.4368Z" fill="#FF8343"/><path d="M23.2066 5.58142C23.1943 7.11139 21.9459 8.34761 20.4281 8.33537C18.8859 8.32313 17.6497 7.06243 17.6742 5.50798C17.6864 4.01472 18.9349 2.79074 20.4404 2.7785C22.0071 2.7785 23.2188 4.00248 23.2066 5.58142ZM20.4526 6.90331C21.236 6.90331 21.8112 6.3158 21.799 5.5447C21.7868 4.81031 21.187 4.23504 20.4404 4.23504C19.706 4.23504 19.094 4.82255 19.0818 5.55694C19.0818 6.29132 19.6937 6.90331 20.4526 6.90331Z" fill="#FF8343"/></g><defs><clipPath id="clip0_7768_6523"><rect width="50" height="50" fill="white"/></clipPath></defs></svg>