<svg xmlns="http://www.w3.org/2000/svg" width="36" height="36" viewBox="0 0 36 36" fill="none"><path d="M32.6235 23.0469L25.2422 19.7391C24.9078 19.5958 24.5429 19.5381 24.1806 19.5714C23.8182 19.6047 23.4699 19.7279 23.1672 19.9297C23.1365 19.9495 23.1073 19.9714 23.0797 19.9953L19.2219 23.2766C19.1819 23.2984 19.1373 23.3106 19.0917 23.3122C19.0462 23.3138 19.0009 23.3048 18.9594 23.2859C16.4797 22.0891 13.911 19.5359 12.7094 17.0906C12.6894 17.0498 12.679 17.0049 12.679 16.9594C12.679 16.9139 12.6894 16.869 12.7094 16.8281L16.0016 12.9219C16.0252 12.893 16.0472 12.8627 16.0672 12.8312C16.2662 12.5273 16.3865 12.1787 16.417 11.8167C16.4476 11.4547 16.3875 11.0908 16.2422 10.7578L12.9578 3.38906C12.7713 2.95407 12.4487 2.59131 12.0385 2.35522C11.6284 2.11913 11.1526 2.02245 10.6828 2.07969C8.64099 2.34812 6.76676 3.35084 5.41037 4.90047C4.05397 6.4501 3.30824 8.4406 3.31252 10.5C3.31252 22.7344 13.2656 32.6875 25.5 32.6875C27.5593 32.6914 29.5496 31.9456 31.0992 30.5893C32.6488 29.2329 33.6516 27.3589 33.9203 25.3172C33.9774 24.8496 33.8821 24.376 33.6484 23.9669C33.4147 23.5579 33.0553 23.2352 32.6235 23.0469ZM25.5 30.8125C14.3 30.8125 5.18752 21.7 5.18752 10.5C5.18229 8.89676 5.76096 7.34647 6.8154 6.13876C7.86984 4.93106 9.32792 4.14857 10.9172 3.9375H10.9531C11.0161 3.93867 11.0773 3.95885 11.1286 3.99537C11.1799 4.0319 11.2189 4.08307 11.2406 4.14219L14.5375 11.5031C14.5563 11.544 14.5661 11.5886 14.5661 11.6336C14.5661 11.6786 14.5563 11.7231 14.5375 11.7641L11.2391 15.6797C11.2146 15.7077 11.1921 15.7375 11.1719 15.7687C10.9655 16.0838 10.844 16.4469 10.819 16.8227C10.7941 17.1986 10.8667 17.5745 11.0297 17.9141C12.4156 20.7516 15.275 23.5891 18.1438 24.975C18.4853 25.1371 18.8631 25.2079 19.2401 25.1805C19.6172 25.1532 19.9808 25.0285 20.2953 24.8187C20.325 24.7984 20.3547 24.7766 20.3828 24.7531L24.2391 21.4719C24.2772 21.4514 24.3192 21.4394 24.3624 21.4367C24.4055 21.434 24.4487 21.4407 24.4891 21.4562L31.8719 24.7641C31.9322 24.7897 31.9829 24.8337 32.0168 24.8898C32.0508 24.9459 32.0662 25.0112 32.061 25.0766C31.851 26.6666 31.0692 28.1257 29.8618 29.1814C28.6543 30.237 27.1038 30.8168 25.5 30.8125Z" fill="#FF8343"/></svg>