<svg xmlns="http://www.w3.org/2000/svg" width="50" height="50" viewBox="0 0 50 50" fill="none"><path d="M38.3778 34.7319C39.4239 36.966 40.4168 39.1113 41.4274 41.239C41.8707 42.1787 42.3139 43.1184 42.7395 44.0581C43.165 44.9979 42.8104 45.5652 41.782 45.6184C40.3636 45.6716 38.9451 45.6894 37.5267 45.7957C37.2253 45.8135 36.8529 45.9908 36.6225 46.2213C35.7182 47.161 34.8494 48.1539 33.9806 49.1113C32.97 50.2461 32.4203 50.1574 31.7643 48.7567C30.6118 46.2922 29.4593 43.8277 28.3068 41.3631C28.2182 41.1681 28.1118 40.973 27.9877 40.7071C25.9842 42.3028 23.9983 42.3383 21.9593 40.7071C21.8175 40.973 21.7111 41.1681 21.6225 41.3808C20.4345 43.9163 19.2466 46.4695 18.0586 49.005C17.5622 50.0511 16.9061 50.1397 16.1437 49.2886C15.2395 48.2957 14.3175 47.2851 13.431 46.2745C13.1295 45.9376 12.8104 45.7603 12.3494 45.7603C10.9841 45.7425 9.60118 45.6716 8.23593 45.6184C7.15437 45.583 6.79975 45.0156 7.24302 44.0404C8.59053 41.1326 9.93805 38.2248 11.321 35.3347C11.5338 34.8737 11.4983 34.6078 11.0728 34.3773C10.4168 34.0227 9.76075 33.6503 9.08699 33.3312C6.88841 32.2319 6.126 30.9553 6.44514 28.5262C6.65791 26.8596 6.40968 25.3702 5.29266 24.0581C4.97351 23.6858 4.74302 23.2425 4.53025 22.817C3.92742 21.6468 3.92742 20.4766 4.53025 19.3241C4.79621 18.8099 5.0799 18.2957 5.45224 17.8702C6.39196 16.7354 6.65791 15.4589 6.48061 14.0227C6.40969 13.3667 6.40969 12.6929 6.46288 12.0369C6.55153 10.8844 7.15437 9.99786 8.14728 9.39503C8.75011 9.02269 9.38841 8.70354 10.0267 8.41985C11.0551 7.95885 11.8175 7.2319 12.2785 6.1858C12.4912 5.70708 12.7395 5.22836 12.97 4.74963C13.821 3.1007 15.204 2.30282 16.9948 2.55105C19.0693 2.83474 20.8423 2.42694 22.509 1.11488C24.087 -0.126255 25.8955 -0.143985 27.4735 1.11488C29.1402 2.44467 30.9132 2.83474 32.9877 2.55105C34.743 2.32055 36.1792 3.06524 36.9771 4.71417C38.431 7.6929 38.2891 7.6397 41.3388 9.0936C42.9522 9.85602 43.6437 11.2213 43.5728 12.9766C43.5551 13.5794 43.5019 14.1645 43.4487 14.7674C43.3423 15.8135 43.6969 16.7177 44.2998 17.5511C44.6898 18.1007 45.0444 18.6503 45.3813 19.2177C46.0728 20.4589 46.0551 21.7177 45.3813 22.9589C45.1154 23.4376 44.8494 23.934 44.4948 24.3596C43.6083 25.4411 43.3246 26.6645 43.5019 28.0298C43.5728 28.5262 43.5905 29.0404 43.5905 29.5546C43.5728 31.044 42.9345 32.1964 41.6224 32.9411C41.1083 33.2425 40.5586 33.473 40.0267 33.7567C39.4948 34.0581 38.9629 34.395 38.3778 34.7319ZM33.0764 37.7816C34.2288 37.9234 34.9912 37.4269 35.47 36.3986C35.5941 36.1149 35.7714 35.8489 35.8778 35.5652C36.5515 33.8099 37.7927 32.6752 39.5125 31.9128C41.7288 30.9376 41.9061 30.583 41.6579 28.2071C41.4629 26.3808 41.8175 24.7496 42.97 23.2957C43.2537 22.9589 43.4664 22.5688 43.6969 22.1787C44.1402 21.4518 44.1579 20.7071 43.7147 19.9801C43.431 19.5014 43.1296 19.0404 42.8104 18.5972C41.9771 17.4447 41.5338 16.1858 41.6224 14.7496C41.6579 14.2709 41.6757 13.7745 41.7288 13.2957C41.8884 12.0014 41.4451 11.044 40.1863 10.5298C39.8317 10.3879 39.5125 10.1929 39.1756 10.0511C37.7217 9.43048 36.6934 8.38438 36.0551 6.94821C35.8423 6.46949 35.5941 5.99077 35.3459 5.52977C34.9203 4.67871 34.2111 4.3241 33.2891 4.35956C32.6331 4.39503 31.9593 4.43048 31.3033 4.48368C29.9203 4.59006 28.6792 4.16453 27.5622 3.36666C27.2076 3.11843 26.8175 2.88793 26.4629 2.62197C25.47 1.89502 24.4948 1.93048 23.5196 2.6397C23.3778 2.74609 23.2182 2.81701 23.0763 2.94112C21.4274 4.34183 19.5303 4.69644 17.4203 4.43049C15.5941 4.21772 15.0622 4.46594 14.3707 6.15034C13.5196 8.20708 12.1189 9.60779 10.0444 10.4589C8.37777 11.1326 8.12954 11.7532 8.30685 13.5262C8.32458 13.6503 8.34231 13.7922 8.36004 13.9163C8.59053 15.7248 8.18273 17.356 7.06571 18.8454C5.57635 20.8489 5.57635 21.2922 7.06571 23.2957C8.18273 24.8028 8.5728 26.4518 8.36004 28.2957C8.11181 30.512 8.34231 30.9021 10.3459 31.8596C10.3813 31.8773 10.4168 31.9128 10.47 31.9128C12.1898 32.5688 13.36 33.7567 14.1224 35.4589C15.204 37.8525 15.4522 37.9589 18.1118 37.6929C19.7253 37.5333 21.1969 37.817 22.4912 38.8099C22.899 39.1113 23.3423 39.3773 23.7678 39.6433C24.6189 40.2106 25.47 40.1929 26.3033 39.6255C26.7998 39.2886 27.3139 38.9872 27.7927 38.6326C28.8033 37.9057 29.9203 37.5865 31.1615 37.6397C31.7998 37.6752 32.4381 37.7461 33.0764 37.7816ZM29.548 39.5546C30.8246 42.2674 31.9771 44.7319 33.1473 47.2674C33.5551 46.8241 33.9629 46.4872 34.2288 46.0617C35.3459 44.2887 36.9416 43.5972 38.9983 43.8808C39.4771 43.9518 39.9735 43.8986 40.5941 43.8986C39.4593 41.4695 38.4132 39.2355 37.3494 36.9837C37.2785 37.0369 37.2607 37.0546 37.243 37.0723C37.1898 37.161 37.1366 37.2674 37.0834 37.356C36.2146 38.9695 34.8849 39.7851 33.0232 39.661C32.6331 39.6255 32.2253 39.5901 31.8352 39.5723C31.1437 39.5369 30.4522 39.5546 29.548 39.5546ZM12.6863 36.8596C11.587 39.2355 10.5409 41.4695 9.38841 43.9518C10.7714 43.9518 11.9593 43.9518 13.1473 43.9518C13.6792 43.9518 14.0693 44.1468 14.4061 44.5546C15.1863 45.4589 16.0019 46.3277 16.8529 47.2674C18.0409 44.7319 19.1934 42.2674 20.4345 39.6078C19.6012 39.5901 18.9097 39.466 18.2359 39.5546C15.8068 39.9092 13.8033 39.4482 12.6863 36.8596Z" fill="#FF8343"/><path d="M38.1114 21.1858C37.8809 28.6858 31.9057 34.4128 24.5653 34.1645C17.4376 33.9163 11.7107 27.8879 11.9057 20.8312C12.1008 13.4376 18.1114 7.79929 25.5227 8.01205C32.5263 8.22482 38.3242 14.2887 38.1114 21.1858ZM13.7497 21.0794C13.7142 27.2142 18.7674 32.2851 24.9908 32.3206C31.1256 32.356 36.1965 27.3028 36.2497 21.1504C36.2852 14.9801 31.3029 9.92695 25.1327 9.87376C18.8383 9.82056 13.8029 14.7851 13.7497 21.0794Z" fill="#FF8343"/><path d="M23.7854 23.8276C24.0159 23.5971 24.1932 23.4375 24.3705 23.2779C26.179 21.4694 28.0052 19.6432 29.8138 17.8347C30.3989 17.2496 30.9308 17.1787 31.3563 17.6219C31.7818 18.0475 31.7109 18.5616 31.1435 19.1113C28.9804 21.2744 26.8173 23.4198 24.6542 25.5829C23.9804 26.2567 23.5904 26.2389 22.9166 25.5829C21.4272 24.0935 19.9379 22.6219 18.4485 21.1326C17.8989 20.5829 17.828 20.051 18.2535 19.6255C18.679 19.1999 19.1932 19.2531 19.7606 19.8205C21.1081 21.1326 22.4201 22.4623 23.7854 23.8276Z" fill="#FF8343"/></svg>