<svg xmlns="http://www.w3.org/2000/svg" width="50" height="50" viewBox="0 0 50 50" fill="none"><path d="M11.2125 34.006C10.6202 33.7502 10.0817 33.481 9.50286 33.279C7.07975 32.4175 5.39703 30.3982 6.00281 27.0193C6.13743 26.2655 6.19128 25.4847 6.27205 24.7174C6.33935 24.0443 6.20474 23.4251 5.89512 22.8193C5.45088 21.9712 5.0201 21.1097 4.60279 20.2616C3.51239 18.0808 3.91625 15.873 5.69319 14.2038C6.3932 13.5442 7.09321 12.8845 7.79322 12.2384C8.31822 11.7538 8.65477 11.1749 8.81631 10.4749C9.04516 9.47873 9.274 8.48257 9.51632 7.4864C10.0548 5.34599 11.724 3.91905 13.9048 3.71712C14.9279 3.62289 15.951 3.58251 16.9741 3.52866C17.7145 3.48827 18.3876 3.28635 18.9934 2.82865C19.7876 2.23633 20.5819 1.63056 21.3761 1.0517C23.2877 -0.348316 25.5088 -0.348315 27.4204 1.03824C28.2281 1.61709 29.0089 2.22287 29.8031 2.81519C30.4089 3.28635 31.0954 3.50173 31.8628 3.52866C32.7378 3.55558 33.6128 3.62289 34.4878 3.66328C35.8474 3.71712 37.0455 4.17482 38.0551 5.15752C39.0648 3.99982 40.061 2.85557 41.0571 1.72479C42.0667 0.594004 43.6822 0.419002 44.8937 1.26709C46.3341 2.29018 46.5091 4.26905 45.2706 5.64215C43.736 7.35178 42.2148 9.08835 40.6533 10.7711C40.3033 11.1615 40.2898 11.4307 40.6398 11.7672C41.4071 12.5076 42.161 13.248 42.9283 13.9615C45.0014 15.9 45.3649 17.9596 44.0725 20.5039C43.8033 21.0423 43.561 21.6077 43.2514 22.1193C42.5244 23.2635 42.4168 24.4885 42.6591 25.7943C42.7937 26.5482 42.8879 27.329 42.9283 28.0963C43.0495 30.3175 41.9456 32.081 39.9129 32.9829C39.159 33.3194 38.4052 33.6291 37.6244 33.9791C38.2436 35.3252 38.8494 36.6041 39.4552 37.8964C40.3975 39.9157 41.3398 41.9484 42.2956 43.9676C42.5379 44.4657 42.6321 44.9503 42.2821 45.435C41.9187 45.9196 41.4071 45.9331 40.8686 45.8388C39.4686 45.583 38.0551 45.3542 36.6551 45.085C36.2647 45.0042 36.0628 45.0984 35.8609 45.4619C35.1609 46.7273 34.407 47.9523 33.6936 49.2177C33.4243 49.6889 33.0743 50.0254 32.5089 49.9985C31.9301 49.9716 31.6204 49.6081 31.3916 49.11C29.9916 46.0946 28.5916 43.0926 27.1916 40.0772C27.0435 39.7541 26.8281 39.6195 26.5185 39.4849C25.0646 38.8657 23.6377 38.9464 22.2242 39.5522C22.0357 39.633 21.8472 39.8214 21.7665 40.0099C20.353 43.0119 18.9395 46.0273 17.553 49.0427C17.3241 49.5408 17.028 49.9581 16.4222 49.985C15.8029 50.0254 15.4529 49.635 15.1702 49.1369C14.4568 47.885 13.7164 46.6465 13.0029 45.3811C12.8279 45.0715 12.6394 45.0042 12.3164 45.0715C10.876 45.3407 9.43555 45.583 7.99514 45.8388C7.45668 45.9331 6.94513 45.9061 6.59513 45.4081C6.25859 44.9369 6.36628 44.4657 6.59513 43.9811C8.08938 40.6964 9.63748 37.3849 11.2125 34.006ZM36.9648 6.40947C36.4128 5.79023 35.7397 5.42676 34.9455 5.35945C33.9224 5.26522 32.8993 5.21137 31.8762 5.17099C30.7185 5.1306 29.6685 4.7806 28.7396 4.06713C28.0262 3.5152 27.2858 2.97673 26.5588 2.43826C25.105 1.36132 23.705 1.36132 22.2511 2.4248C21.4838 2.99019 20.7165 3.56904 19.9491 4.1479C19.0741 4.80752 18.0914 5.11714 17.001 5.17099C15.9914 5.21137 14.9818 5.26522 13.9856 5.35945C12.5452 5.49407 11.4817 6.396 11.1183 7.79602C10.8625 8.76526 10.6336 9.74797 10.4183 10.7307C10.1759 11.8211 9.66439 12.723 8.84323 13.4769C8.14322 14.123 7.44321 14.7826 6.74321 15.4423C5.54511 16.5865 5.28934 18.0135 6.01627 19.4808C6.44705 20.3558 6.89129 21.2174 7.33552 22.0789C7.77976 22.9405 7.98168 23.8424 7.88745 24.7982C7.77976 25.8213 7.67207 26.8309 7.53745 27.854C7.3086 29.5771 8.02207 30.8829 9.62402 31.5694C10.4856 31.9463 11.3471 32.3233 12.2221 32.6733C13.2452 33.104 14.0529 33.7771 14.6452 34.7194C15.1702 35.5541 15.7222 36.3887 16.2741 37.2099C17.1222 38.4618 18.4818 38.9599 19.9357 38.5426C20.9184 38.2733 21.9011 37.9637 22.8838 37.6676C23.8934 37.3579 24.9031 37.3579 25.9127 37.6676C26.8415 37.9503 27.7704 38.2464 28.7127 38.5157C30.3281 38.9868 31.6878 38.4887 32.6166 37.1022C33.1416 36.3079 33.6801 35.5002 34.1916 34.706C34.784 33.7771 35.5782 33.1175 36.5878 32.7002C37.4359 32.3502 38.284 31.9733 39.1321 31.6098C40.761 30.9098 41.4879 29.6713 41.286 27.9213C41.2052 27.2347 41.1379 26.5482 41.0167 25.8751C40.734 24.327 40.936 22.8866 41.7571 21.5135C42.1744 20.8135 42.5244 20.0596 42.8744 19.3193C43.4264 18.1212 43.3591 16.9096 42.4706 15.9269C41.4206 14.7692 40.236 13.7192 39.1052 12.6153C38.3917 13.4365 37.6782 14.2442 36.9917 15.0653C36.884 15.2 36.8436 15.4692 36.9109 15.6307C37.6378 17.6635 37.8532 19.7366 37.584 21.877C36.6821 29.254 29.6012 34.5175 22.2511 33.279C14.9549 32.0406 10.0413 25.2424 11.3202 17.9327C12.1952 12.9384 15.1299 9.43835 19.8953 7.71525C24.6877 5.97869 29.13 6.88063 33.0743 10.1114C33.1955 10.2191 33.3166 10.3134 33.4512 10.4211C34.6493 9.06142 35.807 7.74218 36.9648 6.40947ZM24.8761 20.2212C27.3935 17.3404 29.8839 14.5 32.3608 11.673C29.0896 8.30756 22.628 7.04216 17.526 10.7307C12.4914 14.3788 11.226 21.3654 14.6722 26.5751C18.1049 31.7848 25.105 33.3733 30.4358 30.1425C36.0763 26.7232 36.884 20.3558 35.5109 16.7077C35.4166 16.8288 35.3628 16.9231 35.282 17.0173C34.1378 18.3365 33.007 19.6693 31.8358 20.975C30.2474 22.7654 28.6723 24.5559 27.0435 26.2924C25.9531 27.4636 24.203 27.5847 23.0992 26.5213C21.0261 24.5289 18.9934 22.4962 17.001 20.4231C15.9779 19.3596 16.0722 17.65 17.0953 16.5731C18.2261 15.4019 20.0434 15.375 21.2549 16.5596C22.453 17.7577 23.6377 18.9692 24.8761 20.2212ZM19.2491 17.2058C18.6703 17.3135 18.2126 17.5962 18.0107 18.0538C17.7818 18.5654 17.8895 19.0904 18.3607 19.5616C20.1915 21.3924 22.0222 23.2231 23.853 25.0539C24.6069 25.8078 25.3069 25.8078 26.0204 25.027C27.2454 23.6943 28.4704 22.3481 29.6685 20.9885C34.232 15.7788 38.7821 10.5557 43.3456 5.34599C43.6283 5.02291 43.9648 4.72675 44.2341 4.37675C44.6379 3.8652 44.5437 3.12481 44.0591 2.69403C43.5744 2.26326 42.8475 2.26326 42.3629 2.72096C42.1744 2.90942 41.9994 3.11134 41.8244 3.31327C36.4667 9.43835 31.1089 15.5634 25.7511 21.675C25.1588 22.3481 24.7819 22.3616 24.1627 21.7424C22.8569 20.4366 21.5511 19.1173 20.2318 17.825C19.9491 17.5827 19.5722 17.4211 19.2491 17.2058ZM16.2606 47.8985C17.4722 45.3138 18.6299 42.8099 19.8145 40.2657C17.1087 40.3061 15.9779 39.7003 14.5241 37.4656C14.1068 36.8329 13.7029 36.2002 13.2721 35.5675C13.0971 35.3118 12.8952 35.0695 12.6394 34.7464C11.1586 37.9233 9.71825 41.0061 8.25092 44.1696C9.75863 43.9003 11.1856 43.658 12.5991 43.4023C13.4202 43.2542 13.5952 43.3349 14.026 44.0619C14.7529 45.3138 15.4799 46.5658 16.2606 47.8985ZM29.0223 40.3195C30.1935 42.8234 31.3512 45.3273 32.5628 47.8985C33.2359 46.7408 33.8551 45.6638 34.4878 44.6003C35.282 43.2273 35.0936 43.2138 36.8167 43.5234C38.0282 43.7388 39.2532 43.9407 40.559 44.1696C39.0782 41.0061 37.6513 37.9368 36.1705 34.7598C35.9147 35.0964 35.6993 35.3387 35.5109 35.6214C34.9724 36.4291 34.4474 37.2502 33.909 38.0579C33.1551 39.1887 32.1185 39.9291 30.7858 40.1849C30.2339 40.2926 29.655 40.2791 29.0223 40.3195Z" fill="#FF8343"/></svg>