<svg xmlns="http://www.w3.org/2000/svg" width="50" height="50" viewBox="0 0 50 50" fill="none"><g clip-path="url(#clip0_7781_7804)"><path d="M29.801 44.2085C29.801 42.4256 29.7742 40.7097 29.8144 38.9937C29.8278 38.2028 29.8948 37.3984 30.0289 36.6209C30.2031 35.6423 30.726 34.8514 31.4633 34.1677C33.1658 32.6126 34.8549 31.0307 36.544 29.4489C37.6299 28.4166 39.1045 28.4434 40.5255 29.5963C40.5523 29.3148 40.5791 29.0869 40.5791 28.859C40.5657 26.446 40.5121 24.033 40.5523 21.6065C40.5657 20.6547 40.6998 19.6761 40.9545 18.7511C41.2494 17.6653 41.9465 16.8341 43.1396 16.5794C44.7483 16.2309 46.4642 17.491 46.5313 19.1399C46.6519 22.0355 46.7189 24.9312 46.7994 27.8268C46.853 29.5427 46.8664 31.2586 46.9468 32.9746C47.0273 34.6905 46.4374 36.1249 45.2175 37.3314C43.3809 39.1412 41.5712 40.9912 39.7212 42.7875C39.2788 43.2165 39.1045 43.6589 39.2788 44.3024C39.5603 44.3024 39.8552 44.289 40.1502 44.3024C41.169 44.3426 41.9063 45.0799 41.9197 46.0987C41.9331 46.7958 41.9331 47.4929 41.9063 48.2034C41.8795 49.2759 41.1154 50.0132 40.0429 49.9998C36.3832 49.973 32.71 49.9462 29.0503 49.906C28.085 49.8926 27.3477 49.2357 27.2941 48.2705C27.2539 47.4259 27.2673 46.5679 27.3343 45.7234C27.388 44.9056 28.1521 44.2622 29.01 44.2219C29.2379 44.1951 29.4926 44.2085 29.801 44.2085ZM37.6165 44.2353C37.6165 44.0074 37.6433 43.793 37.6165 43.5919C37.536 42.9216 37.7908 42.439 38.2734 41.9698C40.2172 40.0796 42.1208 38.1358 44.0512 36.2322C44.9628 35.334 45.4052 34.3017 45.3516 33.0148C45.2845 31.4061 45.2577 29.784 45.2175 28.1753C45.1371 25.2261 45.0432 22.2768 44.9494 19.341C44.936 18.7645 44.5606 18.3356 43.9574 18.1881C43.4748 18.0674 43.0324 18.2417 42.7375 18.7377C42.5632 19.0192 42.4023 19.3276 42.3621 19.6493C42.2549 20.333 42.1744 21.0301 42.161 21.7272C42.1476 24.0464 42.161 26.3522 42.2012 28.6713C42.2281 30.2264 41.7857 31.5938 40.7266 32.7333C39.6676 33.8593 38.5817 34.9586 37.4958 36.0713C36.8926 36.6879 36.4368 36.755 36.048 36.3394C35.6727 35.9372 35.7799 35.5217 36.3698 34.9318C37.2948 34.0202 38.2197 33.1086 39.1179 32.1702C39.6408 31.6206 39.6407 30.9905 39.1715 30.575C38.7292 30.1728 38.0857 30.2264 37.6031 30.6822C36.0748 32.1166 34.6002 33.6046 32.9915 34.9586C31.8654 35.9104 31.3962 37.0231 31.4097 38.4441C31.4231 40.2405 31.4097 42.0368 31.4231 43.8466C31.4231 43.9672 31.4499 44.1013 31.4633 44.2622C33.5143 44.2353 35.5252 44.2353 37.6165 44.2353ZM34.5734 48.2973C34.5734 48.3241 34.5734 48.3643 34.5734 48.3911C36.3161 48.3911 38.0723 48.3777 39.815 48.4045C40.1904 48.4045 40.3244 48.2973 40.311 47.9219C40.2842 47.4259 40.2842 46.9165 40.3244 46.4205C40.3513 46.0317 40.2306 45.8842 39.815 45.8977C38.7694 45.9111 37.7103 45.8977 36.6647 45.8843C34.2651 45.8574 31.8654 45.844 29.4658 45.8038C29.0503 45.7904 28.8492 45.8708 28.876 46.34C28.9162 46.8226 28.8894 47.3052 28.8626 47.7879C28.8358 48.1766 28.9698 48.3107 29.372 48.2973C31.1013 48.2839 32.8441 48.2973 34.5734 48.2973Z" fill="#FF8343"/><path d="M20.0283 44.2086C20.3366 44.2086 20.5645 44.1952 20.7924 44.2086C21.7576 44.2488 22.4815 44.9593 22.5351 45.9245C22.5619 46.6216 22.5754 47.3187 22.5754 48.0292C22.5619 49.1687 21.8246 49.8926 20.6851 49.906C17.1192 49.9462 13.5533 49.9731 9.98741 49.9999C8.64684 50.0133 7.93634 49.3162 7.93634 47.989C7.93634 47.3858 7.92293 46.7959 7.92293 46.1927C7.92293 45.0666 8.66024 44.3293 9.79973 44.3159C10.041 44.3159 10.2957 44.3159 10.5639 44.3159C10.6711 43.7394 10.6175 43.297 10.1617 42.868C8.3117 41.0717 6.51534 39.2083 4.66535 37.4119C3.39181 36.1652 2.82877 34.704 2.8824 32.921C3.02986 28.6982 3.11029 24.462 3.24435 20.2258C3.25776 19.6628 3.24435 19.0729 3.40522 18.5501C3.76717 17.3704 4.66535 16.727 5.85846 16.5661C6.97113 16.4186 7.8291 16.9146 8.43235 17.8396C9.15626 18.9657 9.27691 20.2392 9.29031 21.5396C9.29031 23.966 9.2635 26.4059 9.2501 28.8323C9.2501 29.0736 9.27691 29.3283 9.29031 29.6634C9.94719 28.9797 10.6711 28.6446 11.5425 28.6982C12.2396 28.7384 12.8294 29.02 13.3254 29.4892C14.8939 30.9504 16.4087 32.4786 18.0442 33.8728C19.3714 34.9989 19.9746 36.3931 20.0149 38.0688C20.0551 39.9456 20.0283 41.8358 20.0283 43.7126C20.0283 43.8467 20.0283 43.9941 20.0283 44.2086ZM18.3794 44.222C18.3794 41.9296 18.4062 39.7043 18.366 37.479C18.3392 36.5272 17.8566 35.7496 17.079 35.1464C16.5562 34.7442 16.0468 34.3018 15.5642 33.846C14.4515 32.8004 13.3522 31.7279 12.253 30.6555C11.7838 30.1997 11.1537 30.1326 10.7247 30.508C10.2689 30.8968 10.2287 31.4732 10.6443 32.0228C10.7247 32.1301 10.8186 32.2239 10.9124 32.3178C11.8508 33.2562 12.8026 34.1946 13.7276 35.1464C14.103 35.5217 14.1164 35.9641 13.7946 36.2993C13.4595 36.6478 12.9903 36.6612 12.6015 36.2724C11.5291 35.2 10.4566 34.1275 9.41097 33.0417C8.13743 31.7279 7.57438 30.1729 7.65482 28.3229C7.74866 26.0573 7.70844 23.7917 7.70844 21.5262C7.70844 20.5878 7.68163 19.6494 7.21243 18.8048C6.71642 17.9201 5.73781 17.8396 5.13455 18.6574C4.97368 18.8719 4.92006 19.207 4.90665 19.5019C4.77259 23.9928 4.66535 28.4971 4.51789 32.9881C4.47767 34.275 4.89325 35.3072 5.80483 36.2054C7.80228 38.1626 9.75951 40.1601 11.757 42.1307C12.1055 42.4793 12.2798 42.8412 12.2396 43.3238C12.2128 43.6322 12.2396 43.9405 12.2396 44.1952C14.3309 44.222 16.3551 44.222 18.3794 44.222ZM15.229 48.3912C15.229 48.3644 15.229 48.3242 15.229 48.2973C16.9718 48.2973 18.7279 48.2839 20.4707 48.2973C20.8326 48.2973 20.9935 48.2035 20.9667 47.8281C20.9399 47.2919 20.9265 46.7557 20.9399 46.2329C20.9533 45.8977 20.8192 45.7905 20.4975 45.8039C19.7602 45.8307 19.0362 45.8173 18.2989 45.8307C15.5508 45.8575 12.8026 45.8843 10.0544 45.8977C9.70589 45.8977 9.478 45.9379 9.50481 46.3803C9.54503 46.8763 9.54502 47.3858 9.51821 47.8818C9.4914 48.3107 9.67908 48.4046 10.0678 48.4046C11.7972 48.3778 13.5131 48.3912 15.229 48.3912Z" fill="#FF8343"/><path d="M18.3265 12.3298C18.7823 12.5309 19.1978 12.6918 19.5866 12.8929C19.8949 13.0537 20.163 13.0672 20.4714 12.8661C20.6859 12.7186 20.9406 12.5845 21.1953 12.5443C22.0398 12.4103 22.3884 11.8606 22.6163 11.1099C22.8442 10.3592 23.005 10.2922 23.7826 10.2922C24.6003 10.2922 25.4181 10.3056 26.2358 10.2922C26.7184 10.2788 27.067 10.4664 27.1742 10.9356C27.3887 11.8606 27.9383 12.3164 28.8365 12.665C29.614 12.9733 30.2039 13.0001 30.9144 12.6114C31.5445 12.2628 31.759 12.3432 32.2818 12.8527C32.8448 13.4157 33.4079 13.9921 33.9843 14.5418C34.3597 14.9037 34.4937 15.3059 34.2122 15.7483C33.743 16.5258 33.7966 17.1961 34.1586 18.0541C34.4937 18.8584 34.9093 19.341 35.727 19.5421C36.2767 19.6762 36.5046 20.0515 36.4778 20.6145C36.4509 21.4323 36.4643 22.25 36.4778 23.0678C36.4912 23.604 36.2901 23.9794 35.7538 24.1134C34.9227 24.3145 34.4803 24.7971 34.1452 25.6283C33.81 26.4594 33.7162 27.1297 34.1988 27.8938C34.4669 28.3228 34.3865 28.7384 33.9977 29.1004C33.381 29.6902 32.7912 30.2935 32.2013 30.8967C31.8528 31.2587 31.464 31.3793 31.035 31.1112C30.2441 30.6152 29.547 30.6956 28.6891 31.0576C27.8981 31.3927 27.4557 31.7949 27.2278 32.5992C27.0401 33.2561 26.7989 33.3768 26.1286 33.3768C25.3108 33.3768 24.4931 33.3634 23.6753 33.3768C23.1525 33.3902 22.7905 33.1757 22.6699 32.6663C22.4554 31.8083 21.9728 31.3659 21.1148 31.0308C20.2971 30.709 19.6536 30.6286 18.9029 31.0844C18.4337 31.3793 18.0047 31.2587 17.616 30.8431C17.0529 30.2532 16.4765 29.6768 15.8866 29.1138C15.5113 28.7518 15.3772 28.3496 15.6587 27.9072C16.1413 27.1297 16.0609 26.4594 15.7123 25.6015C15.3772 24.7971 14.9616 24.3145 14.1439 24.1134C13.5942 23.9794 13.3798 23.604 13.3932 23.041C13.42 22.2098 13.4066 21.3787 13.3932 20.5475C13.3932 20.0515 13.5808 19.6896 14.0769 19.5823C14.9884 19.3812 15.4308 18.8182 15.766 17.9468C16.0609 17.1827 16.1279 16.5794 15.7258 15.8689C15.3638 15.2121 15.4442 15.011 15.9805 14.4613C16.5435 13.8983 17.1065 13.3219 17.683 12.7722C17.8439 12.5979 18.0852 12.4773 18.3265 12.3298ZM34.8557 21.8345C34.8557 20.9229 34.8557 20.9229 34.0245 20.6145C33.9977 20.6011 33.9575 20.5877 33.9307 20.5877C33.4079 20.4537 33.1263 20.1185 33.0057 19.5957C32.8984 19.1265 32.7644 18.6305 32.4963 18.2551C31.9064 17.4106 31.9064 16.6063 32.4426 15.7617C32.5901 15.5338 32.5365 15.3595 32.3354 15.1987C32.2148 15.1048 32.1209 14.9842 32.0137 14.8769C31.3166 14.1798 31.3032 14.153 30.4184 14.582C29.9224 14.8233 29.4934 14.7965 29.0108 14.515C28.4746 14.22 27.9115 13.9519 27.3217 13.8045C26.6648 13.6436 26.3162 13.2816 26.1018 12.6516C25.78 11.74 26.0213 11.9277 25.0427 11.9009C24.9891 11.9009 24.9489 11.9009 24.8952 11.9009C24.0239 11.9009 23.9971 11.8874 23.7289 12.7186C23.5279 13.3219 23.1659 13.6302 22.5627 13.8045C21.9862 13.9519 21.4232 14.1932 20.9138 14.4882C20.3775 14.7965 19.9217 14.8367 19.3721 14.5552C18.5678 14.1396 18.5544 14.1798 17.9243 14.7965C17.2674 15.4534 17.2406 15.4668 17.6428 16.2711C17.9243 16.8207 17.8841 17.2899 17.5623 17.8128C17.2674 18.3088 17.0261 18.8584 16.892 19.4214C16.7312 20.0783 16.3826 20.4269 15.7526 20.6548C14.8142 20.9899 15.0018 20.7486 14.9884 21.7674C14.975 22.7461 14.975 22.7729 15.8866 23.0812C16.4363 23.2689 16.7178 23.604 16.8518 24.1537C16.9859 24.6899 17.187 25.2529 17.4819 25.7221C17.8975 26.3656 17.9511 26.9554 17.5355 27.5721C17.2138 28.0547 17.3076 28.4301 17.7634 28.7384C17.7768 28.7518 17.7902 28.7652 17.8036 28.7786C18.5275 29.5025 18.5409 29.5293 19.4391 29.0869C19.9351 28.8456 20.3373 28.8859 20.8065 29.154C21.3293 29.4489 21.879 29.717 22.4554 29.8511C23.1659 30.0119 23.5949 30.3605 23.7424 31.0576C23.863 31.634 24.1713 31.8351 24.788 31.7949C25.8202 31.7279 25.847 31.7815 26.1956 30.8029C26.3699 30.3337 26.6514 30.079 27.1206 29.9315C27.7507 29.7304 28.3941 29.5025 28.9572 29.1808C29.4934 28.8725 29.9626 28.859 30.4988 29.1272C31.2898 29.5159 31.3032 29.4891 31.9332 28.859C32.5767 28.2156 32.6035 28.2022 32.1879 27.371C31.9198 26.8348 31.96 26.3924 32.255 25.8696C32.5633 25.3468 32.8046 24.7569 32.9655 24.1671C33.1263 23.5638 33.4347 23.2287 34.0111 23.041C34.8691 22.7595 34.8557 22.7326 34.8557 21.8345Z" fill="#FF8343"/><path d="M38.2863 11.2842C37.9914 11.2171 37.6294 11.1769 37.2943 11.0429C37.0262 10.9356 36.8787 10.9893 36.691 11.1903C36.1012 11.807 35.4979 12.3968 34.8947 12.9867C34.4791 13.3889 33.9965 13.4291 33.6613 13.0805C33.3128 12.732 33.3396 12.2762 33.7552 11.8472C34.3316 11.2708 34.8947 10.6809 35.4845 10.1179C35.7258 9.88998 35.7928 9.71571 35.6588 9.35375C35.0957 7.85232 35.9135 6.19001 37.4283 5.694C38.9566 5.19799 40.5653 6.02915 41.0479 7.5708C41.5171 9.09905 40.6457 10.7077 39.0906 11.1367C38.8493 11.2171 38.608 11.2305 38.2863 11.2842ZM38.3399 7.19544C37.6428 7.19544 37.1066 7.71826 37.1066 8.41536C37.1066 9.11245 37.6294 9.64868 38.3265 9.64868C39.0102 9.64868 39.5598 9.11245 39.5732 8.42876C39.5732 7.74507 39.0236 7.19544 38.3399 7.19544Z" fill="#FF8343"/><path d="M12.8955 10.9088C12.185 11.2439 11.4744 11.3378 10.7639 11.1501C9.20889 10.7345 8.32411 9.12583 8.77991 7.59758C9.24911 6.05593 10.8578 5.21137 12.386 5.70738C13.9009 6.20339 14.732 7.85229 14.1824 9.35373C14.0483 9.72909 14.1154 9.90336 14.3835 10.1581C14.9599 10.7077 15.523 11.2707 16.086 11.8472C16.5016 12.2762 16.5418 12.732 16.2067 13.0805C15.8715 13.4291 15.3755 13.4022 14.9331 12.9733C14.2494 12.2896 13.5925 11.6193 12.8955 10.9088ZM12.7346 8.41533C12.7346 7.71824 12.2118 7.18201 11.5147 7.18201C10.831 7.18201 10.2813 7.71823 10.2679 8.40192C10.2679 9.08561 10.8176 9.63525 11.5013 9.63525C12.1984 9.64865 12.7346 9.11243 12.7346 8.41533Z" fill="#FF8343"/><path d="M24.1166 7.23567C24.1166 7.11502 24.1166 7.00778 24.1166 6.88713C24.1568 6.13641 24.1434 5.54656 23.2587 5.10417C22.146 4.54113 21.8108 3.03969 22.2532 1.84659C22.6956 0.666887 23.9021 -0.097237 25.1623 0.0100085C26.3956 0.117254 27.468 1.08246 27.6959 2.27557C27.9372 3.54911 27.3474 4.83606 26.1945 5.35888C25.7789 5.54656 25.6851 5.77445 25.6985 6.19003C25.7253 6.96756 25.7119 7.75849 25.6985 8.53602C25.6985 9.08566 25.3902 9.43421 24.921 9.44761C24.4384 9.46102 24.1032 9.09907 24.1032 8.52262C24.1166 8.10705 24.1166 7.67806 24.1166 7.23567ZM26.1409 2.86542C26.1409 2.18173 25.6047 1.61869 24.921 1.61869C24.2507 1.61869 23.6876 2.16832 23.6876 2.85201C23.6876 3.5357 24.2239 4.09874 24.9076 4.09874C25.5778 4.11215 26.1409 3.54911 26.1409 2.86542Z" fill="#FF8343"/><path d="M30.164 47.8951C29.7216 47.8951 29.3865 47.5465 29.373 47.1041C29.373 46.6617 29.7484 46.2864 30.1908 46.2998C30.6198 46.3132 30.9683 46.6885 30.9549 47.1175C30.9549 47.5599 30.6064 47.9085 30.164 47.8951Z" fill="#FF8343"/><path d="M20.4563 47.1042C20.4563 47.5466 20.1077 47.8951 19.6787 47.8951C19.2229 47.8951 18.8476 47.5198 18.8744 47.0774C18.8878 46.6484 19.2632 46.2999 19.6922 46.2999C20.1077 46.3133 20.4563 46.6752 20.4563 47.1042Z" fill="#FF8343"/><path d="M24.9069 27.7061C21.6761 27.7061 19.0218 25.0384 19.0352 21.8076C19.0486 18.5902 21.6761 15.9761 24.8935 15.9493C28.1243 15.9359 30.792 18.5902 30.792 21.821C30.8054 25.0518 28.1511 27.7061 24.9069 27.7061ZM24.9203 17.5714C22.5609 17.5714 20.6573 19.475 20.6573 21.821C20.6573 24.1536 22.5743 26.084 24.9069 26.0974C27.2663 26.1108 29.2101 24.167 29.1967 21.8076C29.1833 19.4616 27.2663 17.5714 24.9203 17.5714Z" fill="#FF8343"/></g><defs><clipPath id="clip0_7781_7804"><rect width="50" height="50" fill="white"/></clipPath></defs></svg>