<svg xmlns="http://www.w3.org/2000/svg" width="50" height="50" viewBox="0 0 50 50" fill="none"><path d="M28.8817 33.2569C33.6982 35.0918 36.6798 38.5321 37.8266 43.578C38.5146 42.8899 38.9735 42.4312 39.6615 41.9725C44.0193 37.1559 45.6247 31.6514 44.7073 25.4588C44.7073 24.7707 44.7073 24.5413 45.166 24.312C45.6247 24.0826 45.8542 24.3119 46.0835 24.7706C46.0835 25 46.3128 25.2294 46.3128 25.4588C46.7715 28.4404 46.5422 31.6514 45.6248 34.6331C43.1018 42.6606 37.5973 47.7064 29.3405 49.7706C29.1111 49.7706 28.8816 49.7706 28.6523 50C27.9642 50 27.5055 49.7706 27.5055 49.3119C27.5055 48.8532 27.7349 48.3945 28.423 48.1651C28.8817 48.1651 29.5698 47.9357 30.0285 47.7064C32.0927 47.2477 33.6981 46.3302 35.533 45.4128C35.9917 45.1835 35.9917 44.9541 35.9917 44.266C35.533 39.6789 31.634 35.5504 27.0469 34.8624C20.6249 33.7156 14.8908 37.6146 13.744 44.0367C13.744 44.7247 13.7441 44.9541 14.2028 45.4128C16.267 46.789 18.5606 47.477 21.0835 47.9358H21.3129C21.7717 48.1651 22.001 48.3945 22.001 48.8532C22.001 49.3119 21.5422 49.5413 21.0835 49.5413C20.1661 49.3119 19.0193 49.0825 18.1019 48.8532C10.0744 46.1009 5.25781 40.5963 3.42295 32.3395C2.96423 30.0459 2.96429 27.523 3.19364 25.2294C3.19364 25 3.19364 25 3.19364 24.7706C3.423 24.3119 3.65241 24.0826 4.11113 24.0826C4.56984 24.0826 4.79917 24.5413 4.79917 25C4.79917 25.9174 4.56973 27.0642 4.56973 27.9816C4.56973 33.9449 6.86336 38.7614 11.2212 42.8899C11.4505 43.1192 11.4505 43.1193 11.6799 43.3486C12.1386 40.8257 13.056 38.7615 14.6615 36.9266C16.267 35.0918 18.1018 33.7156 20.6248 33.0275C18.3312 31.422 17.4138 29.1285 17.6431 26.3762C17.8725 24.5413 18.79 22.9358 20.1662 21.789C23.1478 19.4955 27.2762 19.9542 29.5698 22.7064C32.5514 25.9174 32.5514 30.5046 28.8817 33.2569ZM24.9826 22.4771C22.2303 22.4771 19.7074 24.7707 19.7074 27.523C19.7074 30.2753 22.001 32.7982 24.7533 32.7982C27.5056 32.7982 30.0285 30.5046 30.0285 27.7523C30.2579 24.7707 27.7349 22.4771 24.9826 22.4771Z" fill="#FF8343"/><path d="M31.1803 17.2019C31.1803 17.8899 30.4921 18.3486 29.804 17.8899C28.4279 17.2018 27.0519 16.5138 25.9051 15.8257C25.217 15.367 24.7583 15.367 24.2995 15.8257C23.1528 16.5138 21.7766 17.2018 20.4004 17.8899C19.9417 18.1193 19.7124 18.3486 19.2536 17.8899C18.7949 17.6606 18.795 17.2018 19.0243 16.7431C19.2537 15.1376 19.483 13.7615 19.7124 12.156C19.7124 11.6973 19.7123 11.4679 19.4829 11.2386C18.3362 10.0918 17.1894 8.945 16.0426 8.02757C15.8132 7.79821 15.584 7.3395 15.584 6.88078C15.8133 6.42207 16.0426 6.42203 16.5013 6.19267C18.1068 5.96331 19.7124 5.73398 21.3179 5.50463C21.7766 5.50463 21.7766 5.27524 22.006 5.04588C22.694 3.66974 23.382 2.29361 24.0701 0.688105C24.2995 0.22939 24.5289 6.10352e-05 24.9876 6.10352e-05C25.4463 6.10352e-05 25.6757 0.22939 25.9051 0.688105C26.5931 2.06425 27.2811 3.66974 27.9692 5.04588C28.1986 5.27524 28.1985 5.50463 28.6572 5.50463C30.2627 5.73398 31.8683 5.96331 33.4738 6.19267C33.9326 6.19267 34.1618 6.42207 34.3912 6.88078C34.6205 7.3395 34.3912 7.56884 34.1619 7.7982C33.0151 8.94499 31.8683 10.0918 30.7215 11.2386C30.4922 11.4679 30.2629 11.6973 30.4922 12.156C30.7216 13.7615 30.9508 15.367 31.4096 16.7431C31.1802 16.9725 31.1803 17.2019 31.1803 17.2019ZM18.5656 7.7982C19.483 8.71563 20.4005 9.63309 21.3179 10.5505C21.5473 10.7799 21.7765 11.2386 21.7765 11.6973C21.5472 13.0735 21.3178 14.2202 21.0885 15.5963C22.0059 15.1376 22.9234 14.6789 23.8408 14.2202C25.4463 13.3028 24.9876 13.3028 26.8224 14.2202C27.7398 14.6789 28.6573 15.1376 29.5747 15.5963C29.3454 14.2202 29.116 13.0734 28.8867 11.9266C28.6573 11.2385 28.8867 10.7799 29.3454 10.3211C30.2629 9.40372 30.9509 8.48627 31.8683 7.7982H31.639C30.4922 7.56884 29.3454 7.33946 28.1986 7.33946C27.7399 7.33946 27.5105 7.11013 27.2812 6.65141C26.8224 5.50463 26.3637 4.58721 25.6756 3.44042C25.6756 3.21107 25.4463 3.21104 25.4463 2.98168C24.9876 3.89911 24.5288 4.81657 24.0701 5.734C23.6114 6.65143 23.1528 7.33946 22.006 7.33946C21.7766 7.33946 21.5472 7.33946 21.5472 7.33946C20.1711 7.56882 19.2537 7.7982 18.5656 7.7982Z" fill="#FF8343"/><path d="M4.34514 20.8715C4.5745 19.7247 4.80383 18.3485 5.03319 17.2018C5.03319 16.743 5.03324 16.5137 4.80388 16.2843C3.88645 15.3669 3.1983 14.6788 2.28087 13.7614C2.05151 13.532 1.82227 13.0733 1.82227 12.6146C2.05162 12.1559 2.2809 12.1559 2.73961 11.9265C3.8864 11.6971 5.26263 11.4678 6.40941 11.4678C6.63877 11.4678 6.8681 11.2384 7.09746 11.0091C7.55617 9.86229 8.24427 8.94488 8.70299 7.79809C8.93235 7.33938 9.16162 7.11005 9.62033 7.11005C10.079 7.11005 10.3085 7.33938 10.5378 7.79809C10.9965 8.94488 11.6846 9.86229 12.1434 11.0091C12.3727 11.2384 12.3727 11.4678 12.8314 11.4678C13.9782 11.6972 15.1249 11.6971 16.5011 11.9265C16.9598 11.9265 17.4185 12.1559 17.4185 12.6146C17.6479 13.0733 17.1892 13.3027 16.9598 13.7614C16.0424 14.6788 15.3544 15.3669 14.4369 16.2843C14.2076 16.5137 14.2075 16.743 14.2075 17.2018C14.4368 18.3485 14.6662 19.7247 14.8955 20.8715C14.8955 21.3302 14.8956 21.5596 14.6662 21.7889C14.2075 22.0183 13.9782 22.0183 13.5194 21.7889C12.3727 21.3302 11.4552 20.6421 10.3084 20.1834C10.079 19.954 9.62039 19.954 9.39103 20.1834C8.24425 20.8715 7.0974 21.3302 6.17997 22.0183C5.03319 22.0183 4.34514 21.5596 4.34514 20.8715ZM6.40941 19.266C7.09749 18.8072 8.01492 18.5779 8.70299 18.1192C9.39106 17.6605 9.84975 17.6605 10.5378 18.1192C11.2259 18.5779 11.914 18.8072 12.8314 19.266C12.602 18.3485 12.602 17.6604 12.3727 16.743C12.1433 16.0549 12.3726 15.5963 13.0607 15.1376C13.7488 14.6788 14.2075 13.9907 14.6662 13.3027C13.9782 13.3027 13.5195 13.0733 12.8314 13.0733C11.6846 13.0733 10.9965 12.6146 10.5378 11.4678C10.3085 11.0091 10.079 10.321 9.62033 9.63292C9.16162 10.5504 8.70296 11.4678 8.24425 12.1559C8.01489 12.6146 7.78547 12.844 7.32676 12.844C6.40933 13.0733 5.49187 13.0733 4.57444 13.3027C5.26252 13.9907 5.9507 14.6788 6.40941 15.3669C6.63877 15.5962 6.86807 16.0549 6.63872 16.5136C6.63872 17.4311 6.63877 18.3485 6.40941 19.266Z" fill="#FF8343"/><path d="M45.6283 20.8716C45.6283 21.5597 44.9403 22.0184 44.2522 21.789C43.1055 21.3303 41.9586 20.6422 41.0412 19.9541C40.5825 19.7248 40.3531 19.7248 40.1237 19.9541C38.9769 20.6422 38.0596 21.1009 36.9128 21.5597C36.4541 21.789 36.2247 21.789 35.766 21.5597C35.3073 21.3303 35.3072 20.8716 35.5365 20.6422C35.7659 19.4955 35.9954 18.1193 36.2247 16.9725C36.2247 16.7432 36.2246 16.5138 35.9953 16.0551C35.0779 15.1377 34.1605 14.4496 33.4724 13.5321C33.2431 13.3028 33.0137 12.8441 33.0137 12.3854C33.243 11.9266 33.4724 11.6973 33.9312 11.6973C35.0779 11.468 36.454 11.4679 37.6008 11.2386C37.8302 11.2386 38.0596 11.0092 38.0596 10.7798C38.5183 9.63305 39.2064 8.48627 39.6651 7.56884C39.8945 7.11013 40.1237 6.8808 40.5824 6.8808C41.0412 6.8808 41.2706 7.11013 41.4999 7.56884C41.9586 8.71563 42.6467 9.8624 43.1055 10.7798C43.1055 11.0092 43.3347 11.2386 43.5641 11.2386C44.7108 11.4679 45.8577 11.6973 47.2339 11.6973C47.6926 11.6973 48.1513 11.9266 48.3806 12.3854C48.61 12.8441 48.1513 13.3028 47.9219 13.5321C47.0045 14.4496 46.3165 15.1377 45.399 16.0551C45.1697 16.2845 44.9402 16.5138 45.1696 16.9725C45.1696 18.3487 45.399 19.7248 45.6283 20.8716ZM43.5641 19.2661C43.3347 18.3487 43.3348 17.6606 43.1055 17.2019C42.8761 16.2845 43.1054 15.5964 43.7935 15.1377C44.2522 14.679 44.711 14.2202 45.399 13.5321C44.9403 13.5321 44.4815 13.3028 44.0228 13.3028C41.7292 12.8441 42.1879 13.3028 41.2705 11.4679C41.0411 11.0092 40.8118 10.5505 40.5824 10.0918C40.1237 11.0092 39.6651 11.9267 39.2064 12.6147C38.977 13.0734 38.7476 13.3028 38.2889 13.3028C37.3714 13.5321 36.454 13.5322 35.5365 13.7615C36.2246 14.4496 36.6834 15.1376 37.3715 15.5964C37.8302 16.0551 37.8301 16.2844 37.8301 16.7431C37.6008 17.6606 37.6009 18.578 37.3715 19.4955C38.2889 19.0367 38.977 18.578 39.8944 18.1193C40.3531 17.8899 40.8118 17.8899 41.2705 18.1193C41.9586 18.578 42.6466 18.8074 43.5641 19.2661Z" fill="#FF8343"/><path d="M24.9858 49.9999C24.5271 49.9999 24.0684 49.5412 24.0684 49.0825C24.0684 48.6238 24.5271 48.1651 24.9858 48.1651C25.4446 48.1651 25.9033 48.6238 25.9033 49.0825C25.9033 49.5412 25.4446 49.9999 24.9858 49.9999Z" fill="#FF8343"/></svg>