<svg xmlns="http://www.w3.org/2000/svg" width="50" height="50" viewBox="0 0 50 50" fill="none"><path d="M42.1471 28.164C41.9779 29.1276 41.6393 29.9349 41.1055 30.6771C41.0273 30.7812 40.9753 30.9505 40.9883 31.0807C41.2357 33.9453 41.5091 36.8099 41.7695 39.6614C41.8867 41.0026 42.0169 42.3437 42.1471 43.763C42.8372 43.763 43.5273 43.763 44.2174 43.763C45.1029 43.763 45.3372 43.9844 45.3372 44.8958C45.3372 45.7552 45.3372 46.6146 45.3372 47.4739C45.3372 48.151 45.0638 48.4375 44.3997 48.4375C39.2826 48.4375 34.1784 48.4375 29.0612 48.4375C28.4232 48.4375 28.1497 48.151 28.1367 47.5C28.1367 46.5625 28.1237 45.612 28.1367 44.6745C28.1367 44.0364 28.4232 43.763 29.0742 43.763C29.8034 43.763 30.5325 43.763 31.3268 43.763C31.3919 43.0599 31.4701 42.3698 31.5352 41.6797C31.8607 38.151 32.1732 34.6354 32.4857 31.1068C32.4987 30.9505 32.4206 30.7552 32.3294 30.625C30.4284 27.8385 31.1185 24.4922 33.9831 22.6693C34.1263 22.5781 34.2695 22.3958 34.3086 22.2396C35.5716 17.4739 36.8086 12.6953 38.0586 7.92967C38.1888 7.42186 37.9544 7.10936 37.4336 7.10936C34.1003 7.10936 30.7539 7.09634 27.4206 7.1354C27.043 7.1354 26.6784 7.47394 26.2878 7.59113C25.8581 7.70832 25.7669 7.95572 25.7799 8.35936C25.806 9.41405 25.793 10.4687 25.7799 11.5234C25.7799 11.7838 25.832 11.9401 26.1055 12.0833C26.9258 12.513 27.3424 13.2292 27.3424 14.1406C27.3424 14.4792 27.4596 14.6224 27.7201 14.7786C28.7096 15.3255 29.6992 15.9114 30.6888 16.4583C31.0925 16.6797 31.2617 16.9792 31.2617 17.4479C31.2487 18.8802 31.2747 20.3125 31.2357 21.7318C31.2227 22.0182 31.0925 22.3828 30.8841 22.5911C29.9596 23.5677 28.9831 24.5052 28.0326 25.4687C27.7461 25.7552 27.4466 25.9375 27.0299 25.7552C26.6263 25.5729 26.5482 25.2344 26.5482 24.8307C26.5612 23.4114 26.5482 22.0052 26.5482 20.5859C26.5482 19.8568 26.2878 19.5963 25.5456 19.5833C25.1419 19.5833 24.7253 19.5833 24.3216 19.5833C23.7096 19.5963 23.4232 19.8698 23.4232 20.4818C23.4102 21.914 23.4102 23.3463 23.4232 24.7656C23.4232 25.1823 23.3711 25.5469 22.9414 25.7422C22.4987 25.9375 22.1992 25.7161 21.9128 25.4167C20.9883 24.4792 20.0378 23.5677 19.1263 22.6172C18.918 22.3958 18.7487 22.0312 18.7487 21.7318C18.7096 20.2995 18.7357 18.8672 18.7227 17.4479C18.7227 16.9922 18.8919 16.6797 19.2956 16.4583C20.3112 15.8984 21.3008 15.3125 22.3034 14.7526C22.5378 14.6224 22.655 14.4922 22.6419 14.1927C22.6159 13.2552 23.0456 12.539 23.8789 12.0833C24.1133 11.9531 24.2044 11.8359 24.2044 11.5625C24.1914 10.4297 24.1914 9.28384 24.2044 8.15103C24.2044 7.90363 24.1654 7.7604 23.8789 7.65623C22.668 7.17446 21.9518 6.27603 21.8607 4.97394C21.7695 3.6979 22.3164 2.68228 23.4362 2.05728C24.582 1.41926 25.7148 1.52342 26.7956 2.25259C26.9518 2.35676 27.1471 2.42186 27.3294 2.42186C31.1445 2.43488 34.9466 2.43488 38.7617 2.42186C38.944 2.42186 39.1393 2.35676 39.2956 2.25259C41.5872 0.872383 44.3346 1.92707 45.1419 4.47915C45.194 4.64842 45.3893 4.84374 45.5586 4.89582C47.3425 5.46874 48.4102 6.88801 48.4102 8.76301C48.4102 13.8802 48.4102 18.9974 48.4102 24.1146C48.4102 26.4583 46.7175 28.138 44.3737 28.151C43.6706 28.164 42.9154 28.164 42.1471 28.164ZM45.207 6.47134C44.9466 7.39582 44.4648 8.12499 43.7357 8.68488C43.6315 8.76301 43.5924 8.93228 43.5664 9.06249C43.3841 10.013 43.2148 10.9766 43.0326 11.9271C42.3294 15.7552 41.6393 19.5833 40.9492 23.4114C40.9102 23.5937 40.9232 23.8542 41.0273 23.9974C41.6003 24.7656 41.9648 25.612 42.1471 26.6015C42.8893 26.6015 43.6185 26.6015 44.3477 26.6015C45.9232 26.6015 46.8867 25.638 46.8867 24.0495C46.8867 21.2109 46.8867 18.3724 46.8867 15.5208C46.8867 13.2422 46.8867 10.9765 46.8867 8.6979C46.8867 7.63019 46.2487 6.77082 45.207 6.47134ZM32.9023 43.7239C35.4935 43.7239 38.0065 43.7239 40.5586 43.7239C40.207 39.8437 39.8555 36.0026 39.5039 32.0963C37.6419 33.0729 35.832 33.0729 33.9701 32.0963C33.6055 36.0156 33.2539 39.8568 32.9023 43.7239ZM39.4909 22.6693C40.2982 18.2161 41.0924 13.8411 41.8737 9.5703C41.0143 9.38801 40.2201 9.21874 39.3737 9.03644C38.2669 13.2682 37.1471 17.5781 36.0013 21.9661C37.2643 21.8359 38.3841 22.0573 39.4909 22.6693ZM36.7044 31.276C38.8659 31.289 40.6367 29.5443 40.6367 27.3958C40.6367 25.2604 38.9049 23.5026 36.7826 23.4765C34.5951 23.4635 32.8242 25.2083 32.8242 27.3828C32.8242 29.5182 34.569 31.276 36.7044 31.276ZM21.7695 23.0859C21.8086 23.0599 21.8477 23.0338 21.8867 23.0078C21.8867 22.5651 21.8867 22.1354 21.8867 21.6927C21.8867 21.237 21.8737 20.7812 21.8867 20.3255C21.9128 19.0495 22.9154 18.0469 24.1914 18.0208C24.7383 18.0078 25.2982 18.0078 25.8451 18.0208C27.0951 18.0599 28.0977 19.0364 28.1237 20.2995C28.1367 21.0156 28.1237 21.7318 28.1237 22.4479C28.1237 22.6432 28.1237 22.8515 28.1237 23.0469C28.6706 22.6432 29.1003 22.2135 29.5169 21.7578C29.6081 21.6536 29.6732 21.4713 29.6732 21.3281C29.6862 20.2213 29.6862 19.1146 29.6732 18.0208C29.6732 17.8646 29.556 17.6432 29.4258 17.5651C28.5534 17.0443 27.6549 16.5364 26.7565 16.0417C26.6523 15.9766 26.444 15.9766 26.3398 16.0417C25.3503 16.6667 24.3997 16.5885 23.4492 15.8984C22.4727 16.4583 21.4831 17.0182 20.5065 17.5911C20.3893 17.6562 20.3112 17.8776 20.3112 18.0208C20.2982 19.1146 20.2982 20.1953 20.3112 21.289C20.3112 21.4193 20.3372 21.6015 20.4154 21.6927C20.8581 22.1745 21.3138 22.6302 21.7695 23.0859ZM43.7357 45.3515C39.0352 45.3515 34.3867 45.3515 29.7253 45.3515C29.7253 45.8724 29.7253 46.3672 29.7253 46.8489C34.4128 46.8489 39.0612 46.8489 43.7357 46.8489C43.7357 46.3541 43.7357 45.8724 43.7357 45.3515ZM41.431 7.87759C42.707 7.87759 43.7617 6.8229 43.7617 5.55988C43.7747 4.27082 42.707 3.20311 41.4049 3.20311C40.1289 3.20311 39.0742 4.2578 39.0742 5.52082C39.0742 6.83592 40.1289 7.89061 41.431 7.87759ZM28.0586 5.52082C31.2096 5.52082 34.3477 5.52082 37.4596 5.52082C37.5638 4.99999 37.668 4.51821 37.7721 4.02342C34.5299 4.02342 31.2878 4.02342 28.0456 4.02342C28.0716 4.29686 28.1107 4.53124 28.1107 4.77863C28.1237 5.01301 28.0846 5.24738 28.0586 5.52082ZM26.5612 4.79165C26.5742 3.93228 25.8971 3.22915 25.0378 3.20311C24.1654 3.17707 23.4362 3.88019 23.4362 4.75259C23.4362 5.59894 24.1263 6.30207 24.9857 6.31509C25.832 6.34113 26.5482 5.63801 26.5612 4.79165ZM25.0117 13.3463C24.5951 13.3463 24.2305 13.6849 24.2174 14.1015C24.2044 14.5443 24.569 14.9088 25.0117 14.8958C25.4284 14.8828 25.7799 14.5312 25.7799 14.1146C25.7799 13.6979 25.4414 13.3594 25.0117 13.3463Z" fill="#FF8343"/><path d="M18.7493 34.4271C18.7493 37.7084 18.7493 40.9896 18.7493 44.2709C18.7493 46.7969 17.1087 48.4375 14.5566 48.4375C11.6139 48.4375 8.6582 48.4375 5.71549 48.4375C3.20247 48.4375 1.54883 46.7839 1.54883 44.2969C1.54883 37.6954 1.54883 31.1068 1.54883 24.5053C1.54883 22.0053 3.20247 20.3646 5.71549 20.3646C8.68424 20.3646 11.64 20.3646 14.6087 20.3646C17.0827 20.3646 18.7493 22.0183 18.7493 24.4792C18.7493 27.7995 18.7493 31.1068 18.7493 34.4271ZM3.13736 43.724C7.83788 43.724 12.4993 43.724 17.1478 43.724C17.1478 37.474 17.1478 31.2631 17.1478 25.0651C12.4603 25.0651 7.81184 25.0651 3.13736 25.0651C3.13736 31.2891 3.13736 37.5 3.13736 43.724ZM3.33268 23.4506C7.90299 23.4506 12.4342 23.4506 16.9785 23.4506C16.7181 22.5912 15.9238 21.9401 14.9733 21.9271C11.7702 21.9011 8.55403 21.9011 5.3509 21.9271C4.40038 21.9401 3.59309 22.5912 3.33268 23.4506ZM16.9785 45.3516C12.4082 45.3516 7.87695 45.3516 3.3457 45.3516C3.5931 46.211 4.40038 46.862 5.3509 46.875C8.55403 46.9011 11.7572 46.9011 14.9733 46.875C15.9108 46.862 16.7051 46.224 16.9785 45.3516Z" fill="#FF8343"/><path d="M15.7152 14.1926C15.5329 14.414 15.4027 14.7135 15.1943 14.7916C14.9599 14.8828 14.6474 14.8046 14.387 14.7395C14.2568 14.7005 14.1657 14.5182 14.0615 14.401C12.0042 12.0051 8.3714 12.0051 6.30109 14.3749C6.23599 14.4531 6.1839 14.5312 6.1188 14.5963C5.78026 14.9609 5.33755 15.026 4.99901 14.7395C4.64745 14.4531 4.60838 14.0104 4.92088 13.6197C5.88442 12.4088 7.1214 11.5885 8.6188 11.2369C11.3402 10.6119 13.5797 11.4843 15.3766 13.5546C15.5068 13.6979 15.5719 13.9192 15.7152 14.1926Z" fill="#FF8343"/><path d="M10.2982 14.1276C11.5482 14.2187 12.6941 14.8046 13.5014 15.9895C13.7878 16.4062 13.6967 16.8489 13.3321 17.1093C12.9675 17.3698 12.5248 17.2916 12.2253 16.875C11.1576 15.3515 9.17845 15.2994 8.07168 16.888C7.78522 17.2916 7.31647 17.3567 6.96491 17.0833C6.60032 16.8229 6.54824 16.3932 6.82168 15.9635C7.48574 14.9218 8.89199 14.1276 10.2982 14.1276Z" fill="#FF8343"/><path d="M10.1306 18.802C9.70088 18.789 9.36234 18.4375 9.37536 18.0078C9.38838 17.5781 9.73994 17.2395 10.1696 17.2526C10.5863 17.2656 10.9379 17.6302 10.9379 18.0468C10.9248 18.4635 10.5603 18.8151 10.1306 18.802Z" fill="#FF8343"/><path d="M39.0743 27.3568C39.0874 28.6459 38.0327 29.7136 36.7306 29.7136C35.4545 29.7136 34.3999 28.6719 34.3868 27.4089C34.3738 26.1068 35.4285 25.0521 36.7306 25.0521C38.0066 25.0521 39.0613 26.0808 39.0743 27.3568ZM37.5118 27.3829C37.5118 26.9662 37.1733 26.6146 36.7436 26.6016C36.3009 26.5886 35.9363 26.9662 35.9493 27.3959C35.9624 27.8125 36.3139 28.1511 36.7436 28.1511C37.1603 28.1511 37.5118 27.7995 37.5118 27.3829Z" fill="#FF8343"/><path d="M42.2012 5.54684C42.2012 5.9635 41.8496 6.31506 41.433 6.31506C40.9902 6.31506 40.6257 5.95048 40.6517 5.50777C40.6647 5.09111 41.0163 4.75256 41.446 4.75256C41.8496 4.77861 42.2012 5.13017 42.2012 5.54684Z" fill="#FF8343"/><path d="M25.0121 3.98438C25.4287 3.9974 25.7803 4.33594 25.7803 4.7526C25.7803 5.19531 25.4027 5.54687 24.973 5.53385C24.5564 5.52083 24.2178 5.15625 24.2308 4.73958C24.2439 4.32292 24.5954 3.98438 25.0121 3.98438Z" fill="#FF8343"/><path d="M12.9027 35.1823C12.486 35.1823 12.1475 35.1953 11.809 35.1823C11.2751 35.1693 10.9366 34.8568 10.9496 34.388C10.9626 33.9323 11.3012 33.6328 11.835 33.6198C12.1605 33.6068 12.486 33.6198 12.8897 33.6198C12.7855 33.4635 12.7074 33.3594 12.6423 33.2552C12.434 32.8906 12.486 32.5521 12.7855 32.2786C13.085 32.0052 13.4626 31.9661 13.7621 32.2396C14.348 32.7734 14.9209 33.3333 15.4548 33.9193C15.7673 34.2578 15.7022 34.6354 15.3506 35.013C14.8819 35.4948 14.4131 35.9635 13.9314 36.4323C13.5407 36.8229 13.098 36.8489 12.7595 36.5495C12.4209 36.25 12.4209 35.8333 12.7725 35.3776C12.7855 35.3385 12.8116 35.2995 12.9027 35.1823Z" fill="#FF8343"/><path d="M10.937 37.9166C11.1062 37.7994 11.1974 37.7083 11.3016 37.6562C11.6661 37.4479 12.0047 37.4999 12.2781 37.7994C12.5385 38.0859 12.6036 38.4505 12.3432 38.7369C11.7703 39.3619 11.1844 39.9609 10.5463 40.5208C10.2208 40.8072 9.84322 40.664 9.54374 40.3645C9.07499 39.8958 8.59323 39.427 8.12448 38.9453C7.74687 38.5546 7.70781 38.164 8.00729 37.8124C8.30676 37.4479 8.71041 37.4479 9.17916 37.7734C9.21822 37.7994 9.25729 37.8255 9.37447 37.9166C9.37447 37.526 9.37447 37.2005 9.37447 36.8749C9.38749 36.302 9.68697 35.9505 10.1687 35.9635C10.6375 35.9635 10.937 36.315 10.937 36.901C10.937 37.2005 10.937 37.513 10.937 37.9166Z" fill="#FF8343"/><path d="M7.44697 33.6197C7.83759 33.6197 8.18915 33.6067 8.54071 33.6197C9.0355 33.6328 9.36103 33.9583 9.36103 34.401C9.36103 34.8437 9.03551 35.1562 8.52769 35.1692C8.17613 35.1822 7.82457 35.1692 7.39488 35.1692C7.49905 35.2994 7.53811 35.3515 7.59019 35.4166C7.87665 35.8333 7.86363 36.2239 7.53811 36.5104C7.21259 36.8098 6.7829 36.7968 6.4053 36.4322C5.91051 35.9635 5.42873 35.4817 4.95998 34.9869C4.56936 34.5833 4.58238 34.1927 4.95998 33.789C5.41571 33.3203 5.87144 32.8645 6.34019 32.4088C6.75686 32.0052 7.14748 31.9531 7.49904 32.2395C7.86363 32.539 7.87665 32.9296 7.51207 33.4374C7.49905 33.4895 7.48603 33.5286 7.44697 33.6197Z" fill="#FF8343"/><path d="M10.936 30.8724C10.936 31.3021 10.949 31.6537 10.936 32.0052C10.923 32.5 10.6105 32.8386 10.1678 32.8386C9.72507 32.8386 9.39955 32.513 9.38653 32.0182C9.37351 31.6667 9.38653 31.3151 9.38653 30.8854C9.28237 30.9636 9.23029 30.9896 9.1782 31.0287C8.70945 31.3542 8.30581 31.3412 8.00633 30.9896C7.71987 30.6511 7.75893 30.2474 8.13654 29.8568C8.60529 29.375 9.07404 28.9063 9.55581 28.4505C9.97248 28.0469 10.3631 28.0599 10.7928 28.4766C11.2615 28.9323 11.7173 29.388 12.173 29.8568C12.5636 30.2604 12.6027 30.6771 12.2902 31.0287C11.9907 31.3542 11.6001 31.3672 11.1574 31.0547C11.0923 31.0026 11.0532 30.9636 10.936 30.8724Z" fill="#FF8343"/></svg>