<svg width="20" height="20" viewBox="0 0 20 20" fill="none" xmlns="http://www.w3.org/2000/svg">
<path d="M18.7375 7.75179C18.4009 7.4 18.0527 7.0375 17.9214 6.71875C17.8 6.42679 17.7929 5.94286 17.7857 5.47411C17.7723 4.60268 17.758 3.61518 17.0714 2.92857C16.3848 2.24196 15.3973 2.22768 14.5259 2.21429C14.0571 2.20714 13.5732 2.2 13.2812 2.07857C12.9634 1.94732 12.6 1.59911 12.2482 1.2625C11.6321 0.670536 10.9321 0 10 0C9.06786 0 8.36875 0.670536 7.75179 1.2625C7.4 1.59911 7.0375 1.94732 6.71875 2.07857C6.42857 2.2 5.94286 2.20714 5.47411 2.21429C4.60268 2.22768 3.61518 2.24196 2.92857 2.92857C2.24196 3.61518 2.23214 4.60268 2.21429 5.47411C2.20714 5.94286 2.2 6.42679 2.07857 6.71875C1.94732 7.03661 1.59911 7.4 1.2625 7.75179C0.670536 8.36786 0 9.06786 0 10C0 10.9321 0.670536 11.6312 1.2625 12.2482C1.59911 12.6 1.94732 12.9625 2.07857 13.2812C2.2 13.5732 2.20714 14.0571 2.21429 14.5259C2.22768 15.3973 2.24196 16.3848 2.92857 17.0714C3.61518 17.758 4.60268 17.7723 5.47411 17.7857C5.94286 17.7929 6.42679 17.8 6.71875 17.9214C7.03661 18.0527 7.4 18.4009 7.75179 18.7375C8.36786 19.3295 9.06786 20 10 20C10.9321 20 11.6312 19.3295 12.2482 18.7375C12.6 18.4009 12.9625 18.0527 13.2812 17.9214C13.5732 17.8 14.0571 17.7929 14.5259 17.7857C15.3973 17.7723 16.3848 17.758 17.0714 17.0714C17.758 16.3848 17.7723 15.3973 17.7857 14.5259C17.7929 14.0571 17.8 13.5732 17.9214 13.2812C18.0527 12.9634 18.4009 12.6 18.7375 12.2482C19.3295 11.6321 20 10.9321 20 10C20 9.06786 19.3295 8.36875 18.7375 7.75179ZM17.7063 11.2598C17.2786 11.7063 16.8357 12.1679 16.6009 12.7348C16.3759 13.2795 16.3661 13.9018 16.3571 14.5045C16.3482 15.1295 16.3384 15.7839 16.0607 16.0607C15.783 16.3375 15.133 16.3482 14.5045 16.3571C13.9018 16.3661 13.2795 16.3759 12.7348 16.6009C12.1679 16.8357 11.7063 17.2786 11.2598 17.7063C10.8134 18.1339 10.3571 18.5714 10 18.5714C9.64286 18.5714 9.18304 18.1321 8.74018 17.7063C8.29732 17.2804 7.83214 16.8357 7.26518 16.6009C6.72054 16.3759 6.09821 16.3661 5.49554 16.3571C4.87054 16.3482 4.21607 16.3384 3.93929 16.0607C3.6625 15.783 3.65179 15.133 3.64286 14.5045C3.63393 13.9018 3.62411 13.2795 3.39911 12.7348C3.16429 12.1679 2.72143 11.7063 2.29375 11.2598C1.86607 10.8134 1.42857 10.3571 1.42857 10C1.42857 9.64286 1.86786 9.18304 2.29375 8.74018C2.71964 8.29732 3.16429 7.83214 3.39911 7.26518C3.62411 6.72054 3.63393 6.09821 3.64286 5.49554C3.65179 4.87054 3.66161 4.21607 3.93929 3.93929C4.21696 3.6625 4.86696 3.65179 5.49554 3.64286C6.09821 3.63393 6.72054 3.62411 7.26518 3.39911C7.83214 3.16429 8.29375 2.72143 8.74018 2.29375C9.18661 1.86607 9.64286 1.42857 10 1.42857C10.3571 1.42857 10.817 1.86786 11.2598 2.29375C11.7027 2.71964 12.1679 3.16429 12.7348 3.39911C13.2795 3.62411 13.9018 3.63393 14.5045 3.64286C15.1295 3.65179 15.7839 3.66161 16.0607 3.93929C16.3375 4.21696 16.3482 4.86696 16.3571 5.49554C16.3661 6.09821 16.3759 6.72054 16.6009 7.26518C16.8357 7.83214 17.2786 8.29375 17.7063 8.74018C18.1339 9.18661 18.5714 9.64286 18.5714 10C18.5714 10.3571 18.1321 10.817 17.7063 11.2598ZM14.0768 7.35179C14.1432 7.41812 14.1959 7.4969 14.2318 7.58361C14.2678 7.67033 14.2863 7.76327 14.2863 7.85714C14.2863 7.95101 14.2678 8.04396 14.2318 8.13067C14.1959 8.21738 14.1432 8.29616 14.0768 8.3625L9.07679 13.3625C9.01045 13.4289 8.93167 13.4816 8.84496 13.5175C8.75824 13.5535 8.6653 13.572 8.57143 13.572C8.47756 13.572 8.38461 13.5535 8.2979 13.5175C8.21119 13.4816 8.13241 13.4289 8.06607 13.3625L5.92321 11.2196C5.78919 11.0856 5.71389 10.9038 5.71389 10.7143C5.71389 10.5247 5.78919 10.343 5.92321 10.2089C6.05724 10.0749 6.23903 9.9996 6.42857 9.9996C6.61812 9.9996 6.7999 10.0749 6.93393 10.2089L8.57143 11.8473L13.0661 7.35179C13.1324 7.28537 13.2112 7.23269 13.2979 7.19674C13.3846 7.1608 13.4776 7.1423 13.5714 7.1423C13.6653 7.1423 13.7582 7.1608 13.845 7.19674C13.9317 7.23269 14.0104 7.28537 14.0768 7.35179Z" fill="#FF8343"/>
</svg>
