<svg xmlns="http://www.w3.org/2000/svg" width="50" height="50" viewBox="0 0 50 50" fill="none"><g clip-path="url(#clip0_7775_6986)"><path d="M19.2658 31.1968C16.9062 31.1968 14.5744 31.1968 12.201 31.1968C12.201 33.14 12.201 35.0554 12.201 37.0541C12.3953 37.0541 12.5757 37.0541 12.7562 37.0541C14.9631 37.0541 17.17 37.0541 19.363 37.0541C20.168 37.0541 20.3901 37.2623 20.3901 38.0673C20.3901 39.4831 20.404 40.9127 20.3901 42.3285C20.3901 42.6893 20.4873 42.8698 20.8343 43.0225C22.25 43.6332 22.9995 45.1183 22.6664 46.548C22.3333 48.0053 21.0702 49.0325 19.599 49.0186C18.1138 49.0186 16.8368 47.9637 16.5315 46.4786C16.24 45.0628 17.0034 43.5499 18.3775 43.0086C18.7662 42.8559 18.8494 42.6616 18.8356 42.2868C18.8078 41.2597 18.8217 40.2465 18.8217 39.2194C18.8217 39.0389 18.8217 38.8446 18.8217 38.6503C16.5731 38.6503 14.394 38.6503 12.1593 38.6503C12.1593 39.1222 12.1732 39.5664 12.1593 40.0105C12.1454 40.7184 11.9234 40.9405 11.2155 40.9405C9.7581 40.9405 8.30071 40.9544 6.84332 40.9266C6.45468 40.9127 6.31588 41.0932 6.17708 41.3985C5.59413 42.6893 4.26166 43.4527 2.94307 43.2723C1.51344 43.078 0.430804 42.0231 0.208726 40.6074C-0.0272327 39.0806 0.930476 37.6093 2.41563 37.1651C3.92853 36.721 5.56636 37.4566 6.1632 38.9001C6.32976 39.3026 6.53796 39.3859 6.92659 39.3859C8.12027 39.3582 9.31394 39.372 10.5354 39.372C10.5354 36.6238 10.5354 33.9311 10.5354 31.1551C10.3133 31.1551 10.0912 31.169 9.86913 31.1551C8.5783 31.0857 7.24584 31.1829 5.99665 30.9192C2.38787 30.1558 -0.0411126 26.9634 0.000527119 23.2575C0.0421668 19.6626 2.54055 16.609 6.10768 15.8317C6.24648 15.804 6.3714 15.7623 6.56572 15.7207C6.48244 13.028 7.38464 10.7378 9.60542 9.09998C11.8123 7.47603 14.2413 7.19843 16.8368 8.12838C16.9201 7.93407 17.0034 7.75363 17.0867 7.55931C19.127 2.99282 23.874 0.43892 28.5237 0.827557C33.8259 1.27171 37.9204 5.17197 38.8365 9.97441C38.9198 10.4325 39.1141 10.5018 39.5305 10.5018C44.7216 10.5435 48.8855 13.8885 49.8016 18.9131C50.5373 22.966 49.2187 26.3527 45.9846 28.9482C45.6793 29.1981 45.5821 29.3924 45.596 29.7949C45.9569 36.3046 41.2238 42.2035 34.7836 43.3139C27.6632 44.5354 21.0841 40.1216 19.5434 33.0844C19.4185 32.4876 19.363 31.863 19.2658 31.1968ZM45.3323 27.5047C45.4156 27.4631 45.4711 27.4353 45.4988 27.4076C48.7051 24.465 50.0098 19.3989 46.5676 15.2904C44.555 12.8892 41.9039 11.9176 38.781 12.2091C38.0176 12.2785 37.6983 12.0703 37.6289 11.3763C37.1154 6.61547 33.465 3.02058 28.6209 2.47926C24.0266 1.96571 19.6684 4.83885 18.1832 9.34982C17.9334 10.1271 17.517 10.2659 16.7397 9.94665C16.0735 9.68293 15.3656 9.39146 14.6716 9.33594C10.8963 9.0167 8.00923 11.876 8.16191 15.7068C8.21743 17.1226 8.21743 17.1226 6.82944 17.3169C3.48438 17.7749 1.08315 21.0506 1.65223 24.354C2.19355 27.4631 4.66417 29.5728 7.82879 29.6006C11.5208 29.6145 15.2129 29.6006 18.9188 29.6006C19.0299 29.6006 19.1548 29.5867 19.2658 29.5728C19.7655 23.2158 24.6235 18.1497 30.7861 17.3585C33.5899 16.9976 36.2548 17.4834 38.7254 18.8576C42.1677 20.7591 44.3329 23.7016 45.3323 27.5047ZM32.4656 41.9676C38.892 41.9676 44.0831 36.8043 44.0692 30.3917C44.0692 24.0348 38.8643 18.8298 32.4934 18.802C26.0809 18.7743 20.8759 23.9654 20.862 30.3779C20.862 36.7904 26.0392 41.9676 32.4656 41.9676ZM18.1416 45.8678C18.1416 46.7284 18.8217 47.4363 19.6684 47.4501C20.515 47.464 21.2784 46.7284 21.2645 45.8678C21.2507 45.0212 20.5567 44.3272 19.6961 44.3272C18.8217 44.3272 18.1416 45.0073 18.1416 45.8678ZM1.90208 40.2604C1.90208 41.107 2.60994 41.8149 3.45662 41.8288C4.28941 41.8288 5.02505 41.1209 5.02505 40.2881C5.03893 39.4276 4.31718 38.7058 3.44274 38.7058C2.59607 38.7058 1.90208 39.3998 1.90208 40.2604Z" fill="#FF8343"/><path d="M28.3719 5.43568C28.3719 5.94924 28.0804 6.17132 27.428 6.21296C25.2628 6.324 23.5972 7.29559 22.4868 9.16938C22.348 9.39145 22.2508 9.62741 22.1398 9.86337C21.89 10.363 21.5013 10.5296 21.0433 10.3353C20.6269 10.1548 20.4742 9.73845 20.6824 9.23877C21.7373 6.74039 23.6249 5.24136 26.3038 4.75557C26.7202 4.67229 27.1643 4.64453 27.5946 4.65841C28.0665 4.67229 28.3719 5.00541 28.3719 5.43568Z" fill="#FF8343"/><path d="M9.272 24.8259C8.84172 24.8259 8.46696 24.4789 8.48084 24.0486C8.48084 23.6322 8.8556 23.2714 9.28588 23.2714C9.71615 23.2714 10.0354 23.5906 10.0354 24.0209C10.0493 24.465 9.71616 24.812 9.272 24.8259Z" fill="#FF8343"/><path d="M13.2013 24.8259C12.7572 24.8398 12.4102 24.4928 12.4102 24.0625C12.4102 23.6322 12.771 23.2714 13.2013 23.2852C13.6177 23.2852 13.9508 23.6184 13.9647 24.0348C13.9786 24.4511 13.6316 24.812 13.2013 24.8259Z" fill="#FF8343"/><path d="M6.12118 24.0625C6.1073 24.5067 5.77418 24.8398 5.33002 24.8259C4.88587 24.812 4.56663 24.465 4.58051 24.0209C4.59439 23.6045 4.94139 23.2852 5.35778 23.2852C5.80194 23.2714 6.13506 23.6045 6.12118 24.0625Z" fill="#FF8343"/><path d="M37.0038 26.6164C37.0871 26.6581 37.1149 26.6858 37.1426 26.6858C38.7666 26.8524 39.1274 27.241 39.1274 28.8927C39.1274 31.4189 39.1274 33.945 39.1274 36.4711C39.1274 37.7897 38.5445 38.3727 37.2259 38.3727C34.0474 38.3727 30.8828 38.3727 27.7043 38.3727C26.3857 38.3727 25.8027 37.7897 25.8027 36.4711C25.8027 33.8895 25.8027 31.3078 25.8027 28.74C25.8027 27.2688 26.2469 26.7969 27.7182 26.6997C27.7737 26.6997 27.8153 26.6719 27.9264 26.6442C27.7737 24.8953 28.0929 23.2714 29.5364 22.0638C30.3831 21.3559 31.3547 20.9951 32.4512 20.9951C33.9225 21.0089 35.13 21.6058 36.0461 22.7578C36.9899 23.9237 37.0732 25.2701 37.0038 26.6164ZM27.4128 36.7765C30.7995 36.7765 34.1446 36.7765 37.5313 36.7765C37.5451 36.6655 37.5729 36.5822 37.5729 36.4989C37.5729 33.8895 37.5729 31.2801 37.5868 28.6568C37.5868 28.1987 37.3092 28.2681 37.0455 28.2681C34.0058 28.2681 30.9799 28.2681 27.9402 28.2681C27.7737 28.2681 27.6071 28.282 27.4267 28.2959C27.4128 31.1551 27.4128 33.945 27.4128 36.7765ZM29.4115 26.6719C31.438 26.6719 33.4228 26.6719 35.4493 26.6719C35.4493 26.2694 35.4493 25.8808 35.4493 25.506C35.4215 23.9376 34.2834 22.73 32.7149 22.5774C31.2437 22.4386 29.8695 23.4518 29.5781 24.9508C29.4532 25.506 29.4531 26.0751 29.4115 26.6719Z" fill="#FF8343"/><path d="M32.4375 29.2952C33.5618 29.2814 34.6167 30.0864 34.8943 31.169C35.1858 32.2933 34.6861 33.4592 33.6451 33.9728C33.3259 34.1254 33.2009 34.3059 33.2426 34.639C33.2565 34.7917 33.2565 34.9582 33.2426 35.1109C33.1871 35.569 32.8956 35.791 32.4653 35.791C32.0628 35.791 31.7852 35.5828 31.7019 35.1526C31.5353 34.2642 31.5353 34.2642 30.8552 33.6952C30.0502 33.0151 29.7587 31.9185 30.1196 30.9192C30.4805 29.9476 31.3966 29.2952 32.4375 29.2952ZM33.4091 31.6965C33.3953 31.169 33.0066 30.7943 32.4792 30.7943C31.9517 30.7943 31.5492 31.1829 31.5492 31.7103C31.5492 32.2517 31.9795 32.6681 32.5069 32.6542C33.0066 32.6403 33.4091 32.21 33.4091 31.6965Z" fill="#FF8343"/></g><defs><clipPath id="clip0_7775_6986"><rect width="50" height="50" fill="white"/></clipPath></defs></svg>