<svg xmlns="http://www.w3.org/2000/svg" width="50" height="50" viewBox="0 0 50 50" fill="none"><path d="M2.91046 24.9697C2.91046 22.6249 2.91046 20.292 2.91046 17.9471C3.15096 17.2136 3.55981 16.6003 4.28132 16.2516C4.36549 16.2155 4.43764 16.0472 4.43764 15.9389C4.44967 15.2535 4.44967 14.5561 4.43764 13.8706C4.43764 13.7624 4.38954 13.6061 4.31739 13.57C3.55981 13.2574 3.18704 12.62 2.91046 11.9106C2.91046 9.56567 2.91046 7.23281 2.91046 4.88793C3.53576 3.37278 4.08891 3 5.73634 3C14.719 3 23.7138 3 32.6965 3C34.2838 3 35.2097 3.92593 35.2217 5.51323C35.2217 7.43724 35.2097 9.34922 35.2217 11.2732C35.2217 12.2833 34.8129 13.0289 33.923 13.5219C33.8148 13.582 33.6946 13.7624 33.6946 13.8827C33.6705 14.5561 33.6705 15.2295 33.6946 15.9029C33.6946 16.0351 33.8028 16.2155 33.911 16.2756C34.8249 16.7687 35.2338 17.5262 35.2217 18.5604C35.2097 19.7148 35.2217 20.8692 35.2217 22.0236C35.2217 22.2761 35.2217 22.5287 35.2217 22.8293C36.0154 22.6369 36.7129 22.709 37.3382 23.154C38.6489 24.116 40.14 24.4767 41.7393 24.5128C43.0861 24.5489 44.3969 24.3204 45.7076 24.0077C47.1746 23.647 48.4012 24.4767 48.6417 25.9558C48.7138 26.3647 48.774 26.7855 48.8221 27.2064C48.9183 27.964 48.9904 28.7216 49.0746 29.4791C49.0746 30.4652 49.0746 31.4633 49.0746 32.4493C49.0145 32.7981 48.9664 33.1588 48.9062 33.5075C47.9202 40.0131 44.5291 44.8351 38.7451 47.9737C37.9514 48.4066 37.0977 48.7312 36.2679 49.104C36.0875 49.104 35.9072 49.104 35.7268 49.104C35.5584 49.0198 35.3901 48.9236 35.2097 48.8515C30.9529 47.18 27.682 44.3661 25.4093 40.4219C25.1808 40.0131 24.9283 39.8808 24.4714 39.8808C18.1582 39.8928 11.8451 39.8928 5.53192 39.8928C4.81041 39.8928 4.12499 39.7966 3.63196 39.2435C3.31931 38.8947 3.13894 38.4378 2.89844 38.0289C2.89844 35.6841 2.89844 33.3512 2.89844 31.0063C3.13894 30.2728 3.54779 29.6595 4.28132 29.3228C4.35347 29.2867 4.42561 29.1665 4.42561 29.0943C4.43764 28.3608 4.43764 27.6273 4.42561 26.8938C4.42561 26.8096 4.36549 26.6653 4.29334 26.6412C3.55981 26.3166 3.18704 25.6792 2.91046 24.9697ZM47.6196 30.4051C47.4632 29.0222 47.3189 27.6393 47.1386 26.2564C47.0544 25.583 46.6936 25.3906 46.0323 25.5109C45.0943 25.6913 44.1443 25.8957 43.1943 25.9919C40.8014 26.2204 38.5166 25.8957 36.5084 24.4406C36.1477 24.1881 35.823 24.2242 35.4743 24.4767C34.0192 25.5349 32.3478 25.9678 30.5801 26.052C29.0529 26.1242 27.5498 25.9197 26.0827 25.5349C25.3732 25.3546 25.0005 25.559 24.8922 26.2204C24.5074 28.6254 24.2549 31.0424 24.6517 33.4715C25.734 40.0973 29.4137 44.7149 35.5945 47.3483C35.8952 47.4806 36.1477 47.4686 36.4483 47.3483C43.1823 44.6908 47.7999 38.0289 47.6196 30.4051ZM19.0841 4.53921C14.5507 4.53921 10.0052 4.53921 5.47179 4.53921C4.72624 4.53921 4.44966 4.80376 4.44966 5.52526C4.44966 7.42521 4.44966 9.3372 4.44966 11.2372C4.44966 11.9466 4.71422 12.2112 5.4237 12.2112C14.5146 12.2112 23.6056 12.2112 32.6965 12.2112C33.4541 12.2112 33.6825 11.9707 33.6825 11.2011C33.6825 9.3372 33.6825 7.48534 33.6825 5.62146C33.6825 4.75566 33.4661 4.52718 32.6003 4.52718C28.0909 4.5392 23.5815 4.53921 19.0841 4.53921ZM19.0962 17.5984C14.5387 17.5984 9.99321 17.5984 5.43572 17.5984C4.72624 17.5984 4.44966 17.863 4.44966 18.5724C4.44966 20.4964 4.44966 22.4084 4.44966 24.3324C4.44966 24.9938 4.71422 25.2704 5.37559 25.2824C11.328 25.2824 17.2804 25.2824 23.2328 25.2704C23.3891 25.2704 23.5935 25.1501 23.6897 25.0178C24.3271 24.1039 25.2169 23.7672 26.3232 24.0077C27.189 24.1881 28.0548 24.3685 28.9326 24.4647C30.4478 24.633 31.9269 24.5008 33.3579 23.9115C33.6224 23.8033 33.7066 23.659 33.7066 23.3824C33.6946 21.8192 33.7066 20.268 33.6946 18.7047C33.6946 17.8028 33.4781 17.5864 32.5762 17.5864C28.0789 17.5984 23.5815 17.5984 19.0962 17.5984ZM22.9322 30.6696C22.7879 30.6576 22.6796 30.6576 22.5834 30.6576C16.8595 30.6576 11.1356 30.6576 5.41167 30.6576C4.72624 30.6576 4.44966 30.9342 4.44966 31.6196C4.44966 33.4835 4.44966 35.3353 4.44966 37.1992C4.44966 38.1372 4.65409 38.3536 5.58002 38.3536C11.6647 38.3536 17.7494 38.3536 23.834 38.3536C23.9904 38.3536 24.1467 38.3416 24.3631 38.3296C23.341 35.8404 22.848 33.3151 22.9322 30.6696ZM6.0009 16.0351C14.7311 16.0351 23.4252 16.0351 32.1193 16.0351C32.1193 15.2655 32.1193 14.532 32.1193 13.7985C23.3891 13.7985 14.707 13.7985 6.0009 13.7985C6.0009 14.5561 6.0009 15.2655 6.0009 16.0351ZM23.1967 26.8577C17.4247 26.8577 11.7248 26.8577 6.01292 26.8577C6.01292 27.6273 6.01292 28.3488 6.01292 29.0823C11.6887 29.0823 17.3285 29.0823 22.9803 29.0823C23.0524 28.3368 23.1246 27.6153 23.1967 26.8577Z" fill="#FF8343"/><path d="M34.4167 37.9569C35.5711 36.574 36.7015 35.2152 37.8318 33.8564C39.0343 32.4134 40.2368 30.9824 41.4393 29.5394C41.6678 29.2748 41.9083 29.0704 42.2811 29.1426C42.9064 29.2628 43.1108 29.9362 42.6659 30.4773C41.776 31.5596 40.8742 32.6178 39.9843 33.688C38.397 35.588 36.8097 37.4879 35.2224 39.3879C34.6812 40.0252 34.2965 40.0373 33.6952 39.448C32.7572 38.5101 31.8193 37.5841 30.8934 36.6462C30.5927 36.3456 30.5086 35.9968 30.7491 35.6241C30.9535 35.3114 31.2661 35.2152 31.6149 35.3355C31.7712 35.3836 31.9275 35.5158 32.0478 35.6361C32.7212 36.2975 33.3946 36.9709 34.056 37.6322C34.1762 37.7405 34.2965 37.8367 34.4167 37.9569Z" fill="#FF8343"/><path d="M29.8589 8.38712C29.8589 8.12256 29.8468 7.84599 29.8589 7.58144C29.8829 7.17259 30.1475 6.89601 30.5323 6.87196C30.9531 6.83588 31.2898 7.02829 31.3259 7.42511C31.386 8.06244 31.386 8.71179 31.3259 9.34912C31.2898 9.73392 30.893 9.97442 30.5323 9.9143C30.1354 9.85417 29.8829 9.61367 29.8589 9.19279C29.8468 8.92824 29.8589 8.65167 29.8589 8.38712Z" fill="#FF8343"/><path d="M25.2046 8.42343C25.2046 8.68798 25.2287 8.96455 25.2046 9.2291C25.1685 9.64998 24.892 9.86643 24.4951 9.91453C24.1344 9.95061 23.7496 9.68605 23.7255 9.30125C23.6774 8.68798 23.6774 8.0747 23.7255 7.46142C23.7616 7.05257 24.0622 6.84814 24.4831 6.84814C24.8679 6.84814 25.1685 7.1127 25.2046 7.50952C25.2287 7.82217 25.2046 8.1228 25.2046 8.42343Z" fill="#FF8343"/><path d="M26.7783 8.36313C26.7783 8.09858 26.7542 7.82201 26.7783 7.55745C26.8143 7.1486 27.0548 6.9081 27.4757 6.86C27.8846 6.82393 28.2453 7.06443 28.2694 7.4853C28.3175 8.07453 28.3175 8.68781 28.2694 9.27703C28.2453 9.68588 27.9327 9.90234 27.5238 9.91436C27.139 9.92639 26.8143 9.62576 26.7783 9.21691C26.7662 8.92831 26.7783 8.65173 26.7783 8.36313Z" fill="#FF8343"/><path d="M13.7094 7.61749C14.1302 7.62951 14.4669 8.00229 14.4549 8.41114C14.4309 8.83202 14.0821 9.1567 13.6492 9.13265C13.2404 9.1086 12.9277 8.78392 12.9277 8.36304C12.9277 7.95419 13.2885 7.60546 13.7094 7.61749Z" fill="#FF8343"/><path d="M8.29801 8.3992C8.28599 8.82008 7.92523 9.14475 7.49233 9.13273C7.05943 9.1207 6.74678 8.77198 6.77083 8.32705C6.79488 7.9182 7.13158 7.59352 7.54044 7.60555C7.94929 7.61757 8.31004 7.99035 8.29801 8.3992Z" fill="#FF8343"/><path d="M11.3771 8.3871C11.3771 8.80797 11.0164 9.14468 10.5955 9.13265C10.1626 9.12063 9.83791 8.78392 9.84993 8.35102C9.86196 7.94217 10.1987 7.61749 10.6075 7.60547C11.0164 7.60547 11.3771 7.97824 11.3771 8.3871Z" fill="#FF8343"/><path d="M29.8589 21.4224C29.8589 21.1578 29.8468 20.8812 29.8589 20.6167C29.8829 20.2199 30.1595 19.9433 30.5443 19.9192C30.9652 19.8952 31.2898 20.0876 31.3379 20.4964C31.3981 21.1217 31.386 21.747 31.35 22.3723C31.3259 22.7571 30.9291 22.9977 30.5683 22.9736C30.1835 22.9495 29.8829 22.6489 29.8589 22.228C29.8468 21.9635 29.8589 21.6989 29.8589 21.4224Z" fill="#FF8343"/><path d="M25.216 21.4583C25.216 21.7229 25.2401 21.9995 25.216 22.264C25.18 22.6849 24.8673 22.9615 24.4825 22.9735C24.0977 22.9855 23.749 22.7089 23.7249 22.3001C23.6889 21.7229 23.6889 21.1337 23.737 20.5565C23.773 20.1476 24.1218 19.8951 24.5306 19.9311C24.9515 19.9672 25.192 20.2077 25.2281 20.6166C25.2281 20.8932 25.216 21.1697 25.216 21.4583Z" fill="#FF8343"/><path d="M26.7783 21.4343C26.7783 21.1457 26.7542 20.8692 26.7783 20.5806C26.8143 20.1837 27.115 19.9192 27.4998 19.9192C27.9206 19.9192 28.2333 20.1236 28.2573 20.5325C28.3054 21.1457 28.3054 21.759 28.2573 22.3723C28.2333 22.7571 27.8485 23.0216 27.4877 22.9856C27.0909 22.9375 26.8143 22.721 26.7783 22.3001C26.7662 22.0115 26.7783 21.7229 26.7783 21.4343Z" fill="#FF8343"/><path d="M11.3771 21.4344C11.3771 21.8553 11.0284 22.204 10.6075 22.192C10.1866 22.192 9.86196 21.8793 9.84993 21.4705C9.83791 21.0496 10.1626 20.6888 10.5835 20.6768C11.0043 20.6648 11.3771 21.0135 11.3771 21.4344Z" fill="#FF8343"/><path d="M14.4552 21.4464C14.4552 21.8673 14.1065 22.204 13.6736 22.204C13.2407 22.192 12.916 21.8553 12.9281 21.4224C12.9401 21.0255 13.2888 20.6888 13.6856 20.6768C14.0945 20.6648 14.4552 21.0255 14.4552 21.4464Z" fill="#FF8343"/><path d="M7.53914 20.6768C7.94799 20.6888 8.30874 21.0496 8.29671 21.4584C8.28469 21.8793 7.92394 22.204 7.49103 22.192C7.07016 22.1799 6.76953 21.8673 6.76953 21.4344C6.76953 21.0135 7.11826 20.6648 7.53914 20.6768Z" fill="#FF8343"/><path d="M14.4552 34.4935C14.4552 34.9144 14.1185 35.2511 13.6856 35.2511C13.2527 35.2511 12.916 34.9023 12.928 34.4815C12.9401 34.0846 13.2768 33.7479 13.6736 33.7359C14.0825 33.7239 14.4552 34.0726 14.4552 34.4935Z" fill="#FF8343"/><path d="M11.378 34.4815C11.39 34.9024 11.0413 35.2511 10.6084 35.2511C10.1875 35.2511 9.86285 34.9505 9.85082 34.5296C9.82677 34.0967 10.1635 33.748 10.5843 33.7239C10.9932 33.7119 11.366 34.0606 11.378 34.4815Z" fill="#FF8343"/><path d="M7.52744 35.2511C7.08251 35.2511 6.75783 34.9264 6.76985 34.4935C6.76985 34.0846 7.09454 33.7479 7.50339 33.7359C7.91224 33.7239 8.28501 34.0726 8.29704 34.4815C8.30906 34.9023 7.96034 35.2511 7.52744 35.2511Z" fill="#FF8343"/></svg>