<svg xmlns="http://www.w3.org/2000/svg" width="50" height="50" viewBox="0 0 50 50" fill="none"><path d="M27.8897 42.7044C28.6434 44.9341 29.7582 46.8182 31.454 48.3256C31.5953 48.4512 31.8779 48.4669 32.0977 48.4669C33.6836 48.4826 35.2695 48.4669 36.8553 48.4826C37.0594 48.4826 37.3264 48.4355 37.4677 48.5454C37.6875 48.7024 37.9544 48.9851 37.9701 49.2206C37.9701 49.4561 37.7346 49.7544 37.5148 49.9115C37.3578 50.0371 37.0751 49.99 36.8553 49.99C28.9888 49.99 21.1223 49.99 13.2558 49.99C13.0517 49.99 12.7848 50.0371 12.6435 49.9272C12.4236 49.7387 12.1253 49.4561 12.141 49.2049C12.1567 48.9694 12.455 48.7024 12.6906 48.5297C12.8162 48.4355 13.0674 48.4826 13.2558 48.4826C14.8417 48.4826 16.4275 48.4983 18.0134 48.4669C18.296 48.4669 18.6572 48.3256 18.8613 48.1372C20.4472 46.6612 21.4992 44.8398 22.2214 42.7201C21.9388 42.7201 21.719 42.7201 21.4992 42.7201C16.616 42.7201 11.7328 42.7201 6.86527 42.7201C4.60424 42.7201 3.25391 41.3698 3.25391 39.1245C3.25391 33.1893 3.25391 27.2541 3.25391 21.3346C3.25391 19.1206 4.60425 17.7703 6.83388 17.7546C9.12631 17.7389 11.4344 17.7546 13.7269 17.7546C13.931 17.7546 14.1508 17.7546 14.4492 17.7546C14.3706 17.5034 14.3392 17.2992 14.2607 17.1108C13.35 14.4729 12.4236 11.8508 11.513 9.21291C11.1832 8.25512 10.7907 7.97249 9.78578 7.92538C8.60816 7.86258 7.41483 7.76837 6.23721 7.68986C5.67195 7.64275 5.37362 7.36013 5.40503 6.87338C5.43643 6.41803 5.73477 6.1511 6.28432 6.18251C7.63466 6.26102 9.00069 6.32382 10.351 6.44943C11.5287 6.57505 12.3765 7.21881 12.8005 8.33362C13.0988 9.1187 13.3971 9.90379 13.6327 10.7203C13.8054 11.3326 14.1351 11.4582 14.7318 11.2541C14.6219 10.0922 15.3284 9.60545 16.349 9.36993C16.5375 9.32283 16.7102 9.24432 16.8986 9.18151C17.8093 8.89888 18.2175 7.89398 17.7936 7.0461C17.6052 6.66926 17.401 6.30812 17.2283 5.91558C16.9457 5.31892 17.0556 4.75366 17.511 4.28261C17.9977 3.76446 18.5002 3.26201 19.0183 2.77526C19.5051 2.31991 20.0703 2.25711 20.667 2.52403C20.9496 2.64965 21.2322 2.75956 21.4835 2.93227C22.0487 3.34052 22.5983 3.35622 23.2263 3.02649C23.5561 2.85377 23.7759 2.69675 23.8701 2.31991C23.98 1.89597 24.137 1.48773 24.2784 1.06379C24.5139 0.388616 25.0006 0.0431794 25.6915 0.0117762C26.3824 -0.0039254 27.0732 -0.0039254 27.7641 0.0117762C28.4393 0.0431794 28.9103 0.388615 29.1458 1.03238C29.2401 1.28361 29.3343 1.53483 29.3971 1.80176C29.5384 2.50833 29.8681 2.97938 30.6218 3.1835C30.9515 3.27771 31.2185 3.32481 31.5325 3.1521C31.925 2.91657 32.3333 2.71245 32.7572 2.52403C33.3539 2.25711 33.9191 2.30421 34.4059 2.75956C34.9397 3.26201 35.4579 3.76446 35.9446 4.29832C36.3843 4.75366 36.4628 5.30322 36.2116 5.89988C36.086 6.19821 35.9603 6.49654 35.7719 6.76346C35.3951 7.31302 35.3323 7.83117 35.662 8.44354C35.8504 8.80467 36.0388 9.0716 36.4471 9.16581C36.6669 9.21292 36.8867 9.32283 37.1066 9.36993C38.1115 9.60545 38.7866 10.1079 38.6767 11.3326C39.1321 11.3326 39.5246 11.3326 39.9171 11.3326C40.6865 11.3483 40.9849 11.7566 40.7336 12.4945C40.2155 14.0176 39.6816 15.525 39.1478 17.048C39.085 17.2364 39.0222 17.4406 38.9436 17.7075C39.1949 17.7232 39.399 17.7389 39.6031 17.7389C40.8906 17.7389 42.1625 17.7232 43.45 17.7389C45.554 17.7703 46.9201 19.152 46.9201 21.256C46.9201 27.2227 46.9201 33.1893 46.9201 39.1716C46.9201 41.3384 45.5383 42.7044 43.3558 42.7044C38.4726 42.7044 33.5894 42.7044 28.7219 42.7044C28.4393 42.7044 28.2195 42.7044 27.8897 42.7044ZM19.5836 30.3473C19.4266 30.3316 19.2852 30.3002 19.1596 30.3159C17.2911 30.5357 15.6896 28.6201 16.6317 26.5789C16.9928 25.7781 17.244 24.9459 17.5424 24.1294C16.3961 23.2501 16.3647 23.2187 15.8623 21.7899C15.6268 21.099 15.3598 20.4239 15.1557 19.733C15.0458 19.3561 14.8574 19.2462 14.4649 19.2462C11.9212 19.2619 9.37754 19.2619 6.83388 19.2619C5.42073 19.2619 4.72986 19.9528 4.72986 21.3817C4.72986 26.5318 4.72986 31.6819 4.72986 36.8163C4.72986 37.0204 4.74556 37.2246 4.76127 37.4287C18.3117 37.4287 31.8151 37.4287 45.3185 37.4287C45.3342 37.3345 45.3499 37.2717 45.3499 37.2089C45.3499 31.8389 45.3656 26.4533 45.3499 21.0833C45.3499 19.9999 44.5648 19.2619 43.4814 19.2619C42.3509 19.2462 41.2204 19.2619 40.0899 19.2619C39.5246 19.2619 38.7866 19.0735 38.4098 19.3561C38.0173 19.6545 37.9387 20.3925 37.7346 20.942C36.871 23.3915 35.6149 24.2707 33.0241 24.2707C28.5649 24.2707 24.1056 24.2707 19.6464 24.255C19.2381 24.255 19.034 24.3807 18.9084 24.7732C18.6572 25.574 18.3274 26.3434 18.0448 27.1441C17.6523 28.2433 18.0291 28.7928 19.191 28.7928C23.1792 28.7928 27.1517 28.7928 31.14 28.7928C32.0035 28.7928 32.8671 28.7771 33.7307 28.8085C35.1439 28.8556 36.243 29.9547 36.2901 31.3365C36.3529 32.7025 35.3166 33.8801 33.9191 34.0528C32.6002 34.2099 31.3441 33.2835 31.0928 31.9174C30.9986 31.415 31.0771 30.8811 31.0771 30.3473C28.9417 30.3473 26.7121 30.3473 24.4511 30.3473C24.8436 31.7133 24.6081 32.8752 23.3834 33.6446C22.457 34.2413 21.4835 34.2256 20.5728 33.6132C19.4109 32.8281 19.191 31.6819 19.5836 30.3473ZM38.9593 12.8714C30.7317 12.8714 22.5826 12.8714 14.3706 12.8714C15.4541 15.9646 16.5061 19.0107 17.5738 22.0411C17.7308 22.5122 18.0919 22.732 18.5944 22.732C19.348 22.732 20.086 22.732 20.8397 22.732C25.0791 22.732 29.3343 22.732 33.5737 22.732C34.7513 22.732 35.6463 22.2138 36.0546 21.1304C37.0438 18.4141 37.9858 15.6663 38.9593 12.8714ZM4.76127 39.0303C4.68276 40.4434 5.43643 41.2128 6.84958 41.2128C17.5581 41.2128 28.2823 41.2128 38.9907 41.2128C40.4981 41.2128 42.0212 41.1971 43.5285 41.2128C44.659 41.2285 45.5854 40.0666 45.2871 39.0303C31.7994 39.0303 18.3117 39.0303 4.76127 39.0303ZM19.8976 3.85867C19.5522 4.23551 19.2224 4.62805 18.8613 4.98919C18.6258 5.20901 18.5787 5.39743 18.7514 5.68005C19.0183 6.1668 19.3166 6.63785 19.4894 7.156C19.5993 7.43863 19.5836 7.81547 19.4894 8.12951C19.348 8.63196 19.0654 9.103 18.8927 9.60545C18.7514 10.0137 18.5159 10.2492 18.1233 10.3591C17.5895 10.5161 17.0713 10.6889 16.5532 10.8773C16.4118 10.9244 16.3019 11.0814 16.1763 11.1756C16.2077 11.207 16.2391 11.2541 16.2705 11.2855C17.5424 11.2855 18.8142 11.2855 20.086 11.2855C21.2636 7.32872 23.1635 5.58584 26.4609 5.42883C27.7955 5.36602 29.0359 5.71146 30.1665 6.43373C31.9407 7.57995 32.9142 9.24432 33.2126 11.2855C34.5472 11.2855 35.819 11.2855 37.0752 11.2855C37.0123 11.0657 36.9024 10.9401 36.7611 10.8773C36.4471 10.7517 36.1174 10.6104 35.7876 10.5476C34.9554 10.3905 34.4059 9.98229 34.2489 9.103C34.2018 8.86748 34.1076 8.61625 33.9662 8.41213C33.5894 7.86258 33.6522 7.39153 33.9662 6.81057C34.8298 5.17761 34.8141 5.1776 33.4481 3.95288C33.4167 3.92148 33.3853 3.92148 33.3068 3.89007C32.8985 4.09419 32.4589 4.28261 32.0663 4.53384C31.3912 4.97348 30.7474 5.06769 30.0565 4.58094C29.7896 4.40823 29.4599 4.29832 29.1615 4.21981C28.6434 4.09419 28.3922 3.79586 28.2666 3.29341C28.1409 2.79096 27.9682 2.30421 27.7798 1.83316C27.7327 1.69185 27.5443 1.53483 27.403 1.51913C25.7857 1.31501 25.7386 1.34641 25.2519 2.86947C25.189 3.07359 25.1733 3.30911 25.0477 3.46613C24.8436 3.73306 24.6081 4.01568 24.3098 4.1727C23.8701 4.42393 23.352 4.54954 22.8966 4.78506C22.5198 4.97348 22.19 4.98918 21.8132 4.78506C21.2008 4.50243 20.5885 4.2041 19.8976 3.85867ZM21.7347 11.3012C25.0163 11.3012 28.298 11.3012 31.5639 11.3012C31.6738 9.16581 29.2244 6.98329 26.7121 6.95189C24.1684 6.92048 21.6719 9.0716 21.7347 11.3012ZM29.3814 48.4355C27.9525 46.7711 27.0104 44.9655 26.3667 43.0185C26.3196 42.8771 26.084 42.7358 25.9113 42.7201C25.3932 42.6887 24.875 42.7358 24.3726 42.7044C23.9643 42.673 23.7759 42.8143 23.6503 43.2069C23.1321 44.8084 22.3785 46.3158 21.3422 47.6504C21.1537 47.886 20.981 48.1215 20.7455 48.4198C23.6503 48.4355 26.4452 48.4355 29.3814 48.4355ZM34.7827 31.4778C34.8141 30.8811 34.296 30.3316 33.6836 30.3159C33.1027 30.3002 32.5845 30.7869 32.5531 31.3836C32.5217 31.9645 32.9927 32.4984 33.5894 32.5455C34.1861 32.5926 34.7513 32.0901 34.7827 31.4778ZM23.1164 31.4778C23.1321 30.8497 22.6454 30.3316 22.033 30.3159C21.4521 30.3159 20.9339 30.8026 20.9182 31.3836C20.9025 31.9959 21.405 32.5298 22.0016 32.5455C22.5983 32.5612 23.1007 32.0744 23.1164 31.4778Z" fill="#FF8343"/></svg>