<svg xmlns="http://www.w3.org/2000/svg" width="50" height="50" viewBox="0 0 50 50" fill="none"><g clip-path="url(#clip0_7781_7612)"><path d="M12.2046 5.41257C13.2524 5.55124 14.1922 5.6745 15.1321 5.79776C15.7484 5.8748 16.0874 6.18296 16.0258 6.66061C15.9642 7.13825 15.6098 7.36937 14.9626 7.29233C13.3602 7.09203 11.7578 6.90714 10.1554 6.69143C9.49283 6.59898 9.2463 6.19837 9.4466 5.56665C9.95506 3.99504 10.4943 2.43884 11.0182 0.882638C11.2031 0.358769 11.5575 0.158467 12.0043 0.297139C12.4203 0.420402 12.6052 0.836414 12.4357 1.34488C12.1738 2.1769 11.8965 3.00893 11.6653 3.70229C13.391 2.93189 15.1321 2.02283 16.9503 1.37569C26.7189 -2.1065 38.0283 1.1908 44.4842 9.35699C48.5211 14.4724 50.3238 20.2966 49.8924 26.7834C49.5688 31.7447 47.8277 36.1976 44.8078 40.142C44.4226 40.6505 43.9912 40.7583 43.6214 40.4656C43.2362 40.1728 43.2208 39.7414 43.606 39.233C46.2253 35.797 47.8278 31.945 48.3054 27.6462C48.9525 21.7912 47.6274 16.3676 44.2223 11.5449C40.3857 6.09052 35.1162 2.80863 28.5216 1.79171C22.8361 0.913455 17.5204 2.05364 12.6206 5.089C12.5128 5.16604 12.4049 5.25849 12.2046 5.41257Z" fill="#FF8343"/><path d="M38.4917 45.9663C36.0573 47.4916 33.592 48.6164 30.9265 49.1711C20.7726 51.2974 12.2366 48.4623 5.59582 40.4964C1.40487 35.4889 -0.274592 29.5414 0.187646 23.0393C0.52662 18.1241 2.26772 13.7021 5.25686 9.78846C5.64205 9.28 6.05806 9.15674 6.44326 9.43408C6.84386 9.72683 6.85927 10.1737 6.44326 10.7129C2.97648 15.2891 1.37406 20.4507 1.6514 26.1825C2.17527 36.8448 9.95627 45.8584 20.4337 47.9231C26.3041 49.0787 31.8355 48.108 37.0126 45.1034C37.2745 44.9493 37.5364 44.7644 37.9371 44.5179C36.7969 44.3638 35.8262 44.2406 34.8555 44.1173C34.2546 44.0403 33.8694 43.5626 34.1005 43.1312C34.2392 42.8847 34.6089 42.6073 34.8555 42.6227C36.5658 42.7922 38.2914 43.0079 39.9863 43.2545C40.5718 43.3315 40.8029 43.7629 40.618 44.333C40.0942 45.92 39.5703 47.4916 39.0156 49.0787C38.8461 49.5871 38.4301 49.8028 38.0141 49.6179C37.5673 49.4176 37.444 49.0632 37.5981 48.601C37.9062 47.7536 38.1836 46.9216 38.4917 45.9663Z" fill="#FF8343"/><path d="M16.5965 13.9023C16.5965 12.5156 16.6119 11.1289 16.5965 9.74215C16.5965 9.26451 16.7506 8.94094 17.182 8.69442C19.6011 7.3077 22.0201 5.92099 24.4392 4.50346C24.886 4.24153 25.2558 4.25693 25.6872 4.50346C28.0754 5.90558 30.4791 7.29229 32.8981 8.6636C33.3449 8.91013 33.5298 9.23369 33.5298 9.74215C33.5144 12.531 33.5144 15.3352 33.5298 18.1241C33.5298 18.6171 33.3449 18.9253 32.9135 19.1564C30.4945 20.5431 28.0754 21.9452 25.6564 23.3474C25.2404 23.5939 24.8706 23.5939 24.4546 23.3474C22.0509 21.9452 19.6319 20.5431 17.1974 19.1564C16.7814 18.9099 16.5811 18.6171 16.5965 18.1241C16.6119 16.7219 16.5965 15.3198 16.5965 13.9023ZM18.0911 10.8207C18.0911 13.1627 18.0757 15.3815 18.1065 17.6156C18.1065 17.8005 18.3068 18.047 18.4917 18.1395C20.2482 19.1718 22.0201 20.1887 23.792 21.2056C23.9307 21.2827 24.0848 21.3443 24.2851 21.4368C24.2851 19.1102 24.3005 16.8452 24.2697 14.5802C24.2697 14.4262 24.054 14.2105 23.8845 14.118C22.128 13.0857 20.3561 12.0688 18.5842 11.0518C18.4455 10.9902 18.3222 10.9286 18.0911 10.8207ZM25.8259 21.5138C27.8135 20.3582 29.6933 19.2642 31.5884 18.2011C31.9274 18.0008 32.0353 17.7851 32.0353 17.3999C32.0199 15.4123 32.0353 13.4246 32.0199 11.437C32.0199 11.2521 32.0045 11.0826 31.989 10.8361C31.7425 10.9594 31.573 11.0518 31.3881 11.1597C30.0785 11.9147 28.815 12.7929 27.4283 13.4092C26.1032 13.9947 25.6718 14.8268 25.7951 16.2443C25.9337 17.9392 25.8259 19.6803 25.8259 21.5138ZM31.2341 9.48022C29.1848 8.29381 27.2434 7.16903 25.2866 6.05966C25.1479 5.98262 24.8552 6.02884 24.6857 6.10588C23.6225 6.69138 22.5748 7.3077 21.5117 7.92402C20.6488 8.43248 19.7706 8.92554 18.8461 9.46481C20.5255 10.4355 22.1742 11.2984 23.715 12.3153C24.6703 12.947 25.3945 12.9624 26.3497 12.3153C27.9059 11.2984 29.5546 10.4509 31.2341 9.48022Z" fill="#FF8343"/><path d="M23.8075 30.6662C23.8075 32.0375 23.7921 33.4088 23.8229 34.7801C23.8383 35.304 23.6534 35.6583 23.1757 35.9203C20.7875 37.2762 18.3993 38.6629 16.011 40.0496C15.5488 40.3115 15.1636 40.327 14.7014 40.065C12.3131 38.6629 9.90951 37.2762 7.49047 35.9049C7.05905 35.6584 6.87415 35.3656 6.88956 34.8725C6.90497 32.0529 6.90497 29.2487 6.88956 26.429C6.88956 25.9514 7.07445 25.6586 7.47506 25.4429C9.90951 24.0408 12.3594 22.6387 14.7784 21.2211C15.179 20.99 15.5334 21.0054 15.934 21.2365C18.3685 22.6541 20.8029 24.0562 23.2374 25.4583C23.638 25.6894 23.8075 25.9976 23.8075 26.4598C23.792 27.8619 23.8075 29.2641 23.8075 30.6662ZM14.5781 38.2469C14.5781 35.8895 14.5781 33.6399 14.5627 31.3904C14.5627 31.2209 14.3778 31.0052 14.2237 30.9127C12.4364 29.865 10.6337 28.8172 8.83095 27.7849C8.70769 27.7079 8.56902 27.6616 8.39953 27.5846C8.39953 29.4181 8.49198 31.2055 8.36871 32.9774C8.27627 34.2716 8.69228 34.9958 9.86329 35.5659C11.4503 36.3209 12.9449 37.2916 14.5781 38.2469ZM16.1035 38.1544C16.2576 38.1236 16.3192 38.1236 16.3654 38.0928C18.2452 37.0142 20.1404 35.9357 22.0047 34.8263C22.1742 34.7339 22.2821 34.4103 22.2821 34.1792C22.2975 32.1453 22.2975 30.1269 22.2975 28.0931C22.2975 27.939 22.2821 27.7695 22.2513 27.5384C20.2328 28.7094 18.2606 29.8342 16.3192 30.9897C16.1959 31.0668 16.1189 31.3287 16.1189 31.5136C16.1035 32.4381 16.1035 33.3472 16.1035 34.2716C16.1035 35.5505 16.1035 36.8293 16.1035 38.1544ZM21.4809 26.2441C21.373 26.1671 21.3268 26.1054 21.2651 26.0746C19.3854 24.9807 17.5056 23.8867 15.6104 22.8235C15.4564 22.7311 15.1328 22.7773 14.9633 22.8698C13.1298 23.9021 11.327 24.9498 9.5089 25.9976C9.41646 26.0592 9.32401 26.1517 9.21615 26.2441C11.2038 27.3843 13.1298 28.5091 15.0712 29.603C15.2252 29.6955 15.5334 29.6647 15.7183 29.5568C16.7506 28.9867 17.7676 28.3858 18.7845 27.8003C19.6627 27.2918 20.5564 26.7834 21.4809 26.2441Z" fill="#FF8343"/><path d="M43.2062 30.6508C43.2062 32.0375 43.1908 33.4242 43.2216 34.8109C43.237 35.3194 43.0521 35.643 42.6053 35.9049C40.1708 37.2916 37.7518 38.6783 35.3481 40.0959C34.9475 40.327 34.5932 40.3424 34.1926 40.1113C31.7581 38.6937 29.3236 37.2916 26.8892 35.8895C26.4578 35.643 26.2883 35.3348 26.3037 34.8418C26.3191 32.0683 26.3191 29.2795 26.3037 26.5061C26.3037 25.9976 26.4886 25.674 26.9354 25.4121C29.3545 24.0254 31.7735 22.6233 34.1926 21.2212C34.5932 20.99 34.9321 20.9746 35.3481 21.2057C37.7826 22.6233 40.217 24.0254 42.6515 25.4275C43.0829 25.674 43.237 25.9976 43.237 26.4753C43.1908 27.8774 43.2062 29.2641 43.2062 30.6508ZM33.9306 38.2007C33.9614 38.0312 33.9922 37.9696 33.9922 37.8925C33.9922 35.7354 34.0077 33.5783 33.9768 31.4212C33.9768 31.2363 33.7919 30.9898 33.6225 30.8819C31.8505 29.8342 30.0632 28.8019 28.2759 27.7849C28.1372 27.7079 27.9986 27.6617 27.7983 27.5692C27.7983 29.449 27.8907 31.2517 27.7674 33.039C27.675 34.2717 28.0756 34.9496 29.185 35.5043C30.7874 36.2901 32.3128 37.2608 33.9306 38.2007ZM41.7116 27.6C41.5884 27.6308 41.5113 27.6463 41.4343 27.6771C39.5545 28.7556 37.6747 29.8342 35.795 30.9436C35.6409 31.036 35.533 31.3287 35.533 31.5291C35.5176 33.4088 35.5176 35.2732 35.5176 37.1529C35.5176 37.4765 35.5176 37.8155 35.5176 38.1391C35.6255 38.1391 35.6717 38.1391 35.6871 38.1236C37.5977 37.0297 39.5237 35.9203 41.4189 34.8109C41.5575 34.7339 41.6808 34.4874 41.6808 34.3333C41.7116 32.0991 41.7116 29.8804 41.7116 27.6ZM40.9566 26.2133C40.818 26.1363 40.7717 26.1209 40.7255 26.0901C38.8457 24.9961 36.966 23.9021 35.0708 22.839C34.9013 22.7465 34.5623 22.7774 34.3774 22.8852C32.5747 23.9021 30.8028 24.9345 29.0155 25.9668C28.8922 26.0438 28.7844 26.1209 28.6149 26.2441C30.6333 27.3997 32.5901 28.5399 34.5469 29.6647C34.6702 29.7417 34.9167 29.7109 35.04 29.6339C36.9814 28.5091 38.9074 27.3843 40.9566 26.2133Z" fill="#FF8343"/></g><defs><clipPath id="clip0_7781_7612"><rect width="50" height="50" fill="white"/></clipPath></defs></svg>