<svg xmlns="http://www.w3.org/2000/svg" width="50" height="50" viewBox="0 0 50 50" fill="none"><path d="M40.9629 39.974C41.3535 40.3255 41.7311 40.6641 42.0697 40.9896C41.6921 41.3672 41.3405 41.7188 40.9368 42.1094C40.6374 41.7708 40.2988 41.3932 39.9473 40.9896C35.8978 44.6745 31.1973 46.6146 25.7806 46.888C25.7806 47.4089 25.7806 47.9037 25.7806 48.4245C25.2467 48.4245 24.752 48.4245 24.2051 48.4245C24.2051 47.9167 24.2051 47.4219 24.2051 46.888C18.7884 46.6146 14.0879 44.6875 10.0514 41.0156C9.71289 41.4063 9.38737 41.7839 9.02278 42.2005C8.63216 41.7578 8.30664 41.3802 7.92904 40.9375C8.24154 40.6901 8.63216 40.3516 9.03581 40.013C5.33789 35.9375 3.39778 31.25 3.13736 25.8333C2.60351 25.8333 2.10872 25.8333 1.58789 25.8333C1.58789 25.3125 1.58789 24.8307 1.58789 24.2969C2.08268 24.2969 2.57747 24.2969 3.13736 24.2969C3.4108 18.8932 5.32487 14.1927 9.03581 10.1302C8.8405 9.96094 8.64518 9.80469 8.46289 9.63542C8.26758 9.46615 8.07227 9.29688 7.90299 9.12761C8.30664 8.72396 8.64518 8.35938 9.03581 7.96875C9.36133 8.33334 9.69987 8.71094 10.0514 9.11458C14.1009 5.42969 18.7884 3.48958 24.2181 3.21615C24.2181 2.69531 24.2181 2.20052 24.2181 1.67969C24.752 1.67969 25.2467 1.67969 25.7936 1.67969C25.7936 2.1875 25.7936 2.68229 25.7936 3.21615C31.2103 3.47656 35.9108 5.41667 39.9863 9.12761C40.1556 8.91927 40.3118 8.71094 40.4811 8.51563C40.6374 8.33333 40.8066 8.15104 41.002 7.94271C41.3535 8.35938 41.679 8.72396 42.0566 9.16667C41.7572 9.41406 41.3535 9.73958 40.9368 10.0781C44.6608 14.1667 46.6139 18.8542 46.8743 24.2708C47.4082 24.2708 47.903 24.2708 48.4238 24.2708C48.4238 24.7917 48.4238 25.2734 48.4238 25.8203C47.916 25.8203 47.4082 25.8203 46.8743 25.8203C46.5879 31.237 44.6608 35.9245 40.9629 39.974ZM4.69986 25.8333C4.96028 30.8333 6.74414 35.1302 10.1426 38.8672C10.4941 38.4766 10.8327 38.099 11.1322 37.7604C11.5488 38.151 11.9004 38.4896 12.3301 38.8802C11.9395 39.2188 11.5749 39.5313 11.1712 39.8828C14.9212 43.2552 19.2181 45.0391 24.2311 45.2995C24.2311 44.7526 24.2311 44.2839 24.2311 43.7891C24.765 43.7891 25.2598 43.7891 25.8066 43.7891C25.8066 44.2969 25.8066 44.7786 25.8066 45.2604C29.9733 45.3646 35.9759 42.8776 38.8144 39.8438C38.4499 39.5182 38.0853 39.1927 37.7467 38.8802C38.1374 38.4635 38.4759 38.112 38.8535 37.6953C39.1921 38.0729 39.5176 38.4375 39.8822 38.8281C43.2546 35.0912 45.0514 30.7943 45.2988 25.7943C44.752 25.7943 44.2702 25.7943 43.7884 25.7943C43.7884 25.2604 43.7884 24.7656 43.7884 24.2318C44.3092 24.2318 44.791 24.2318 45.2728 24.2318C45.1947 19.8047 43.2546 14.7266 39.8301 11.224C39.5046 11.5885 39.166 11.9661 38.8796 12.2917C38.4759 11.9141 38.1113 11.5755 37.6816 11.1719C38.0723 10.8333 38.4369 10.5208 38.8405 10.1693C35.1035 6.79688 30.7936 5 25.7806 4.75261C25.7806 5.29948 25.7806 5.76823 25.7806 6.25C25.2467 6.25 24.752 6.25 24.2051 6.25C24.2051 5.72917 24.2051 5.26042 24.2051 4.77865C20.0254 4.6875 14.0488 7.16146 11.1842 10.2083C11.5488 10.5339 11.9134 10.8594 12.2519 11.1589C11.8743 11.5625 11.5228 11.9271 11.1322 12.3568C10.7936 11.9661 10.4811 11.6016 10.1296 11.1979C6.74414 14.9349 4.96028 19.2318 4.69986 24.2318C5.24674 24.2318 5.72852 24.2318 6.21029 24.2318C6.21029 24.7656 6.21029 25.2604 6.21029 25.7813C5.71549 25.8333 5.24674 25.8333 4.69986 25.8333Z" fill="#FF8343"/><path d="M8.58073 1.65363C8.58073 2.2005 8.58073 2.66925 8.58073 3.19008C6.78386 3.19008 4.98698 3.19008 3.15104 3.19008C3.15104 5.02602 3.15104 6.8229 3.15104 8.64581C2.60417 8.64581 2.10938 8.64581 1.58854 8.64581C1.57552 8.50258 1.5625 8.35936 1.5625 8.21613C1.5625 6.38019 1.5625 4.54425 1.5625 2.70831C1.5625 1.90102 1.8099 1.65363 2.60417 1.65363C4.4401 1.65363 6.27604 1.65363 8.11198 1.65363C8.25521 1.65363 8.39844 1.65363 8.58073 1.65363Z" fill="#FF8343"/><path d="M46.8874 3.22915C45.0384 3.22915 43.2546 3.22915 41.4316 3.22915C41.4316 2.70831 41.4316 2.21352 41.4316 1.67967C41.5749 1.66665 41.7051 1.65363 41.8483 1.65363C43.6973 1.65363 45.5592 1.65363 47.4082 1.65363C48.1634 1.65363 48.4238 1.91404 48.4238 2.68227C48.4238 4.66144 48.4238 6.6406 48.4238 8.64581C47.903 8.64581 47.4082 8.64581 46.8744 8.64581C46.8874 6.84894 46.8874 5.07811 46.8874 3.22915Z" fill="#FF8343"/><path d="M1.5625 41.4583C2.10937 41.4583 2.59115 41.4583 3.125 41.4583C3.125 43.2682 3.125 45.0651 3.125 46.888C4.96094 46.888 6.74479 46.888 8.55469 46.888C8.55469 47.4088 8.55469 47.9036 8.55469 48.4375C8.42448 48.4505 8.29427 48.4635 8.15104 48.4635C6.30208 48.4635 4.44011 48.4635 2.59115 48.4635C1.82292 48.4635 1.5625 48.2031 1.5625 47.4479C1.5625 45.4687 1.5625 43.4896 1.5625 41.4583Z" fill="#FF8343"/><path d="M41.4316 48.4635C41.4316 47.9166 41.4316 47.4349 41.4316 46.9271C43.2415 46.9271 45.0124 46.9271 46.8483 46.9271C46.8483 45.1041 46.8483 43.3073 46.8483 41.4843C47.3952 41.4843 47.89 41.4843 48.4108 41.4843C48.4238 41.6146 48.4369 41.7578 48.4369 41.901C48.4369 43.75 48.4369 45.5989 48.4369 47.4479C48.4369 48.2031 48.1764 48.4635 47.4082 48.4635C45.429 48.4635 43.4499 48.4635 41.4316 48.4635Z" fill="#FF8343"/><path d="M25.0006 38.3203C21.7194 38.3203 18.4251 38.3203 15.1438 38.3203C14.3105 38.3203 14.0761 38.0729 14.0761 37.2526C14.0761 35.8724 14.0891 34.4922 14.0631 33.1119C14.0501 32.5911 14.2454 32.2656 14.7402 32.0573C15.4303 31.7838 16.0944 31.4323 16.7975 31.1588C17.123 31.0286 17.2142 30.8463 17.2142 30.5078C17.2011 26.1198 17.2011 21.7317 17.2142 17.3437C17.2142 14.7005 18.9069 12.5651 21.4329 11.9401C21.6022 11.901 21.7845 11.8489 21.9537 11.8489C24.1152 11.8619 26.2897 11.7057 28.4251 11.9401C30.9902 12.2265 32.8261 14.6354 32.8261 17.3437C32.8391 21.6927 32.8392 26.0547 32.8131 30.4036C32.8131 30.8333 32.9303 31.0286 33.3209 31.1849C33.998 31.4453 34.6621 31.7838 35.3261 32.0573C35.7558 32.2396 35.9511 32.526 35.9511 32.9948C35.9381 34.4401 35.9511 35.8854 35.9511 37.3307C35.9511 38.0208 35.6777 38.2942 34.9615 38.2942C31.6282 38.3203 28.3079 38.3203 25.0006 38.3203ZM34.3756 36.7317C34.3756 35.7031 34.3626 34.7265 34.3886 33.75C34.4016 33.4375 34.2714 33.2942 33.998 33.1771C32.2141 32.3958 30.4303 31.6015 28.6595 30.8073C28.386 30.6901 28.2298 30.7291 28.0345 30.9375C27.2923 31.7057 26.524 32.4609 25.7688 33.2161C25.1959 33.789 24.8444 33.789 24.2845 33.2291C23.5293 32.4739 22.761 31.7187 22.0188 30.9505C21.7975 30.7291 21.6282 30.7031 21.3418 30.8333C19.7011 31.5755 18.0605 32.3307 16.3938 33.0208C15.8079 33.2552 15.5735 33.5416 15.6256 34.1797C15.6907 35.026 15.6386 35.8854 15.6386 36.7448C21.9016 36.7317 28.1126 36.7317 34.3756 36.7317ZM27.8261 28.789C29.0371 29.2968 30.1178 29.7526 31.2246 30.2343C31.2376 30.1041 31.2506 30 31.2506 29.9088C31.2506 25.6901 31.2636 21.4583 31.2506 17.2396C31.2376 15.0781 29.5319 13.3854 27.3704 13.3593C25.886 13.3463 24.4147 13.3593 22.9303 13.3593C20.3912 13.3593 18.7636 15 18.7636 17.539C18.7636 21.6015 18.7636 25.664 18.7636 29.7265C18.7636 29.8828 18.7636 30.039 18.7636 30.2474C19.9225 29.7656 21.0162 29.2968 22.1621 28.8151C22.2011 28.6067 22.2142 28.3203 22.2923 28.0468C22.4095 27.6562 22.2923 27.4609 21.9537 27.2265C20.3912 26.1718 19.5839 24.6614 19.5449 22.7864C19.5188 21.263 19.5319 19.7265 19.5449 18.2031C19.5449 17.6172 19.7402 17.3828 20.3131 17.2526C22.5527 16.7578 24.7793 16.25 27.0188 15.7682C27.2923 15.7161 27.6438 15.7812 27.8782 15.9114C28.6074 16.3411 29.2845 16.8359 30.0006 17.3047C30.3261 17.513 30.4824 17.7994 30.4824 18.2031C30.4694 19.7526 30.4954 21.289 30.4694 22.8385C30.4433 24.4531 29.8574 25.8854 28.5553 26.8229C27.722 27.4218 27.5787 28.0078 27.8782 28.8672C27.8652 28.8672 27.8782 28.8802 27.8261 28.789ZM21.0944 18.6718C21.0944 20.0781 21.0813 21.4453 21.0944 22.7994C21.1334 24.9218 22.8782 26.6146 24.9876 26.6146C27.11 26.6146 28.8548 24.9218 28.8938 22.8125C28.9199 21.4713 28.9069 20.1172 28.8938 18.763C28.8938 18.6067 28.7767 18.3984 28.6464 18.2942C28.2558 17.9948 27.8522 17.7343 27.4355 17.4869C27.2793 17.3958 27.0579 17.3437 26.9016 17.3828C24.9746 17.7864 23.0605 18.2291 21.0944 18.6718ZM25.0136 31.8099C25.4954 31.3021 25.9251 30.8593 26.3287 30.4036C26.4069 30.3125 26.472 30.1432 26.4459 30.013C26.3548 29.375 26.2376 28.7369 26.1334 28.125C25.3522 28.125 24.597 28.125 23.8418 28.125C23.7376 28.7239 23.6204 29.3099 23.5423 29.8958C23.5162 30.0651 23.5683 30.2864 23.6725 30.4166C24.0761 30.8724 24.5188 31.289 25.0136 31.8099Z" fill="#FF8343"/><path d="M24.2051 20.4167C24.2051 20.9114 24.2051 21.3932 24.2051 21.9141C23.6973 21.9141 23.2025 21.9141 22.6816 21.9141C22.6816 21.4193 22.6816 20.9375 22.6816 20.4167C23.1634 20.4167 23.6582 20.4167 24.2051 20.4167Z" fill="#FF8343"/><path d="M27.3301 20.4167C27.3301 20.9245 27.3301 21.3932 27.3301 21.901C26.8353 21.901 26.3405 21.901 25.8066 21.901C25.8066 21.4193 25.8066 20.9245 25.8066 20.4167C26.3275 20.4167 26.8223 20.4167 27.3301 20.4167Z" fill="#FF8343"/></svg>