<svg xmlns="http://www.w3.org/2000/svg" width="50" height="50" viewBox="0 0 50 50" fill="none"><g clip-path="url(#clip0_7098_5085)"><path d="M10.4505 16.0094C9.69924 16.0094 9.04187 16.0094 8.39792 16.0094C7.32467 16.0094 6.25142 16.0094 5.17817 16.0094C4.60129 16.0094 4.19882 15.6338 4.21224 15.1374C4.22566 14.6545 4.6013 14.3056 5.16476 14.3056C6.97587 14.2922 8.78698 14.3056 10.5981 14.3056C10.7993 14.3056 10.9871 14.3593 11.2286 14.3996C11.4969 13.9971 11.7518 13.5812 12.047 13.1787C15.7765 8.00029 20.8074 4.99519 27.1798 4.36465C38.0465 3.27798 47.907 10.831 49.7047 21.5635C51.5963 32.8192 44.2043 43.4847 32.9217 45.497C25.7846 46.7715 19.5597 44.7726 14.3545 39.7015C13.8849 39.2453 13.8447 38.7624 14.2337 38.3867C14.6094 38.0111 15.0789 38.0513 15.5619 38.5209C17.7084 40.6674 20.2171 42.2236 23.0881 43.1895C33.4852 46.691 44.8616 40.5735 47.6655 29.9617C50.4828 19.256 43.6945 8.42959 32.8144 6.2965C24.6711 4.70004 16.2997 8.63082 12.3689 15.9155C11.8592 16.8546 11.4701 17.8474 11.014 18.8133C10.7188 19.4304 10.2761 19.6451 9.77973 19.417C9.29677 19.1889 9.18944 18.6926 9.48459 18.0754C9.77973 17.4047 10.1017 16.7473 10.4505 16.0094Z" fill="#FF8343"/><path d="M28.3201 18.1022C28.3201 15.9422 28.3201 13.7823 28.3201 11.6358C28.3201 11.448 28.32 11.2602 28.3335 11.0858C28.3871 10.6431 28.7225 10.3748 29.1652 10.3748C29.5945 10.3748 29.9299 10.6565 29.9836 11.0992C30.0104 11.3004 30.0104 11.5017 30.0104 11.7029C30.0104 15.8349 30.0238 19.9669 29.997 24.099C29.997 24.5148 30.1312 24.7697 30.4397 25.0246C32.1569 26.393 33.8607 27.7748 35.5645 29.1567C35.6987 29.264 35.8328 29.3579 35.9401 29.4786C36.2621 29.814 36.2755 30.2702 35.9938 30.619C35.7255 30.9409 35.2291 31.0214 34.8669 30.7665C34.5315 30.5251 34.2095 30.2433 33.8875 29.9884C32.224 28.6469 30.5605 27.2919 28.8835 25.9503C28.481 25.6283 28.3066 25.2661 28.3066 24.7563C28.3335 22.5159 28.3201 20.3158 28.3201 18.1022Z" fill="#FF8343"/><path d="M9.99417 25.2125C10.0612 26.0308 10.1149 26.7553 10.182 27.4931C10.2491 28.1371 9.96734 28.5798 9.43071 28.6334C8.94775 28.6871 8.57211 28.3517 8.50503 27.7346C8.41112 26.9162 8.35745 26.1113 8.27696 25.2393C8.12939 25.2259 7.95499 25.2125 7.76717 25.2125C5.66091 25.2125 3.54124 25.2125 1.43498 25.2125C1.30082 25.2125 1.16667 25.2125 1.03251 25.2125C0.388559 25.1856 -0.000488281 24.8636 -0.000488281 24.3539C-0.000488281 23.8441 0.388559 23.5087 1.03251 23.5087C4.7084 23.5087 8.37087 23.5087 12.0468 23.5087C13.5493 23.5087 15.0653 23.5087 16.5678 23.5087C17.2386 23.5087 17.6008 23.8038 17.6143 24.327C17.6277 24.8636 17.2386 25.199 16.5678 25.199C14.6092 25.2125 12.6505 25.199 10.6784 25.199C10.4905 25.2125 10.3027 25.2125 9.99417 25.2125Z" fill="#FF8343"/><path d="M15.8702 34.2951C14.3543 34.2951 12.8517 34.2951 11.3358 34.2951C10.665 34.2951 10.3162 34 10.3162 33.4499C10.3162 32.9133 10.6918 32.6047 11.3358 32.5913C14.3677 32.5913 17.413 32.5913 20.445 32.5913C21.0755 32.5913 21.478 32.9401 21.478 33.4499C21.478 33.9597 21.0889 34.2817 20.445 34.2817C18.929 34.2951 17.3996 34.2951 15.8702 34.2951Z" fill="#FF8343"/><path d="M5.55287 34.2816C5.28456 34.2816 5.01624 34.3085 4.74793 34.2816C4.30521 34.2414 4.05032 33.9865 3.99666 33.5438C3.943 33.1145 4.18447 32.6986 4.61377 32.6583C5.25773 32.5913 5.91509 32.5913 6.55904 32.6583C6.98834 32.6986 7.24324 33.1279 7.20299 33.5438C7.16275 33.9597 6.84077 34.2682 6.39805 34.295C6.12974 34.3085 5.84801 34.2951 5.55287 34.2816Z" fill="#FF8343"/><path d="M44.9552 24.2065C45.4784 24.2199 45.8674 24.5956 45.8406 25.0785C45.8138 25.5615 45.4247 25.8969 44.8881 25.8835C44.3515 25.8701 43.9758 25.5078 43.9758 25.0249C43.9758 24.5285 44.3917 24.1797 44.9552 24.2065Z" fill="#FF8343"/><path d="M30.0104 40.2382C29.997 40.7882 29.6616 41.1504 29.1518 41.137C28.642 41.1236 28.32 40.7614 28.3334 40.1979C28.3468 39.6479 28.6822 39.2857 29.192 39.2991C29.6884 39.3125 30.0238 39.6881 30.0104 40.2382Z" fill="#FF8343"/></g><defs><clipPath id="clip0_7098_5085"><rect width="50" height="50" fill="white"/></clipPath></defs></svg>