<svg xmlns="http://www.w3.org/2000/svg" width="50" height="50" viewBox="0 0 50 50" fill="none"><path d="M37.7933 39.6785C37.9178 41.9873 36.2311 43.19 34.3232 42.8582C34.2818 43.8398 33.9361 44.6693 33.0928 45.2223C32.2771 45.7753 31.3923 45.8306 30.4384 45.4712C30.4107 45.6647 30.3969 45.8306 30.3554 45.9965C29.9821 47.8906 27.9498 48.8031 26.2632 47.8353C25.6687 47.4897 25.088 47.1026 24.5074 46.7431C23.9405 46.3836 23.3737 46.0242 22.7516 45.6371C22.1709 46.5357 21.452 47.2546 20.2769 47.2132C19.1156 47.1855 18.3552 46.5496 17.8851 45.5127C16.3782 46.0657 15.203 45.6924 14.3735 44.3237C13.226 45.167 12.0647 45.25 11.1108 44.5449C10.0739 43.7845 9.88036 42.7476 10.4472 41.0748C8.26281 40.5771 7.51625 38.3236 8.96789 36.6231C8.15221 35.6692 7.35035 34.729 6.52084 33.7613C6.41024 33.9134 6.28581 34.1069 6.14756 34.2866C5.81576 34.729 5.55308 34.7843 5.09685 34.4664C3.52078 33.4018 1.95854 32.3235 0.396299 31.2451C-0.0737566 30.9133 -0.11523 30.6368 0.216573 30.1529C3.21663 25.798 6.23052 21.4292 9.23058 17.0743C9.56238 16.5904 9.83888 16.5351 10.3089 16.8531C11.8574 17.9177 13.4196 18.9822 14.968 20.0467C15.4657 20.3924 15.5072 20.6827 15.1892 21.1804C15.0233 21.4431 14.8436 21.6919 14.6086 22.0237C14.968 22.2035 15.3136 22.397 15.6731 22.5353C17.2768 23.1574 18.9635 23.3786 20.664 23.1989C21.6179 23.1021 22.5442 22.632 23.4843 22.3832C24.7977 22.0237 26.1249 21.6919 27.4521 21.3878C28.5443 21.1389 29.6089 21.2633 30.6319 21.7611C32.1527 22.4938 33.7702 22.632 35.526 22.3832C35.291 22.0237 35.0698 21.7057 34.8624 21.3878C34.4891 20.8209 34.5168 20.5583 35.0698 20.185C36.5906 19.1343 38.1113 18.0974 39.6321 17.0467C40.1575 16.6872 40.4339 16.7287 40.7934 17.2541C43.7935 21.5951 46.7935 25.9501 49.7798 30.2912C50.1254 30.7889 50.0701 31.0792 49.5724 31.411C48.0378 32.4755 46.5032 33.5263 44.9548 34.577C44.4294 34.9364 44.1529 34.8811 43.7935 34.3558C43.6276 34.1346 43.4755 33.8995 43.3511 33.7198C42.328 34.3558 41.3049 34.9779 40.2404 35.6277C40.6413 36.4434 40.7104 37.3697 40.1713 38.2821C39.6597 39.1946 38.8441 39.6232 37.7933 39.6785ZM23.4843 44.6417C24.6594 45.3744 25.7931 46.1071 26.9406 46.7984C27.4521 47.1164 28.0051 47.0749 28.5028 46.7431C29.0005 46.4113 29.2079 45.9136 29.1388 45.3053C29.0697 44.7661 28.724 44.4067 28.2955 44.1302C27.4245 43.5771 26.5535 43.0103 25.6825 42.4573C25.3231 42.2361 25.171 41.9181 25.406 41.5448C25.6549 41.1577 26.0005 41.1992 26.3599 41.4204C26.4429 41.4757 26.5397 41.531 26.6226 41.5863C27.9498 42.4297 29.2632 43.2868 30.6043 44.1025C30.9084 44.2961 31.3093 44.4205 31.6688 44.4343C32.2909 44.462 32.8301 43.9919 33.0098 43.3974C33.1896 42.7476 32.9822 42.1117 32.3877 41.7246C31.1849 40.9504 29.9683 40.19 28.7517 39.4296C28.1849 39.0701 27.6042 38.7245 27.0374 38.3512C26.7056 38.13 26.5673 37.8259 26.8023 37.4664C27.0374 37.1208 27.3554 37.0931 27.701 37.3144C27.7978 37.3835 27.9084 37.4388 28.0051 37.5079C29.1664 38.2268 30.3139 38.9595 31.4752 39.6785C32.4154 40.2591 33.3416 40.8674 34.2818 41.4342C34.8209 41.7522 35.374 41.7384 35.8993 41.3928C36.4108 41.061 36.6044 40.5494 36.5214 39.955C36.4523 39.4158 36.1067 39.0701 35.6643 38.7936C33.549 37.4664 31.4199 36.1392 29.3047 34.7982C28.8623 34.5217 28.7517 34.1899 28.9591 33.8581C29.1664 33.5263 29.5259 33.4848 29.9545 33.7336C30.4107 34.0101 30.8669 34.3005 31.3093 34.5908C33.1757 35.7659 35.0421 36.9549 36.9224 38.1162C37.9039 38.7245 39.0653 38.2821 39.2865 37.2176C39.4247 36.5816 39.1344 36.001 38.457 35.5862C35.208 33.5401 31.9453 31.5354 28.7379 29.4478C27.4936 28.646 26.2632 27.9547 24.7286 28.1068C24.5765 28.1206 24.4106 28.0377 24.2723 28.0791C24.0511 28.1206 23.8161 28.1897 23.6502 28.3142C23.2078 28.6736 22.8207 29.1022 22.3783 29.4478C20.1939 31.1622 17.8989 31.3972 15.6869 30.1391C14.8989 29.6967 14.8021 29.2543 15.3275 28.4939C16.2814 27.1252 17.2353 25.7703 18.1893 24.4155C16.7376 24.2358 15.2722 23.8901 13.9588 23.0606C13.8343 23.2403 13.7238 23.3786 13.627 23.5168C11.7744 26.1989 9.92183 28.881 8.06926 31.5631C7.35035 32.6138 7.3227 32.6276 8.11073 33.6507C8.60844 34.3143 9.1891 34.9226 9.76975 35.6C10.4472 34.5908 10.9725 33.6092 12.1753 33.4295C13.3781 33.2498 14.2768 33.7475 14.8989 34.7843C16.0049 33.6783 17.0833 33.4433 18.1754 34.024C19.2953 34.6184 19.6409 35.6 19.3506 37.2729C21.0234 37.7568 21.4658 38.2959 21.6594 40.1209C23.8161 40.2453 25.1295 42.5126 23.4843 44.6417ZM42.5354 32.5861C42.4801 32.5032 42.4524 32.4341 42.4248 32.3788C40.4616 29.5446 38.4984 26.6966 36.5629 23.8487C36.3417 23.5168 36.0928 23.5583 35.8025 23.6136C33.7702 23.9593 31.8071 23.7519 29.9407 22.8532C29.2356 22.5076 28.489 22.4247 27.7701 22.632C25.3092 23.3095 22.8484 23.9869 20.4151 24.7611C19.7792 24.9547 19.1156 25.3556 18.7008 25.8533C17.8436 26.8625 17.1524 27.9962 16.3644 29.116C17.733 29.8349 19.0741 29.9317 20.3736 29.2128C21.2308 28.7289 22.005 28.0653 22.7516 27.4155C23.2355 26.987 23.6917 26.7658 24.3276 26.8349C25.0327 26.9178 25.7378 26.9731 26.4429 26.987C26.9683 27.0008 27.3968 27.1667 27.8392 27.4432C31.4476 29.7243 35.056 31.9917 38.6643 34.2452C38.8579 34.3696 39.1206 34.4802 39.3141 34.4525C40.5999 34.1899 41.6506 33.5401 42.5354 32.5861ZM10.0048 18.1665C7.1568 22.3002 4.33647 26.3925 1.48849 30.5124C2.8157 31.4248 4.10144 32.2958 5.40101 33.1945C8.26281 29.0469 11.0693 24.9685 13.9035 20.8486C12.6039 19.95 11.332 19.079 10.0048 18.1665ZM36.079 21.0007C38.9408 25.1482 41.7473 29.2266 44.5953 33.3465C45.9087 32.4479 47.1806 31.5631 48.5078 30.6645C45.6599 26.5307 42.8395 22.4385 39.9916 18.3186C38.6782 19.2172 37.4062 20.0882 36.079 21.0007ZM12.8251 43.7983C13.0048 43.6739 13.4196 43.5218 13.6408 43.2177C15.1201 41.1577 16.5579 39.084 17.9819 36.9825C18.1616 36.7199 18.2308 36.3328 18.1893 36.0148C18.134 35.4756 17.7607 35.1161 17.2215 35.0055C16.6547 34.8811 16.2123 35.1023 15.8805 35.5724C14.8712 37.0102 13.8758 38.448 12.8666 39.8997C12.4242 40.5356 11.9679 41.1716 11.5394 41.8075C11.2629 42.2223 11.2352 42.6785 11.4841 43.1209C11.7329 43.5633 12.1062 43.7707 12.8251 43.7983ZM16.7653 44.6279C17.0694 44.4481 17.4565 44.3375 17.6501 44.0749C18.5349 42.8859 19.3782 41.6693 20.1939 40.4388C20.5534 39.8858 20.346 39.1531 19.8068 38.7936C19.2815 38.4342 18.5211 38.5033 18.134 39.0287C17.263 40.2315 16.392 41.4342 15.604 42.6785C15.0786 43.4942 15.7422 44.5311 16.7653 44.6279ZM9.49325 38.3927C9.50707 39.0701 9.85271 39.5679 10.3366 39.7338C10.8758 39.9135 11.4426 39.7614 11.8021 39.2637C12.4104 38.4342 12.991 37.577 13.5717 36.7199C14.0141 36.0563 13.9173 35.3097 13.3366 34.8949C12.7422 34.4664 11.968 34.6184 11.4841 35.2821C10.9034 36.0977 10.3228 36.9134 9.76975 37.7429C9.61768 37.9641 9.54855 38.2545 9.49325 38.3927ZM20.3736 46.0657C20.6502 45.9136 21.0234 45.8306 21.1893 45.6094C21.7838 44.8491 22.3368 44.061 22.8484 43.2453C23.1802 42.7062 22.9451 42.0011 22.4198 41.6554C21.8944 41.3098 21.1755 41.3513 20.7884 41.8628C20.2216 42.5956 19.6686 43.3559 19.1985 44.144C18.7008 44.9873 19.3506 45.9965 20.3736 46.0657Z" fill="#FF8343"/><path d="M32.1508 8.43351C32.1508 9.27685 32.1094 10.1202 32.1647 10.9635C32.3029 13.1202 31.349 14.8207 29.7591 16.0926C28.3904 17.1848 26.8281 18.0282 25.335 18.9544C25.1553 19.0651 24.782 19.0236 24.5746 18.913C23.5516 18.3461 22.5423 17.7517 21.5469 17.1157C19.8741 16.065 18.6022 14.6825 17.9939 12.7608C17.9109 12.4843 17.8556 12.1939 17.8556 11.9036C17.8418 9.55334 17.8556 7.2169 17.8418 4.86662C17.8418 4.32744 18.0353 4.05093 18.5469 3.89886C20.5515 3.27673 22.5423 2.59929 24.547 1.96334C24.8235 1.88039 25.1691 1.88039 25.4456 1.96334C27.4641 2.59929 29.4826 3.2629 31.501 3.91268C31.9711 4.06476 32.1647 4.32744 32.1647 4.81132C32.137 6.02793 32.1508 7.23072 32.1508 8.43351ZM30.9066 8.68236C30.9066 7.63165 30.8927 6.58094 30.9204 5.53023C30.9342 5.17077 30.8236 4.99105 30.4642 4.86662C28.7637 4.34126 27.0908 3.77443 25.3903 3.24908C25.1691 3.17995 24.8788 3.16613 24.6438 3.24908C22.9295 3.78826 21.229 4.35509 19.5285 4.89427C19.1967 5.00487 19.0861 5.14312 19.0861 5.50258C19.0999 7.41045 19.1275 9.33214 19.0861 11.24C19.0584 12.2216 19.3211 13.1064 19.9017 13.853C20.4133 14.5304 21.0216 15.1802 21.699 15.6917C22.6668 16.4106 23.7451 16.9775 24.7682 17.5996C24.8788 17.6687 25.0862 17.6964 25.183 17.6411C26.524 16.7701 27.948 15.9959 29.1784 14.9866C30.395 13.9912 31.0586 12.6364 30.9342 10.9773C30.8651 10.2031 30.9066 9.44275 30.9066 8.68236Z" fill="#FF8343"/><path d="M23.8018 12.2771C23.9539 12.0421 24.0506 11.8485 24.1889 11.7103C25.5576 10.3416 26.9263 8.97288 28.295 7.60419C28.6959 7.20326 29.0553 7.16179 29.318 7.47976C29.6222 7.85304 29.4839 8.17102 29.1798 8.47518C27.5484 10.0927 25.9309 11.7241 24.2995 13.3416C23.8433 13.7979 23.5806 13.784 23.1105 13.3278C22.3363 12.5674 21.5621 11.7932 20.8017 11.019C20.4146 10.6319 20.3732 10.2448 20.6773 9.99594C21.0506 9.67797 21.3686 9.83004 21.6727 10.1342C22.3502 10.7978 23.0138 11.4752 23.8018 12.2771Z" fill="#FF8343"/></svg>