<svg xmlns="http://www.w3.org/2000/svg" width="50" height="50" viewBox="0 0 50 50" fill="none"><g clip-path="url(#clip0_7775_6996)"><path d="M-1.5907e-06 24.4661C0.0390609 24.362 0.0781218 24.2578 0.104163 24.1536C0.533851 22.5521 1.92708 21.4192 3.58073 21.3672C5.18229 21.3021 6.67969 22.3437 7.1875 23.9062C7.30469 24.2708 7.47396 24.3489 7.79948 24.3359C8.33333 24.3099 8.86719 24.3359 9.46615 24.3359C9.70052 20.651 11.0286 17.4218 13.4375 14.7135C12.1224 13.4114 10.8203 12.1224 9.49219 10.7942C8.30729 11.5755 6.95312 11.8359 5.48177 11.4062C3.55468 10.8463 2.20052 9.03643 2.14844 7.00518C2.10937 5.05206 3.39843 3.19008 5.24739 2.53904C5.36458 2.49997 5.49479 2.44789 5.625 2.43487C6.01562 2.38279 6.30208 2.52602 6.43229 2.90362C6.5625 3.29425 6.41927 3.60674 6.05469 3.80206C5.91146 3.88018 5.75521 3.91925 5.59896 3.98435C4.29687 4.53122 3.46354 5.92445 3.63281 7.2656C3.82813 8.78903 4.92188 9.90883 6.40625 10.1302C7.78646 10.3385 9.1927 9.54425 9.77864 8.22914C10.3516 6.92706 10 5.3906 8.89323 4.47914C8.26823 3.95831 8.15104 3.59372 8.5026 3.19008C8.84114 2.81247 9.27083 2.86456 9.86979 3.37237C11.6146 4.85674 12.0312 7.31768 10.8724 9.28383C10.7943 9.41403 10.7292 9.53122 10.6641 9.62237C11.9661 10.9245 13.2552 12.2135 14.5703 13.5416C17.2917 11.1328 20.5078 9.77862 24.2448 9.55727C24.2448 8.88018 24.2708 8.22914 24.2318 7.59112C24.2187 7.47393 23.9844 7.34372 23.8281 7.27862C21.1719 6.34112 20.4297 3.03383 22.4609 1.10674C23.5417 0.0780989 25.1562 -0.195339 26.4974 0.41664C27.8516 1.02862 28.737 2.40883 28.6979 3.88018C28.6589 5.37758 27.7083 6.75779 26.276 7.21351C25.7943 7.36976 25.6901 7.60414 25.7292 8.04685C25.7682 8.52862 25.7422 9.01039 25.7422 9.55727C29.4531 9.79164 32.6823 11.1198 35.4036 13.5286C36.7188 12.2135 37.9948 10.9375 39.3229 9.60935C38.5156 8.41143 38.2422 7.03122 38.6979 5.55987C39.0234 4.49216 39.6614 3.65883 40.5859 3.03383C42.4739 1.78383 45 2.07029 46.5625 3.72393C48.138 5.40362 48.2682 7.91664 46.875 9.75258C45.3776 11.7317 43.0339 12.0963 40.4297 10.7552C39.1406 12.0442 37.8516 13.3333 36.5234 14.6484C37.6953 15.9765 38.6588 17.4609 39.3489 19.1146C40.0391 20.7682 40.4036 22.487 40.5208 24.3099C41.1979 24.3099 41.849 24.3359 42.487 24.2968C42.6042 24.2838 42.7344 24.0495 42.7865 23.8932C43.2943 22.4218 44.6224 21.4323 46.1589 21.3541C47.6562 21.289 49.0885 22.2005 49.6875 23.5937C49.8047 23.8672 49.8958 24.1666 49.987 24.4531C49.987 24.8437 49.987 25.2343 49.987 25.625C49.9609 25.651 49.9349 25.6771 49.9219 25.7031C49.375 27.6041 48.138 28.6588 46.3932 28.737C44.7526 28.8021 43.4245 27.8255 42.7344 26.0547C42.6953 25.9505 42.5781 25.8073 42.5 25.8073C41.8359 25.7812 41.1719 25.7942 40.4948 25.7942C40.2604 29.5182 38.9193 32.7213 36.5234 35.4036C37.8516 36.7317 39.1406 38.0208 40.4557 39.3229C40.4948 39.2968 40.5729 39.2448 40.6641 39.1927C41.9531 38.4244 43.3203 38.2682 44.7396 38.776C45.2083 38.9453 45.4036 39.3359 45.2604 39.7265C45.1302 40.1041 44.7526 40.2734 44.2969 40.1562C44.2057 40.1302 44.1146 40.0911 44.0234 40.0651C42.7213 39.7396 41.5885 40.0521 40.7031 41.0547C39.8437 42.0573 39.6745 43.2031 40.1823 44.414C40.8333 45.9505 42.5781 46.7057 44.1536 46.1718C45.7422 45.625 46.6276 43.9843 46.224 42.3047C46.0807 41.6797 46.224 41.3151 46.6667 41.1979C47.1484 41.0807 47.526 41.3151 47.6302 41.9661C47.7344 42.5781 47.7995 43.2291 47.7214 43.8411C47.4349 46.1718 45.2604 47.9427 42.9297 47.8125C40.4687 47.6823 38.5156 45.7161 38.4505 43.3203C38.4245 42.2396 38.737 41.289 39.2838 40.4687C37.9557 39.1406 36.6797 37.8646 35.3646 36.5495C32.6432 38.9583 29.4141 40.2864 25.7031 40.5208C25.7031 41.1067 25.7292 41.6406 25.6901 42.1745C25.6641 42.5521 25.7943 42.6953 26.1589 42.8125C27.6172 43.2942 28.5937 44.6224 28.6588 46.1458C28.724 47.6172 27.8385 49.0364 26.4583 49.6484C26.1719 49.7786 25.8464 49.8567 25.5469 49.9739C25.1562 49.9739 24.7656 49.9739 24.375 49.9739C24.2708 49.9349 24.1667 49.8958 24.0625 49.8698C23.2422 49.6354 22.5521 49.2057 22.0312 48.5286C20.4948 46.5104 21.3932 43.6328 23.8021 42.7995C23.9583 42.7474 24.1927 42.6041 24.2057 42.4869C24.2448 41.8489 24.2187 41.1979 24.2187 40.5338C20.4818 40.2994 17.2656 38.9583 14.5573 36.5495C13.2292 37.8776 11.9401 39.1666 10.651 40.4557C12.3307 43.112 11.1979 45.638 9.71354 46.8099C7.90364 48.2291 5.3776 48.151 3.67187 46.6015C1.99219 45.0781 1.65364 42.5781 2.86458 40.664C3.47656 39.7135 4.32292 39.0494 5.39063 38.7109C6.875 38.2422 8.26823 38.5156 9.49219 39.3229C10.8203 37.9948 12.0964 36.7187 13.4115 35.4036C10.9896 32.6953 9.66146 29.4661 9.42708 25.7812C8.84115 25.7812 8.29427 25.8073 7.77344 25.7682C7.39583 25.7422 7.2526 25.8724 7.1224 26.237C6.61458 27.7734 5.11719 28.789 3.54167 28.737C1.90104 28.6718 0.520829 27.5781 0.0781202 25.9896C0.0390577 25.8724 0 25.7552 -0.0390625 25.625C0 25.2474 -1.5907e-06 24.8567 -1.5907e-06 24.4661ZM10.9375 25.0651C10.9505 32.7994 17.2656 39.0885 25.026 39.0755C32.7734 39.0625 39.0755 32.7604 39.0625 25.013C39.0495 17.2786 32.7344 10.9896 24.974 11.0026C17.2266 11.0286 10.9245 17.3307 10.9375 25.0651ZM39.9479 6.88799C39.9349 8.64581 41.3411 10.1041 43.0859 10.1432C44.8698 10.1692 46.3411 8.76299 46.3672 6.97914C46.4062 5.22133 44.9349 3.73695 43.1641 3.72393C41.4193 3.71091 39.9609 5.1432 39.9479 6.88799ZM6.86198 39.9609C5.07812 39.9609 3.61979 41.4062 3.63281 43.1771C3.64583 44.9218 5.09114 46.3672 6.83594 46.3802C8.60677 46.3932 10.0651 44.9349 10.0521 43.151C10.0521 41.3932 8.61979 39.9609 6.86198 39.9609ZM48.5286 25.0781C48.5417 23.8541 47.5391 22.8385 46.3151 22.8255C45.1042 22.8125 44.0755 23.8281 44.0755 25.0521C44.0755 26.25 45.0651 27.2526 46.263 27.2786C47.487 27.3047 48.5156 26.289 48.5286 25.0781ZM24.974 48.5416C26.1979 48.5547 27.2266 47.5521 27.2266 46.3281C27.2396 45.1172 26.2109 44.0885 25 44.0885C23.8021 44.0885 22.7865 45.0781 22.7734 46.276C22.7474 47.487 23.75 48.5286 24.974 48.5416ZM24.987 1.56247C23.763 1.56247 22.7474 2.5781 22.7604 3.80206C22.7734 4.99997 23.763 5.98956 24.974 6.00258C26.1849 6.0156 27.2266 4.99997 27.2266 3.77602C27.2396 2.56508 26.224 1.56247 24.987 1.56247ZM3.71094 22.8255C2.48698 22.8125 1.47135 23.8281 1.47135 25.0521C1.47135 26.276 2.48698 27.2916 3.69792 27.2916C4.89583 27.2916 5.89844 26.3021 5.92448 25.0911C5.9375 23.8672 4.93489 22.8385 3.71094 22.8255Z" fill="#FF8343"/><path d="M17.4615 32.5521C18.386 32.5521 19.2323 32.5521 20.1308 32.5521C20.1308 32.1615 20.1177 31.7969 20.1308 31.4193C20.1438 30.9375 20.4433 30.612 20.8599 30.612C21.2766 30.612 21.5761 30.9375 21.5891 31.4193C21.6021 31.7708 21.5891 32.1354 21.5891 32.5781C21.9667 32.5781 22.3053 32.5781 22.6568 32.5781C22.8651 32.5781 23.0865 32.5651 23.2948 32.5911C23.7506 32.6432 24.037 32.9427 24.024 33.3464C24.011 33.75 23.7115 34.0365 23.2428 34.0365C21.1724 34.0495 19.1151 34.0365 17.0448 34.0365C16.9537 34.0365 16.8495 34.0365 16.7584 34.0365C16.2896 34.0104 16.0162 33.776 16.0162 33.3073C16.0162 31.6797 15.9511 30.0521 16.0552 28.4375C16.1724 26.3411 18.0865 24.5313 20.1829 24.349C20.4823 24.3229 20.7818 24.3099 21.1204 24.2839C18.2948 21.3021 19.2844 17.6432 21.2115 15.9375C23.386 13.9974 26.6542 13.9974 28.8157 15.9375C30.7297 17.6432 31.7454 21.2891 28.9068 24.2839C29.1803 24.2969 29.4146 24.3229 29.649 24.3359C32.0448 24.4922 33.9329 26.3932 33.998 28.776C34.037 30.2474 34.024 31.7318 34.011 33.2161C34.011 33.7891 33.7506 34.0365 33.1646 34.0365C31.0553 34.0365 28.9329 34.0365 26.8235 34.0365C26.3157 34.0365 26.0032 33.763 25.9901 33.3464C25.9771 32.9036 26.2896 32.6042 26.8235 32.5781C27.3443 32.5651 27.8521 32.5781 28.425 32.5781C28.425 32.1615 28.412 31.7969 28.425 31.4193C28.4381 30.9375 28.7375 30.612 29.1542 30.612C29.5709 30.612 29.8704 30.9375 29.8834 31.4193C29.8964 31.7708 29.8834 32.1354 29.8834 32.526C30.7558 32.526 31.6151 32.526 32.5136 32.526C32.5266 32.4219 32.5526 32.3047 32.5526 32.1745C32.5526 31.1328 32.5657 30.0911 32.5526 29.0495C32.5266 27.1094 31.1985 25.7812 29.2584 25.7682C26.4329 25.7552 23.5943 25.7552 20.7688 25.7682C18.8287 25.7812 17.5006 27.1224 17.4745 29.0495C17.4485 30.2214 17.4615 31.3672 17.4615 32.5521ZM25.0266 24.3099C27.3443 24.2969 29.2063 22.4219 29.2063 20.1172C29.2063 17.8125 27.3183 15.9505 25.0136 15.9375C22.6829 15.9375 20.7948 17.8255 20.8079 20.1562C20.8209 22.4609 22.7089 24.3229 25.0266 24.3099Z" fill="#FF8343"/></g><defs><clipPath id="clip0_7775_6996"><rect width="50" height="50" fill="white"/></clipPath></defs></svg>