<svg xmlns="http://www.w3.org/2000/svg" width="60" height="68" viewBox="0 0 60 68" fill="none"><path d="M30 67.9998C29.0684 67.9998 28.1988 67.7499 27.3914 67.3126L19.1304 62.3773C17.8882 61.6902 18.5093 61.4403 18.882 61.3154C20.5589 60.7532 20.8695 60.6282 22.6085 59.6285C22.7951 59.5035 23.0435 59.566 23.2296 59.691L29.5652 63.5018C29.8137 63.6267 30.1242 63.6267 30.3105 63.5018L55.0934 49.071C55.3418 48.9461 55.466 48.6962 55.466 48.3839V19.5844C55.466 19.2721 55.3418 19.0222 55.0934 18.8972L30.3105 4.52874C30.0621 4.40381 29.7516 4.40381 29.5652 4.52874L4.78242 18.8975C4.53398 19.0224 4.40977 19.3348 4.40977 19.5846V48.3839C4.40977 48.6338 4.53398 48.9461 4.78242 49.071L11.5528 53.0066C15.2175 54.8806 17.5153 52.6942 17.5153 50.5078V22.0832C17.5153 21.7083 17.8261 21.3335 18.2609 21.3335H21.4287C21.8013 21.3335 22.174 21.6459 22.174 22.0832V50.5076C22.174 55.4428 19.503 58.3164 14.8446 58.3164C13.4161 58.3164 12.2981 58.3164 9.13055 56.7547L2.60859 53.0066C0.99375 52.0693 0 50.3202 0 48.4461V19.6471C0 17.773 0.99375 16.0239 2.60859 15.0867L27.3914 0.655921C28.9441 -0.21864 31.0559 -0.21864 32.6086 0.655921L57.3914 15.0867C59.0062 16.0237 60 17.7728 60 19.6471V48.4464C60 50.3204 59.0062 52.0695 57.3914 53.0066L32.6086 67.4378C31.8012 67.8126 30.8695 68 30 68M37.6397 48.1965C26.7701 48.1965 24.5341 43.199 24.5341 38.9509C24.5341 38.5761 24.8447 38.2013 25.2795 38.2013H28.5091C28.8818 38.2013 29.1926 38.4511 29.1926 38.8259C29.6895 42.1368 31.118 43.7612 37.7018 43.7612C42.9192 43.7612 45.1554 42.5743 45.1554 39.7632C45.1554 38.1388 44.5343 36.9519 36.3975 36.1396C29.6273 35.4524 25.4037 33.9531 25.4037 28.5184C25.4037 23.4579 29.6271 20.4594 36.708 20.4594C44.6583 20.4594 48.5714 23.2081 49.0683 29.2053C49.0683 29.3928 49.0062 29.5802 48.882 29.7675C48.7577 29.8924 48.5714 30.0174 48.3851 30.0174H45.1554C44.8446 30.0174 44.5343 29.7675 44.472 29.4552C43.7266 26.0194 41.8013 24.895 36.708 24.895C30.994 24.895 30.3105 26.8939 30.3105 28.3932C30.3105 30.205 31.118 30.767 38.8198 31.7665C46.4597 32.766 50.062 34.203 50.062 39.5756C49.9999 45.073 45.528 48.1965 37.6397 48.1965Z" fill="#539E43"/></svg>