<svg xmlns="http://www.w3.org/2000/svg" width="44" height="70" viewBox="0 0 44 70" fill="none"><path d="M34.026 38.7379C31.296 38.7379 28.8498 39.9454 27.1748 41.8441L22.8812 38.8106C23.3533 37.5286 23.5962 36.1736 23.5988 34.8075C23.5988 33.4234 23.3472 32.1005 22.9042 30.8684L27.1901 27.8671C28.8646 29.7577 31.3042 30.958 34.026 30.958C39.0611 30.958 43.1605 26.8674 43.1605 21.8405C43.1605 16.812 39.0611 12.723 34.026 12.723C28.9888 12.723 24.8894 16.812 24.8894 21.8405C24.8894 22.7402 25.0261 23.607 25.2716 24.43L20.9841 27.4312C19.1546 25.1663 16.5525 23.6576 13.6779 23.1952V18.0381C17.8161 17.1708 20.9349 13.5029 20.9349 9.1175C20.9349 4.08789 16.8355 0 11.8005 0C6.76375 0 2.66383 4.08844 2.66383 9.1175C2.66383 13.4433 5.70172 17.0685 9.75625 17.9977V23.2187C4.22352 24.1883 0 29.0101 0 34.8075C0 40.6328 4.26398 45.4716 9.83937 46.4073V51.923C5.74219 52.8199 2.66437 56.467 2.66437 60.8223C2.66437 65.8514 6.7632 69.9398 11.8005 69.9398C16.8355 69.9398 20.9349 65.8514 20.9349 60.8223C20.9349 56.467 17.8566 52.8205 13.7616 51.923V46.4073C16.5814 45.9324 19.1333 44.4508 20.9437 42.2373L25.2651 45.2922C25.0172 46.1242 24.8906 46.9877 24.8894 47.8559C24.8894 52.8845 28.9888 56.9729 34.026 56.9729C39.0611 56.9729 43.1605 52.8845 43.1605 47.8559C43.1605 42.8274 39.0611 38.7379 34.026 38.7379ZM34.026 17.4185C36.4678 17.4185 38.4541 19.4037 38.4541 21.8405C38.4541 24.2758 36.4678 26.2604 34.026 26.2604C31.582 26.2604 29.5952 24.2758 29.5952 21.8405C29.5952 19.4031 31.582 17.4185 34.026 17.4185ZM7.37023 9.11695C7.37023 6.68008 9.35649 4.69766 11.8005 4.69766C14.2423 4.69766 16.2291 6.68008 16.2291 9.1175C16.2291 11.5549 14.2423 13.5373 11.8005 13.5373C9.35649 13.5373 7.37023 11.5544 7.37023 9.11695ZM16.2291 60.8223C16.2291 63.2598 14.2423 65.2422 11.8005 65.2422C9.35649 65.2422 7.37023 63.2598 7.37023 60.8223C7.37023 58.3849 9.35649 56.4025 11.8005 56.4025C14.2423 56.4025 16.2291 58.3849 16.2291 60.8223ZM11.7983 40.973C8.39344 40.973 5.62242 38.2063 5.62242 34.8075C5.62242 31.4065 8.39344 28.6404 11.7983 28.6404C15.2053 28.6404 17.9763 31.4065 17.9763 34.8075C17.9763 38.2063 15.2059 40.973 11.7983 40.973ZM34.026 52.2758C31.582 52.2758 29.5952 50.2934 29.5952 47.8559C29.5952 45.4185 31.582 43.4355 34.026 43.4355C36.4678 43.4355 38.4541 45.418 38.4541 47.8554C38.4541 50.2928 36.4678 52.2758 34.026 52.2758Z" fill="#231F20"/></svg>