<svg xmlns="http://www.w3.org/2000/svg" width="62" height="62" viewBox="0 0 62 62" fill="none"><path d="M16.6625 44.5334H12.3114V33.5071H4.33557V44.5334H0V17.4555H4.33557V28.2566H12.3114V17.4555H16.6625V44.5334ZM32.5323 44.5334H21.0645V17.4555H25.4023V39.5878H32.5323V44.5334ZM34.2373 43.4961V37.4517C34.9408 38.3076 35.8035 39.0107 36.7749 39.5196C37.6328 39.9642 38.5796 40.1978 39.5405 40.2021C40.0252 40.2132 40.5085 40.1425 40.9709 39.9928C41.3456 39.875 41.693 39.68 41.9917 39.4195C42.2599 39.184 42.4694 38.886 42.6029 38.5505C42.7416 38.206 42.8102 37.8359 42.8044 37.4631C42.8139 36.9706 42.7035 36.4834 42.4833 36.0458C42.2541 35.6131 41.9545 35.2238 41.5976 34.8947C41.1867 34.5131 40.7419 34.1719 40.269 33.8756C39.7582 33.5495 39.2076 33.2166 38.6171 32.8769C37.2417 32.1199 36.0824 31.0072 35.2536 29.6489C34.4839 28.2444 34.1012 26.651 34.1465 25.0399C34.1157 23.7978 34.3211 22.5615 34.751 21.4001C35.1113 20.45 35.6742 19.5949 36.3984 18.8977C37.089 18.2415 37.9114 17.7491 38.8076 17.4555C39.7449 17.147 40.724 16.9935 41.7083 17.0005C42.6 16.9928 43.4902 17.0774 44.3654 17.253C45.1104 17.4139 45.8307 17.6779 46.5066 18.0378V23.6841C46.1832 23.3718 45.8301 23.0937 45.4526 22.8538C45.0815 22.6159 44.6884 22.4162 44.2791 22.2577C43.8943 22.1024 43.4962 21.9844 43.09 21.9051C42.716 21.8339 42.3367 21.7959 41.9563 21.7914C41.5018 21.7862 41.0492 21.853 40.6144 21.9893C40.2432 22.1077 39.8969 22.2968 39.5936 22.5467C39.3205 22.7808 39.1005 23.0735 38.9493 23.4043C38.7948 23.7572 38.7191 24.1412 38.7279 24.5281C38.72 24.9493 38.8072 25.3666 38.9825 25.7474C39.1686 26.1257 39.414 26.47 39.7088 26.7666C40.059 27.1175 40.4409 27.4336 40.8491 27.7106C41.2935 28.02 41.7998 28.3378 42.3681 28.6638C43.0958 29.0871 43.7889 29.5702 44.4407 30.1084C45.0436 30.6046 45.5751 31.1859 46.0195 31.835C46.4694 32.5072 46.8097 33.2502 47.027 34.0348C47.2733 34.9735 47.391 35.9428 47.3769 36.9148C47.4143 38.2116 47.2059 39.5034 46.7635 40.7185C46.4069 41.6734 45.8392 42.5301 45.105 43.2208C44.4039 43.859 43.5711 44.3257 42.6693 44.5858C41.7155 44.8668 40.7275 45.0062 39.7354 44.9998C38.7194 45.0035 37.707 44.8767 36.7217 44.6222C35.834 44.4046 34.9921 44.023 34.2373 43.4961ZM62 44.5334H50.5344V17.4555H54.87V39.5878H62V44.5334Z" fill="#0000FF"/></svg>